<?xml version="1.0" encoding="utf-8" standalone="no"?>
<!DOCTYPE svg PUBLIC "-//W3C//DTD SVG 1.1//EN"
  "http://www.w3.org/Graphics/SVG/1.1/DTD/svg11.dtd">
<svg xmlns:xlink="http://www.w3.org/1999/xlink" width="864pt" height="360pt" viewBox="0 0 864 360" xmlns="http://www.w3.org/2000/svg" version="1.1">
 <metadata>
  <rdf:RDF xmlns:dc="http://purl.org/dc/elements/1.1/" xmlns:cc="http://creativecommons.org/ns#" xmlns:rdf="http://www.w3.org/1999/02/22-rdf-syntax-ns#">
   <cc:Work>
    <dc:type rdf:resource="http://purl.org/dc/dcmitype/StillImage"/>
    <dc:date>2023-11-20T20:22:07.521684</dc:date>
    <dc:format>image/svg+xml</dc:format>
    <dc:creator>
     <cc:Agent>
      <dc:title>Matplotlib v3.8.2, https://matplotlib.org/</dc:title>
     </cc:Agent>
    </dc:creator>
   </cc:Work>
  </rdf:RDF>
 </metadata>
 <defs>
  <style type="text/css">*{stroke-linejoin: round; stroke-linecap: butt}</style>
 </defs>
 <g id="figure_1">
  <g id="patch_1">
   <path d="M 0 360 
L 864 360 
L 864 0 
L 0 0 
L 0 360 
z
" style="fill: none; opacity: 0"/>
  </g>
  <g id="axes_1">
   <g id="patch_2">
    <path d="M 108 320.4 
L 777.6 320.4 
L 777.6 43.2 
L 108 43.2 
L 108 320.4 
z
" style="fill: none; opacity: 0"/>
   </g>
   <g id="matplotlib.axis_1">
    <g id="xtick_1">
     <g id="line2d_1">
      <path d="M 121.945519 320.4 
L 121.945519 43.2 
" clip-path="url(#p2acefe9b38)" style="fill: none; stroke-dasharray: 5.12,1.28,0.8,1.28; stroke-dashoffset: 0; stroke: #b0b0b0; stroke-width: 0.8"/>
     </g>
     <g id="line2d_2">
      <defs>
       <path id="mb4e9dfbdd0" d="M 0 0 
L 0 3.5 
" style="stroke: #a9a9a9; stroke-width: 0.8"/>
      </defs>
      <g>
       <use xlink:href="#mb4e9dfbdd0" x="121.945519" y="320.4" style="fill: #a9a9a9; stroke: #a9a9a9; stroke-width: 0.8"/>
      </g>
     </g>
     <g id="text_1">
      <!-- 2021-07 -->
      <g style="fill: #a9a9a9" transform="translate(101.054113 334.998438) scale(0.1 -0.1)">
       <defs>
        <path id="DejaVuSans-32" d="M 1228 531 
L 3431 531 
L 3431 0 
L 469 0 
L 469 531 
Q 828 903 1448 1529 
Q 2069 2156 2228 2338 
Q 2531 2678 2651 2914 
Q 2772 3150 2772 3378 
Q 2772 3750 2511 3984 
Q 2250 4219 1831 4219 
Q 1534 4219 1204 4116 
Q 875 4013 500 3803 
L 500 4441 
Q 881 4594 1212 4672 
Q 1544 4750 1819 4750 
Q 2544 4750 2975 4387 
Q 3406 4025 3406 3419 
Q 3406 3131 3298 2873 
Q 3191 2616 2906 2266 
Q 2828 2175 2409 1742 
Q 1991 1309 1228 531 
z
" transform="scale(0.015625)"/>
        <path id="DejaVuSans-30" d="M 2034 4250 
Q 1547 4250 1301 3770 
Q 1056 3291 1056 2328 
Q 1056 1369 1301 889 
Q 1547 409 2034 409 
Q 2525 409 2770 889 
Q 3016 1369 3016 2328 
Q 3016 3291 2770 3770 
Q 2525 4250 2034 4250 
z
M 2034 4750 
Q 2819 4750 3233 4129 
Q 3647 3509 3647 2328 
Q 3647 1150 3233 529 
Q 2819 -91 2034 -91 
Q 1250 -91 836 529 
Q 422 1150 422 2328 
Q 422 3509 836 4129 
Q 1250 4750 2034 4750 
z
" transform="scale(0.015625)"/>
        <path id="DejaVuSans-31" d="M 794 531 
L 1825 531 
L 1825 4091 
L 703 3866 
L 703 4441 
L 1819 4666 
L 2450 4666 
L 2450 531 
L 3481 531 
L 3481 0 
L 794 0 
L 794 531 
z
" transform="scale(0.015625)"/>
        <path id="DejaVuSans-2d" d="M 313 2009 
L 1997 2009 
L 1997 1497 
L 313 1497 
L 313 2009 
z
" transform="scale(0.015625)"/>
        <path id="DejaVuSans-37" d="M 525 4666 
L 3525 4666 
L 3525 4397 
L 1831 0 
L 1172 0 
L 2766 4134 
L 525 4134 
L 525 4666 
z
" transform="scale(0.015625)"/>
       </defs>
       <use xlink:href="#DejaVuSans-32"/>
       <use xlink:href="#DejaVuSans-30" x="63.623047"/>
       <use xlink:href="#DejaVuSans-32" x="127.246094"/>
       <use xlink:href="#DejaVuSans-31" x="190.869141"/>
       <use xlink:href="#DejaVuSans-2d" x="254.492188"/>
       <use xlink:href="#DejaVuSans-30" x="290.576172"/>
       <use xlink:href="#DejaVuSans-37" x="354.199219"/>
      </g>
     </g>
    </g>
    <g id="xtick_2">
     <g id="line2d_3">
      <path d="M 187.908898 320.4 
L 187.908898 43.2 
" clip-path="url(#p2acefe9b38)" style="fill: none; stroke-dasharray: 5.12,1.28,0.8,1.28; stroke-dashoffset: 0; stroke: #b0b0b0; stroke-width: 0.8"/>
     </g>
     <g id="line2d_4">
      <g>
       <use xlink:href="#mb4e9dfbdd0" x="187.908898" y="320.4" style="fill: #a9a9a9; stroke: #a9a9a9; stroke-width: 0.8"/>
      </g>
     </g>
     <g id="text_2">
      <!-- 2021-10 -->
      <g style="fill: #a9a9a9" transform="translate(167.017492 334.998438) scale(0.1 -0.1)">
       <use xlink:href="#DejaVuSans-32"/>
       <use xlink:href="#DejaVuSans-30" x="63.623047"/>
       <use xlink:href="#DejaVuSans-32" x="127.246094"/>
       <use xlink:href="#DejaVuSans-31" x="190.869141"/>
       <use xlink:href="#DejaVuSans-2d" x="254.492188"/>
       <use xlink:href="#DejaVuSans-31" x="290.576172"/>
       <use xlink:href="#DejaVuSans-30" x="354.199219"/>
      </g>
     </g>
    </g>
    <g id="xtick_3">
     <g id="line2d_5">
      <path d="M 253.872278 320.4 
L 253.872278 43.2 
" clip-path="url(#p2acefe9b38)" style="fill: none; stroke-dasharray: 5.12,1.28,0.8,1.28; stroke-dashoffset: 0; stroke: #b0b0b0; stroke-width: 0.8"/>
     </g>
     <g id="line2d_6">
      <g>
       <use xlink:href="#mb4e9dfbdd0" x="253.872278" y="320.4" style="fill: #a9a9a9; stroke: #a9a9a9; stroke-width: 0.8"/>
      </g>
     </g>
     <g id="text_3">
      <!-- 2022-01 -->
      <g style="fill: #a9a9a9" transform="translate(232.980871 334.998438) scale(0.1 -0.1)">
       <use xlink:href="#DejaVuSans-32"/>
       <use xlink:href="#DejaVuSans-30" x="63.623047"/>
       <use xlink:href="#DejaVuSans-32" x="127.246094"/>
       <use xlink:href="#DejaVuSans-32" x="190.869141"/>
       <use xlink:href="#DejaVuSans-2d" x="254.492188"/>
       <use xlink:href="#DejaVuSans-30" x="290.576172"/>
       <use xlink:href="#DejaVuSans-31" x="354.199219"/>
      </g>
     </g>
    </g>
    <g id="xtick_4">
     <g id="line2d_7">
      <path d="M 318.40167 320.4 
L 318.40167 43.2 
" clip-path="url(#p2acefe9b38)" style="fill: none; stroke-dasharray: 5.12,1.28,0.8,1.28; stroke-dashoffset: 0; stroke: #b0b0b0; stroke-width: 0.8"/>
     </g>
     <g id="line2d_8">
      <g>
       <use xlink:href="#mb4e9dfbdd0" x="318.40167" y="320.4" style="fill: #a9a9a9; stroke: #a9a9a9; stroke-width: 0.8"/>
      </g>
     </g>
     <g id="text_4">
      <!-- 2022-04 -->
      <g style="fill: #a9a9a9" transform="translate(297.510264 334.998438) scale(0.1 -0.1)">
       <defs>
        <path id="DejaVuSans-34" d="M 2419 4116 
L 825 1625 
L 2419 1625 
L 2419 4116 
z
M 2253 4666 
L 3047 4666 
L 3047 1625 
L 3713 1625 
L 3713 1100 
L 3047 1100 
L 3047 0 
L 2419 0 
L 2419 1100 
L 313 1100 
L 313 1709 
L 2253 4666 
z
" transform="scale(0.015625)"/>
       </defs>
       <use xlink:href="#DejaVuSans-32"/>
       <use xlink:href="#DejaVuSans-30" x="63.623047"/>
       <use xlink:href="#DejaVuSans-32" x="127.246094"/>
       <use xlink:href="#DejaVuSans-32" x="190.869141"/>
       <use xlink:href="#DejaVuSans-2d" x="254.492188"/>
       <use xlink:href="#DejaVuSans-30" x="290.576172"/>
       <use xlink:href="#DejaVuSans-34" x="354.199219"/>
      </g>
     </g>
    </g>
    <g id="xtick_5">
     <g id="line2d_9">
      <path d="M 383.648057 320.4 
L 383.648057 43.2 
" clip-path="url(#p2acefe9b38)" style="fill: none; stroke-dasharray: 5.12,1.28,0.8,1.28; stroke-dashoffset: 0; stroke: #b0b0b0; stroke-width: 0.8"/>
     </g>
     <g id="line2d_10">
      <g>
       <use xlink:href="#mb4e9dfbdd0" x="383.648057" y="320.4" style="fill: #a9a9a9; stroke: #a9a9a9; stroke-width: 0.8"/>
      </g>
     </g>
     <g id="text_5">
      <!-- 2022-07 -->
      <g style="fill: #a9a9a9" transform="translate(362.75665 334.998438) scale(0.1 -0.1)">
       <use xlink:href="#DejaVuSans-32"/>
       <use xlink:href="#DejaVuSans-30" x="63.623047"/>
       <use xlink:href="#DejaVuSans-32" x="127.246094"/>
       <use xlink:href="#DejaVuSans-32" x="190.869141"/>
       <use xlink:href="#DejaVuSans-2d" x="254.492188"/>
       <use xlink:href="#DejaVuSans-30" x="290.576172"/>
       <use xlink:href="#DejaVuSans-37" x="354.199219"/>
      </g>
     </g>
    </g>
    <g id="xtick_6">
     <g id="line2d_11">
      <path d="M 449.611436 320.4 
L 449.611436 43.2 
" clip-path="url(#p2acefe9b38)" style="fill: none; stroke-dasharray: 5.12,1.28,0.8,1.28; stroke-dashoffset: 0; stroke: #b0b0b0; stroke-width: 0.8"/>
     </g>
     <g id="line2d_12">
      <g>
       <use xlink:href="#mb4e9dfbdd0" x="449.611436" y="320.4" style="fill: #a9a9a9; stroke: #a9a9a9; stroke-width: 0.8"/>
      </g>
     </g>
     <g id="text_6">
      <!-- 2022-10 -->
      <g style="fill: #a9a9a9" transform="translate(428.72003 334.998438) scale(0.1 -0.1)">
       <use xlink:href="#DejaVuSans-32"/>
       <use xlink:href="#DejaVuSans-30" x="63.623047"/>
       <use xlink:href="#DejaVuSans-32" x="127.246094"/>
       <use xlink:href="#DejaVuSans-32" x="190.869141"/>
       <use xlink:href="#DejaVuSans-2d" x="254.492188"/>
       <use xlink:href="#DejaVuSans-31" x="290.576172"/>
       <use xlink:href="#DejaVuSans-30" x="354.199219"/>
      </g>
     </g>
    </g>
    <g id="xtick_7">
     <g id="line2d_13">
      <path d="M 515.574815 320.4 
L 515.574815 43.2 
" clip-path="url(#p2acefe9b38)" style="fill: none; stroke-dasharray: 5.12,1.28,0.8,1.28; stroke-dashoffset: 0; stroke: #b0b0b0; stroke-width: 0.8"/>
     </g>
     <g id="line2d_14">
      <g>
       <use xlink:href="#mb4e9dfbdd0" x="515.574815" y="320.4" style="fill: #a9a9a9; stroke: #a9a9a9; stroke-width: 0.8"/>
      </g>
     </g>
     <g id="text_7">
      <!-- 2023-01 -->
      <g style="fill: #a9a9a9" transform="translate(494.683409 334.998438) scale(0.1 -0.1)">
       <defs>
        <path id="DejaVuSans-33" d="M 2597 2516 
Q 3050 2419 3304 2112 
Q 3559 1806 3559 1356 
Q 3559 666 3084 287 
Q 2609 -91 1734 -91 
Q 1441 -91 1130 -33 
Q 819 25 488 141 
L 488 750 
Q 750 597 1062 519 
Q 1375 441 1716 441 
Q 2309 441 2620 675 
Q 2931 909 2931 1356 
Q 2931 1769 2642 2001 
Q 2353 2234 1838 2234 
L 1294 2234 
L 1294 2753 
L 1863 2753 
Q 2328 2753 2575 2939 
Q 2822 3125 2822 3475 
Q 2822 3834 2567 4026 
Q 2313 4219 1838 4219 
Q 1578 4219 1281 4162 
Q 984 4106 628 3988 
L 628 4550 
Q 988 4650 1302 4700 
Q 1616 4750 1894 4750 
Q 2613 4750 3031 4423 
Q 3450 4097 3450 3541 
Q 3450 3153 3228 2886 
Q 3006 2619 2597 2516 
z
" transform="scale(0.015625)"/>
       </defs>
       <use xlink:href="#DejaVuSans-32"/>
       <use xlink:href="#DejaVuSans-30" x="63.623047"/>
       <use xlink:href="#DejaVuSans-32" x="127.246094"/>
       <use xlink:href="#DejaVuSans-33" x="190.869141"/>
       <use xlink:href="#DejaVuSans-2d" x="254.492188"/>
       <use xlink:href="#DejaVuSans-30" x="290.576172"/>
       <use xlink:href="#DejaVuSans-31" x="354.199219"/>
      </g>
     </g>
    </g>
    <g id="xtick_8">
     <g id="line2d_15">
      <path d="M 580.104208 320.4 
L 580.104208 43.2 
" clip-path="url(#p2acefe9b38)" style="fill: none; stroke-dasharray: 5.12,1.28,0.8,1.28; stroke-dashoffset: 0; stroke: #b0b0b0; stroke-width: 0.8"/>
     </g>
     <g id="line2d_16">
      <g>
       <use xlink:href="#mb4e9dfbdd0" x="580.104208" y="320.4" style="fill: #a9a9a9; stroke: #a9a9a9; stroke-width: 0.8"/>
      </g>
     </g>
     <g id="text_8">
      <!-- 2023-04 -->
      <g style="fill: #a9a9a9" transform="translate(559.212802 334.998438) scale(0.1 -0.1)">
       <use xlink:href="#DejaVuSans-32"/>
       <use xlink:href="#DejaVuSans-30" x="63.623047"/>
       <use xlink:href="#DejaVuSans-32" x="127.246094"/>
       <use xlink:href="#DejaVuSans-33" x="190.869141"/>
       <use xlink:href="#DejaVuSans-2d" x="254.492188"/>
       <use xlink:href="#DejaVuSans-30" x="290.576172"/>
       <use xlink:href="#DejaVuSans-34" x="354.199219"/>
      </g>
     </g>
    </g>
    <g id="xtick_9">
     <g id="line2d_17">
      <path d="M 645.350594 320.4 
L 645.350594 43.2 
" clip-path="url(#p2acefe9b38)" style="fill: none; stroke-dasharray: 5.12,1.28,0.8,1.28; stroke-dashoffset: 0; stroke: #b0b0b0; stroke-width: 0.8"/>
     </g>
     <g id="line2d_18">
      <g>
       <use xlink:href="#mb4e9dfbdd0" x="645.350594" y="320.4" style="fill: #a9a9a9; stroke: #a9a9a9; stroke-width: 0.8"/>
      </g>
     </g>
     <g id="text_9">
      <!-- 2023-07 -->
      <g style="fill: #a9a9a9" transform="translate(624.459188 334.998438) scale(0.1 -0.1)">
       <use xlink:href="#DejaVuSans-32"/>
       <use xlink:href="#DejaVuSans-30" x="63.623047"/>
       <use xlink:href="#DejaVuSans-32" x="127.246094"/>
       <use xlink:href="#DejaVuSans-33" x="190.869141"/>
       <use xlink:href="#DejaVuSans-2d" x="254.492188"/>
       <use xlink:href="#DejaVuSans-30" x="290.576172"/>
       <use xlink:href="#DejaVuSans-37" x="354.199219"/>
      </g>
     </g>
    </g>
    <g id="xtick_10">
     <g id="line2d_19">
      <path d="M 711.313974 320.4 
L 711.313974 43.2 
" clip-path="url(#p2acefe9b38)" style="fill: none; stroke-dasharray: 5.12,1.28,0.8,1.28; stroke-dashoffset: 0; stroke: #b0b0b0; stroke-width: 0.8"/>
     </g>
     <g id="line2d_20">
      <g>
       <use xlink:href="#mb4e9dfbdd0" x="711.313974" y="320.4" style="fill: #a9a9a9; stroke: #a9a9a9; stroke-width: 0.8"/>
      </g>
     </g>
     <g id="text_10">
      <!-- 2023-10 -->
      <g style="fill: #a9a9a9" transform="translate(690.422567 334.998438) scale(0.1 -0.1)">
       <use xlink:href="#DejaVuSans-32"/>
       <use xlink:href="#DejaVuSans-30" x="63.623047"/>
       <use xlink:href="#DejaVuSans-32" x="127.246094"/>
       <use xlink:href="#DejaVuSans-33" x="190.869141"/>
       <use xlink:href="#DejaVuSans-2d" x="254.492188"/>
       <use xlink:href="#DejaVuSans-31" x="290.576172"/>
       <use xlink:href="#DejaVuSans-30" x="354.199219"/>
      </g>
     </g>
    </g>
    <g id="xtick_11">
     <g id="line2d_21">
      <path d="M 777.277353 320.4 
L 777.277353 43.2 
" clip-path="url(#p2acefe9b38)" style="fill: none; stroke-dasharray: 5.12,1.28,0.8,1.28; stroke-dashoffset: 0; stroke: #b0b0b0; stroke-width: 0.8"/>
     </g>
     <g id="line2d_22">
      <g>
       <use xlink:href="#mb4e9dfbdd0" x="777.277353" y="320.4" style="fill: #a9a9a9; stroke: #a9a9a9; stroke-width: 0.8"/>
      </g>
     </g>
     <g id="text_11">
      <!-- 2024-01 -->
      <g style="fill: #a9a9a9" transform="translate(756.385947 334.998438) scale(0.1 -0.1)">
       <use xlink:href="#DejaVuSans-32"/>
       <use xlink:href="#DejaVuSans-30" x="63.623047"/>
       <use xlink:href="#DejaVuSans-32" x="127.246094"/>
       <use xlink:href="#DejaVuSans-34" x="190.869141"/>
       <use xlink:href="#DejaVuSans-2d" x="254.492188"/>
       <use xlink:href="#DejaVuSans-30" x="290.576172"/>
       <use xlink:href="#DejaVuSans-31" x="354.199219"/>
      </g>
     </g>
    </g>
   </g>
   <g id="matplotlib.axis_2">
    <g id="ytick_1">
     <g id="line2d_23">
      <path d="M 108 307.848828 
L 777.6 307.848828 
" clip-path="url(#p2acefe9b38)" style="fill: none; stroke-dasharray: 5.12,1.28,0.8,1.28; stroke-dashoffset: 0; stroke: #b0b0b0; stroke-width: 0.8"/>
     </g>
     <g id="line2d_24">
      <defs>
       <path id="m3c59ef45d0" d="M 0 0 
L -3.5 0 
" style="stroke: #a9a9a9; stroke-width: 0.8"/>
      </defs>
      <g>
       <use xlink:href="#m3c59ef45d0" x="108" y="307.848828" style="fill: #a9a9a9; stroke: #a9a9a9; stroke-width: 0.8"/>
      </g>
     </g>
     <g id="text_12">
      <!-- 0 -->
      <g style="fill: #a9a9a9" transform="translate(94.6375 311.648046) scale(0.1 -0.1)">
       <use xlink:href="#DejaVuSans-30"/>
      </g>
     </g>
    </g>
    <g id="ytick_2">
     <g id="line2d_25">
      <path d="M 108 278.55218 
L 777.6 278.55218 
" clip-path="url(#p2acefe9b38)" style="fill: none; stroke-dasharray: 5.12,1.28,0.8,1.28; stroke-dashoffset: 0; stroke: #b0b0b0; stroke-width: 0.8"/>
     </g>
     <g id="line2d_26">
      <g>
       <use xlink:href="#m3c59ef45d0" x="108" y="278.55218" style="fill: #a9a9a9; stroke: #a9a9a9; stroke-width: 0.8"/>
      </g>
     </g>
     <g id="text_13">
      <!-- 600 -->
      <g style="fill: #a9a9a9" transform="translate(81.9125 282.351399) scale(0.1 -0.1)">
       <defs>
        <path id="DejaVuSans-36" d="M 2113 2584 
Q 1688 2584 1439 2293 
Q 1191 2003 1191 1497 
Q 1191 994 1439 701 
Q 1688 409 2113 409 
Q 2538 409 2786 701 
Q 3034 994 3034 1497 
Q 3034 2003 2786 2293 
Q 2538 2584 2113 2584 
z
M 3366 4563 
L 3366 3988 
Q 3128 4100 2886 4159 
Q 2644 4219 2406 4219 
Q 1781 4219 1451 3797 
Q 1122 3375 1075 2522 
Q 1259 2794 1537 2939 
Q 1816 3084 2150 3084 
Q 2853 3084 3261 2657 
Q 3669 2231 3669 1497 
Q 3669 778 3244 343 
Q 2819 -91 2113 -91 
Q 1303 -91 875 529 
Q 447 1150 447 2328 
Q 447 3434 972 4092 
Q 1497 4750 2381 4750 
Q 2619 4750 2861 4703 
Q 3103 4656 3366 4563 
z
" transform="scale(0.015625)"/>
       </defs>
       <use xlink:href="#DejaVuSans-36"/>
       <use xlink:href="#DejaVuSans-30" x="63.623047"/>
       <use xlink:href="#DejaVuSans-30" x="127.246094"/>
      </g>
     </g>
    </g>
    <g id="ytick_3">
     <g id="line2d_27">
      <path d="M 108 249.255532 
L 777.6 249.255532 
" clip-path="url(#p2acefe9b38)" style="fill: none; stroke-dasharray: 5.12,1.28,0.8,1.28; stroke-dashoffset: 0; stroke: #b0b0b0; stroke-width: 0.8"/>
     </g>
     <g id="line2d_28">
      <g>
       <use xlink:href="#m3c59ef45d0" x="108" y="249.255532" style="fill: #a9a9a9; stroke: #a9a9a9; stroke-width: 0.8"/>
      </g>
     </g>
     <g id="text_14">
      <!-- 1200 -->
      <g style="fill: #a9a9a9" transform="translate(75.55 253.054751) scale(0.1 -0.1)">
       <use xlink:href="#DejaVuSans-31"/>
       <use xlink:href="#DejaVuSans-32" x="63.623047"/>
       <use xlink:href="#DejaVuSans-30" x="127.246094"/>
       <use xlink:href="#DejaVuSans-30" x="190.869141"/>
      </g>
     </g>
    </g>
    <g id="ytick_4">
     <g id="line2d_29">
      <path d="M 108 219.958884 
L 777.6 219.958884 
" clip-path="url(#p2acefe9b38)" style="fill: none; stroke-dasharray: 5.12,1.28,0.8,1.28; stroke-dashoffset: 0; stroke: #b0b0b0; stroke-width: 0.8"/>
     </g>
     <g id="line2d_30">
      <g>
       <use xlink:href="#m3c59ef45d0" x="108" y="219.958884" style="fill: #a9a9a9; stroke: #a9a9a9; stroke-width: 0.8"/>
      </g>
     </g>
     <g id="text_15">
      <!-- 1800 -->
      <g style="fill: #a9a9a9" transform="translate(75.55 223.758103) scale(0.1 -0.1)">
       <defs>
        <path id="DejaVuSans-38" d="M 2034 2216 
Q 1584 2216 1326 1975 
Q 1069 1734 1069 1313 
Q 1069 891 1326 650 
Q 1584 409 2034 409 
Q 2484 409 2743 651 
Q 3003 894 3003 1313 
Q 3003 1734 2745 1975 
Q 2488 2216 2034 2216 
z
M 1403 2484 
Q 997 2584 770 2862 
Q 544 3141 544 3541 
Q 544 4100 942 4425 
Q 1341 4750 2034 4750 
Q 2731 4750 3128 4425 
Q 3525 4100 3525 3541 
Q 3525 3141 3298 2862 
Q 3072 2584 2669 2484 
Q 3125 2378 3379 2068 
Q 3634 1759 3634 1313 
Q 3634 634 3220 271 
Q 2806 -91 2034 -91 
Q 1263 -91 848 271 
Q 434 634 434 1313 
Q 434 1759 690 2068 
Q 947 2378 1403 2484 
z
M 1172 3481 
Q 1172 3119 1398 2916 
Q 1625 2713 2034 2713 
Q 2441 2713 2670 2916 
Q 2900 3119 2900 3481 
Q 2900 3844 2670 4047 
Q 2441 4250 2034 4250 
Q 1625 4250 1398 4047 
Q 1172 3844 1172 3481 
z
" transform="scale(0.015625)"/>
       </defs>
       <use xlink:href="#DejaVuSans-31"/>
       <use xlink:href="#DejaVuSans-38" x="63.623047"/>
       <use xlink:href="#DejaVuSans-30" x="127.246094"/>
       <use xlink:href="#DejaVuSans-30" x="190.869141"/>
      </g>
     </g>
    </g>
    <g id="ytick_5">
     <g id="line2d_31">
      <path d="M 108 190.662236 
L 777.6 190.662236 
" clip-path="url(#p2acefe9b38)" style="fill: none; stroke-dasharray: 5.12,1.28,0.8,1.28; stroke-dashoffset: 0; stroke: #b0b0b0; stroke-width: 0.8"/>
     </g>
     <g id="line2d_32">
      <g>
       <use xlink:href="#m3c59ef45d0" x="108" y="190.662236" style="fill: #a9a9a9; stroke: #a9a9a9; stroke-width: 0.8"/>
      </g>
     </g>
     <g id="text_16">
      <!-- 2400 -->
      <g style="fill: #a9a9a9" transform="translate(75.55 194.461455) scale(0.1 -0.1)">
       <use xlink:href="#DejaVuSans-32"/>
       <use xlink:href="#DejaVuSans-34" x="63.623047"/>
       <use xlink:href="#DejaVuSans-30" x="127.246094"/>
       <use xlink:href="#DejaVuSans-30" x="190.869141"/>
      </g>
     </g>
    </g>
    <g id="ytick_6">
     <g id="line2d_33">
      <path d="M 108 161.365588 
L 777.6 161.365588 
" clip-path="url(#p2acefe9b38)" style="fill: none; stroke-dasharray: 5.12,1.28,0.8,1.28; stroke-dashoffset: 0; stroke: #b0b0b0; stroke-width: 0.8"/>
     </g>
     <g id="line2d_34">
      <g>
       <use xlink:href="#m3c59ef45d0" x="108" y="161.365588" style="fill: #a9a9a9; stroke: #a9a9a9; stroke-width: 0.8"/>
      </g>
     </g>
     <g id="text_17">
      <!-- 3000 -->
      <g style="fill: #a9a9a9" transform="translate(75.55 165.164807) scale(0.1 -0.1)">
       <use xlink:href="#DejaVuSans-33"/>
       <use xlink:href="#DejaVuSans-30" x="63.623047"/>
       <use xlink:href="#DejaVuSans-30" x="127.246094"/>
       <use xlink:href="#DejaVuSans-30" x="190.869141"/>
      </g>
     </g>
    </g>
    <g id="ytick_7">
     <g id="line2d_35">
      <path d="M 108 132.06894 
L 777.6 132.06894 
" clip-path="url(#p2acefe9b38)" style="fill: none; stroke-dasharray: 5.12,1.28,0.8,1.28; stroke-dashoffset: 0; stroke: #b0b0b0; stroke-width: 0.8"/>
     </g>
     <g id="line2d_36">
      <g>
       <use xlink:href="#m3c59ef45d0" x="108" y="132.06894" style="fill: #a9a9a9; stroke: #a9a9a9; stroke-width: 0.8"/>
      </g>
     </g>
     <g id="text_18">
      <!-- 3600 -->
      <g style="fill: #a9a9a9" transform="translate(75.55 135.868159) scale(0.1 -0.1)">
       <use xlink:href="#DejaVuSans-33"/>
       <use xlink:href="#DejaVuSans-36" x="63.623047"/>
       <use xlink:href="#DejaVuSans-30" x="127.246094"/>
       <use xlink:href="#DejaVuSans-30" x="190.869141"/>
      </g>
     </g>
    </g>
    <g id="ytick_8">
     <g id="line2d_37">
      <path d="M 108 102.772292 
L 777.6 102.772292 
" clip-path="url(#p2acefe9b38)" style="fill: none; stroke-dasharray: 5.12,1.28,0.8,1.28; stroke-dashoffset: 0; stroke: #b0b0b0; stroke-width: 0.8"/>
     </g>
     <g id="line2d_38">
      <g>
       <use xlink:href="#m3c59ef45d0" x="108" y="102.772292" style="fill: #a9a9a9; stroke: #a9a9a9; stroke-width: 0.8"/>
      </g>
     </g>
     <g id="text_19">
      <!-- 4200 -->
      <g style="fill: #a9a9a9" transform="translate(75.55 106.571511) scale(0.1 -0.1)">
       <use xlink:href="#DejaVuSans-34"/>
       <use xlink:href="#DejaVuSans-32" x="63.623047"/>
       <use xlink:href="#DejaVuSans-30" x="127.246094"/>
       <use xlink:href="#DejaVuSans-30" x="190.869141"/>
      </g>
     </g>
    </g>
    <g id="ytick_9">
     <g id="line2d_39">
      <path d="M 108 73.475644 
L 777.6 73.475644 
" clip-path="url(#p2acefe9b38)" style="fill: none; stroke-dasharray: 5.12,1.28,0.8,1.28; stroke-dashoffset: 0; stroke: #b0b0b0; stroke-width: 0.8"/>
     </g>
     <g id="line2d_40">
      <g>
       <use xlink:href="#m3c59ef45d0" x="108" y="73.475644" style="fill: #a9a9a9; stroke: #a9a9a9; stroke-width: 0.8"/>
      </g>
     </g>
     <g id="text_20">
      <!-- 4800 -->
      <g style="fill: #a9a9a9" transform="translate(75.55 77.274863) scale(0.1 -0.1)">
       <use xlink:href="#DejaVuSans-34"/>
       <use xlink:href="#DejaVuSans-38" x="63.623047"/>
       <use xlink:href="#DejaVuSans-30" x="127.246094"/>
       <use xlink:href="#DejaVuSans-30" x="190.869141"/>
      </g>
     </g>
    </g>
    <g id="ytick_10">
     <g id="line2d_41">
      <path d="M 108 44.178996 
L 777.6 44.178996 
" clip-path="url(#p2acefe9b38)" style="fill: none; stroke-dasharray: 5.12,1.28,0.8,1.28; stroke-dashoffset: 0; stroke: #b0b0b0; stroke-width: 0.8"/>
     </g>
     <g id="line2d_42">
      <g>
       <use xlink:href="#m3c59ef45d0" x="108" y="44.178996" style="fill: #a9a9a9; stroke: #a9a9a9; stroke-width: 0.8"/>
      </g>
     </g>
     <g id="text_21">
      <!-- 5400 -->
      <g style="fill: #a9a9a9" transform="translate(75.55 47.978215) scale(0.1 -0.1)">
       <defs>
        <path id="DejaVuSans-35" d="M 691 4666 
L 3169 4666 
L 3169 4134 
L 1269 4134 
L 1269 2991 
Q 1406 3038 1543 3061 
Q 1681 3084 1819 3084 
Q 2600 3084 3056 2656 
Q 3513 2228 3513 1497 
Q 3513 744 3044 326 
Q 2575 -91 1722 -91 
Q 1428 -91 1123 -41 
Q 819 9 494 109 
L 494 744 
Q 775 591 1075 516 
Q 1375 441 1709 441 
Q 2250 441 2565 725 
Q 2881 1009 2881 1497 
Q 2881 1984 2565 2268 
Q 2250 2553 1709 2553 
Q 1456 2553 1204 2497 
Q 953 2441 691 2322 
L 691 4666 
z
" transform="scale(0.015625)"/>
       </defs>
       <use xlink:href="#DejaVuSans-35"/>
       <use xlink:href="#DejaVuSans-34" x="63.623047"/>
       <use xlink:href="#DejaVuSans-30" x="127.246094"/>
       <use xlink:href="#DejaVuSans-30" x="190.869141"/>
      </g>
     </g>
    </g>
   </g>
   <g id="line2d_43">
    <path d="M 138.436364 307.702345 
L 142.738323 307.36055 
L 143.455316 307.067584 
L 145.606296 306.823445 
L 150.625249 305.895718 
L 154.210215 305.553924 
L 154.927208 305.212129 
L 155.644202 305.016818 
L 156.361195 304.137919 
L 157.078188 303.649642 
L 157.795181 302.087154 
L 158.512175 301.989498 
L 159.229168 301.452393 
L 160.663155 300.768804 
L 162.097141 299.694594 
L 162.814134 299.011006 
L 164.248121 298.327417 
L 164.965114 298.034451 
L 165.682107 297.497345 
L 168.55008 296.276652 
L 169.267074 295.153614 
L 169.984067 294.567681 
L 171.418053 293.786437 
L 178.587986 292.809882 
L 179.304979 292.468088 
L 184.323932 292.077466 
L 185.757918 291.686844 
L 187.191905 291.393877 
L 192.927851 290.661461 
L 193.644844 290.270839 
L 194.361837 290.173183 
L 195.078831 289.880217 
L 196.512817 289.636078 
L 197.22981 289.587251 
L 197.946804 289.343112 
L 200.814777 288.903662 
L 202.248763 288.51304 
L 204.399743 288.317729 
L 205.83373 288.171246 
L 206.550723 287.975935 
L 207.267716 287.927107 
L 209.418696 287.292346 
L 213.720655 286.657586 
L 214.437649 286.462275 
L 215.154642 285.48572 
L 217.305622 284.704476 
L 219.456601 284.118543 
L 220.173595 283.776749 
L 220.890588 283.727921 
L 224.475554 282.751366 
L 225.909541 282.653711 
L 226.626534 282.556055 
L 228.777514 281.921294 
L 231.645487 281.237706 
L 232.36248 280.944739 
L 233.079473 280.847084 
L 233.796466 280.50529 
L 240.966399 279.431079 
L 244.551365 278.405697 
L 245.268358 277.966247 
L 248.136332 277.185003 
L 249.570318 276.354931 
L 250.287311 275.866654 
L 251.004305 275.768998 
L 251.721298 275.52486 
L 253.872278 275.134238 
L 254.589271 274.792443 
L 256.023257 274.548305 
L 256.740251 274.157683 
L 258.174237 273.718233 
L 258.89123 273.620577 
L 260.325217 273.229955 
L 261.759203 272.888161 
L 262.476197 272.790506 
L 263.910183 272.204573 
L 264.627176 272.05809 
L 265.34417 271.765123 
L 266.061163 271.667468 
L 266.778156 271.325673 
L 267.495149 271.130362 
L 268.929136 271.032707 
L 270.363122 270.544429 
L 271.797109 270.446774 
L 272.514102 270.10498 
L 275.382075 269.616702 
L 278.250048 269.372563 
L 278.967041 269.22608 
L 280.401028 268.542492 
L 288.287954 265.271033 
L 289.004947 264.880411 
L 289.72194 264.099167 
L 290.438934 262.927301 
L 291.155927 261.999574 
L 291.87292 261.804263 
L 292.589913 261.804263 
L 294.0239 260.77888 
L 294.740893 260.583569 
L 295.457886 260.192947 
L 296.17488 260.046464 
L 296.891873 259.411703 
L 297.608866 259.216392 
L 299.759846 258.191009 
L 300.476839 257.31211 
L 301.193832 256.2379 
L 301.910826 255.79845 
L 302.627819 254.626584 
L 303.344812 253.894168 
L 304.061805 253.552374 
L 304.778799 253.357063 
L 306.212785 252.478163 
L 306.929778 252.136369 
L 309.797751 250.036776 
L 310.514745 249.011393 
L 311.231738 247.35125 
L 311.948731 246.277039 
L 312.665724 245.739934 
L 313.382718 245.446968 
L 316.250691 243.00558 
L 316.967684 242.517303 
L 318.40167 241.296609 
L 319.118664 240.271227 
L 320.55265 239.050533 
L 323.420623 237.195078 
L 324.137616 236.560318 
L 324.85461 236.413835 
L 327.005589 235.290796 
L 328.439576 234.460725 
L 329.156569 234.167758 
L 330.590556 232.849409 
L 331.307549 232.019337 
L 332.741535 231.042782 
L 333.458529 230.847471 
L 334.175522 230.505677 
L 334.892515 229.968572 
L 336.326502 229.187328 
L 337.043495 229.089673 
L 338.477482 228.308429 
L 339.194475 227.917807 
L 339.911468 227.18539 
L 340.628461 226.745941 
L 341.345455 226.501802 
L 342.062448 226.013525 
L 344.930421 224.548692 
L 345.647414 223.913931 
L 348.515387 222.937376 
L 349.23238 222.449099 
L 349.949374 222.302616 
L 351.38336 221.814338 
L 353.53434 220.984267 
L 355.68532 220.203023 
L 357.119306 219.958884 
L 358.553293 218.73819 
L 359.987279 218.054602 
L 362.138259 216.833908 
L 363.572245 216.443286 
L 364.289239 216.003836 
L 365.006232 215.808525 
L 367.157212 214.441349 
L 370.742178 213.611277 
L 372.893158 212.390583 
L 373.610151 212.292928 
L 374.327144 212.048789 
L 375.761131 211.755823 
L 377.912111 210.193335 
L 380.06309 209.705057 
L 380.780084 209.460918 
L 381.497077 208.923813 
L 385.799036 207.556636 
L 386.51603 207.507809 
L 391.534982 205.75001 
L 392.251976 205.408215 
L 394.402955 204.919938 
L 395.836942 204.578144 
L 396.553935 204.23635 
L 397.270928 204.089866 
L 399.421908 203.113311 
L 401.572888 202.039101 
L 402.289881 201.550823 
L 403.006874 201.355512 
L 405.157854 200.232474 
L 406.591841 199.89068 
L 408.025827 199.158264 
L 409.459814 198.767642 
L 410.176807 198.669986 
L 410.8938 198.181709 
L 411.610793 197.839915 
L 412.327787 197.693432 
L 413.761773 197.107499 
L 414.478766 196.961015 
L 415.19576 196.570393 
L 418.063733 196.130944 
L 419.497719 195.447355 
L 420.214712 194.861422 
L 420.931706 193.640729 
L 422.365692 193.347762 
L 423.082686 193.201279 
L 425.950659 191.736446 
L 426.667652 191.589963 
L 432.403598 188.855609 
L 434.554578 188.41616 
L 435.988564 187.732571 
L 436.705557 187.439605 
L 437.422551 187.341949 
L 440.290524 186.072428 
L 441.72451 185.095873 
L 442.441503 184.754079 
L 443.158497 184.656423 
L 443.87549 184.412284 
L 444.592483 184.363457 
L 447.460456 183.43573 
L 448.177449 183.386902 
L 448.894443 182.849797 
L 450.328429 182.361519 
L 452.479409 181.677931 
L 453.196402 181.238481 
L 453.913395 181.04317 
L 454.630389 180.554892 
L 455.347382 180.261926 
L 456.064375 179.822476 
L 457.498362 179.285371 
L 459.649341 178.601783 
L 460.366335 178.259988 
L 461.083328 177.722883 
L 461.800321 176.990467 
L 462.517314 176.551017 
L 463.234308 176.404534 
L 464.668294 175.330324 
L 465.385288 175.18384 
L 466.102281 174.10963 
L 466.819274 173.816663 
L 467.536267 173.279558 
L 468.253261 173.181903 
L 468.970254 172.693625 
L 469.687247 172.351831 
L 470.40424 172.205348 
L 471.121234 171.912381 
L 471.838227 171.326448 
L 472.55522 171.08231 
L 474.7062 169.666305 
L 477.574173 168.2503 
L 478.291166 168.152645 
L 479.725153 167.517884 
L 480.442146 167.078434 
L 481.159139 165.906568 
L 481.876132 165.271808 
L 482.593126 164.881186 
L 483.310119 164.734703 
L 484.744105 163.855803 
L 485.461099 163.70932 
L 486.895085 163.025731 
L 489.046065 162.146832 
L 490.480051 161.170277 
L 491.914038 159.656617 
L 493.348024 158.777717 
L 494.065018 158.338268 
L 494.782011 157.605852 
L 495.499004 157.117574 
L 496.932991 155.945708 
L 497.649984 155.652742 
L 498.366977 154.871498 
L 499.08397 154.334393 
L 500.517957 153.846115 
L 501.23495 153.211354 
L 502.668937 152.478938 
L 503.38593 152.283627 
L 504.102923 151.746522 
L 504.819916 151.551211 
L 506.970896 150.428173 
L 507.687889 149.891068 
L 509.121876 149.305135 
L 509.838869 149.158651 
L 510.555863 148.719202 
L 514.140829 147.644991 
L 515.574815 147.059058 
L 516.291809 146.424298 
L 518.442788 145.643054 
L 519.876775 145.203604 
L 520.593768 144.666499 
L 522.744748 143.689944 
L 523.461741 143.152839 
L 524.178734 142.762217 
L 525.612721 139.979035 
L 527.046707 138.318892 
L 527.763701 137.830614 
L 529.91468 136.902887 
L 530.631674 136.658748 
L 531.348667 136.561093 
L 532.06566 136.170471 
L 534.21664 135.53571 
L 536.36762 134.705638 
L 537.801606 133.777911 
L 539.952586 132.801356 
L 543.537552 130.750591 
L 544.254545 130.018175 
L 545.688532 129.236931 
L 546.405525 128.846309 
L 547.122518 128.60217 
L 547.839512 128.113893 
L 549.273498 127.430304 
L 551.424478 126.307266 
L 552.141471 126.111955 
L 552.858465 125.57485 
L 553.575458 125.281883 
L 554.292451 125.1354 
L 555.726438 124.549467 
L 557.877417 123.768223 
L 558.594411 123.231118 
L 560.028397 122.840496 
L 561.462384 122.303391 
L 562.179377 121.717458 
L 563.613363 121.278008 
L 564.330357 120.936214 
L 565.04735 120.740903 
L 566.481336 119.764348 
L 567.915323 119.129587 
L 569.349309 118.055377 
L 570.783296 117.567099 
L 571.500289 116.981166 
L 572.217282 116.834683 
L 572.934276 116.199922 
L 574.368262 115.369851 
L 575.802249 114.783918 
L 576.519242 114.051502 
L 580.821201 112.489014 
L 582.972181 111.561287 
L 585.123161 110.926526 
L 586.557147 110.731215 
L 587.274141 110.438248 
L 587.991134 110.291765 
L 589.42512 109.705832 
L 590.142114 109.657004 
L 593.010087 108.631622 
L 595.161066 107.166789 
L 599.463026 105.067196 
L 601.614006 103.651192 
L 603.047992 103.309397 
L 604.481979 102.332842 
L 607.349952 101.453943 
L 608.066945 101.160977 
L 609.500932 100.819182 
L 613.085898 99.647316 
L 615.236878 99.256694 
L 615.953871 99.061383 
L 616.670864 98.719589 
L 617.387857 98.621934 
L 618.821844 98.036001 
L 619.538837 97.938345 
L 620.25583 97.596551 
L 621.689817 97.303585 
L 622.40681 96.96179 
L 624.55779 96.473513 
L 625.991776 96.180546 
L 635.312689 94.178609 
L 636.029682 93.983298 
L 636.746675 93.592676 
L 640.331642 92.713776 
L 641.048635 92.567293 
L 643.916608 91.493083 
L 644.633601 91.248944 
L 645.350594 91.151289 
L 647.501574 90.418872 
L 648.218567 90.418872 
L 649.652554 89.930595 
L 650.369547 89.247006 
L 651.08654 88.905212 
L 652.520527 88.465762 
L 655.3885 87.391552 
L 656.105493 87.245069 
L 656.822486 86.805619 
L 657.53948 86.659136 
L 658.256473 86.219686 
L 661.841439 85.145476 
L 662.558432 84.706026 
L 663.275426 84.510715 
L 663.992419 83.924782 
L 666.143399 83.53416 
L 667.577385 82.752916 
L 668.294378 81.971672 
L 669.728365 81.678706 
L 674.030324 80.702151 
L 675.464311 80.311529 
L 676.898297 80.262701 
L 677.615291 79.920907 
L 680.483264 79.432629 
L 681.200257 79.090835 
L 683.351237 78.797869 
L 684.785223 78.260763 
L 685.502217 77.918969 
L 686.21921 77.870141 
L 688.37019 77.381864 
L 690.521169 76.844759 
L 693.389142 75.965859 
L 694.106136 75.819376 
L 694.823129 75.477582 
L 695.540122 75.379926 
L 696.257115 75.135788 
L 696.974109 74.696338 
L 699.125088 73.915094 
L 699.842082 73.377989 
L 701.276068 72.987367 
L 701.993061 72.6944 
L 703.427048 72.303778 
L 706.295021 70.985429 
L 708.446001 70.838946 
L 711.313974 69.960047 
L 712.030967 69.520597 
L 713.464953 69.081147 
L 715.615933 68.006937 
L 716.332926 67.860453 
L 717.04992 67.518659 
L 717.766913 67.421004 
L 719.200899 66.883898 
L 719.917893 66.542104 
L 720.634886 66.395621 
L 721.351879 66.053827 
L 722.785866 65.663205 
L 723.502859 65.321411 
L 729.238805 63.80775 
L 730.672792 63.124162 
L 732.823771 62.587057 
L 733.540765 62.049952 
L 734.257758 61.708157 
L 734.974751 60.878086 
L 735.691744 60.34098 
L 737.125731 59.852703 
L 737.842724 59.26677 
L 746.446643 55.848828 
L 747.163636 55.8 
L 747.163636 55.8 
" clip-path="url(#p2acefe9b38)" style="fill: none; stroke: #1f77b4; stroke-width: 1.5; stroke-linecap: square"/>
   </g>
   <g id="line2d_44">
    <path d="M 139.153357 307.8 
L 141.304337 307.702345 
L 143.455316 307.653517 
L 147.757276 307.555861 
L 151.342242 307.409378 
L 154.210215 307.409378 
L 154.927208 307.214067 
L 157.078188 307.165239 
L 161.380148 306.676962 
L 172.135047 306.042201 
L 177.870993 305.944546 
L 181.455959 305.798062 
L 190.059878 305.700407 
L 193.644844 305.553924 
L 197.946804 305.456268 
L 200.814777 305.358613 
L 207.267716 305.260957 
L 209.418696 305.212129 
L 211.569676 305.163302 
L 213.720655 304.919163 
L 218.022615 304.870335 
L 219.456601 304.77268 
L 224.475554 304.675024 
L 232.36248 304.235575 
L 237.381433 304.137919 
L 238.815419 304.040264 
L 240.966399 303.942608 
L 245.268358 303.747297 
L 248.136332 303.698469 
L 250.287311 303.503158 
L 261.759203 302.81957 
L 264.627176 302.721914 
L 269.646129 302.477776 
L 271.797109 302.38012 
L 278.967041 301.989498 
L 286.853967 301.891843 
L 289.72194 301.598876 
L 291.155927 301.501221 
L 300.476839 300.768804 
L 304.778799 300.231699 
L 307.646772 300.134044 
L 313.382718 299.401628 
L 316.967684 299.303972 
L 326.288596 298.571556 
L 330.590556 298.083278 
L 332.741535 298.034451 
L 334.175522 297.936795 
L 337.043495 297.83914 
L 338.477482 297.741484 
L 342.062448 297.39969 
L 342.779441 297.204379 
L 347.081401 297.009068 
L 350.666367 296.911413 
L 359.987279 296.374307 
L 362.138259 296.276652 
L 371.459171 295.739547 
L 376.478124 295.641891 
L 377.195117 295.495408 
L 382.931063 295.397752 
L 387.950016 295.153614 
L 395.836942 295.055958 
L 400.855895 294.811819 
L 406.591841 294.714164 
L 413.04478 294.37237 
L 417.346739 294.274714 
L 430.969611 293.444643 
L 436.705557 293.346987 
L 440.290524 293.005193 
L 441.72451 292.85871 
L 445.309476 292.809882 
L 448.177449 292.516915 
L 455.347382 292.126293 
L 459.649341 292.028638 
L 461.800321 291.97981 
L 463.951301 291.930982 
L 466.102281 291.735671 
L 471.838227 291.638016 
L 473.272213 291.393877 
L 474.7062 291.296222 
L 477.574173 291.198566 
L 479.725153 291.100911 
L 481.159139 291.003255 
L 487.612078 290.9056 
L 489.046065 290.759116 
L 491.914038 290.661461 
L 492.631031 290.514978 
L 494.065018 290.46615 
L 494.782011 290.319667 
L 496.932991 290.222011 
L 509.121876 289.489595 
L 511.272856 289.39194 
L 514.857822 289.245456 
L 524.895728 289.147801 
L 529.91468 288.903662 
L 535.650626 288.806007 
L 538.518599 288.708351 
L 541.386572 288.659523 
L 542.820559 288.51304 
L 545.688532 288.415385 
L 552.858465 288.024763 
L 557.160424 287.975935 
L 559.311404 287.780624 
L 561.462384 287.731796 
L 566.481336 287.634141 
L 569.349309 287.536485 
L 577.953228 287.43883 
L 581.538195 287.292346 
L 585.840154 287.194691 
L 587.991134 286.950552 
L 592.293093 286.901724 
L 593.010087 286.755241 
L 594.444073 286.657586 
L 597.312046 286.55993 
L 605.915965 286.462275 
L 609.500932 286.315792 
L 621.689817 286.266964 
L 623.123803 286.169308 
L 625.274783 286.120481 
L 634.595695 286.022825 
L 636.029682 285.92517 
L 643.916608 285.827514 
L 646.784581 285.729859 
L 655.3885 285.681031 
L 656.822486 285.583375 
L 667.577385 285.534548 
L 669.728365 285.339237 
L 681.91725 285.241581 
L 684.06823 285.192753 
L 702.710055 285.095098 
L 705.578028 284.997442 
L 718.483906 284.899787 
L 719.917893 284.753304 
L 726.370832 284.655648 
L 734.257758 284.216198 
L 738.559717 284.118543 
L 741.42769 284.020887 
L 745.012657 283.97206 
L 746.446643 283.874404 
L 747.163636 283.874404 
L 747.163636 283.874404 
" clip-path="url(#p2acefe9b38)" style="fill: none; stroke: #ff7f0e; stroke-width: 1.5; stroke-linecap: square"/>
   </g>
   <g id="patch_3">
    <path d="M 108 320.4 
L 108 43.2 
" style="fill: none; stroke: #a9a9a9; stroke-width: 0.8; stroke-linejoin: miter; stroke-linecap: square"/>
   </g>
   <g id="patch_4">
    <path d="M 777.6 320.4 
L 777.6 43.2 
" style="fill: none"/>
   </g>
   <g id="patch_5">
    <path d="M 108 320.4 
L 777.6 320.4 
" style="fill: none; stroke: #a9a9a9; stroke-width: 0.8; stroke-linejoin: miter; stroke-linecap: square"/>
   </g>
   <g id="patch_6">
    <path d="M 108 43.2 
L 777.6 43.2 
" style="fill: none"/>
   </g>
   <g id="text_22">
    <!-- get_subscribe history -->
    <g style="fill: #a9a9a9" transform="translate(378.6075 37.2) scale(0.12 -0.12)">
     <defs>
      <path id="DejaVuSans-67" d="M 2906 1791 
Q 2906 2416 2648 2759 
Q 2391 3103 1925 3103 
Q 1463 3103 1205 2759 
Q 947 2416 947 1791 
Q 947 1169 1205 825 
Q 1463 481 1925 481 
Q 2391 481 2648 825 
Q 2906 1169 2906 1791 
z
M 3481 434 
Q 3481 -459 3084 -895 
Q 2688 -1331 1869 -1331 
Q 1566 -1331 1297 -1286 
Q 1028 -1241 775 -1147 
L 775 -588 
Q 1028 -725 1275 -790 
Q 1522 -856 1778 -856 
Q 2344 -856 2625 -561 
Q 2906 -266 2906 331 
L 2906 616 
Q 2728 306 2450 153 
Q 2172 0 1784 0 
Q 1141 0 747 490 
Q 353 981 353 1791 
Q 353 2603 747 3093 
Q 1141 3584 1784 3584 
Q 2172 3584 2450 3431 
Q 2728 3278 2906 2969 
L 2906 3500 
L 3481 3500 
L 3481 434 
z
" transform="scale(0.015625)"/>
      <path id="DejaVuSans-65" d="M 3597 1894 
L 3597 1613 
L 953 1613 
Q 991 1019 1311 708 
Q 1631 397 2203 397 
Q 2534 397 2845 478 
Q 3156 559 3463 722 
L 3463 178 
Q 3153 47 2828 -22 
Q 2503 -91 2169 -91 
Q 1331 -91 842 396 
Q 353 884 353 1716 
Q 353 2575 817 3079 
Q 1281 3584 2069 3584 
Q 2775 3584 3186 3129 
Q 3597 2675 3597 1894 
z
M 3022 2063 
Q 3016 2534 2758 2815 
Q 2500 3097 2075 3097 
Q 1594 3097 1305 2825 
Q 1016 2553 972 2059 
L 3022 2063 
z
" transform="scale(0.015625)"/>
      <path id="DejaVuSans-74" d="M 1172 4494 
L 1172 3500 
L 2356 3500 
L 2356 3053 
L 1172 3053 
L 1172 1153 
Q 1172 725 1289 603 
Q 1406 481 1766 481 
L 2356 481 
L 2356 0 
L 1766 0 
Q 1100 0 847 248 
Q 594 497 594 1153 
L 594 3053 
L 172 3053 
L 172 3500 
L 594 3500 
L 594 4494 
L 1172 4494 
z
" transform="scale(0.015625)"/>
      <path id="DejaVuSans-5f" d="M 3263 -1063 
L 3263 -1509 
L -63 -1509 
L -63 -1063 
L 3263 -1063 
z
" transform="scale(0.015625)"/>
      <path id="DejaVuSans-73" d="M 2834 3397 
L 2834 2853 
Q 2591 2978 2328 3040 
Q 2066 3103 1784 3103 
Q 1356 3103 1142 2972 
Q 928 2841 928 2578 
Q 928 2378 1081 2264 
Q 1234 2150 1697 2047 
L 1894 2003 
Q 2506 1872 2764 1633 
Q 3022 1394 3022 966 
Q 3022 478 2636 193 
Q 2250 -91 1575 -91 
Q 1294 -91 989 -36 
Q 684 19 347 128 
L 347 722 
Q 666 556 975 473 
Q 1284 391 1588 391 
Q 1994 391 2212 530 
Q 2431 669 2431 922 
Q 2431 1156 2273 1281 
Q 2116 1406 1581 1522 
L 1381 1569 
Q 847 1681 609 1914 
Q 372 2147 372 2553 
Q 372 3047 722 3315 
Q 1072 3584 1716 3584 
Q 2034 3584 2315 3537 
Q 2597 3491 2834 3397 
z
" transform="scale(0.015625)"/>
      <path id="DejaVuSans-75" d="M 544 1381 
L 544 3500 
L 1119 3500 
L 1119 1403 
Q 1119 906 1312 657 
Q 1506 409 1894 409 
Q 2359 409 2629 706 
Q 2900 1003 2900 1516 
L 2900 3500 
L 3475 3500 
L 3475 0 
L 2900 0 
L 2900 538 
Q 2691 219 2414 64 
Q 2138 -91 1772 -91 
Q 1169 -91 856 284 
Q 544 659 544 1381 
z
M 1991 3584 
L 1991 3584 
z
" transform="scale(0.015625)"/>
      <path id="DejaVuSans-62" d="M 3116 1747 
Q 3116 2381 2855 2742 
Q 2594 3103 2138 3103 
Q 1681 3103 1420 2742 
Q 1159 2381 1159 1747 
Q 1159 1113 1420 752 
Q 1681 391 2138 391 
Q 2594 391 2855 752 
Q 3116 1113 3116 1747 
z
M 1159 2969 
Q 1341 3281 1617 3432 
Q 1894 3584 2278 3584 
Q 2916 3584 3314 3078 
Q 3713 2572 3713 1747 
Q 3713 922 3314 415 
Q 2916 -91 2278 -91 
Q 1894 -91 1617 61 
Q 1341 213 1159 525 
L 1159 0 
L 581 0 
L 581 4863 
L 1159 4863 
L 1159 2969 
z
" transform="scale(0.015625)"/>
      <path id="DejaVuSans-63" d="M 3122 3366 
L 3122 2828 
Q 2878 2963 2633 3030 
Q 2388 3097 2138 3097 
Q 1578 3097 1268 2742 
Q 959 2388 959 1747 
Q 959 1106 1268 751 
Q 1578 397 2138 397 
Q 2388 397 2633 464 
Q 2878 531 3122 666 
L 3122 134 
Q 2881 22 2623 -34 
Q 2366 -91 2075 -91 
Q 1284 -91 818 406 
Q 353 903 353 1747 
Q 353 2603 823 3093 
Q 1294 3584 2113 3584 
Q 2378 3584 2631 3529 
Q 2884 3475 3122 3366 
z
" transform="scale(0.015625)"/>
      <path id="DejaVuSans-72" d="M 2631 2963 
Q 2534 3019 2420 3045 
Q 2306 3072 2169 3072 
Q 1681 3072 1420 2755 
Q 1159 2438 1159 1844 
L 1159 0 
L 581 0 
L 581 3500 
L 1159 3500 
L 1159 2956 
Q 1341 3275 1631 3429 
Q 1922 3584 2338 3584 
Q 2397 3584 2469 3576 
Q 2541 3569 2628 3553 
L 2631 2963 
z
" transform="scale(0.015625)"/>
      <path id="DejaVuSans-69" d="M 603 3500 
L 1178 3500 
L 1178 0 
L 603 0 
L 603 3500 
z
M 603 4863 
L 1178 4863 
L 1178 4134 
L 603 4134 
L 603 4863 
z
" transform="scale(0.015625)"/>
      <path id="DejaVuSans-20" transform="scale(0.015625)"/>
      <path id="DejaVuSans-68" d="M 3513 2113 
L 3513 0 
L 2938 0 
L 2938 2094 
Q 2938 2591 2744 2837 
Q 2550 3084 2163 3084 
Q 1697 3084 1428 2787 
Q 1159 2491 1159 1978 
L 1159 0 
L 581 0 
L 581 4863 
L 1159 4863 
L 1159 2956 
Q 1366 3272 1645 3428 
Q 1925 3584 2291 3584 
Q 2894 3584 3203 3211 
Q 3513 2838 3513 2113 
z
" transform="scale(0.015625)"/>
      <path id="DejaVuSans-6f" d="M 1959 3097 
Q 1497 3097 1228 2736 
Q 959 2375 959 1747 
Q 959 1119 1226 758 
Q 1494 397 1959 397 
Q 2419 397 2687 759 
Q 2956 1122 2956 1747 
Q 2956 2369 2687 2733 
Q 2419 3097 1959 3097 
z
M 1959 3584 
Q 2709 3584 3137 3096 
Q 3566 2609 3566 1747 
Q 3566 888 3137 398 
Q 2709 -91 1959 -91 
Q 1206 -91 779 398 
Q 353 888 353 1747 
Q 353 2609 779 3096 
Q 1206 3584 1959 3584 
z
" transform="scale(0.015625)"/>
      <path id="DejaVuSans-79" d="M 2059 -325 
Q 1816 -950 1584 -1140 
Q 1353 -1331 966 -1331 
L 506 -1331 
L 506 -850 
L 844 -850 
Q 1081 -850 1212 -737 
Q 1344 -625 1503 -206 
L 1606 56 
L 191 3500 
L 800 3500 
L 1894 763 
L 2988 3500 
L 3597 3500 
L 2059 -325 
z
" transform="scale(0.015625)"/>
     </defs>
     <use xlink:href="#DejaVuSans-67"/>
     <use xlink:href="#DejaVuSans-65" x="63.476562"/>
     <use xlink:href="#DejaVuSans-74" x="125"/>
     <use xlink:href="#DejaVuSans-5f" x="164.208984"/>
     <use xlink:href="#DejaVuSans-73" x="214.208984"/>
     <use xlink:href="#DejaVuSans-75" x="266.308594"/>
     <use xlink:href="#DejaVuSans-62" x="329.6875"/>
     <use xlink:href="#DejaVuSans-73" x="393.164062"/>
     <use xlink:href="#DejaVuSans-63" x="445.263672"/>
     <use xlink:href="#DejaVuSans-72" x="500.244141"/>
     <use xlink:href="#DejaVuSans-69" x="541.357422"/>
     <use xlink:href="#DejaVuSans-62" x="569.140625"/>
     <use xlink:href="#DejaVuSans-65" x="632.617188"/>
     <use xlink:href="#DejaVuSans-20" x="694.140625"/>
     <use xlink:href="#DejaVuSans-68" x="725.927734"/>
     <use xlink:href="#DejaVuSans-69" x="789.306641"/>
     <use xlink:href="#DejaVuSans-73" x="817.089844"/>
     <use xlink:href="#DejaVuSans-74" x="869.189453"/>
     <use xlink:href="#DejaVuSans-6f" x="908.398438"/>
     <use xlink:href="#DejaVuSans-72" x="969.580078"/>
     <use xlink:href="#DejaVuSans-79" x="1010.693359"/>
    </g>
   </g>
   <g id="legend_1">
    <g id="line2d_45">
     <path d="M 815.08 328.498438 
L 825.08 328.498438 
L 835.08 328.498438 
" style="fill: none; stroke: #1f77b4; stroke-width: 1.5; stroke-linecap: square"/>
    </g>
    <g id="text_23">
     <!-- star -->
     <g style="fill: #a9a9a9" transform="translate(843.08 331.998438) scale(0.1 -0.1)">
      <defs>
       <path id="DejaVuSans-61" d="M 2194 1759 
Q 1497 1759 1228 1600 
Q 959 1441 959 1056 
Q 959 750 1161 570 
Q 1363 391 1709 391 
Q 2188 391 2477 730 
Q 2766 1069 2766 1631 
L 2766 1759 
L 2194 1759 
z
M 3341 1997 
L 3341 0 
L 2766 0 
L 2766 531 
Q 2569 213 2275 61 
Q 1981 -91 1556 -91 
Q 1019 -91 701 211 
Q 384 513 384 1019 
Q 384 1609 779 1909 
Q 1175 2209 1959 2209 
L 2766 2209 
L 2766 2266 
Q 2766 2663 2505 2880 
Q 2244 3097 1772 3097 
Q 1472 3097 1187 3025 
Q 903 2953 641 2809 
L 641 3341 
Q 956 3463 1253 3523 
Q 1550 3584 1831 3584 
Q 2591 3584 2966 3190 
Q 3341 2797 3341 1997 
z
" transform="scale(0.015625)"/>
      </defs>
      <use xlink:href="#DejaVuSans-73"/>
      <use xlink:href="#DejaVuSans-74" x="52.099609"/>
      <use xlink:href="#DejaVuSans-61" x="91.308594"/>
      <use xlink:href="#DejaVuSans-72" x="152.587891"/>
     </g>
    </g>
    <g id="line2d_46">
     <path d="M 815.08 343.176562 
L 825.08 343.176562 
L 835.08 343.176562 
" style="fill: none; stroke: #ff7f0e; stroke-width: 1.5; stroke-linecap: square"/>
    </g>
    <g id="text_24">
     <!-- fork -->
     <g style="fill: #a9a9a9" transform="translate(843.08 346.676562) scale(0.1 -0.1)">
      <defs>
       <path id="DejaVuSans-66" d="M 2375 4863 
L 2375 4384 
L 1825 4384 
Q 1516 4384 1395 4259 
Q 1275 4134 1275 3809 
L 1275 3500 
L 2222 3500 
L 2222 3053 
L 1275 3053 
L 1275 0 
L 697 0 
L 697 3053 
L 147 3053 
L 147 3500 
L 697 3500 
L 697 3744 
Q 697 4328 969 4595 
Q 1241 4863 1831 4863 
L 2375 4863 
z
" transform="scale(0.015625)"/>
       <path id="DejaVuSans-6b" d="M 581 4863 
L 1159 4863 
L 1159 1991 
L 2875 3500 
L 3609 3500 
L 1753 1863 
L 3688 0 
L 2938 0 
L 1159 1709 
L 1159 0 
L 581 0 
L 581 4863 
z
" transform="scale(0.015625)"/>
      </defs>
      <use xlink:href="#DejaVuSans-66"/>
      <use xlink:href="#DejaVuSans-6f" x="35.205078"/>
      <use xlink:href="#DejaVuSans-72" x="96.386719"/>
      <use xlink:href="#DejaVuSans-6b" x="137.5"/>
     </g>
    </g>
   </g>
  </g>
 </g>
 <defs>
  <clipPath id="p2acefe9b38">
   <rect x="108" y="43.2" width="669.6" height="277.2"/>
  </clipPath>
 </defs>
</svg>
