<?xml version="1.0" encoding="utf-8" standalone="no"?>
<!DOCTYPE svg PUBLIC "-//W3C//DTD SVG 1.1//EN"
  "http://www.w3.org/Graphics/SVG/1.1/DTD/svg11.dtd">
<svg xmlns:xlink="http://www.w3.org/1999/xlink" width="864pt" height="360pt" viewBox="0 0 864 360" xmlns="http://www.w3.org/2000/svg" version="1.1">
 <metadata>
  <rdf:RDF xmlns:dc="http://purl.org/dc/elements/1.1/" xmlns:cc="http://creativecommons.org/ns#" xmlns:rdf="http://www.w3.org/1999/02/22-rdf-syntax-ns#">
   <cc:Work>
    <dc:type rdf:resource="http://purl.org/dc/dcmitype/StillImage"/>
    <dc:date>2023-11-21T20:21:33.347849</dc:date>
    <dc:format>image/svg+xml</dc:format>
    <dc:creator>
     <cc:Agent>
      <dc:title>Matplotlib v3.8.2, https://matplotlib.org/</dc:title>
     </cc:Agent>
    </dc:creator>
   </cc:Work>
  </rdf:RDF>
 </metadata>
 <defs>
  <style type="text/css">*{stroke-linejoin: round; stroke-linecap: butt}</style>
 </defs>
 <g id="figure_1">
  <g id="patch_1">
   <path d="M 0 360 
L 864 360 
L 864 0 
L 0 0 
L 0 360 
z
" style="fill: none; opacity: 0"/>
  </g>
  <g id="axes_1">
   <g id="patch_2">
    <path d="M 108 320.4 
L 777.6 320.4 
L 777.6 43.2 
L 108 43.2 
L 108 320.4 
z
" style="fill: none; opacity: 0"/>
   </g>
   <g id="matplotlib.axis_1">
    <g id="xtick_1">
     <g id="line2d_1">
      <path d="M 121.96492 320.4 
L 121.96492 43.2 
" clip-path="url(#pdb61761f77)" style="fill: none; stroke-dasharray: 5.12,1.28,0.8,1.28; stroke-dashoffset: 0; stroke: #b0b0b0; stroke-width: 0.8"/>
     </g>
     <g id="line2d_2">
      <defs>
       <path id="m72e41558d8" d="M 0 0 
L 0 3.5 
" style="stroke: #a9a9a9; stroke-width: 0.8"/>
      </defs>
      <g>
       <use xlink:href="#m72e41558d8" x="121.96492" y="320.4" style="fill: #a9a9a9; stroke: #a9a9a9; stroke-width: 0.8"/>
      </g>
     </g>
     <g id="text_1">
      <!-- 2021-07 -->
      <g style="fill: #a9a9a9" transform="translate(101.073514 334.998438) scale(0.1 -0.1)">
       <defs>
        <path id="DejaVuSans-32" d="M 1228 531 
L 3431 531 
L 3431 0 
L 469 0 
L 469 531 
Q 828 903 1448 1529 
Q 2069 2156 2228 2338 
Q 2531 2678 2651 2914 
Q 2772 3150 2772 3378 
Q 2772 3750 2511 3984 
Q 2250 4219 1831 4219 
Q 1534 4219 1204 4116 
Q 875 4013 500 3803 
L 500 4441 
Q 881 4594 1212 4672 
Q 1544 4750 1819 4750 
Q 2544 4750 2975 4387 
Q 3406 4025 3406 3419 
Q 3406 3131 3298 2873 
Q 3191 2616 2906 2266 
Q 2828 2175 2409 1742 
Q 1991 1309 1228 531 
z
" transform="scale(0.015625)"/>
        <path id="DejaVuSans-30" d="M 2034 4250 
Q 1547 4250 1301 3770 
Q 1056 3291 1056 2328 
Q 1056 1369 1301 889 
Q 1547 409 2034 409 
Q 2525 409 2770 889 
Q 3016 1369 3016 2328 
Q 3016 3291 2770 3770 
Q 2525 4250 2034 4250 
z
M 2034 4750 
Q 2819 4750 3233 4129 
Q 3647 3509 3647 2328 
Q 3647 1150 3233 529 
Q 2819 -91 2034 -91 
Q 1250 -91 836 529 
Q 422 1150 422 2328 
Q 422 3509 836 4129 
Q 1250 4750 2034 4750 
z
" transform="scale(0.015625)"/>
        <path id="DejaVuSans-31" d="M 794 531 
L 1825 531 
L 1825 4091 
L 703 3866 
L 703 4441 
L 1819 4666 
L 2450 4666 
L 2450 531 
L 3481 531 
L 3481 0 
L 794 0 
L 794 531 
z
" transform="scale(0.015625)"/>
        <path id="DejaVuSans-2d" d="M 313 2009 
L 1997 2009 
L 1997 1497 
L 313 1497 
L 313 2009 
z
" transform="scale(0.015625)"/>
        <path id="DejaVuSans-37" d="M 525 4666 
L 3525 4666 
L 3525 4397 
L 1831 0 
L 1172 0 
L 2766 4134 
L 525 4134 
L 525 4666 
z
" transform="scale(0.015625)"/>
       </defs>
       <use xlink:href="#DejaVuSans-32"/>
       <use xlink:href="#DejaVuSans-30" x="63.623047"/>
       <use xlink:href="#DejaVuSans-32" x="127.246094"/>
       <use xlink:href="#DejaVuSans-31" x="190.869141"/>
       <use xlink:href="#DejaVuSans-2d" x="254.492188"/>
       <use xlink:href="#DejaVuSans-30" x="290.576172"/>
       <use xlink:href="#DejaVuSans-37" x="354.199219"/>
      </g>
     </g>
    </g>
    <g id="xtick_2">
     <g id="line2d_3">
      <path d="M 187.850695 320.4 
L 187.850695 43.2 
" clip-path="url(#pdb61761f77)" style="fill: none; stroke-dasharray: 5.12,1.28,0.8,1.28; stroke-dashoffset: 0; stroke: #b0b0b0; stroke-width: 0.8"/>
     </g>
     <g id="line2d_4">
      <g>
       <use xlink:href="#m72e41558d8" x="187.850695" y="320.4" style="fill: #a9a9a9; stroke: #a9a9a9; stroke-width: 0.8"/>
      </g>
     </g>
     <g id="text_2">
      <!-- 2021-10 -->
      <g style="fill: #a9a9a9" transform="translate(166.959289 334.998438) scale(0.1 -0.1)">
       <use xlink:href="#DejaVuSans-32"/>
       <use xlink:href="#DejaVuSans-30" x="63.623047"/>
       <use xlink:href="#DejaVuSans-32" x="127.246094"/>
       <use xlink:href="#DejaVuSans-31" x="190.869141"/>
       <use xlink:href="#DejaVuSans-2d" x="254.492188"/>
       <use xlink:href="#DejaVuSans-31" x="290.576172"/>
       <use xlink:href="#DejaVuSans-30" x="354.199219"/>
      </g>
     </g>
    </g>
    <g id="xtick_3">
     <g id="line2d_5">
      <path d="M 253.736471 320.4 
L 253.736471 43.2 
" clip-path="url(#pdb61761f77)" style="fill: none; stroke-dasharray: 5.12,1.28,0.8,1.28; stroke-dashoffset: 0; stroke: #b0b0b0; stroke-width: 0.8"/>
     </g>
     <g id="line2d_6">
      <g>
       <use xlink:href="#m72e41558d8" x="253.736471" y="320.4" style="fill: #a9a9a9; stroke: #a9a9a9; stroke-width: 0.8"/>
      </g>
     </g>
     <g id="text_3">
      <!-- 2022-01 -->
      <g style="fill: #a9a9a9" transform="translate(232.845064 334.998438) scale(0.1 -0.1)">
       <use xlink:href="#DejaVuSans-32"/>
       <use xlink:href="#DejaVuSans-30" x="63.623047"/>
       <use xlink:href="#DejaVuSans-32" x="127.246094"/>
       <use xlink:href="#DejaVuSans-32" x="190.869141"/>
       <use xlink:href="#DejaVuSans-2d" x="254.492188"/>
       <use xlink:href="#DejaVuSans-30" x="290.576172"/>
       <use xlink:href="#DejaVuSans-31" x="354.199219"/>
      </g>
     </g>
    </g>
    <g id="xtick_4">
     <g id="line2d_7">
      <path d="M 318.189947 320.4 
L 318.189947 43.2 
" clip-path="url(#pdb61761f77)" style="fill: none; stroke-dasharray: 5.12,1.28,0.8,1.28; stroke-dashoffset: 0; stroke: #b0b0b0; stroke-width: 0.8"/>
     </g>
     <g id="line2d_8">
      <g>
       <use xlink:href="#m72e41558d8" x="318.189947" y="320.4" style="fill: #a9a9a9; stroke: #a9a9a9; stroke-width: 0.8"/>
      </g>
     </g>
     <g id="text_4">
      <!-- 2022-04 -->
      <g style="fill: #a9a9a9" transform="translate(297.29854 334.998438) scale(0.1 -0.1)">
       <defs>
        <path id="DejaVuSans-34" d="M 2419 4116 
L 825 1625 
L 2419 1625 
L 2419 4116 
z
M 2253 4666 
L 3047 4666 
L 3047 1625 
L 3713 1625 
L 3713 1100 
L 3047 1100 
L 3047 0 
L 2419 0 
L 2419 1100 
L 313 1100 
L 313 1709 
L 2253 4666 
z
" transform="scale(0.015625)"/>
       </defs>
       <use xlink:href="#DejaVuSans-32"/>
       <use xlink:href="#DejaVuSans-30" x="63.623047"/>
       <use xlink:href="#DejaVuSans-32" x="127.246094"/>
       <use xlink:href="#DejaVuSans-32" x="190.869141"/>
       <use xlink:href="#DejaVuSans-2d" x="254.492188"/>
       <use xlink:href="#DejaVuSans-30" x="290.576172"/>
       <use xlink:href="#DejaVuSans-34" x="354.199219"/>
      </g>
     </g>
    </g>
    <g id="xtick_5">
     <g id="line2d_9">
      <path d="M 383.359572 320.4 
L 383.359572 43.2 
" clip-path="url(#pdb61761f77)" style="fill: none; stroke-dasharray: 5.12,1.28,0.8,1.28; stroke-dashoffset: 0; stroke: #b0b0b0; stroke-width: 0.8"/>
     </g>
     <g id="line2d_10">
      <g>
       <use xlink:href="#m72e41558d8" x="383.359572" y="320.4" style="fill: #a9a9a9; stroke: #a9a9a9; stroke-width: 0.8"/>
      </g>
     </g>
     <g id="text_5">
      <!-- 2022-07 -->
      <g style="fill: #a9a9a9" transform="translate(362.468166 334.998438) scale(0.1 -0.1)">
       <use xlink:href="#DejaVuSans-32"/>
       <use xlink:href="#DejaVuSans-30" x="63.623047"/>
       <use xlink:href="#DejaVuSans-32" x="127.246094"/>
       <use xlink:href="#DejaVuSans-32" x="190.869141"/>
       <use xlink:href="#DejaVuSans-2d" x="254.492188"/>
       <use xlink:href="#DejaVuSans-30" x="290.576172"/>
       <use xlink:href="#DejaVuSans-37" x="354.199219"/>
      </g>
     </g>
    </g>
    <g id="xtick_6">
     <g id="line2d_11">
      <path d="M 449.245348 320.4 
L 449.245348 43.2 
" clip-path="url(#pdb61761f77)" style="fill: none; stroke-dasharray: 5.12,1.28,0.8,1.28; stroke-dashoffset: 0; stroke: #b0b0b0; stroke-width: 0.8"/>
     </g>
     <g id="line2d_12">
      <g>
       <use xlink:href="#m72e41558d8" x="449.245348" y="320.4" style="fill: #a9a9a9; stroke: #a9a9a9; stroke-width: 0.8"/>
      </g>
     </g>
     <g id="text_6">
      <!-- 2022-10 -->
      <g style="fill: #a9a9a9" transform="translate(428.353941 334.998438) scale(0.1 -0.1)">
       <use xlink:href="#DejaVuSans-32"/>
       <use xlink:href="#DejaVuSans-30" x="63.623047"/>
       <use xlink:href="#DejaVuSans-32" x="127.246094"/>
       <use xlink:href="#DejaVuSans-32" x="190.869141"/>
       <use xlink:href="#DejaVuSans-2d" x="254.492188"/>
       <use xlink:href="#DejaVuSans-31" x="290.576172"/>
       <use xlink:href="#DejaVuSans-30" x="354.199219"/>
      </g>
     </g>
    </g>
    <g id="xtick_7">
     <g id="line2d_13">
      <path d="M 515.131123 320.4 
L 515.131123 43.2 
" clip-path="url(#pdb61761f77)" style="fill: none; stroke-dasharray: 5.12,1.28,0.8,1.28; stroke-dashoffset: 0; stroke: #b0b0b0; stroke-width: 0.8"/>
     </g>
     <g id="line2d_14">
      <g>
       <use xlink:href="#m72e41558d8" x="515.131123" y="320.4" style="fill: #a9a9a9; stroke: #a9a9a9; stroke-width: 0.8"/>
      </g>
     </g>
     <g id="text_7">
      <!-- 2023-01 -->
      <g style="fill: #a9a9a9" transform="translate(494.239717 334.998438) scale(0.1 -0.1)">
       <defs>
        <path id="DejaVuSans-33" d="M 2597 2516 
Q 3050 2419 3304 2112 
Q 3559 1806 3559 1356 
Q 3559 666 3084 287 
Q 2609 -91 1734 -91 
Q 1441 -91 1130 -33 
Q 819 25 488 141 
L 488 750 
Q 750 597 1062 519 
Q 1375 441 1716 441 
Q 2309 441 2620 675 
Q 2931 909 2931 1356 
Q 2931 1769 2642 2001 
Q 2353 2234 1838 2234 
L 1294 2234 
L 1294 2753 
L 1863 2753 
Q 2328 2753 2575 2939 
Q 2822 3125 2822 3475 
Q 2822 3834 2567 4026 
Q 2313 4219 1838 4219 
Q 1578 4219 1281 4162 
Q 984 4106 628 3988 
L 628 4550 
Q 988 4650 1302 4700 
Q 1616 4750 1894 4750 
Q 2613 4750 3031 4423 
Q 3450 4097 3450 3541 
Q 3450 3153 3228 2886 
Q 3006 2619 2597 2516 
z
" transform="scale(0.015625)"/>
       </defs>
       <use xlink:href="#DejaVuSans-32"/>
       <use xlink:href="#DejaVuSans-30" x="63.623047"/>
       <use xlink:href="#DejaVuSans-32" x="127.246094"/>
       <use xlink:href="#DejaVuSans-33" x="190.869141"/>
       <use xlink:href="#DejaVuSans-2d" x="254.492188"/>
       <use xlink:href="#DejaVuSans-30" x="290.576172"/>
       <use xlink:href="#DejaVuSans-31" x="354.199219"/>
      </g>
     </g>
    </g>
    <g id="xtick_8">
     <g id="line2d_15">
      <path d="M 579.584599 320.4 
L 579.584599 43.2 
" clip-path="url(#pdb61761f77)" style="fill: none; stroke-dasharray: 5.12,1.28,0.8,1.28; stroke-dashoffset: 0; stroke: #b0b0b0; stroke-width: 0.8"/>
     </g>
     <g id="line2d_16">
      <g>
       <use xlink:href="#m72e41558d8" x="579.584599" y="320.4" style="fill: #a9a9a9; stroke: #a9a9a9; stroke-width: 0.8"/>
      </g>
     </g>
     <g id="text_8">
      <!-- 2023-04 -->
      <g style="fill: #a9a9a9" transform="translate(558.693193 334.998438) scale(0.1 -0.1)">
       <use xlink:href="#DejaVuSans-32"/>
       <use xlink:href="#DejaVuSans-30" x="63.623047"/>
       <use xlink:href="#DejaVuSans-32" x="127.246094"/>
       <use xlink:href="#DejaVuSans-33" x="190.869141"/>
       <use xlink:href="#DejaVuSans-2d" x="254.492188"/>
       <use xlink:href="#DejaVuSans-30" x="290.576172"/>
       <use xlink:href="#DejaVuSans-34" x="354.199219"/>
      </g>
     </g>
    </g>
    <g id="xtick_9">
     <g id="line2d_17">
      <path d="M 644.754225 320.4 
L 644.754225 43.2 
" clip-path="url(#pdb61761f77)" style="fill: none; stroke-dasharray: 5.12,1.28,0.8,1.28; stroke-dashoffset: 0; stroke: #b0b0b0; stroke-width: 0.8"/>
     </g>
     <g id="line2d_18">
      <g>
       <use xlink:href="#m72e41558d8" x="644.754225" y="320.4" style="fill: #a9a9a9; stroke: #a9a9a9; stroke-width: 0.8"/>
      </g>
     </g>
     <g id="text_9">
      <!-- 2023-07 -->
      <g style="fill: #a9a9a9" transform="translate(623.862818 334.998438) scale(0.1 -0.1)">
       <use xlink:href="#DejaVuSans-32"/>
       <use xlink:href="#DejaVuSans-30" x="63.623047"/>
       <use xlink:href="#DejaVuSans-32" x="127.246094"/>
       <use xlink:href="#DejaVuSans-33" x="190.869141"/>
       <use xlink:href="#DejaVuSans-2d" x="254.492188"/>
       <use xlink:href="#DejaVuSans-30" x="290.576172"/>
       <use xlink:href="#DejaVuSans-37" x="354.199219"/>
      </g>
     </g>
    </g>
    <g id="xtick_10">
     <g id="line2d_19">
      <path d="M 710.64 320.4 
L 710.64 43.2 
" clip-path="url(#pdb61761f77)" style="fill: none; stroke-dasharray: 5.12,1.28,0.8,1.28; stroke-dashoffset: 0; stroke: #b0b0b0; stroke-width: 0.8"/>
     </g>
     <g id="line2d_20">
      <g>
       <use xlink:href="#m72e41558d8" x="710.64" y="320.4" style="fill: #a9a9a9; stroke: #a9a9a9; stroke-width: 0.8"/>
      </g>
     </g>
     <g id="text_10">
      <!-- 2023-10 -->
      <g style="fill: #a9a9a9" transform="translate(689.748594 334.998438) scale(0.1 -0.1)">
       <use xlink:href="#DejaVuSans-32"/>
       <use xlink:href="#DejaVuSans-30" x="63.623047"/>
       <use xlink:href="#DejaVuSans-32" x="127.246094"/>
       <use xlink:href="#DejaVuSans-33" x="190.869141"/>
       <use xlink:href="#DejaVuSans-2d" x="254.492188"/>
       <use xlink:href="#DejaVuSans-31" x="290.576172"/>
       <use xlink:href="#DejaVuSans-30" x="354.199219"/>
      </g>
     </g>
    </g>
    <g id="xtick_11">
     <g id="line2d_21">
      <path d="M 776.525775 320.4 
L 776.525775 43.2 
" clip-path="url(#pdb61761f77)" style="fill: none; stroke-dasharray: 5.12,1.28,0.8,1.28; stroke-dashoffset: 0; stroke: #b0b0b0; stroke-width: 0.8"/>
     </g>
     <g id="line2d_22">
      <g>
       <use xlink:href="#m72e41558d8" x="776.525775" y="320.4" style="fill: #a9a9a9; stroke: #a9a9a9; stroke-width: 0.8"/>
      </g>
     </g>
     <g id="text_11">
      <!-- 2024-01 -->
      <g style="fill: #a9a9a9" transform="translate(755.634369 334.998438) scale(0.1 -0.1)">
       <use xlink:href="#DejaVuSans-32"/>
       <use xlink:href="#DejaVuSans-30" x="63.623047"/>
       <use xlink:href="#DejaVuSans-32" x="127.246094"/>
       <use xlink:href="#DejaVuSans-34" x="190.869141"/>
       <use xlink:href="#DejaVuSans-2d" x="254.492188"/>
       <use xlink:href="#DejaVuSans-30" x="290.576172"/>
       <use xlink:href="#DejaVuSans-31" x="354.199219"/>
      </g>
     </g>
    </g>
   </g>
   <g id="matplotlib.axis_2">
    <g id="ytick_1">
     <g id="line2d_23">
      <path d="M 108 307.848799 
L 777.6 307.848799 
" clip-path="url(#pdb61761f77)" style="fill: none; stroke-dasharray: 5.12,1.28,0.8,1.28; stroke-dashoffset: 0; stroke: #b0b0b0; stroke-width: 0.8"/>
     </g>
     <g id="line2d_24">
      <defs>
       <path id="mab96001da7" d="M 0 0 
L -3.5 0 
" style="stroke: #a9a9a9; stroke-width: 0.8"/>
      </defs>
      <g>
       <use xlink:href="#mab96001da7" x="108" y="307.848799" style="fill: #a9a9a9; stroke: #a9a9a9; stroke-width: 0.8"/>
      </g>
     </g>
     <g id="text_12">
      <!-- 0 -->
      <g style="fill: #a9a9a9" transform="translate(94.6375 311.648018) scale(0.1 -0.1)">
       <use xlink:href="#DejaVuSans-30"/>
      </g>
     </g>
    </g>
    <g id="ytick_2">
     <g id="line2d_25">
      <path d="M 108 278.569171 
L 777.6 278.569171 
" clip-path="url(#pdb61761f77)" style="fill: none; stroke-dasharray: 5.12,1.28,0.8,1.28; stroke-dashoffset: 0; stroke: #b0b0b0; stroke-width: 0.8"/>
     </g>
     <g id="line2d_26">
      <g>
       <use xlink:href="#mab96001da7" x="108" y="278.569171" style="fill: #a9a9a9; stroke: #a9a9a9; stroke-width: 0.8"/>
      </g>
     </g>
     <g id="text_13">
      <!-- 600 -->
      <g style="fill: #a9a9a9" transform="translate(81.9125 282.36839) scale(0.1 -0.1)">
       <defs>
        <path id="DejaVuSans-36" d="M 2113 2584 
Q 1688 2584 1439 2293 
Q 1191 2003 1191 1497 
Q 1191 994 1439 701 
Q 1688 409 2113 409 
Q 2538 409 2786 701 
Q 3034 994 3034 1497 
Q 3034 2003 2786 2293 
Q 2538 2584 2113 2584 
z
M 3366 4563 
L 3366 3988 
Q 3128 4100 2886 4159 
Q 2644 4219 2406 4219 
Q 1781 4219 1451 3797 
Q 1122 3375 1075 2522 
Q 1259 2794 1537 2939 
Q 1816 3084 2150 3084 
Q 2853 3084 3261 2657 
Q 3669 2231 3669 1497 
Q 3669 778 3244 343 
Q 2819 -91 2113 -91 
Q 1303 -91 875 529 
Q 447 1150 447 2328 
Q 447 3434 972 4092 
Q 1497 4750 2381 4750 
Q 2619 4750 2861 4703 
Q 3103 4656 3366 4563 
z
" transform="scale(0.015625)"/>
       </defs>
       <use xlink:href="#DejaVuSans-36"/>
       <use xlink:href="#DejaVuSans-30" x="63.623047"/>
       <use xlink:href="#DejaVuSans-30" x="127.246094"/>
      </g>
     </g>
    </g>
    <g id="ytick_3">
     <g id="line2d_27">
      <path d="M 108 249.289543 
L 777.6 249.289543 
" clip-path="url(#pdb61761f77)" style="fill: none; stroke-dasharray: 5.12,1.28,0.8,1.28; stroke-dashoffset: 0; stroke: #b0b0b0; stroke-width: 0.8"/>
     </g>
     <g id="line2d_28">
      <g>
       <use xlink:href="#mab96001da7" x="108" y="249.289543" style="fill: #a9a9a9; stroke: #a9a9a9; stroke-width: 0.8"/>
      </g>
     </g>
     <g id="text_14">
      <!-- 1200 -->
      <g style="fill: #a9a9a9" transform="translate(75.55 253.088762) scale(0.1 -0.1)">
       <use xlink:href="#DejaVuSans-31"/>
       <use xlink:href="#DejaVuSans-32" x="63.623047"/>
       <use xlink:href="#DejaVuSans-30" x="127.246094"/>
       <use xlink:href="#DejaVuSans-30" x="190.869141"/>
      </g>
     </g>
    </g>
    <g id="ytick_4">
     <g id="line2d_29">
      <path d="M 108 220.009915 
L 777.6 220.009915 
" clip-path="url(#pdb61761f77)" style="fill: none; stroke-dasharray: 5.12,1.28,0.8,1.28; stroke-dashoffset: 0; stroke: #b0b0b0; stroke-width: 0.8"/>
     </g>
     <g id="line2d_30">
      <g>
       <use xlink:href="#mab96001da7" x="108" y="220.009915" style="fill: #a9a9a9; stroke: #a9a9a9; stroke-width: 0.8"/>
      </g>
     </g>
     <g id="text_15">
      <!-- 1800 -->
      <g style="fill: #a9a9a9" transform="translate(75.55 223.809134) scale(0.1 -0.1)">
       <defs>
        <path id="DejaVuSans-38" d="M 2034 2216 
Q 1584 2216 1326 1975 
Q 1069 1734 1069 1313 
Q 1069 891 1326 650 
Q 1584 409 2034 409 
Q 2484 409 2743 651 
Q 3003 894 3003 1313 
Q 3003 1734 2745 1975 
Q 2488 2216 2034 2216 
z
M 1403 2484 
Q 997 2584 770 2862 
Q 544 3141 544 3541 
Q 544 4100 942 4425 
Q 1341 4750 2034 4750 
Q 2731 4750 3128 4425 
Q 3525 4100 3525 3541 
Q 3525 3141 3298 2862 
Q 3072 2584 2669 2484 
Q 3125 2378 3379 2068 
Q 3634 1759 3634 1313 
Q 3634 634 3220 271 
Q 2806 -91 2034 -91 
Q 1263 -91 848 271 
Q 434 634 434 1313 
Q 434 1759 690 2068 
Q 947 2378 1403 2484 
z
M 1172 3481 
Q 1172 3119 1398 2916 
Q 1625 2713 2034 2713 
Q 2441 2713 2670 2916 
Q 2900 3119 2900 3481 
Q 2900 3844 2670 4047 
Q 2441 4250 2034 4250 
Q 1625 4250 1398 4047 
Q 1172 3844 1172 3481 
z
" transform="scale(0.015625)"/>
       </defs>
       <use xlink:href="#DejaVuSans-31"/>
       <use xlink:href="#DejaVuSans-38" x="63.623047"/>
       <use xlink:href="#DejaVuSans-30" x="127.246094"/>
       <use xlink:href="#DejaVuSans-30" x="190.869141"/>
      </g>
     </g>
    </g>
    <g id="ytick_5">
     <g id="line2d_31">
      <path d="M 108 190.730287 
L 777.6 190.730287 
" clip-path="url(#pdb61761f77)" style="fill: none; stroke-dasharray: 5.12,1.28,0.8,1.28; stroke-dashoffset: 0; stroke: #b0b0b0; stroke-width: 0.8"/>
     </g>
     <g id="line2d_32">
      <g>
       <use xlink:href="#mab96001da7" x="108" y="190.730287" style="fill: #a9a9a9; stroke: #a9a9a9; stroke-width: 0.8"/>
      </g>
     </g>
     <g id="text_16">
      <!-- 2400 -->
      <g style="fill: #a9a9a9" transform="translate(75.55 194.529505) scale(0.1 -0.1)">
       <use xlink:href="#DejaVuSans-32"/>
       <use xlink:href="#DejaVuSans-34" x="63.623047"/>
       <use xlink:href="#DejaVuSans-30" x="127.246094"/>
       <use xlink:href="#DejaVuSans-30" x="190.869141"/>
      </g>
     </g>
    </g>
    <g id="ytick_6">
     <g id="line2d_33">
      <path d="M 108 161.450658 
L 777.6 161.450658 
" clip-path="url(#pdb61761f77)" style="fill: none; stroke-dasharray: 5.12,1.28,0.8,1.28; stroke-dashoffset: 0; stroke: #b0b0b0; stroke-width: 0.8"/>
     </g>
     <g id="line2d_34">
      <g>
       <use xlink:href="#mab96001da7" x="108" y="161.450658" style="fill: #a9a9a9; stroke: #a9a9a9; stroke-width: 0.8"/>
      </g>
     </g>
     <g id="text_17">
      <!-- 3000 -->
      <g style="fill: #a9a9a9" transform="translate(75.55 165.249877) scale(0.1 -0.1)">
       <use xlink:href="#DejaVuSans-33"/>
       <use xlink:href="#DejaVuSans-30" x="63.623047"/>
       <use xlink:href="#DejaVuSans-30" x="127.246094"/>
       <use xlink:href="#DejaVuSans-30" x="190.869141"/>
      </g>
     </g>
    </g>
    <g id="ytick_7">
     <g id="line2d_35">
      <path d="M 108 132.17103 
L 777.6 132.17103 
" clip-path="url(#pdb61761f77)" style="fill: none; stroke-dasharray: 5.12,1.28,0.8,1.28; stroke-dashoffset: 0; stroke: #b0b0b0; stroke-width: 0.8"/>
     </g>
     <g id="line2d_36">
      <g>
       <use xlink:href="#mab96001da7" x="108" y="132.17103" style="fill: #a9a9a9; stroke: #a9a9a9; stroke-width: 0.8"/>
      </g>
     </g>
     <g id="text_18">
      <!-- 3600 -->
      <g style="fill: #a9a9a9" transform="translate(75.55 135.970249) scale(0.1 -0.1)">
       <use xlink:href="#DejaVuSans-33"/>
       <use xlink:href="#DejaVuSans-36" x="63.623047"/>
       <use xlink:href="#DejaVuSans-30" x="127.246094"/>
       <use xlink:href="#DejaVuSans-30" x="190.869141"/>
      </g>
     </g>
    </g>
    <g id="ytick_8">
     <g id="line2d_37">
      <path d="M 108 102.891402 
L 777.6 102.891402 
" clip-path="url(#pdb61761f77)" style="fill: none; stroke-dasharray: 5.12,1.28,0.8,1.28; stroke-dashoffset: 0; stroke: #b0b0b0; stroke-width: 0.8"/>
     </g>
     <g id="line2d_38">
      <g>
       <use xlink:href="#mab96001da7" x="108" y="102.891402" style="fill: #a9a9a9; stroke: #a9a9a9; stroke-width: 0.8"/>
      </g>
     </g>
     <g id="text_19">
      <!-- 4200 -->
      <g style="fill: #a9a9a9" transform="translate(75.55 106.690621) scale(0.1 -0.1)">
       <use xlink:href="#DejaVuSans-34"/>
       <use xlink:href="#DejaVuSans-32" x="63.623047"/>
       <use xlink:href="#DejaVuSans-30" x="127.246094"/>
       <use xlink:href="#DejaVuSans-30" x="190.869141"/>
      </g>
     </g>
    </g>
    <g id="ytick_9">
     <g id="line2d_39">
      <path d="M 108 73.611774 
L 777.6 73.611774 
" clip-path="url(#pdb61761f77)" style="fill: none; stroke-dasharray: 5.12,1.28,0.8,1.28; stroke-dashoffset: 0; stroke: #b0b0b0; stroke-width: 0.8"/>
     </g>
     <g id="line2d_40">
      <g>
       <use xlink:href="#mab96001da7" x="108" y="73.611774" style="fill: #a9a9a9; stroke: #a9a9a9; stroke-width: 0.8"/>
      </g>
     </g>
     <g id="text_20">
      <!-- 4800 -->
      <g style="fill: #a9a9a9" transform="translate(75.55 77.410993) scale(0.1 -0.1)">
       <use xlink:href="#DejaVuSans-34"/>
       <use xlink:href="#DejaVuSans-38" x="63.623047"/>
       <use xlink:href="#DejaVuSans-30" x="127.246094"/>
       <use xlink:href="#DejaVuSans-30" x="190.869141"/>
      </g>
     </g>
    </g>
    <g id="ytick_10">
     <g id="line2d_41">
      <path d="M 108 44.332146 
L 777.6 44.332146 
" clip-path="url(#pdb61761f77)" style="fill: none; stroke-dasharray: 5.12,1.28,0.8,1.28; stroke-dashoffset: 0; stroke: #b0b0b0; stroke-width: 0.8"/>
     </g>
     <g id="line2d_42">
      <g>
       <use xlink:href="#mab96001da7" x="108" y="44.332146" style="fill: #a9a9a9; stroke: #a9a9a9; stroke-width: 0.8"/>
      </g>
     </g>
     <g id="text_21">
      <!-- 5400 -->
      <g style="fill: #a9a9a9" transform="translate(75.55 48.131364) scale(0.1 -0.1)">
       <defs>
        <path id="DejaVuSans-35" d="M 691 4666 
L 3169 4666 
L 3169 4134 
L 1269 4134 
L 1269 2991 
Q 1406 3038 1543 3061 
Q 1681 3084 1819 3084 
Q 2600 3084 3056 2656 
Q 3513 2228 3513 1497 
Q 3513 744 3044 326 
Q 2575 -91 1722 -91 
Q 1428 -91 1123 -41 
Q 819 9 494 109 
L 494 744 
Q 775 591 1075 516 
Q 1375 441 1709 441 
Q 2250 441 2565 725 
Q 2881 1009 2881 1497 
Q 2881 1984 2565 2268 
Q 2250 2553 1709 2553 
Q 1456 2553 1204 2497 
Q 953 2441 691 2322 
L 691 4666 
z
" transform="scale(0.015625)"/>
       </defs>
       <use xlink:href="#DejaVuSans-35"/>
       <use xlink:href="#DejaVuSans-34" x="63.623047"/>
       <use xlink:href="#DejaVuSans-30" x="127.246094"/>
       <use xlink:href="#DejaVuSans-30" x="190.869141"/>
      </g>
     </g>
    </g>
   </g>
   <g id="line2d_43">
    <path d="M 138.436364 307.702401 
L 142.733262 307.360806 
L 143.449412 307.068009 
L 145.597861 306.824012 
L 150.610909 305.896824 
L 154.191658 305.555229 
L 154.907807 305.213633 
L 155.623957 305.018435 
L 156.340107 304.140046 
L 157.056257 303.652053 
L 157.772406 302.090473 
L 158.488556 301.992874 
L 159.204706 301.456081 
L 160.637005 300.772889 
L 162.069305 299.699303 
L 162.785455 299.016112 
L 164.217754 298.33292 
L 164.933904 298.040124 
L 165.650053 297.503331 
L 168.514652 296.283346 
L 169.230802 295.16096 
L 169.946952 294.575368 
L 171.379251 293.794578 
L 178.540749 292.81859 
L 179.256898 292.476995 
L 184.269947 292.0866 
L 185.702246 291.696204 
L 187.134545 291.403408 
L 192.863743 290.671418 
L 193.579893 290.281022 
L 194.296043 290.183424 
L 195.012193 289.890627 
L 196.444492 289.646631 
L 197.160642 289.597831 
L 197.876791 289.353834 
L 200.74139 288.91464 
L 202.17369 288.524245 
L 204.322139 288.329047 
L 205.754439 288.182649 
L 206.470588 287.987452 
L 207.186738 287.938652 
L 209.335187 287.30426 
L 213.632086 286.669868 
L 214.348235 286.474671 
L 215.064385 285.498683 
L 217.212834 284.717893 
L 219.361283 284.132301 
L 220.077433 283.790705 
L 220.793583 283.741905 
L 224.374332 282.765918 
L 225.806631 282.668319 
L 226.522781 282.57072 
L 228.67123 281.936328 
L 231.535829 281.253137 
L 232.251979 280.960341 
L 232.968128 280.862742 
L 233.684278 280.521146 
L 240.845775 279.44756 
L 244.426524 278.422773 
L 245.142674 277.983579 
L 248.007273 277.202789 
L 249.439572 276.373199 
L 250.155722 275.885205 
L 250.871872 275.787607 
L 251.588021 275.54361 
L 253.736471 275.153215 
L 254.45262 274.811619 
L 255.88492 274.567622 
L 256.60107 274.177227 
L 258.033369 273.738033 
L 258.749519 273.640434 
L 260.181818 273.250039 
L 261.614118 272.908443 
L 262.330267 272.810844 
L 263.762567 272.225252 
L 264.478717 272.078854 
L 265.194866 271.786057 
L 265.911016 271.688459 
L 266.627166 271.346863 
L 267.343316 271.151665 
L 268.775615 271.054067 
L 270.207914 270.566073 
L 271.640214 270.468474 
L 272.356364 270.126878 
L 275.220963 269.638885 
L 278.085561 269.394888 
L 278.801711 269.24849 
L 280.234011 268.565298 
L 288.111658 265.29574 
L 288.827807 264.905345 
L 289.543957 264.124555 
L 290.260107 262.953369 
L 290.976257 262.026181 
L 291.692406 261.830984 
L 292.408556 261.830984 
L 293.840856 260.806197 
L 294.557005 260.610999 
L 295.273155 260.220604 
L 295.989305 260.074206 
L 296.705455 259.439814 
L 297.421604 259.244617 
L 299.570053 258.21983 
L 300.286203 257.341441 
L 301.002353 256.267854 
L 301.718503 255.82866 
L 302.434652 254.657475 
L 303.150802 253.925484 
L 303.866952 253.583888 
L 304.583102 253.388691 
L 306.015401 252.510302 
L 306.731551 252.168706 
L 309.59615 250.070333 
L 310.312299 249.045546 
L 311.028449 247.386367 
L 311.744599 246.312781 
L 312.460749 245.775988 
L 313.176898 245.483191 
L 316.041497 243.043222 
L 316.757647 242.555229 
L 318.189947 241.335244 
L 318.906096 240.310457 
L 320.338396 239.090473 
L 323.202995 237.236096 
L 323.919144 236.601704 
L 324.635294 236.455306 
L 326.783743 235.33292 
L 328.216043 234.503331 
L 328.932193 234.210534 
L 330.364492 232.892951 
L 331.080642 232.063362 
L 332.512941 231.087374 
L 333.229091 230.892177 
L 333.945241 230.550581 
L 334.66139 230.013788 
L 336.09369 229.232998 
L 336.80984 229.135399 
L 338.242139 228.354609 
L 338.958289 227.964214 
L 339.674439 227.232223 
L 340.390588 226.793029 
L 341.106738 226.549032 
L 341.822888 226.061038 
L 344.687487 224.597057 
L 345.403636 223.962665 
L 348.268235 222.986677 
L 348.984385 222.498683 
L 349.700535 222.352285 
L 351.132834 221.864291 
L 353.281283 221.034702 
L 355.429733 220.253912 
L 356.862032 220.009915 
L 358.294332 218.78993 
L 359.726631 218.106739 
L 361.87508 216.886754 
L 363.30738 216.496359 
L 364.023529 216.057165 
L 364.739679 215.861967 
L 366.888128 214.495585 
L 370.468877 213.665995 
L 372.617326 212.446011 
L 373.333476 212.348412 
L 374.049626 212.104415 
L 375.481925 211.811619 
L 377.630374 210.250039 
L 379.778824 209.762045 
L 380.494973 209.518048 
L 381.211123 208.981255 
L 385.508021 207.614872 
L 386.224171 207.566073 
L 391.237219 205.809295 
L 391.953369 205.467699 
L 394.101818 204.979706 
L 395.534118 204.63811 
L 396.250267 204.296514 
L 396.966417 204.150116 
L 399.114866 203.174129 
L 401.263316 202.100542 
L 401.979465 201.612548 
L 402.695615 201.417351 
L 404.844064 200.294965 
L 406.276364 199.953369 
L 407.708663 199.221379 
L 409.140963 198.830984 
L 409.857112 198.733385 
L 410.573262 198.245391 
L 411.289412 197.903796 
L 412.005561 197.757397 
L 413.437861 197.171805 
L 414.154011 197.025407 
L 414.87016 196.635012 
L 417.734759 196.195817 
L 419.167059 195.512626 
L 419.883209 194.927033 
L 420.599358 193.707049 
L 422.031658 193.414253 
L 422.747807 193.267854 
L 425.612406 191.803873 
L 426.328556 191.657475 
L 432.057754 188.92471 
L 434.206203 188.485515 
L 435.638503 187.802324 
L 436.354652 187.509527 
L 437.070802 187.411929 
L 439.935401 186.143145 
L 441.367701 185.167157 
L 442.08385 184.825562 
L 442.8 184.727963 
L 443.51615 184.483966 
L 444.232299 184.435167 
L 447.096898 183.507978 
L 447.813048 183.459179 
L 448.529198 182.922386 
L 449.961497 182.434392 
L 452.109947 181.751201 
L 452.826096 181.312006 
L 453.542246 181.116809 
L 454.258396 180.628815 
L 454.974545 180.336019 
L 455.690695 179.896824 
L 457.122995 179.360031 
L 459.271444 178.67684 
L 459.987594 178.335244 
L 460.703743 177.798451 
L 461.419893 177.06646 
L 462.136043 176.627266 
L 462.852193 176.480868 
L 464.284492 175.407281 
L 465.000642 175.260883 
L 465.716791 174.187297 
L 466.432941 173.8945 
L 467.149091 173.357707 
L 467.865241 173.260108 
L 468.58139 172.772115 
L 469.29754 172.430519 
L 470.01369 172.284121 
L 470.72984 171.991325 
L 471.445989 171.405732 
L 472.162139 171.161735 
L 474.310588 169.746553 
L 477.175187 168.331371 
L 477.891337 168.233772 
L 479.323636 167.59938 
L 480.039786 167.160186 
L 480.755936 165.989001 
L 481.472086 165.354609 
L 482.188235 164.964214 
L 482.904385 164.817816 
L 484.336684 163.939427 
L 485.052834 163.793029 
L 486.485134 163.109837 
L 488.633583 162.231448 
L 490.065882 161.255461 
L 491.498182 159.74268 
L 492.930481 158.864291 
L 493.646631 158.425097 
L 494.362781 157.693106 
L 495.07893 157.205112 
L 496.51123 156.033927 
L 497.22738 155.741131 
L 497.943529 154.960341 
L 498.659679 154.423548 
L 500.091979 153.935554 
L 500.808128 153.301162 
L 502.240428 152.569171 
L 502.956578 152.373974 
L 503.672727 151.88598 
L 504.388877 151.690782 
L 506.537326 150.568397 
L 507.253476 150.031603 
L 508.685775 149.446011 
L 509.401925 149.299613 
L 510.118075 148.860418 
L 515.131123 147.15244 
L 515.847273 146.518048 
L 517.995722 145.737258 
L 519.428021 145.298064 
L 520.144171 144.76127 
L 522.29262 143.785283 
L 523.00877 143.24849 
L 523.72492 142.858095 
L 525.157219 140.07653 
L 526.589519 138.417351 
L 527.305668 137.929357 
L 529.454118 137.002169 
L 530.170267 136.758172 
L 530.886417 136.660573 
L 531.602567 136.270178 
L 533.751016 135.635786 
L 535.899465 134.806197 
L 537.331765 133.879009 
L 539.480214 132.903021 
L 543.060963 130.853447 
L 543.777112 130.121456 
L 545.209412 129.340666 
L 545.925561 128.950271 
L 546.641711 128.706274 
L 547.357861 128.21828 
L 548.79016 127.535089 
L 550.93861 126.412703 
L 551.654759 126.217506 
L 552.370909 125.680713 
L 553.087059 125.387916 
L 553.803209 125.241518 
L 555.235508 124.655926 
L 557.383957 123.875136 
L 558.100107 123.338342 
L 559.532406 122.947947 
L 560.964706 122.411154 
L 561.680856 121.825562 
L 563.113155 121.386367 
L 563.829305 121.044771 
L 564.545455 120.849574 
L 565.977754 119.873586 
L 567.410053 119.239194 
L 568.842353 118.165608 
L 570.274652 117.677614 
L 570.990802 117.092022 
L 571.706952 116.945624 
L 572.423102 116.311232 
L 573.855401 115.481642 
L 575.287701 114.89605 
L 576.00385 114.164059 
L 580.300749 112.602479 
L 582.449198 111.67529 
L 584.597647 111.040899 
L 586.029947 110.845701 
L 586.746096 110.552905 
L 587.462246 110.406507 
L 588.894545 109.820914 
L 589.610695 109.772115 
L 592.475294 108.747328 
L 594.623743 107.283346 
L 598.920642 105.184973 
L 601.069091 103.81859 
L 602.50139 103.476995 
L 603.93369 102.501007 
L 606.798289 101.622618 
L 607.514439 101.329822 
L 608.946738 100.988226 
L 612.527487 99.817041 
L 614.675936 99.426646 
L 615.392086 99.231448 
L 616.108235 98.889853 
L 616.824385 98.792254 
L 618.256684 98.206662 
L 618.972834 98.109063 
L 619.688984 97.767467 
L 621.121283 97.474671 
L 621.837433 97.133075 
L 623.985882 96.645081 
L 625.418182 96.352285 
L 634.728128 94.35151 
L 635.444278 94.156313 
L 636.160428 93.765918 
L 639.741176 92.887529 
L 640.457326 92.741131 
L 643.321925 91.667545 
L 644.038075 91.423548 
L 644.754225 91.325949 
L 646.902674 90.593958 
L 647.618824 90.593958 
L 649.051123 90.105964 
L 649.767273 89.422773 
L 650.483422 89.081177 
L 651.915722 88.641983 
L 654.780321 87.568397 
L 655.496471 87.421998 
L 656.21262 86.982804 
L 656.92877 86.836406 
L 657.64492 86.397211 
L 661.225668 85.323625 
L 661.941818 84.884431 
L 662.657968 84.689233 
L 663.374118 84.103641 
L 665.522567 83.713246 
L 666.954866 82.932455 
L 667.671016 82.151665 
L 669.103316 81.858869 
L 673.400214 80.882881 
L 674.832513 80.492486 
L 676.264813 80.443687 
L 676.980963 80.102091 
L 679.845561 79.614098 
L 680.561711 79.272502 
L 682.71016 78.979706 
L 684.14246 78.442912 
L 684.85861 78.101317 
L 685.574759 78.052517 
L 687.723209 77.564524 
L 689.871658 77.02773 
L 692.736257 76.149342 
L 693.452406 76.002943 
L 694.168556 75.661348 
L 694.884706 75.563749 
L 695.600856 75.319752 
L 696.317005 74.880558 
L 698.465455 74.099768 
L 699.181604 73.562974 
L 700.613904 73.172579 
L 701.330053 72.879783 
L 702.762353 72.489388 
L 705.626952 71.171805 
L 707.775401 71.025407 
L 710.64 70.147018 
L 711.35615 69.707823 
L 712.788449 69.268629 
L 714.936898 68.195043 
L 715.653048 68.048644 
L 716.369198 67.707049 
L 717.085348 67.60945 
L 718.517647 67.072657 
L 719.233797 66.731061 
L 719.949947 66.584663 
L 720.666096 66.243067 
L 722.098396 65.852672 
L 722.814545 65.511077 
L 728.543743 63.998296 
L 729.976043 63.315105 
L 732.124492 62.778311 
L 732.840642 62.241518 
L 733.556791 61.899923 
L 734.272941 61.070333 
L 734.989091 60.53354 
L 736.42139 60.045546 
L 737.13754 59.459954 
L 745.015187 56.239194 
L 747.163636 55.8 
L 747.163636 55.8 
" clip-path="url(#pdb61761f77)" style="fill: none; stroke: #1f77b4; stroke-width: 1.5; stroke-linecap: square"/>
   </g>
   <g id="line2d_44">
    <path d="M 139.152513 307.8 
L 141.300963 307.702401 
L 143.449412 307.653602 
L 147.74631 307.556003 
L 151.327059 307.409605 
L 154.191658 307.409605 
L 154.907807 307.214407 
L 157.056257 307.165608 
L 161.353155 306.677614 
L 172.095401 306.043222 
L 177.824599 305.945624 
L 181.405348 305.799225 
L 189.999144 305.701627 
L 193.579893 305.555229 
L 197.876791 305.45763 
L 200.74139 305.360031 
L 207.186738 305.262432 
L 209.335187 305.213633 
L 211.483636 305.164833 
L 213.632086 304.920837 
L 217.928984 304.872037 
L 219.361283 304.774438 
L 224.374332 304.67684 
L 232.251979 304.237645 
L 237.265027 304.140046 
L 238.697326 304.042448 
L 240.845775 303.944849 
L 245.142674 303.749651 
L 248.007273 303.700852 
L 250.155722 303.505655 
L 261.614118 302.822463 
L 264.478717 302.724864 
L 269.491765 302.480868 
L 271.640214 302.383269 
L 278.801711 301.992874 
L 286.679358 301.895275 
L 289.543957 301.602479 
L 290.976257 301.50488 
L 300.286203 300.772889 
L 304.583102 300.236096 
L 307.447701 300.138497 
L 313.176898 299.406507 
L 316.757647 299.308908 
L 326.067594 298.576917 
L 330.364492 298.088923 
L 332.512941 298.040124 
L 333.945241 297.942525 
L 336.80984 297.844926 
L 338.242139 297.747328 
L 341.822888 297.405732 
L 342.539037 297.210534 
L 346.835936 297.015337 
L 350.416684 296.917738 
L 359.726631 296.380945 
L 361.87508 296.283346 
L 371.185027 295.746553 
L 376.198075 295.648954 
L 376.914225 295.502556 
L 382.643422 295.404957 
L 387.656471 295.16096 
L 395.534118 295.063362 
L 400.547166 294.819365 
L 406.276364 294.721766 
L 412.721711 294.38017 
L 417.01861 294.282572 
L 430.625455 293.452982 
L 436.354652 293.355383 
L 439.935401 293.013788 
L 441.367701 292.86739 
L 444.948449 292.81859 
L 447.813048 292.525794 
L 454.974545 292.135399 
L 459.271444 292.0378 
L 461.419893 291.989001 
L 463.568342 291.940201 
L 465.716791 291.745004 
L 471.445989 291.647405 
L 472.878289 291.403408 
L 474.310588 291.305809 
L 477.175187 291.208211 
L 479.323636 291.110612 
L 480.755936 291.013013 
L 487.201283 290.915414 
L 488.633583 290.769016 
L 491.498182 290.671418 
L 492.214332 290.525019 
L 493.646631 290.47622 
L 494.362781 290.329822 
L 496.51123 290.232223 
L 508.685775 289.500232 
L 510.834225 289.402634 
L 514.414973 289.256235 
L 524.44107 289.158637 
L 529.454118 288.91464 
L 535.183316 288.817041 
L 538.047914 288.719442 
L 540.912513 288.670643 
L 542.344813 288.524245 
L 545.209412 288.426646 
L 552.370909 288.036251 
L 556.667807 287.987452 
L 558.816257 287.792254 
L 560.964706 287.743455 
L 565.977754 287.645856 
L 568.842353 287.548257 
L 577.43615 287.450658 
L 581.016898 287.30426 
L 585.313797 287.206662 
L 587.462246 286.962665 
L 591.759144 286.913865 
L 592.475294 286.767467 
L 593.907594 286.669868 
L 596.772193 286.57227 
L 605.365989 286.474671 
L 608.946738 286.328273 
L 621.121283 286.279473 
L 622.553583 286.181875 
L 624.702032 286.133075 
L 634.011979 286.035476 
L 635.444278 285.937878 
L 643.321925 285.840279 
L 646.186524 285.74268 
L 654.780321 285.693881 
L 656.21262 285.596282 
L 666.954866 285.547483 
L 669.103316 285.352285 
L 681.277861 285.254686 
L 683.42631 285.205887 
L 702.046203 285.108288 
L 704.910802 285.010689 
L 717.801497 284.913091 
L 719.233797 284.766692 
L 725.679144 284.669094 
L 733.556791 284.229899 
L 737.85369 284.132301 
L 740.718289 284.034702 
L 744.299037 283.985902 
L 745.731337 283.888304 
L 747.163636 283.888304 
L 747.163636 283.888304 
" clip-path="url(#pdb61761f77)" style="fill: none; stroke: #ff7f0e; stroke-width: 1.5; stroke-linecap: square"/>
   </g>
   <g id="patch_3">
    <path d="M 108 320.4 
L 108 43.2 
" style="fill: none; stroke: #a9a9a9; stroke-width: 0.8; stroke-linejoin: miter; stroke-linecap: square"/>
   </g>
   <g id="patch_4">
    <path d="M 777.6 320.4 
L 777.6 43.2 
" style="fill: none"/>
   </g>
   <g id="patch_5">
    <path d="M 108 320.4 
L 777.6 320.4 
" style="fill: none; stroke: #a9a9a9; stroke-width: 0.8; stroke-linejoin: miter; stroke-linecap: square"/>
   </g>
   <g id="patch_6">
    <path d="M 108 43.2 
L 777.6 43.2 
" style="fill: none"/>
   </g>
   <g id="text_22">
    <!-- get_subscribe history -->
    <g style="fill: #a9a9a9" transform="translate(378.6075 37.2) scale(0.12 -0.12)">
     <defs>
      <path id="DejaVuSans-67" d="M 2906 1791 
Q 2906 2416 2648 2759 
Q 2391 3103 1925 3103 
Q 1463 3103 1205 2759 
Q 947 2416 947 1791 
Q 947 1169 1205 825 
Q 1463 481 1925 481 
Q 2391 481 2648 825 
Q 2906 1169 2906 1791 
z
M 3481 434 
Q 3481 -459 3084 -895 
Q 2688 -1331 1869 -1331 
Q 1566 -1331 1297 -1286 
Q 1028 -1241 775 -1147 
L 775 -588 
Q 1028 -725 1275 -790 
Q 1522 -856 1778 -856 
Q 2344 -856 2625 -561 
Q 2906 -266 2906 331 
L 2906 616 
Q 2728 306 2450 153 
Q 2172 0 1784 0 
Q 1141 0 747 490 
Q 353 981 353 1791 
Q 353 2603 747 3093 
Q 1141 3584 1784 3584 
Q 2172 3584 2450 3431 
Q 2728 3278 2906 2969 
L 2906 3500 
L 3481 3500 
L 3481 434 
z
" transform="scale(0.015625)"/>
      <path id="DejaVuSans-65" d="M 3597 1894 
L 3597 1613 
L 953 1613 
Q 991 1019 1311 708 
Q 1631 397 2203 397 
Q 2534 397 2845 478 
Q 3156 559 3463 722 
L 3463 178 
Q 3153 47 2828 -22 
Q 2503 -91 2169 -91 
Q 1331 -91 842 396 
Q 353 884 353 1716 
Q 353 2575 817 3079 
Q 1281 3584 2069 3584 
Q 2775 3584 3186 3129 
Q 3597 2675 3597 1894 
z
M 3022 2063 
Q 3016 2534 2758 2815 
Q 2500 3097 2075 3097 
Q 1594 3097 1305 2825 
Q 1016 2553 972 2059 
L 3022 2063 
z
" transform="scale(0.015625)"/>
      <path id="DejaVuSans-74" d="M 1172 4494 
L 1172 3500 
L 2356 3500 
L 2356 3053 
L 1172 3053 
L 1172 1153 
Q 1172 725 1289 603 
Q 1406 481 1766 481 
L 2356 481 
L 2356 0 
L 1766 0 
Q 1100 0 847 248 
Q 594 497 594 1153 
L 594 3053 
L 172 3053 
L 172 3500 
L 594 3500 
L 594 4494 
L 1172 4494 
z
" transform="scale(0.015625)"/>
      <path id="DejaVuSans-5f" d="M 3263 -1063 
L 3263 -1509 
L -63 -1509 
L -63 -1063 
L 3263 -1063 
z
" transform="scale(0.015625)"/>
      <path id="DejaVuSans-73" d="M 2834 3397 
L 2834 2853 
Q 2591 2978 2328 3040 
Q 2066 3103 1784 3103 
Q 1356 3103 1142 2972 
Q 928 2841 928 2578 
Q 928 2378 1081 2264 
Q 1234 2150 1697 2047 
L 1894 2003 
Q 2506 1872 2764 1633 
Q 3022 1394 3022 966 
Q 3022 478 2636 193 
Q 2250 -91 1575 -91 
Q 1294 -91 989 -36 
Q 684 19 347 128 
L 347 722 
Q 666 556 975 473 
Q 1284 391 1588 391 
Q 1994 391 2212 530 
Q 2431 669 2431 922 
Q 2431 1156 2273 1281 
Q 2116 1406 1581 1522 
L 1381 1569 
Q 847 1681 609 1914 
Q 372 2147 372 2553 
Q 372 3047 722 3315 
Q 1072 3584 1716 3584 
Q 2034 3584 2315 3537 
Q 2597 3491 2834 3397 
z
" transform="scale(0.015625)"/>
      <path id="DejaVuSans-75" d="M 544 1381 
L 544 3500 
L 1119 3500 
L 1119 1403 
Q 1119 906 1312 657 
Q 1506 409 1894 409 
Q 2359 409 2629 706 
Q 2900 1003 2900 1516 
L 2900 3500 
L 3475 3500 
L 3475 0 
L 2900 0 
L 2900 538 
Q 2691 219 2414 64 
Q 2138 -91 1772 -91 
Q 1169 -91 856 284 
Q 544 659 544 1381 
z
M 1991 3584 
L 1991 3584 
z
" transform="scale(0.015625)"/>
      <path id="DejaVuSans-62" d="M 3116 1747 
Q 3116 2381 2855 2742 
Q 2594 3103 2138 3103 
Q 1681 3103 1420 2742 
Q 1159 2381 1159 1747 
Q 1159 1113 1420 752 
Q 1681 391 2138 391 
Q 2594 391 2855 752 
Q 3116 1113 3116 1747 
z
M 1159 2969 
Q 1341 3281 1617 3432 
Q 1894 3584 2278 3584 
Q 2916 3584 3314 3078 
Q 3713 2572 3713 1747 
Q 3713 922 3314 415 
Q 2916 -91 2278 -91 
Q 1894 -91 1617 61 
Q 1341 213 1159 525 
L 1159 0 
L 581 0 
L 581 4863 
L 1159 4863 
L 1159 2969 
z
" transform="scale(0.015625)"/>
      <path id="DejaVuSans-63" d="M 3122 3366 
L 3122 2828 
Q 2878 2963 2633 3030 
Q 2388 3097 2138 3097 
Q 1578 3097 1268 2742 
Q 959 2388 959 1747 
Q 959 1106 1268 751 
Q 1578 397 2138 397 
Q 2388 397 2633 464 
Q 2878 531 3122 666 
L 3122 134 
Q 2881 22 2623 -34 
Q 2366 -91 2075 -91 
Q 1284 -91 818 406 
Q 353 903 353 1747 
Q 353 2603 823 3093 
Q 1294 3584 2113 3584 
Q 2378 3584 2631 3529 
Q 2884 3475 3122 3366 
z
" transform="scale(0.015625)"/>
      <path id="DejaVuSans-72" d="M 2631 2963 
Q 2534 3019 2420 3045 
Q 2306 3072 2169 3072 
Q 1681 3072 1420 2755 
Q 1159 2438 1159 1844 
L 1159 0 
L 581 0 
L 581 3500 
L 1159 3500 
L 1159 2956 
Q 1341 3275 1631 3429 
Q 1922 3584 2338 3584 
Q 2397 3584 2469 3576 
Q 2541 3569 2628 3553 
L 2631 2963 
z
" transform="scale(0.015625)"/>
      <path id="DejaVuSans-69" d="M 603 3500 
L 1178 3500 
L 1178 0 
L 603 0 
L 603 3500 
z
M 603 4863 
L 1178 4863 
L 1178 4134 
L 603 4134 
L 603 4863 
z
" transform="scale(0.015625)"/>
      <path id="DejaVuSans-20" transform="scale(0.015625)"/>
      <path id="DejaVuSans-68" d="M 3513 2113 
L 3513 0 
L 2938 0 
L 2938 2094 
Q 2938 2591 2744 2837 
Q 2550 3084 2163 3084 
Q 1697 3084 1428 2787 
Q 1159 2491 1159 1978 
L 1159 0 
L 581 0 
L 581 4863 
L 1159 4863 
L 1159 2956 
Q 1366 3272 1645 3428 
Q 1925 3584 2291 3584 
Q 2894 3584 3203 3211 
Q 3513 2838 3513 2113 
z
" transform="scale(0.015625)"/>
      <path id="DejaVuSans-6f" d="M 1959 3097 
Q 1497 3097 1228 2736 
Q 959 2375 959 1747 
Q 959 1119 1226 758 
Q 1494 397 1959 397 
Q 2419 397 2687 759 
Q 2956 1122 2956 1747 
Q 2956 2369 2687 2733 
Q 2419 3097 1959 3097 
z
M 1959 3584 
Q 2709 3584 3137 3096 
Q 3566 2609 3566 1747 
Q 3566 888 3137 398 
Q 2709 -91 1959 -91 
Q 1206 -91 779 398 
Q 353 888 353 1747 
Q 353 2609 779 3096 
Q 1206 3584 1959 3584 
z
" transform="scale(0.015625)"/>
      <path id="DejaVuSans-79" d="M 2059 -325 
Q 1816 -950 1584 -1140 
Q 1353 -1331 966 -1331 
L 506 -1331 
L 506 -850 
L 844 -850 
Q 1081 -850 1212 -737 
Q 1344 -625 1503 -206 
L 1606 56 
L 191 3500 
L 800 3500 
L 1894 763 
L 2988 3500 
L 3597 3500 
L 2059 -325 
z
" transform="scale(0.015625)"/>
     </defs>
     <use xlink:href="#DejaVuSans-67"/>
     <use xlink:href="#DejaVuSans-65" x="63.476562"/>
     <use xlink:href="#DejaVuSans-74" x="125"/>
     <use xlink:href="#DejaVuSans-5f" x="164.208984"/>
     <use xlink:href="#DejaVuSans-73" x="214.208984"/>
     <use xlink:href="#DejaVuSans-75" x="266.308594"/>
     <use xlink:href="#DejaVuSans-62" x="329.6875"/>
     <use xlink:href="#DejaVuSans-73" x="393.164062"/>
     <use xlink:href="#DejaVuSans-63" x="445.263672"/>
     <use xlink:href="#DejaVuSans-72" x="500.244141"/>
     <use xlink:href="#DejaVuSans-69" x="541.357422"/>
     <use xlink:href="#DejaVuSans-62" x="569.140625"/>
     <use xlink:href="#DejaVuSans-65" x="632.617188"/>
     <use xlink:href="#DejaVuSans-20" x="694.140625"/>
     <use xlink:href="#DejaVuSans-68" x="725.927734"/>
     <use xlink:href="#DejaVuSans-69" x="789.306641"/>
     <use xlink:href="#DejaVuSans-73" x="817.089844"/>
     <use xlink:href="#DejaVuSans-74" x="869.189453"/>
     <use xlink:href="#DejaVuSans-6f" x="908.398438"/>
     <use xlink:href="#DejaVuSans-72" x="969.580078"/>
     <use xlink:href="#DejaVuSans-79" x="1010.693359"/>
    </g>
   </g>
   <g id="legend_1">
    <g id="line2d_45">
     <path d="M 815.08 328.498438 
L 825.08 328.498438 
L 835.08 328.498438 
" style="fill: none; stroke: #1f77b4; stroke-width: 1.5; stroke-linecap: square"/>
    </g>
    <g id="text_23">
     <!-- star -->
     <g style="fill: #a9a9a9" transform="translate(843.08 331.998438) scale(0.1 -0.1)">
      <defs>
       <path id="DejaVuSans-61" d="M 2194 1759 
Q 1497 1759 1228 1600 
Q 959 1441 959 1056 
Q 959 750 1161 570 
Q 1363 391 1709 391 
Q 2188 391 2477 730 
Q 2766 1069 2766 1631 
L 2766 1759 
L 2194 1759 
z
M 3341 1997 
L 3341 0 
L 2766 0 
L 2766 531 
Q 2569 213 2275 61 
Q 1981 -91 1556 -91 
Q 1019 -91 701 211 
Q 384 513 384 1019 
Q 384 1609 779 1909 
Q 1175 2209 1959 2209 
L 2766 2209 
L 2766 2266 
Q 2766 2663 2505 2880 
Q 2244 3097 1772 3097 
Q 1472 3097 1187 3025 
Q 903 2953 641 2809 
L 641 3341 
Q 956 3463 1253 3523 
Q 1550 3584 1831 3584 
Q 2591 3584 2966 3190 
Q 3341 2797 3341 1997 
z
" transform="scale(0.015625)"/>
      </defs>
      <use xlink:href="#DejaVuSans-73"/>
      <use xlink:href="#DejaVuSans-74" x="52.099609"/>
      <use xlink:href="#DejaVuSans-61" x="91.308594"/>
      <use xlink:href="#DejaVuSans-72" x="152.587891"/>
     </g>
    </g>
    <g id="line2d_46">
     <path d="M 815.08 343.176562 
L 825.08 343.176562 
L 835.08 343.176562 
" style="fill: none; stroke: #ff7f0e; stroke-width: 1.5; stroke-linecap: square"/>
    </g>
    <g id="text_24">
     <!-- fork -->
     <g style="fill: #a9a9a9" transform="translate(843.08 346.676562) scale(0.1 -0.1)">
      <defs>
       <path id="DejaVuSans-66" d="M 2375 4863 
L 2375 4384 
L 1825 4384 
Q 1516 4384 1395 4259 
Q 1275 4134 1275 3809 
L 1275 3500 
L 2222 3500 
L 2222 3053 
L 1275 3053 
L 1275 0 
L 697 0 
L 697 3053 
L 147 3053 
L 147 3500 
L 697 3500 
L 697 3744 
Q 697 4328 969 4595 
Q 1241 4863 1831 4863 
L 2375 4863 
z
" transform="scale(0.015625)"/>
       <path id="DejaVuSans-6b" d="M 581 4863 
L 1159 4863 
L 1159 1991 
L 2875 3500 
L 3609 3500 
L 1753 1863 
L 3688 0 
L 2938 0 
L 1159 1709 
L 1159 0 
L 581 0 
L 581 4863 
z
" transform="scale(0.015625)"/>
      </defs>
      <use xlink:href="#DejaVuSans-66"/>
      <use xlink:href="#DejaVuSans-6f" x="35.205078"/>
      <use xlink:href="#DejaVuSans-72" x="96.386719"/>
      <use xlink:href="#DejaVuSans-6b" x="137.5"/>
     </g>
    </g>
   </g>
  </g>
 </g>
 <defs>
  <clipPath id="pdb61761f77">
   <rect x="108" y="43.2" width="669.6" height="277.2"/>
  </clipPath>
 </defs>
</svg>
