<?xml version="1.0" encoding="utf-8" standalone="no"?>
<!DOCTYPE svg PUBLIC "-//W3C//DTD SVG 1.1//EN"
  "http://www.w3.org/Graphics/SVG/1.1/DTD/svg11.dtd">
<svg xmlns:xlink="http://www.w3.org/1999/xlink" width="864pt" height="360pt" viewBox="0 0 864 360" xmlns="http://www.w3.org/2000/svg" version="1.1">
 <metadata>
  <rdf:RDF xmlns:dc="http://purl.org/dc/elements/1.1/" xmlns:cc="http://creativecommons.org/ns#" xmlns:rdf="http://www.w3.org/1999/02/22-rdf-syntax-ns#">
   <cc:Work>
    <dc:type rdf:resource="http://purl.org/dc/dcmitype/StillImage"/>
    <dc:date>2023-11-21T08:51:49.833119</dc:date>
    <dc:format>image/svg+xml</dc:format>
    <dc:creator>
     <cc:Agent>
      <dc:title>Matplotlib v3.8.2, https://matplotlib.org/</dc:title>
     </cc:Agent>
    </dc:creator>
   </cc:Work>
  </rdf:RDF>
 </metadata>
 <defs>
  <style type="text/css">*{stroke-linejoin: round; stroke-linecap: butt}</style>
 </defs>
 <g id="figure_1">
  <g id="patch_1">
   <path d="M 0 360 
L 864 360 
L 864 0 
L 0 0 
L 0 360 
z
" style="fill: none; opacity: 0"/>
  </g>
  <g id="axes_1">
   <g id="patch_2">
    <path d="M 108 320.4 
L 777.6 320.4 
L 777.6 43.2 
L 108 43.2 
L 108 320.4 
z
" style="fill: none; opacity: 0"/>
   </g>
   <g id="matplotlib.axis_1">
    <g id="xtick_1">
     <g id="line2d_1">
      <path d="M 121.96492 320.4 
L 121.96492 43.2 
" clip-path="url(#p8749186e03)" style="fill: none; stroke-dasharray: 5.12,1.28,0.8,1.28; stroke-dashoffset: 0; stroke: #b0b0b0; stroke-width: 0.8"/>
     </g>
     <g id="line2d_2">
      <defs>
       <path id="mf5b79c6dbd" d="M 0 0 
L 0 3.5 
" style="stroke: #a9a9a9; stroke-width: 0.8"/>
      </defs>
      <g>
       <use xlink:href="#mf5b79c6dbd" x="121.96492" y="320.4" style="fill: #a9a9a9; stroke: #a9a9a9; stroke-width: 0.8"/>
      </g>
     </g>
     <g id="text_1">
      <!-- 2021-07 -->
      <g style="fill: #a9a9a9" transform="translate(101.073514 334.998438) scale(0.1 -0.1)">
       <defs>
        <path id="DejaVuSans-32" d="M 1228 531 
L 3431 531 
L 3431 0 
L 469 0 
L 469 531 
Q 828 903 1448 1529 
Q 2069 2156 2228 2338 
Q 2531 2678 2651 2914 
Q 2772 3150 2772 3378 
Q 2772 3750 2511 3984 
Q 2250 4219 1831 4219 
Q 1534 4219 1204 4116 
Q 875 4013 500 3803 
L 500 4441 
Q 881 4594 1212 4672 
Q 1544 4750 1819 4750 
Q 2544 4750 2975 4387 
Q 3406 4025 3406 3419 
Q 3406 3131 3298 2873 
Q 3191 2616 2906 2266 
Q 2828 2175 2409 1742 
Q 1991 1309 1228 531 
z
" transform="scale(0.015625)"/>
        <path id="DejaVuSans-30" d="M 2034 4250 
Q 1547 4250 1301 3770 
Q 1056 3291 1056 2328 
Q 1056 1369 1301 889 
Q 1547 409 2034 409 
Q 2525 409 2770 889 
Q 3016 1369 3016 2328 
Q 3016 3291 2770 3770 
Q 2525 4250 2034 4250 
z
M 2034 4750 
Q 2819 4750 3233 4129 
Q 3647 3509 3647 2328 
Q 3647 1150 3233 529 
Q 2819 -91 2034 -91 
Q 1250 -91 836 529 
Q 422 1150 422 2328 
Q 422 3509 836 4129 
Q 1250 4750 2034 4750 
z
" transform="scale(0.015625)"/>
        <path id="DejaVuSans-31" d="M 794 531 
L 1825 531 
L 1825 4091 
L 703 3866 
L 703 4441 
L 1819 4666 
L 2450 4666 
L 2450 531 
L 3481 531 
L 3481 0 
L 794 0 
L 794 531 
z
" transform="scale(0.015625)"/>
        <path id="DejaVuSans-2d" d="M 313 2009 
L 1997 2009 
L 1997 1497 
L 313 1497 
L 313 2009 
z
" transform="scale(0.015625)"/>
        <path id="DejaVuSans-37" d="M 525 4666 
L 3525 4666 
L 3525 4397 
L 1831 0 
L 1172 0 
L 2766 4134 
L 525 4134 
L 525 4666 
z
" transform="scale(0.015625)"/>
       </defs>
       <use xlink:href="#DejaVuSans-32"/>
       <use xlink:href="#DejaVuSans-30" x="63.623047"/>
       <use xlink:href="#DejaVuSans-32" x="127.246094"/>
       <use xlink:href="#DejaVuSans-31" x="190.869141"/>
       <use xlink:href="#DejaVuSans-2d" x="254.492188"/>
       <use xlink:href="#DejaVuSans-30" x="290.576172"/>
       <use xlink:href="#DejaVuSans-37" x="354.199219"/>
      </g>
     </g>
    </g>
    <g id="xtick_2">
     <g id="line2d_3">
      <path d="M 187.850695 320.4 
L 187.850695 43.2 
" clip-path="url(#p8749186e03)" style="fill: none; stroke-dasharray: 5.12,1.28,0.8,1.28; stroke-dashoffset: 0; stroke: #b0b0b0; stroke-width: 0.8"/>
     </g>
     <g id="line2d_4">
      <g>
       <use xlink:href="#mf5b79c6dbd" x="187.850695" y="320.4" style="fill: #a9a9a9; stroke: #a9a9a9; stroke-width: 0.8"/>
      </g>
     </g>
     <g id="text_2">
      <!-- 2021-10 -->
      <g style="fill: #a9a9a9" transform="translate(166.959289 334.998438) scale(0.1 -0.1)">
       <use xlink:href="#DejaVuSans-32"/>
       <use xlink:href="#DejaVuSans-30" x="63.623047"/>
       <use xlink:href="#DejaVuSans-32" x="127.246094"/>
       <use xlink:href="#DejaVuSans-31" x="190.869141"/>
       <use xlink:href="#DejaVuSans-2d" x="254.492188"/>
       <use xlink:href="#DejaVuSans-31" x="290.576172"/>
       <use xlink:href="#DejaVuSans-30" x="354.199219"/>
      </g>
     </g>
    </g>
    <g id="xtick_3">
     <g id="line2d_5">
      <path d="M 253.736471 320.4 
L 253.736471 43.2 
" clip-path="url(#p8749186e03)" style="fill: none; stroke-dasharray: 5.12,1.28,0.8,1.28; stroke-dashoffset: 0; stroke: #b0b0b0; stroke-width: 0.8"/>
     </g>
     <g id="line2d_6">
      <g>
       <use xlink:href="#mf5b79c6dbd" x="253.736471" y="320.4" style="fill: #a9a9a9; stroke: #a9a9a9; stroke-width: 0.8"/>
      </g>
     </g>
     <g id="text_3">
      <!-- 2022-01 -->
      <g style="fill: #a9a9a9" transform="translate(232.845064 334.998438) scale(0.1 -0.1)">
       <use xlink:href="#DejaVuSans-32"/>
       <use xlink:href="#DejaVuSans-30" x="63.623047"/>
       <use xlink:href="#DejaVuSans-32" x="127.246094"/>
       <use xlink:href="#DejaVuSans-32" x="190.869141"/>
       <use xlink:href="#DejaVuSans-2d" x="254.492188"/>
       <use xlink:href="#DejaVuSans-30" x="290.576172"/>
       <use xlink:href="#DejaVuSans-31" x="354.199219"/>
      </g>
     </g>
    </g>
    <g id="xtick_4">
     <g id="line2d_7">
      <path d="M 318.189947 320.4 
L 318.189947 43.2 
" clip-path="url(#p8749186e03)" style="fill: none; stroke-dasharray: 5.12,1.28,0.8,1.28; stroke-dashoffset: 0; stroke: #b0b0b0; stroke-width: 0.8"/>
     </g>
     <g id="line2d_8">
      <g>
       <use xlink:href="#mf5b79c6dbd" x="318.189947" y="320.4" style="fill: #a9a9a9; stroke: #a9a9a9; stroke-width: 0.8"/>
      </g>
     </g>
     <g id="text_4">
      <!-- 2022-04 -->
      <g style="fill: #a9a9a9" transform="translate(297.29854 334.998438) scale(0.1 -0.1)">
       <defs>
        <path id="DejaVuSans-34" d="M 2419 4116 
L 825 1625 
L 2419 1625 
L 2419 4116 
z
M 2253 4666 
L 3047 4666 
L 3047 1625 
L 3713 1625 
L 3713 1100 
L 3047 1100 
L 3047 0 
L 2419 0 
L 2419 1100 
L 313 1100 
L 313 1709 
L 2253 4666 
z
" transform="scale(0.015625)"/>
       </defs>
       <use xlink:href="#DejaVuSans-32"/>
       <use xlink:href="#DejaVuSans-30" x="63.623047"/>
       <use xlink:href="#DejaVuSans-32" x="127.246094"/>
       <use xlink:href="#DejaVuSans-32" x="190.869141"/>
       <use xlink:href="#DejaVuSans-2d" x="254.492188"/>
       <use xlink:href="#DejaVuSans-30" x="290.576172"/>
       <use xlink:href="#DejaVuSans-34" x="354.199219"/>
      </g>
     </g>
    </g>
    <g id="xtick_5">
     <g id="line2d_9">
      <path d="M 383.359572 320.4 
L 383.359572 43.2 
" clip-path="url(#p8749186e03)" style="fill: none; stroke-dasharray: 5.12,1.28,0.8,1.28; stroke-dashoffset: 0; stroke: #b0b0b0; stroke-width: 0.8"/>
     </g>
     <g id="line2d_10">
      <g>
       <use xlink:href="#mf5b79c6dbd" x="383.359572" y="320.4" style="fill: #a9a9a9; stroke: #a9a9a9; stroke-width: 0.8"/>
      </g>
     </g>
     <g id="text_5">
      <!-- 2022-07 -->
      <g style="fill: #a9a9a9" transform="translate(362.468166 334.998438) scale(0.1 -0.1)">
       <use xlink:href="#DejaVuSans-32"/>
       <use xlink:href="#DejaVuSans-30" x="63.623047"/>
       <use xlink:href="#DejaVuSans-32" x="127.246094"/>
       <use xlink:href="#DejaVuSans-32" x="190.869141"/>
       <use xlink:href="#DejaVuSans-2d" x="254.492188"/>
       <use xlink:href="#DejaVuSans-30" x="290.576172"/>
       <use xlink:href="#DejaVuSans-37" x="354.199219"/>
      </g>
     </g>
    </g>
    <g id="xtick_6">
     <g id="line2d_11">
      <path d="M 449.245348 320.4 
L 449.245348 43.2 
" clip-path="url(#p8749186e03)" style="fill: none; stroke-dasharray: 5.12,1.28,0.8,1.28; stroke-dashoffset: 0; stroke: #b0b0b0; stroke-width: 0.8"/>
     </g>
     <g id="line2d_12">
      <g>
       <use xlink:href="#mf5b79c6dbd" x="449.245348" y="320.4" style="fill: #a9a9a9; stroke: #a9a9a9; stroke-width: 0.8"/>
      </g>
     </g>
     <g id="text_6">
      <!-- 2022-10 -->
      <g style="fill: #a9a9a9" transform="translate(428.353941 334.998438) scale(0.1 -0.1)">
       <use xlink:href="#DejaVuSans-32"/>
       <use xlink:href="#DejaVuSans-30" x="63.623047"/>
       <use xlink:href="#DejaVuSans-32" x="127.246094"/>
       <use xlink:href="#DejaVuSans-32" x="190.869141"/>
       <use xlink:href="#DejaVuSans-2d" x="254.492188"/>
       <use xlink:href="#DejaVuSans-31" x="290.576172"/>
       <use xlink:href="#DejaVuSans-30" x="354.199219"/>
      </g>
     </g>
    </g>
    <g id="xtick_7">
     <g id="line2d_13">
      <path d="M 515.131123 320.4 
L 515.131123 43.2 
" clip-path="url(#p8749186e03)" style="fill: none; stroke-dasharray: 5.12,1.28,0.8,1.28; stroke-dashoffset: 0; stroke: #b0b0b0; stroke-width: 0.8"/>
     </g>
     <g id="line2d_14">
      <g>
       <use xlink:href="#mf5b79c6dbd" x="515.131123" y="320.4" style="fill: #a9a9a9; stroke: #a9a9a9; stroke-width: 0.8"/>
      </g>
     </g>
     <g id="text_7">
      <!-- 2023-01 -->
      <g style="fill: #a9a9a9" transform="translate(494.239717 334.998438) scale(0.1 -0.1)">
       <defs>
        <path id="DejaVuSans-33" d="M 2597 2516 
Q 3050 2419 3304 2112 
Q 3559 1806 3559 1356 
Q 3559 666 3084 287 
Q 2609 -91 1734 -91 
Q 1441 -91 1130 -33 
Q 819 25 488 141 
L 488 750 
Q 750 597 1062 519 
Q 1375 441 1716 441 
Q 2309 441 2620 675 
Q 2931 909 2931 1356 
Q 2931 1769 2642 2001 
Q 2353 2234 1838 2234 
L 1294 2234 
L 1294 2753 
L 1863 2753 
Q 2328 2753 2575 2939 
Q 2822 3125 2822 3475 
Q 2822 3834 2567 4026 
Q 2313 4219 1838 4219 
Q 1578 4219 1281 4162 
Q 984 4106 628 3988 
L 628 4550 
Q 988 4650 1302 4700 
Q 1616 4750 1894 4750 
Q 2613 4750 3031 4423 
Q 3450 4097 3450 3541 
Q 3450 3153 3228 2886 
Q 3006 2619 2597 2516 
z
" transform="scale(0.015625)"/>
       </defs>
       <use xlink:href="#DejaVuSans-32"/>
       <use xlink:href="#DejaVuSans-30" x="63.623047"/>
       <use xlink:href="#DejaVuSans-32" x="127.246094"/>
       <use xlink:href="#DejaVuSans-33" x="190.869141"/>
       <use xlink:href="#DejaVuSans-2d" x="254.492188"/>
       <use xlink:href="#DejaVuSans-30" x="290.576172"/>
       <use xlink:href="#DejaVuSans-31" x="354.199219"/>
      </g>
     </g>
    </g>
    <g id="xtick_8">
     <g id="line2d_15">
      <path d="M 579.584599 320.4 
L 579.584599 43.2 
" clip-path="url(#p8749186e03)" style="fill: none; stroke-dasharray: 5.12,1.28,0.8,1.28; stroke-dashoffset: 0; stroke: #b0b0b0; stroke-width: 0.8"/>
     </g>
     <g id="line2d_16">
      <g>
       <use xlink:href="#mf5b79c6dbd" x="579.584599" y="320.4" style="fill: #a9a9a9; stroke: #a9a9a9; stroke-width: 0.8"/>
      </g>
     </g>
     <g id="text_8">
      <!-- 2023-04 -->
      <g style="fill: #a9a9a9" transform="translate(558.693193 334.998438) scale(0.1 -0.1)">
       <use xlink:href="#DejaVuSans-32"/>
       <use xlink:href="#DejaVuSans-30" x="63.623047"/>
       <use xlink:href="#DejaVuSans-32" x="127.246094"/>
       <use xlink:href="#DejaVuSans-33" x="190.869141"/>
       <use xlink:href="#DejaVuSans-2d" x="254.492188"/>
       <use xlink:href="#DejaVuSans-30" x="290.576172"/>
       <use xlink:href="#DejaVuSans-34" x="354.199219"/>
      </g>
     </g>
    </g>
    <g id="xtick_9">
     <g id="line2d_17">
      <path d="M 644.754225 320.4 
L 644.754225 43.2 
" clip-path="url(#p8749186e03)" style="fill: none; stroke-dasharray: 5.12,1.28,0.8,1.28; stroke-dashoffset: 0; stroke: #b0b0b0; stroke-width: 0.8"/>
     </g>
     <g id="line2d_18">
      <g>
       <use xlink:href="#mf5b79c6dbd" x="644.754225" y="320.4" style="fill: #a9a9a9; stroke: #a9a9a9; stroke-width: 0.8"/>
      </g>
     </g>
     <g id="text_9">
      <!-- 2023-07 -->
      <g style="fill: #a9a9a9" transform="translate(623.862818 334.998438) scale(0.1 -0.1)">
       <use xlink:href="#DejaVuSans-32"/>
       <use xlink:href="#DejaVuSans-30" x="63.623047"/>
       <use xlink:href="#DejaVuSans-32" x="127.246094"/>
       <use xlink:href="#DejaVuSans-33" x="190.869141"/>
       <use xlink:href="#DejaVuSans-2d" x="254.492188"/>
       <use xlink:href="#DejaVuSans-30" x="290.576172"/>
       <use xlink:href="#DejaVuSans-37" x="354.199219"/>
      </g>
     </g>
    </g>
    <g id="xtick_10">
     <g id="line2d_19">
      <path d="M 710.64 320.4 
L 710.64 43.2 
" clip-path="url(#p8749186e03)" style="fill: none; stroke-dasharray: 5.12,1.28,0.8,1.28; stroke-dashoffset: 0; stroke: #b0b0b0; stroke-width: 0.8"/>
     </g>
     <g id="line2d_20">
      <g>
       <use xlink:href="#mf5b79c6dbd" x="710.64" y="320.4" style="fill: #a9a9a9; stroke: #a9a9a9; stroke-width: 0.8"/>
      </g>
     </g>
     <g id="text_10">
      <!-- 2023-10 -->
      <g style="fill: #a9a9a9" transform="translate(689.748594 334.998438) scale(0.1 -0.1)">
       <use xlink:href="#DejaVuSans-32"/>
       <use xlink:href="#DejaVuSans-30" x="63.623047"/>
       <use xlink:href="#DejaVuSans-32" x="127.246094"/>
       <use xlink:href="#DejaVuSans-33" x="190.869141"/>
       <use xlink:href="#DejaVuSans-2d" x="254.492188"/>
       <use xlink:href="#DejaVuSans-31" x="290.576172"/>
       <use xlink:href="#DejaVuSans-30" x="354.199219"/>
      </g>
     </g>
    </g>
    <g id="xtick_11">
     <g id="line2d_21">
      <path d="M 776.525775 320.4 
L 776.525775 43.2 
" clip-path="url(#p8749186e03)" style="fill: none; stroke-dasharray: 5.12,1.28,0.8,1.28; stroke-dashoffset: 0; stroke: #b0b0b0; stroke-width: 0.8"/>
     </g>
     <g id="line2d_22">
      <g>
       <use xlink:href="#mf5b79c6dbd" x="776.525775" y="320.4" style="fill: #a9a9a9; stroke: #a9a9a9; stroke-width: 0.8"/>
      </g>
     </g>
     <g id="text_11">
      <!-- 2024-01 -->
      <g style="fill: #a9a9a9" transform="translate(755.634369 334.998438) scale(0.1 -0.1)">
       <use xlink:href="#DejaVuSans-32"/>
       <use xlink:href="#DejaVuSans-30" x="63.623047"/>
       <use xlink:href="#DejaVuSans-32" x="127.246094"/>
       <use xlink:href="#DejaVuSans-34" x="190.869141"/>
       <use xlink:href="#DejaVuSans-2d" x="254.492188"/>
       <use xlink:href="#DejaVuSans-30" x="290.576172"/>
       <use xlink:href="#DejaVuSans-31" x="354.199219"/>
      </g>
     </g>
    </g>
   </g>
   <g id="matplotlib.axis_2">
    <g id="ytick_1">
     <g id="line2d_23">
      <path d="M 108 307.848818 
L 777.6 307.848818 
" clip-path="url(#p8749186e03)" style="fill: none; stroke-dasharray: 5.12,1.28,0.8,1.28; stroke-dashoffset: 0; stroke: #b0b0b0; stroke-width: 0.8"/>
     </g>
     <g id="line2d_24">
      <defs>
       <path id="m490736e9ad" d="M 0 0 
L -3.5 0 
" style="stroke: #a9a9a9; stroke-width: 0.8"/>
      </defs>
      <g>
       <use xlink:href="#m490736e9ad" x="108" y="307.848818" style="fill: #a9a9a9; stroke: #a9a9a9; stroke-width: 0.8"/>
      </g>
     </g>
     <g id="text_12">
      <!-- 0 -->
      <g style="fill: #a9a9a9" transform="translate(94.6375 311.648037) scale(0.1 -0.1)">
       <use xlink:href="#DejaVuSans-30"/>
      </g>
     </g>
    </g>
    <g id="ytick_2">
     <g id="line2d_25">
      <path d="M 108 278.557846 
L 777.6 278.557846 
" clip-path="url(#p8749186e03)" style="fill: none; stroke-dasharray: 5.12,1.28,0.8,1.28; stroke-dashoffset: 0; stroke: #b0b0b0; stroke-width: 0.8"/>
     </g>
     <g id="line2d_26">
      <g>
       <use xlink:href="#m490736e9ad" x="108" y="278.557846" style="fill: #a9a9a9; stroke: #a9a9a9; stroke-width: 0.8"/>
      </g>
     </g>
     <g id="text_13">
      <!-- 600 -->
      <g style="fill: #a9a9a9" transform="translate(81.9125 282.357065) scale(0.1 -0.1)">
       <defs>
        <path id="DejaVuSans-36" d="M 2113 2584 
Q 1688 2584 1439 2293 
Q 1191 2003 1191 1497 
Q 1191 994 1439 701 
Q 1688 409 2113 409 
Q 2538 409 2786 701 
Q 3034 994 3034 1497 
Q 3034 2003 2786 2293 
Q 2538 2584 2113 2584 
z
M 3366 4563 
L 3366 3988 
Q 3128 4100 2886 4159 
Q 2644 4219 2406 4219 
Q 1781 4219 1451 3797 
Q 1122 3375 1075 2522 
Q 1259 2794 1537 2939 
Q 1816 3084 2150 3084 
Q 2853 3084 3261 2657 
Q 3669 2231 3669 1497 
Q 3669 778 3244 343 
Q 2819 -91 2113 -91 
Q 1303 -91 875 529 
Q 447 1150 447 2328 
Q 447 3434 972 4092 
Q 1497 4750 2381 4750 
Q 2619 4750 2861 4703 
Q 3103 4656 3366 4563 
z
" transform="scale(0.015625)"/>
       </defs>
       <use xlink:href="#DejaVuSans-36"/>
       <use xlink:href="#DejaVuSans-30" x="63.623047"/>
       <use xlink:href="#DejaVuSans-30" x="127.246094"/>
      </g>
     </g>
    </g>
    <g id="ytick_3">
     <g id="line2d_27">
      <path d="M 108 249.266873 
L 777.6 249.266873 
" clip-path="url(#p8749186e03)" style="fill: none; stroke-dasharray: 5.12,1.28,0.8,1.28; stroke-dashoffset: 0; stroke: #b0b0b0; stroke-width: 0.8"/>
     </g>
     <g id="line2d_28">
      <g>
       <use xlink:href="#m490736e9ad" x="108" y="249.266873" style="fill: #a9a9a9; stroke: #a9a9a9; stroke-width: 0.8"/>
      </g>
     </g>
     <g id="text_14">
      <!-- 1200 -->
      <g style="fill: #a9a9a9" transform="translate(75.55 253.066092) scale(0.1 -0.1)">
       <use xlink:href="#DejaVuSans-31"/>
       <use xlink:href="#DejaVuSans-32" x="63.623047"/>
       <use xlink:href="#DejaVuSans-30" x="127.246094"/>
       <use xlink:href="#DejaVuSans-30" x="190.869141"/>
      </g>
     </g>
    </g>
    <g id="ytick_4">
     <g id="line2d_29">
      <path d="M 108 219.975901 
L 777.6 219.975901 
" clip-path="url(#p8749186e03)" style="fill: none; stroke-dasharray: 5.12,1.28,0.8,1.28; stroke-dashoffset: 0; stroke: #b0b0b0; stroke-width: 0.8"/>
     </g>
     <g id="line2d_30">
      <g>
       <use xlink:href="#m490736e9ad" x="108" y="219.975901" style="fill: #a9a9a9; stroke: #a9a9a9; stroke-width: 0.8"/>
      </g>
     </g>
     <g id="text_15">
      <!-- 1800 -->
      <g style="fill: #a9a9a9" transform="translate(75.55 223.77512) scale(0.1 -0.1)">
       <defs>
        <path id="DejaVuSans-38" d="M 2034 2216 
Q 1584 2216 1326 1975 
Q 1069 1734 1069 1313 
Q 1069 891 1326 650 
Q 1584 409 2034 409 
Q 2484 409 2743 651 
Q 3003 894 3003 1313 
Q 3003 1734 2745 1975 
Q 2488 2216 2034 2216 
z
M 1403 2484 
Q 997 2584 770 2862 
Q 544 3141 544 3541 
Q 544 4100 942 4425 
Q 1341 4750 2034 4750 
Q 2731 4750 3128 4425 
Q 3525 4100 3525 3541 
Q 3525 3141 3298 2862 
Q 3072 2584 2669 2484 
Q 3125 2378 3379 2068 
Q 3634 1759 3634 1313 
Q 3634 634 3220 271 
Q 2806 -91 2034 -91 
Q 1263 -91 848 271 
Q 434 634 434 1313 
Q 434 1759 690 2068 
Q 947 2378 1403 2484 
z
M 1172 3481 
Q 1172 3119 1398 2916 
Q 1625 2713 2034 2713 
Q 2441 2713 2670 2916 
Q 2900 3119 2900 3481 
Q 2900 3844 2670 4047 
Q 2441 4250 2034 4250 
Q 1625 4250 1398 4047 
Q 1172 3844 1172 3481 
z
" transform="scale(0.015625)"/>
       </defs>
       <use xlink:href="#DejaVuSans-31"/>
       <use xlink:href="#DejaVuSans-38" x="63.623047"/>
       <use xlink:href="#DejaVuSans-30" x="127.246094"/>
       <use xlink:href="#DejaVuSans-30" x="190.869141"/>
      </g>
     </g>
    </g>
    <g id="ytick_5">
     <g id="line2d_31">
      <path d="M 108 190.684928 
L 777.6 190.684928 
" clip-path="url(#p8749186e03)" style="fill: none; stroke-dasharray: 5.12,1.28,0.8,1.28; stroke-dashoffset: 0; stroke: #b0b0b0; stroke-width: 0.8"/>
     </g>
     <g id="line2d_32">
      <g>
       <use xlink:href="#m490736e9ad" x="108" y="190.684928" style="fill: #a9a9a9; stroke: #a9a9a9; stroke-width: 0.8"/>
      </g>
     </g>
     <g id="text_16">
      <!-- 2400 -->
      <g style="fill: #a9a9a9" transform="translate(75.55 194.484147) scale(0.1 -0.1)">
       <use xlink:href="#DejaVuSans-32"/>
       <use xlink:href="#DejaVuSans-34" x="63.623047"/>
       <use xlink:href="#DejaVuSans-30" x="127.246094"/>
       <use xlink:href="#DejaVuSans-30" x="190.869141"/>
      </g>
     </g>
    </g>
    <g id="ytick_6">
     <g id="line2d_33">
      <path d="M 108 161.393956 
L 777.6 161.393956 
" clip-path="url(#p8749186e03)" style="fill: none; stroke-dasharray: 5.12,1.28,0.8,1.28; stroke-dashoffset: 0; stroke: #b0b0b0; stroke-width: 0.8"/>
     </g>
     <g id="line2d_34">
      <g>
       <use xlink:href="#m490736e9ad" x="108" y="161.393956" style="fill: #a9a9a9; stroke: #a9a9a9; stroke-width: 0.8"/>
      </g>
     </g>
     <g id="text_17">
      <!-- 3000 -->
      <g style="fill: #a9a9a9" transform="translate(75.55 165.193175) scale(0.1 -0.1)">
       <use xlink:href="#DejaVuSans-33"/>
       <use xlink:href="#DejaVuSans-30" x="63.623047"/>
       <use xlink:href="#DejaVuSans-30" x="127.246094"/>
       <use xlink:href="#DejaVuSans-30" x="190.869141"/>
      </g>
     </g>
    </g>
    <g id="ytick_7">
     <g id="line2d_35">
      <path d="M 108 132.102983 
L 777.6 132.102983 
" clip-path="url(#p8749186e03)" style="fill: none; stroke-dasharray: 5.12,1.28,0.8,1.28; stroke-dashoffset: 0; stroke: #b0b0b0; stroke-width: 0.8"/>
     </g>
     <g id="line2d_36">
      <g>
       <use xlink:href="#m490736e9ad" x="108" y="132.102983" style="fill: #a9a9a9; stroke: #a9a9a9; stroke-width: 0.8"/>
      </g>
     </g>
     <g id="text_18">
      <!-- 3600 -->
      <g style="fill: #a9a9a9" transform="translate(75.55 135.902202) scale(0.1 -0.1)">
       <use xlink:href="#DejaVuSans-33"/>
       <use xlink:href="#DejaVuSans-36" x="63.623047"/>
       <use xlink:href="#DejaVuSans-30" x="127.246094"/>
       <use xlink:href="#DejaVuSans-30" x="190.869141"/>
      </g>
     </g>
    </g>
    <g id="ytick_8">
     <g id="line2d_37">
      <path d="M 108 102.812011 
L 777.6 102.812011 
" clip-path="url(#p8749186e03)" style="fill: none; stroke-dasharray: 5.12,1.28,0.8,1.28; stroke-dashoffset: 0; stroke: #b0b0b0; stroke-width: 0.8"/>
     </g>
     <g id="line2d_38">
      <g>
       <use xlink:href="#m490736e9ad" x="108" y="102.812011" style="fill: #a9a9a9; stroke: #a9a9a9; stroke-width: 0.8"/>
      </g>
     </g>
     <g id="text_19">
      <!-- 4200 -->
      <g style="fill: #a9a9a9" transform="translate(75.55 106.61123) scale(0.1 -0.1)">
       <use xlink:href="#DejaVuSans-34"/>
       <use xlink:href="#DejaVuSans-32" x="63.623047"/>
       <use xlink:href="#DejaVuSans-30" x="127.246094"/>
       <use xlink:href="#DejaVuSans-30" x="190.869141"/>
      </g>
     </g>
    </g>
    <g id="ytick_9">
     <g id="line2d_39">
      <path d="M 108 73.521038 
L 777.6 73.521038 
" clip-path="url(#p8749186e03)" style="fill: none; stroke-dasharray: 5.12,1.28,0.8,1.28; stroke-dashoffset: 0; stroke: #b0b0b0; stroke-width: 0.8"/>
     </g>
     <g id="line2d_40">
      <g>
       <use xlink:href="#m490736e9ad" x="108" y="73.521038" style="fill: #a9a9a9; stroke: #a9a9a9; stroke-width: 0.8"/>
      </g>
     </g>
     <g id="text_20">
      <!-- 4800 -->
      <g style="fill: #a9a9a9" transform="translate(75.55 77.320257) scale(0.1 -0.1)">
       <use xlink:href="#DejaVuSans-34"/>
       <use xlink:href="#DejaVuSans-38" x="63.623047"/>
       <use xlink:href="#DejaVuSans-30" x="127.246094"/>
       <use xlink:href="#DejaVuSans-30" x="190.869141"/>
      </g>
     </g>
    </g>
    <g id="ytick_10">
     <g id="line2d_41">
      <path d="M 108 44.230066 
L 777.6 44.230066 
" clip-path="url(#p8749186e03)" style="fill: none; stroke-dasharray: 5.12,1.28,0.8,1.28; stroke-dashoffset: 0; stroke: #b0b0b0; stroke-width: 0.8"/>
     </g>
     <g id="line2d_42">
      <g>
       <use xlink:href="#m490736e9ad" x="108" y="44.230066" style="fill: #a9a9a9; stroke: #a9a9a9; stroke-width: 0.8"/>
      </g>
     </g>
     <g id="text_21">
      <!-- 5400 -->
      <g style="fill: #a9a9a9" transform="translate(75.55 48.029285) scale(0.1 -0.1)">
       <defs>
        <path id="DejaVuSans-35" d="M 691 4666 
L 3169 4666 
L 3169 4134 
L 1269 4134 
L 1269 2991 
Q 1406 3038 1543 3061 
Q 1681 3084 1819 3084 
Q 2600 3084 3056 2656 
Q 3513 2228 3513 1497 
Q 3513 744 3044 326 
Q 2575 -91 1722 -91 
Q 1428 -91 1123 -41 
Q 819 9 494 109 
L 494 744 
Q 775 591 1075 516 
Q 1375 441 1709 441 
Q 2250 441 2565 725 
Q 2881 1009 2881 1497 
Q 2881 1984 2565 2268 
Q 2250 2553 1709 2553 
Q 1456 2553 1204 2497 
Q 953 2441 691 2322 
L 691 4666 
z
" transform="scale(0.015625)"/>
       </defs>
       <use xlink:href="#DejaVuSans-35"/>
       <use xlink:href="#DejaVuSans-34" x="63.623047"/>
       <use xlink:href="#DejaVuSans-30" x="127.246094"/>
       <use xlink:href="#DejaVuSans-30" x="190.869141"/>
      </g>
     </g>
    </g>
   </g>
   <g id="line2d_43">
    <path d="M 138.436364 307.702363 
L 142.733262 307.360635 
L 143.449412 307.067726 
L 145.597861 306.823634 
L 150.610909 305.896087 
L 154.191658 305.554359 
L 154.907807 305.212631 
L 155.623957 305.017358 
L 156.340107 304.138628 
L 157.056257 303.650446 
L 157.772406 302.08826 
L 158.488556 301.990624 
L 159.204706 301.453623 
L 160.637005 300.770167 
L 162.069305 299.696164 
L 162.785455 299.012708 
L 164.217754 298.329252 
L 164.933904 298.036343 
L 165.650053 297.499341 
L 168.514652 296.278884 
L 169.230802 295.156064 
L 169.946952 294.570244 
L 171.379251 293.789151 
L 178.540749 292.812786 
L 179.256898 292.471058 
L 184.269947 292.080511 
L 185.702246 291.689965 
L 187.134545 291.397055 
L 192.863743 290.664781 
L 193.579893 290.274235 
L 194.296043 290.176598 
L 195.012193 289.883688 
L 196.444492 289.639597 
L 197.160642 289.590779 
L 197.876791 289.346687 
L 200.74139 288.907323 
L 202.17369 288.516776 
L 204.322139 288.321503 
L 205.754439 288.175048 
L 206.470588 287.979775 
L 207.186738 287.930957 
L 209.335187 287.296319 
L 213.632086 286.661682 
L 214.348235 286.466408 
L 215.064385 285.490043 
L 217.212834 284.70895 
L 219.361283 284.123131 
L 220.077433 283.781403 
L 220.793583 283.732584 
L 224.374332 282.756219 
L 225.806631 282.658582 
L 226.522781 282.560945 
L 228.67123 281.926308 
L 231.535829 281.242852 
L 232.251979 280.949942 
L 232.968128 280.852305 
L 233.684278 280.510577 
L 240.845775 279.436575 
L 244.426524 278.411391 
L 245.142674 277.972026 
L 248.007273 277.190934 
L 249.439572 276.361023 
L 250.155722 275.87284 
L 250.871872 275.775203 
L 251.588021 275.531112 
L 253.736471 275.140566 
L 254.45262 274.798838 
L 255.88492 274.554746 
L 256.60107 274.1642 
L 258.033369 273.724835 
L 258.749519 273.627199 
L 260.181818 273.236652 
L 261.614118 272.894924 
L 262.330267 272.797288 
L 263.762567 272.211468 
L 264.478717 272.065014 
L 265.194866 271.772104 
L 265.911016 271.674467 
L 266.627166 271.332739 
L 267.343316 271.137466 
L 268.775615 271.03983 
L 270.207914 270.551647 
L 271.640214 270.45401 
L 272.356364 270.112282 
L 275.220963 269.624099 
L 278.085561 269.380008 
L 278.801711 269.233553 
L 280.234011 268.550097 
L 288.111658 265.279272 
L 288.827807 264.888725 
L 289.543957 264.107633 
L 290.260107 262.935994 
L 290.976257 262.008446 
L 291.692406 261.813173 
L 292.408556 261.813173 
L 293.840856 260.787989 
L 294.557005 260.592716 
L 295.273155 260.20217 
L 295.989305 260.055715 
L 296.705455 259.421077 
L 297.421604 259.225804 
L 299.570053 258.20062 
L 300.286203 257.321891 
L 301.002353 256.247888 
L 301.718503 255.808524 
L 302.434652 254.636885 
L 303.150802 253.904611 
L 303.866952 253.562883 
L 304.583102 253.367609 
L 306.015401 252.48888 
L 306.731551 252.147152 
L 309.59615 250.047966 
L 310.312299 249.022782 
L 311.028449 247.36296 
L 311.744599 246.288958 
L 312.460749 245.751957 
L 313.176898 245.459047 
L 316.041497 243.018133 
L 316.757647 242.52995 
L 318.189947 241.309492 
L 318.906096 240.284308 
L 320.338396 239.063851 
L 323.202995 237.208756 
L 323.919144 236.574119 
L 324.635294 236.427664 
L 326.783743 235.304843 
L 328.216043 234.474932 
L 328.932193 234.182022 
L 330.364492 232.863929 
L 331.080642 232.034018 
L 332.512941 231.057652 
L 333.229091 230.862379 
L 333.945241 230.520651 
L 334.66139 229.98365 
L 336.09369 229.202557 
L 336.80984 229.104921 
L 338.242139 228.323828 
L 338.958289 227.933282 
L 339.674439 227.201007 
L 340.390588 226.761643 
L 341.106738 226.517551 
L 341.822888 226.029368 
L 344.687487 224.56482 
L 345.403636 223.930182 
L 348.268235 222.953816 
L 348.984385 222.465633 
L 349.700535 222.319179 
L 351.132834 221.830996 
L 353.281283 221.001085 
L 355.429733 220.219992 
L 356.862032 219.975901 
L 358.294332 218.755444 
L 359.726631 218.071988 
L 361.87508 216.85153 
L 363.30738 216.460984 
L 364.023529 216.02162 
L 364.739679 215.826346 
L 366.888128 214.459434 
L 370.468877 213.629523 
L 372.617326 212.409066 
L 373.333476 212.31143 
L 374.049626 212.067338 
L 375.481925 211.774429 
L 377.630374 210.212243 
L 379.778824 209.72406 
L 380.494973 209.479969 
L 381.211123 208.942968 
L 385.508021 207.576056 
L 386.224171 207.527238 
L 391.237219 205.769779 
L 391.953369 205.428051 
L 394.101818 204.939868 
L 395.534118 204.59814 
L 396.250267 204.256412 
L 396.966417 204.109957 
L 399.114866 203.133592 
L 401.263316 202.059589 
L 401.979465 201.571406 
L 402.695615 201.376133 
L 404.844064 200.253313 
L 406.276364 199.911585 
L 407.708663 199.17931 
L 409.140963 198.788764 
L 409.857112 198.691127 
L 410.573262 198.202945 
L 411.289412 197.861217 
L 412.005561 197.714762 
L 413.437861 197.128942 
L 414.154011 196.982487 
L 414.87016 196.591941 
L 417.734759 196.152577 
L 419.167059 195.46912 
L 419.883209 194.883301 
L 420.599358 193.662844 
L 422.031658 193.369934 
L 422.747807 193.223479 
L 425.612406 191.758931 
L 426.328556 191.612476 
L 432.057754 188.878652 
L 434.206203 188.439287 
L 435.638503 187.755831 
L 436.354652 187.462921 
L 437.070802 187.365285 
L 439.935401 186.096009 
L 441.367701 185.119644 
L 442.08385 184.777916 
L 442.8 184.680279 
L 443.51615 184.436188 
L 444.232299 184.387369 
L 447.096898 183.459822 
L 447.813048 183.411003 
L 448.529198 182.874002 
L 449.961497 182.385819 
L 452.109947 181.702363 
L 452.826096 181.262999 
L 453.542246 181.067726 
L 454.258396 180.579543 
L 454.974545 180.286633 
L 455.690695 179.847269 
L 457.122995 179.310267 
L 459.271444 178.626811 
L 459.987594 178.285083 
L 460.703743 177.748082 
L 461.419893 177.015808 
L 462.136043 176.576443 
L 462.852193 176.429988 
L 464.284492 175.355986 
L 465.000642 175.209531 
L 465.716791 174.135529 
L 466.432941 173.842619 
L 467.149091 173.305618 
L 467.865241 173.207981 
L 468.58139 172.719799 
L 469.29754 172.378071 
L 470.01369 172.231616 
L 470.72984 171.938706 
L 471.445989 171.352886 
L 472.162139 171.108795 
L 474.310588 169.693065 
L 477.175187 168.277334 
L 477.891337 168.179698 
L 479.323636 167.54506 
L 480.039786 167.105695 
L 480.755936 165.934057 
L 481.472086 165.299419 
L 482.188235 164.908873 
L 482.904385 164.762418 
L 484.336684 163.883688 
L 485.052834 163.737234 
L 486.485134 163.053778 
L 488.633583 162.175048 
L 490.065882 161.198683 
L 491.498182 159.685316 
L 492.930481 158.806587 
L 493.646631 158.367222 
L 494.362781 157.634948 
L 495.07893 157.146765 
L 496.51123 155.975126 
L 497.22738 155.682216 
L 497.943529 154.901124 
L 498.659679 154.364122 
L 500.091979 153.87594 
L 500.808128 153.241302 
L 502.240428 152.509028 
L 502.956578 152.313754 
L 503.672727 151.825571 
L 504.388877 151.630298 
L 506.537326 150.507478 
L 507.253476 149.970477 
L 508.685775 149.384657 
L 509.401925 149.238202 
L 510.118075 148.798838 
L 515.131123 147.090198 
L 515.847273 146.45556 
L 517.995722 145.674467 
L 519.428021 145.235103 
L 520.144171 144.698102 
L 522.29262 143.721736 
L 523.00877 143.184735 
L 523.72492 142.794188 
L 525.157219 140.011546 
L 526.589519 138.351724 
L 527.305668 137.863541 
L 529.454118 136.935994 
L 530.170267 136.691902 
L 530.886417 136.594266 
L 531.602567 136.203719 
L 533.751016 135.569082 
L 535.899465 134.739171 
L 537.331765 133.811623 
L 539.480214 132.835258 
L 543.060963 130.78489 
L 543.777112 130.052615 
L 545.209412 129.271523 
L 545.925561 128.880976 
L 546.641711 128.636885 
L 547.357861 128.148702 
L 548.79016 127.465246 
L 550.93861 126.342425 
L 551.654759 126.147152 
L 552.370909 125.610151 
L 553.087059 125.317241 
L 553.803209 125.170787 
L 555.235508 124.584967 
L 557.383957 123.803874 
L 558.100107 123.266873 
L 559.532406 122.876327 
L 560.964706 122.339326 
L 561.680856 121.753506 
L 563.113155 121.314142 
L 563.829305 120.972414 
L 564.545455 120.777141 
L 565.977754 119.800775 
L 567.410053 119.166137 
L 568.842353 118.092135 
L 570.274652 117.603952 
L 570.990802 117.018133 
L 571.706952 116.871678 
L 572.423102 116.23704 
L 573.855401 115.407129 
L 575.287701 114.82131 
L 576.00385 114.089035 
L 580.300749 112.52685 
L 582.449198 111.599303 
L 584.597647 110.964665 
L 586.029947 110.769392 
L 586.746096 110.476482 
L 587.462246 110.330027 
L 588.894545 109.744208 
L 589.610695 109.695389 
L 592.475294 108.670205 
L 594.623743 107.205657 
L 598.920642 105.10647 
L 601.069091 103.739558 
L 602.50139 103.39783 
L 603.93369 102.421465 
L 606.798289 101.542735 
L 607.514439 101.249826 
L 608.946738 100.908098 
L 612.527487 99.736459 
L 614.675936 99.345912 
L 615.392086 99.150639 
L 616.108235 98.808911 
L 616.824385 98.711275 
L 618.256684 98.125455 
L 618.972834 98.027819 
L 619.688984 97.686091 
L 621.121283 97.393181 
L 621.837433 97.051453 
L 623.985882 96.56327 
L 625.418182 96.27036 
L 634.728128 94.268811 
L 635.444278 94.073537 
L 636.160428 93.682991 
L 639.741176 92.804262 
L 640.457326 92.657807 
L 643.321925 91.583805 
L 644.038075 91.339713 
L 644.754225 91.242077 
L 646.902674 90.509802 
L 647.618824 90.509802 
L 649.051123 90.02162 
L 649.767273 89.338164 
L 650.483422 88.996435 
L 651.915722 88.557071 
L 654.780321 87.483069 
L 655.496471 87.336614 
L 656.21262 86.897249 
L 656.92877 86.750794 
L 657.64492 86.31143 
L 661.225668 85.237427 
L 661.941818 84.798063 
L 662.657968 84.60279 
L 663.374118 84.01697 
L 665.522567 83.626424 
L 666.954866 82.845331 
L 667.671016 82.064239 
L 669.103316 81.771329 
L 673.400214 80.794963 
L 674.832513 80.404417 
L 676.264813 80.355599 
L 676.980963 80.013871 
L 679.845561 79.525688 
L 680.561711 79.18396 
L 682.71016 78.89105 
L 684.14246 78.354049 
L 684.85861 78.012321 
L 685.574759 77.963503 
L 687.723209 77.47532 
L 689.871658 76.938318 
L 692.736257 76.059589 
L 693.452406 75.913134 
L 694.168556 75.571406 
L 694.884706 75.47377 
L 695.600856 75.229678 
L 696.317005 74.790314 
L 698.465455 74.009221 
L 699.181604 73.47222 
L 700.613904 73.081674 
L 701.330053 72.788764 
L 702.762353 72.398218 
L 705.626952 71.080124 
L 707.775401 70.933669 
L 710.64 70.05494 
L 711.35615 69.615575 
L 712.788449 69.176211 
L 714.936898 68.102208 
L 715.653048 67.955754 
L 716.369198 67.614026 
L 717.085348 67.516389 
L 718.517647 66.979388 
L 719.233797 66.63766 
L 719.949947 66.491205 
L 720.666096 66.149477 
L 722.098396 65.758931 
L 722.814545 65.417203 
L 728.543743 63.903836 
L 729.976043 63.22038 
L 732.124492 62.683379 
L 732.840642 62.146377 
L 733.556791 61.804649 
L 734.272941 60.974738 
L 734.989091 60.437737 
L 736.42139 59.949554 
L 737.13754 59.363735 
L 745.015187 56.141728 
L 747.163636 55.8 
L 747.163636 55.8 
" clip-path="url(#p8749186e03)" style="fill: none; stroke: #1f77b4; stroke-width: 1.5; stroke-linecap: square"/>
   </g>
   <g id="line2d_44">
    <path d="M 139.152513 307.8 
L 141.300963 307.702363 
L 143.449412 307.653545 
L 147.74631 307.555909 
L 151.327059 307.409454 
L 154.191658 307.409454 
L 154.907807 307.214181 
L 157.056257 307.165362 
L 161.353155 306.677179 
L 172.095401 306.042542 
L 177.824599 305.944905 
L 181.405348 305.79845 
L 189.999144 305.700814 
L 193.579893 305.554359 
L 197.876791 305.456722 
L 200.74139 305.359086 
L 207.186738 305.261449 
L 209.335187 305.212631 
L 211.483636 305.163812 
L 213.632086 304.919721 
L 217.928984 304.870903 
L 219.361283 304.773266 
L 224.374332 304.67563 
L 232.251979 304.236265 
L 237.265027 304.138628 
L 238.697326 304.040992 
L 240.845775 303.943355 
L 245.142674 303.748082 
L 248.007273 303.699264 
L 250.155722 303.503991 
L 261.614118 302.820535 
L 264.478717 302.722898 
L 269.491765 302.478807 
L 271.640214 302.38117 
L 278.801711 301.990624 
L 286.679358 301.892987 
L 289.543957 301.600077 
L 290.976257 301.502441 
L 300.286203 300.770167 
L 304.583102 300.233165 
L 307.447701 300.135529 
L 313.176898 299.403255 
L 316.757647 299.305618 
L 326.067594 298.573344 
L 330.364492 298.085161 
L 332.512941 298.036343 
L 333.945241 297.938706 
L 336.80984 297.841069 
L 338.242139 297.743433 
L 341.822888 297.401705 
L 342.539037 297.206432 
L 346.835936 297.011158 
L 350.416684 296.913522 
L 359.726631 296.376521 
L 361.87508 296.278884 
L 371.185027 295.741883 
L 376.198075 295.644246 
L 376.914225 295.497792 
L 382.643422 295.400155 
L 387.656471 295.156064 
L 395.534118 295.058427 
L 400.547166 294.814336 
L 406.276364 294.716699 
L 412.721711 294.374971 
L 417.01861 294.277334 
L 430.625455 293.447423 
L 436.354652 293.349787 
L 439.935401 293.008059 
L 441.367701 292.861604 
L 444.948449 292.812786 
L 447.813048 292.519876 
L 454.974545 292.12933 
L 459.271444 292.031693 
L 461.419893 291.982875 
L 463.568342 291.934057 
L 465.716791 291.738783 
L 471.445989 291.641147 
L 472.878289 291.397055 
L 474.310588 291.299419 
L 477.175187 291.201782 
L 479.323636 291.104146 
L 480.755936 291.006509 
L 487.201283 290.908873 
L 488.633583 290.762418 
L 491.498182 290.664781 
L 492.214332 290.518326 
L 493.646631 290.469508 
L 494.362781 290.323053 
L 496.51123 290.225417 
L 508.685775 289.493142 
L 510.834225 289.395506 
L 514.414973 289.249051 
L 524.44107 289.151414 
L 529.454118 288.907323 
L 535.183316 288.809686 
L 538.047914 288.71205 
L 540.912513 288.663231 
L 542.344813 288.516776 
L 545.209412 288.41914 
L 552.370909 288.028594 
L 556.667807 287.979775 
L 558.816257 287.784502 
L 560.964706 287.735684 
L 565.977754 287.638047 
L 568.842353 287.540411 
L 577.43615 287.442774 
L 581.016898 287.296319 
L 585.313797 287.198683 
L 587.462246 286.954591 
L 591.759144 286.905773 
L 592.475294 286.759318 
L 593.907594 286.661682 
L 596.772193 286.564045 
L 605.365989 286.466408 
L 608.946738 286.319954 
L 621.121283 286.271135 
L 622.553583 286.173499 
L 624.702032 286.12468 
L 634.011979 286.027044 
L 635.444278 285.929407 
L 643.321925 285.831771 
L 646.186524 285.734134 
L 654.780321 285.685316 
L 656.21262 285.587679 
L 666.954866 285.538861 
L 669.103316 285.343588 
L 681.277861 285.245951 
L 683.42631 285.197133 
L 702.046203 285.099496 
L 704.910802 285.00186 
L 717.801497 284.904223 
L 719.233797 284.757768 
L 725.679144 284.660132 
L 733.556791 284.220767 
L 737.85369 284.123131 
L 740.718289 284.025494 
L 744.299037 283.976676 
L 745.731337 283.879039 
L 747.163636 283.879039 
L 747.163636 283.879039 
" clip-path="url(#p8749186e03)" style="fill: none; stroke: #ff7f0e; stroke-width: 1.5; stroke-linecap: square"/>
   </g>
   <g id="patch_3">
    <path d="M 108 320.4 
L 108 43.2 
" style="fill: none; stroke: #a9a9a9; stroke-width: 0.8; stroke-linejoin: miter; stroke-linecap: square"/>
   </g>
   <g id="patch_4">
    <path d="M 777.6 320.4 
L 777.6 43.2 
" style="fill: none"/>
   </g>
   <g id="patch_5">
    <path d="M 108 320.4 
L 777.6 320.4 
" style="fill: none; stroke: #a9a9a9; stroke-width: 0.8; stroke-linejoin: miter; stroke-linecap: square"/>
   </g>
   <g id="patch_6">
    <path d="M 108 43.2 
L 777.6 43.2 
" style="fill: none"/>
   </g>
   <g id="text_22">
    <!-- get_subscribe history -->
    <g style="fill: #a9a9a9" transform="translate(378.6075 37.2) scale(0.12 -0.12)">
     <defs>
      <path id="DejaVuSans-67" d="M 2906 1791 
Q 2906 2416 2648 2759 
Q 2391 3103 1925 3103 
Q 1463 3103 1205 2759 
Q 947 2416 947 1791 
Q 947 1169 1205 825 
Q 1463 481 1925 481 
Q 2391 481 2648 825 
Q 2906 1169 2906 1791 
z
M 3481 434 
Q 3481 -459 3084 -895 
Q 2688 -1331 1869 -1331 
Q 1566 -1331 1297 -1286 
Q 1028 -1241 775 -1147 
L 775 -588 
Q 1028 -725 1275 -790 
Q 1522 -856 1778 -856 
Q 2344 -856 2625 -561 
Q 2906 -266 2906 331 
L 2906 616 
Q 2728 306 2450 153 
Q 2172 0 1784 0 
Q 1141 0 747 490 
Q 353 981 353 1791 
Q 353 2603 747 3093 
Q 1141 3584 1784 3584 
Q 2172 3584 2450 3431 
Q 2728 3278 2906 2969 
L 2906 3500 
L 3481 3500 
L 3481 434 
z
" transform="scale(0.015625)"/>
      <path id="DejaVuSans-65" d="M 3597 1894 
L 3597 1613 
L 953 1613 
Q 991 1019 1311 708 
Q 1631 397 2203 397 
Q 2534 397 2845 478 
Q 3156 559 3463 722 
L 3463 178 
Q 3153 47 2828 -22 
Q 2503 -91 2169 -91 
Q 1331 -91 842 396 
Q 353 884 353 1716 
Q 353 2575 817 3079 
Q 1281 3584 2069 3584 
Q 2775 3584 3186 3129 
Q 3597 2675 3597 1894 
z
M 3022 2063 
Q 3016 2534 2758 2815 
Q 2500 3097 2075 3097 
Q 1594 3097 1305 2825 
Q 1016 2553 972 2059 
L 3022 2063 
z
" transform="scale(0.015625)"/>
      <path id="DejaVuSans-74" d="M 1172 4494 
L 1172 3500 
L 2356 3500 
L 2356 3053 
L 1172 3053 
L 1172 1153 
Q 1172 725 1289 603 
Q 1406 481 1766 481 
L 2356 481 
L 2356 0 
L 1766 0 
Q 1100 0 847 248 
Q 594 497 594 1153 
L 594 3053 
L 172 3053 
L 172 3500 
L 594 3500 
L 594 4494 
L 1172 4494 
z
" transform="scale(0.015625)"/>
      <path id="DejaVuSans-5f" d="M 3263 -1063 
L 3263 -1509 
L -63 -1509 
L -63 -1063 
L 3263 -1063 
z
" transform="scale(0.015625)"/>
      <path id="DejaVuSans-73" d="M 2834 3397 
L 2834 2853 
Q 2591 2978 2328 3040 
Q 2066 3103 1784 3103 
Q 1356 3103 1142 2972 
Q 928 2841 928 2578 
Q 928 2378 1081 2264 
Q 1234 2150 1697 2047 
L 1894 2003 
Q 2506 1872 2764 1633 
Q 3022 1394 3022 966 
Q 3022 478 2636 193 
Q 2250 -91 1575 -91 
Q 1294 -91 989 -36 
Q 684 19 347 128 
L 347 722 
Q 666 556 975 473 
Q 1284 391 1588 391 
Q 1994 391 2212 530 
Q 2431 669 2431 922 
Q 2431 1156 2273 1281 
Q 2116 1406 1581 1522 
L 1381 1569 
Q 847 1681 609 1914 
Q 372 2147 372 2553 
Q 372 3047 722 3315 
Q 1072 3584 1716 3584 
Q 2034 3584 2315 3537 
Q 2597 3491 2834 3397 
z
" transform="scale(0.015625)"/>
      <path id="DejaVuSans-75" d="M 544 1381 
L 544 3500 
L 1119 3500 
L 1119 1403 
Q 1119 906 1312 657 
Q 1506 409 1894 409 
Q 2359 409 2629 706 
Q 2900 1003 2900 1516 
L 2900 3500 
L 3475 3500 
L 3475 0 
L 2900 0 
L 2900 538 
Q 2691 219 2414 64 
Q 2138 -91 1772 -91 
Q 1169 -91 856 284 
Q 544 659 544 1381 
z
M 1991 3584 
L 1991 3584 
z
" transform="scale(0.015625)"/>
      <path id="DejaVuSans-62" d="M 3116 1747 
Q 3116 2381 2855 2742 
Q 2594 3103 2138 3103 
Q 1681 3103 1420 2742 
Q 1159 2381 1159 1747 
Q 1159 1113 1420 752 
Q 1681 391 2138 391 
Q 2594 391 2855 752 
Q 3116 1113 3116 1747 
z
M 1159 2969 
Q 1341 3281 1617 3432 
Q 1894 3584 2278 3584 
Q 2916 3584 3314 3078 
Q 3713 2572 3713 1747 
Q 3713 922 3314 415 
Q 2916 -91 2278 -91 
Q 1894 -91 1617 61 
Q 1341 213 1159 525 
L 1159 0 
L 581 0 
L 581 4863 
L 1159 4863 
L 1159 2969 
z
" transform="scale(0.015625)"/>
      <path id="DejaVuSans-63" d="M 3122 3366 
L 3122 2828 
Q 2878 2963 2633 3030 
Q 2388 3097 2138 3097 
Q 1578 3097 1268 2742 
Q 959 2388 959 1747 
Q 959 1106 1268 751 
Q 1578 397 2138 397 
Q 2388 397 2633 464 
Q 2878 531 3122 666 
L 3122 134 
Q 2881 22 2623 -34 
Q 2366 -91 2075 -91 
Q 1284 -91 818 406 
Q 353 903 353 1747 
Q 353 2603 823 3093 
Q 1294 3584 2113 3584 
Q 2378 3584 2631 3529 
Q 2884 3475 3122 3366 
z
" transform="scale(0.015625)"/>
      <path id="DejaVuSans-72" d="M 2631 2963 
Q 2534 3019 2420 3045 
Q 2306 3072 2169 3072 
Q 1681 3072 1420 2755 
Q 1159 2438 1159 1844 
L 1159 0 
L 581 0 
L 581 3500 
L 1159 3500 
L 1159 2956 
Q 1341 3275 1631 3429 
Q 1922 3584 2338 3584 
Q 2397 3584 2469 3576 
Q 2541 3569 2628 3553 
L 2631 2963 
z
" transform="scale(0.015625)"/>
      <path id="DejaVuSans-69" d="M 603 3500 
L 1178 3500 
L 1178 0 
L 603 0 
L 603 3500 
z
M 603 4863 
L 1178 4863 
L 1178 4134 
L 603 4134 
L 603 4863 
z
" transform="scale(0.015625)"/>
      <path id="DejaVuSans-20" transform="scale(0.015625)"/>
      <path id="DejaVuSans-68" d="M 3513 2113 
L 3513 0 
L 2938 0 
L 2938 2094 
Q 2938 2591 2744 2837 
Q 2550 3084 2163 3084 
Q 1697 3084 1428 2787 
Q 1159 2491 1159 1978 
L 1159 0 
L 581 0 
L 581 4863 
L 1159 4863 
L 1159 2956 
Q 1366 3272 1645 3428 
Q 1925 3584 2291 3584 
Q 2894 3584 3203 3211 
Q 3513 2838 3513 2113 
z
" transform="scale(0.015625)"/>
      <path id="DejaVuSans-6f" d="M 1959 3097 
Q 1497 3097 1228 2736 
Q 959 2375 959 1747 
Q 959 1119 1226 758 
Q 1494 397 1959 397 
Q 2419 397 2687 759 
Q 2956 1122 2956 1747 
Q 2956 2369 2687 2733 
Q 2419 3097 1959 3097 
z
M 1959 3584 
Q 2709 3584 3137 3096 
Q 3566 2609 3566 1747 
Q 3566 888 3137 398 
Q 2709 -91 1959 -91 
Q 1206 -91 779 398 
Q 353 888 353 1747 
Q 353 2609 779 3096 
Q 1206 3584 1959 3584 
z
" transform="scale(0.015625)"/>
      <path id="DejaVuSans-79" d="M 2059 -325 
Q 1816 -950 1584 -1140 
Q 1353 -1331 966 -1331 
L 506 -1331 
L 506 -850 
L 844 -850 
Q 1081 -850 1212 -737 
Q 1344 -625 1503 -206 
L 1606 56 
L 191 3500 
L 800 3500 
L 1894 763 
L 2988 3500 
L 3597 3500 
L 2059 -325 
z
" transform="scale(0.015625)"/>
     </defs>
     <use xlink:href="#DejaVuSans-67"/>
     <use xlink:href="#DejaVuSans-65" x="63.476562"/>
     <use xlink:href="#DejaVuSans-74" x="125"/>
     <use xlink:href="#DejaVuSans-5f" x="164.208984"/>
     <use xlink:href="#DejaVuSans-73" x="214.208984"/>
     <use xlink:href="#DejaVuSans-75" x="266.308594"/>
     <use xlink:href="#DejaVuSans-62" x="329.6875"/>
     <use xlink:href="#DejaVuSans-73" x="393.164062"/>
     <use xlink:href="#DejaVuSans-63" x="445.263672"/>
     <use xlink:href="#DejaVuSans-72" x="500.244141"/>
     <use xlink:href="#DejaVuSans-69" x="541.357422"/>
     <use xlink:href="#DejaVuSans-62" x="569.140625"/>
     <use xlink:href="#DejaVuSans-65" x="632.617188"/>
     <use xlink:href="#DejaVuSans-20" x="694.140625"/>
     <use xlink:href="#DejaVuSans-68" x="725.927734"/>
     <use xlink:href="#DejaVuSans-69" x="789.306641"/>
     <use xlink:href="#DejaVuSans-73" x="817.089844"/>
     <use xlink:href="#DejaVuSans-74" x="869.189453"/>
     <use xlink:href="#DejaVuSans-6f" x="908.398438"/>
     <use xlink:href="#DejaVuSans-72" x="969.580078"/>
     <use xlink:href="#DejaVuSans-79" x="1010.693359"/>
    </g>
   </g>
   <g id="legend_1">
    <g id="line2d_45">
     <path d="M 815.08 328.498438 
L 825.08 328.498438 
L 835.08 328.498438 
" style="fill: none; stroke: #1f77b4; stroke-width: 1.5; stroke-linecap: square"/>
    </g>
    <g id="text_23">
     <!-- star -->
     <g style="fill: #a9a9a9" transform="translate(843.08 331.998438) scale(0.1 -0.1)">
      <defs>
       <path id="DejaVuSans-61" d="M 2194 1759 
Q 1497 1759 1228 1600 
Q 959 1441 959 1056 
Q 959 750 1161 570 
Q 1363 391 1709 391 
Q 2188 391 2477 730 
Q 2766 1069 2766 1631 
L 2766 1759 
L 2194 1759 
z
M 3341 1997 
L 3341 0 
L 2766 0 
L 2766 531 
Q 2569 213 2275 61 
Q 1981 -91 1556 -91 
Q 1019 -91 701 211 
Q 384 513 384 1019 
Q 384 1609 779 1909 
Q 1175 2209 1959 2209 
L 2766 2209 
L 2766 2266 
Q 2766 2663 2505 2880 
Q 2244 3097 1772 3097 
Q 1472 3097 1187 3025 
Q 903 2953 641 2809 
L 641 3341 
Q 956 3463 1253 3523 
Q 1550 3584 1831 3584 
Q 2591 3584 2966 3190 
Q 3341 2797 3341 1997 
z
" transform="scale(0.015625)"/>
      </defs>
      <use xlink:href="#DejaVuSans-73"/>
      <use xlink:href="#DejaVuSans-74" x="52.099609"/>
      <use xlink:href="#DejaVuSans-61" x="91.308594"/>
      <use xlink:href="#DejaVuSans-72" x="152.587891"/>
     </g>
    </g>
    <g id="line2d_46">
     <path d="M 815.08 343.176562 
L 825.08 343.176562 
L 835.08 343.176562 
" style="fill: none; stroke: #ff7f0e; stroke-width: 1.5; stroke-linecap: square"/>
    </g>
    <g id="text_24">
     <!-- fork -->
     <g style="fill: #a9a9a9" transform="translate(843.08 346.676562) scale(0.1 -0.1)">
      <defs>
       <path id="DejaVuSans-66" d="M 2375 4863 
L 2375 4384 
L 1825 4384 
Q 1516 4384 1395 4259 
Q 1275 4134 1275 3809 
L 1275 3500 
L 2222 3500 
L 2222 3053 
L 1275 3053 
L 1275 0 
L 697 0 
L 697 3053 
L 147 3053 
L 147 3500 
L 697 3500 
L 697 3744 
Q 697 4328 969 4595 
Q 1241 4863 1831 4863 
L 2375 4863 
z
" transform="scale(0.015625)"/>
       <path id="DejaVuSans-6b" d="M 581 4863 
L 1159 4863 
L 1159 1991 
L 2875 3500 
L 3609 3500 
L 1753 1863 
L 3688 0 
L 2938 0 
L 1159 1709 
L 1159 0 
L 581 0 
L 581 4863 
z
" transform="scale(0.015625)"/>
      </defs>
      <use xlink:href="#DejaVuSans-66"/>
      <use xlink:href="#DejaVuSans-6f" x="35.205078"/>
      <use xlink:href="#DejaVuSans-72" x="96.386719"/>
      <use xlink:href="#DejaVuSans-6b" x="137.5"/>
     </g>
    </g>
   </g>
  </g>
 </g>
 <defs>
  <clipPath id="p8749186e03">
   <rect x="108" y="43.2" width="669.6" height="277.2"/>
  </clipPath>
 </defs>
</svg>
