<?xml version="1.0" encoding="utf-8" standalone="no"?>
<!DOCTYPE svg PUBLIC "-//W3C//DTD SVG 1.1//EN"
  "http://www.w3.org/Graphics/SVG/1.1/DTD/svg11.dtd">
<svg xmlns:xlink="http://www.w3.org/1999/xlink" width="864pt" height="360pt" viewBox="0 0 864 360" xmlns="http://www.w3.org/2000/svg" version="1.1">
 <metadata>
  <rdf:RDF xmlns:dc="http://purl.org/dc/elements/1.1/" xmlns:cc="http://creativecommons.org/ns#" xmlns:rdf="http://www.w3.org/1999/02/22-rdf-syntax-ns#">
   <cc:Work>
    <dc:type rdf:resource="http://purl.org/dc/dcmitype/StillImage"/>
    <dc:date>2023-11-24T20:05:10.770487</dc:date>
    <dc:format>image/svg+xml</dc:format>
    <dc:creator>
     <cc:Agent>
      <dc:title>Matplotlib v3.8.2, https://matplotlib.org/</dc:title>
     </cc:Agent>
    </dc:creator>
   </cc:Work>
  </rdf:RDF>
 </metadata>
 <defs>
  <style type="text/css">*{stroke-linejoin: round; stroke-linecap: butt}</style>
 </defs>
 <g id="figure_1">
  <g id="patch_1">
   <path d="M 0 360 
L 864 360 
L 864 0 
L 0 0 
L 0 360 
z
" style="fill: none; opacity: 0"/>
  </g>
  <g id="axes_1">
   <g id="patch_2">
    <path d="M 108 320.4 
L 777.6 320.4 
L 777.6 43.2 
L 108 43.2 
L 108 320.4 
z
" style="fill: none; opacity: 0"/>
   </g>
   <g id="matplotlib.axis_1">
    <g id="xtick_1">
     <g id="line2d_1">
      <path d="M 122.02285 320.4 
L 122.02285 43.2 
" clip-path="url(#p2890d8499b)" style="fill: none; stroke-dasharray: 5.12,1.28,0.8,1.28; stroke-dashoffset: 0; stroke: #b0b0b0; stroke-width: 0.8"/>
     </g>
     <g id="line2d_2">
      <defs>
       <path id="m28dd63643a" d="M 0 0 
L 0 3.5 
" style="stroke: #a9a9a9; stroke-width: 0.8"/>
      </defs>
      <g>
       <use xlink:href="#m28dd63643a" x="122.02285" y="320.4" style="fill: #a9a9a9; stroke: #a9a9a9; stroke-width: 0.8"/>
      </g>
     </g>
     <g id="text_1">
      <!-- 2021-07 -->
      <g style="fill: #a9a9a9" transform="translate(101.131444 334.998438) scale(0.1 -0.1)">
       <defs>
        <path id="DejaVuSans-32" d="M 1228 531 
L 3431 531 
L 3431 0 
L 469 0 
L 469 531 
Q 828 903 1448 1529 
Q 2069 2156 2228 2338 
Q 2531 2678 2651 2914 
Q 2772 3150 2772 3378 
Q 2772 3750 2511 3984 
Q 2250 4219 1831 4219 
Q 1534 4219 1204 4116 
Q 875 4013 500 3803 
L 500 4441 
Q 881 4594 1212 4672 
Q 1544 4750 1819 4750 
Q 2544 4750 2975 4387 
Q 3406 4025 3406 3419 
Q 3406 3131 3298 2873 
Q 3191 2616 2906 2266 
Q 2828 2175 2409 1742 
Q 1991 1309 1228 531 
z
" transform="scale(0.015625)"/>
        <path id="DejaVuSans-30" d="M 2034 4250 
Q 1547 4250 1301 3770 
Q 1056 3291 1056 2328 
Q 1056 1369 1301 889 
Q 1547 409 2034 409 
Q 2525 409 2770 889 
Q 3016 1369 3016 2328 
Q 3016 3291 2770 3770 
Q 2525 4250 2034 4250 
z
M 2034 4750 
Q 2819 4750 3233 4129 
Q 3647 3509 3647 2328 
Q 3647 1150 3233 529 
Q 2819 -91 2034 -91 
Q 1250 -91 836 529 
Q 422 1150 422 2328 
Q 422 3509 836 4129 
Q 1250 4750 2034 4750 
z
" transform="scale(0.015625)"/>
        <path id="DejaVuSans-31" d="M 794 531 
L 1825 531 
L 1825 4091 
L 703 3866 
L 703 4441 
L 1819 4666 
L 2450 4666 
L 2450 531 
L 3481 531 
L 3481 0 
L 794 0 
L 794 531 
z
" transform="scale(0.015625)"/>
        <path id="DejaVuSans-2d" d="M 313 2009 
L 1997 2009 
L 1997 1497 
L 313 1497 
L 313 2009 
z
" transform="scale(0.015625)"/>
        <path id="DejaVuSans-37" d="M 525 4666 
L 3525 4666 
L 3525 4397 
L 1831 0 
L 1172 0 
L 2766 4134 
L 525 4134 
L 525 4666 
z
" transform="scale(0.015625)"/>
       </defs>
       <use xlink:href="#DejaVuSans-32"/>
       <use xlink:href="#DejaVuSans-30" x="63.623047"/>
       <use xlink:href="#DejaVuSans-32" x="127.246094"/>
       <use xlink:href="#DejaVuSans-31" x="190.869141"/>
       <use xlink:href="#DejaVuSans-2d" x="254.492188"/>
       <use xlink:href="#DejaVuSans-30" x="290.576172"/>
       <use xlink:href="#DejaVuSans-37" x="354.199219"/>
      </g>
     </g>
    </g>
    <g id="xtick_2">
     <g id="line2d_3">
      <path d="M 187.676905 320.4 
L 187.676905 43.2 
" clip-path="url(#p2890d8499b)" style="fill: none; stroke-dasharray: 5.12,1.28,0.8,1.28; stroke-dashoffset: 0; stroke: #b0b0b0; stroke-width: 0.8"/>
     </g>
     <g id="line2d_4">
      <g>
       <use xlink:href="#m28dd63643a" x="187.676905" y="320.4" style="fill: #a9a9a9; stroke: #a9a9a9; stroke-width: 0.8"/>
      </g>
     </g>
     <g id="text_2">
      <!-- 2021-10 -->
      <g style="fill: #a9a9a9" transform="translate(166.785499 334.998438) scale(0.1 -0.1)">
       <use xlink:href="#DejaVuSans-32"/>
       <use xlink:href="#DejaVuSans-30" x="63.623047"/>
       <use xlink:href="#DejaVuSans-32" x="127.246094"/>
       <use xlink:href="#DejaVuSans-31" x="190.869141"/>
       <use xlink:href="#DejaVuSans-2d" x="254.492188"/>
       <use xlink:href="#DejaVuSans-31" x="290.576172"/>
       <use xlink:href="#DejaVuSans-30" x="354.199219"/>
      </g>
     </g>
    </g>
    <g id="xtick_3">
     <g id="line2d_5">
      <path d="M 253.33096 320.4 
L 253.33096 43.2 
" clip-path="url(#p2890d8499b)" style="fill: none; stroke-dasharray: 5.12,1.28,0.8,1.28; stroke-dashoffset: 0; stroke: #b0b0b0; stroke-width: 0.8"/>
     </g>
     <g id="line2d_6">
      <g>
       <use xlink:href="#m28dd63643a" x="253.33096" y="320.4" style="fill: #a9a9a9; stroke: #a9a9a9; stroke-width: 0.8"/>
      </g>
     </g>
     <g id="text_3">
      <!-- 2022-01 -->
      <g style="fill: #a9a9a9" transform="translate(232.439554 334.998438) scale(0.1 -0.1)">
       <use xlink:href="#DejaVuSans-32"/>
       <use xlink:href="#DejaVuSans-30" x="63.623047"/>
       <use xlink:href="#DejaVuSans-32" x="127.246094"/>
       <use xlink:href="#DejaVuSans-32" x="190.869141"/>
       <use xlink:href="#DejaVuSans-2d" x="254.492188"/>
       <use xlink:href="#DejaVuSans-30" x="290.576172"/>
       <use xlink:href="#DejaVuSans-31" x="354.199219"/>
      </g>
     </g>
    </g>
    <g id="xtick_4">
     <g id="line2d_7">
      <path d="M 317.557753 320.4 
L 317.557753 43.2 
" clip-path="url(#p2890d8499b)" style="fill: none; stroke-dasharray: 5.12,1.28,0.8,1.28; stroke-dashoffset: 0; stroke: #b0b0b0; stroke-width: 0.8"/>
     </g>
     <g id="line2d_8">
      <g>
       <use xlink:href="#m28dd63643a" x="317.557753" y="320.4" style="fill: #a9a9a9; stroke: #a9a9a9; stroke-width: 0.8"/>
      </g>
     </g>
     <g id="text_4">
      <!-- 2022-04 -->
      <g style="fill: #a9a9a9" transform="translate(296.666347 334.998438) scale(0.1 -0.1)">
       <defs>
        <path id="DejaVuSans-34" d="M 2419 4116 
L 825 1625 
L 2419 1625 
L 2419 4116 
z
M 2253 4666 
L 3047 4666 
L 3047 1625 
L 3713 1625 
L 3713 1100 
L 3047 1100 
L 3047 0 
L 2419 0 
L 2419 1100 
L 313 1100 
L 313 1709 
L 2253 4666 
z
" transform="scale(0.015625)"/>
       </defs>
       <use xlink:href="#DejaVuSans-32"/>
       <use xlink:href="#DejaVuSans-30" x="63.623047"/>
       <use xlink:href="#DejaVuSans-32" x="127.246094"/>
       <use xlink:href="#DejaVuSans-32" x="190.869141"/>
       <use xlink:href="#DejaVuSans-2d" x="254.492188"/>
       <use xlink:href="#DejaVuSans-30" x="290.576172"/>
       <use xlink:href="#DejaVuSans-34" x="354.199219"/>
      </g>
     </g>
    </g>
    <g id="xtick_5">
     <g id="line2d_9">
      <path d="M 382.498178 320.4 
L 382.498178 43.2 
" clip-path="url(#p2890d8499b)" style="fill: none; stroke-dasharray: 5.12,1.28,0.8,1.28; stroke-dashoffset: 0; stroke: #b0b0b0; stroke-width: 0.8"/>
     </g>
     <g id="line2d_10">
      <g>
       <use xlink:href="#m28dd63643a" x="382.498178" y="320.4" style="fill: #a9a9a9; stroke: #a9a9a9; stroke-width: 0.8"/>
      </g>
     </g>
     <g id="text_5">
      <!-- 2022-07 -->
      <g style="fill: #a9a9a9" transform="translate(361.606771 334.998438) scale(0.1 -0.1)">
       <use xlink:href="#DejaVuSans-32"/>
       <use xlink:href="#DejaVuSans-30" x="63.623047"/>
       <use xlink:href="#DejaVuSans-32" x="127.246094"/>
       <use xlink:href="#DejaVuSans-32" x="190.869141"/>
       <use xlink:href="#DejaVuSans-2d" x="254.492188"/>
       <use xlink:href="#DejaVuSans-30" x="290.576172"/>
       <use xlink:href="#DejaVuSans-37" x="354.199219"/>
      </g>
     </g>
    </g>
    <g id="xtick_6">
     <g id="line2d_11">
      <path d="M 448.152233 320.4 
L 448.152233 43.2 
" clip-path="url(#p2890d8499b)" style="fill: none; stroke-dasharray: 5.12,1.28,0.8,1.28; stroke-dashoffset: 0; stroke: #b0b0b0; stroke-width: 0.8"/>
     </g>
     <g id="line2d_12">
      <g>
       <use xlink:href="#m28dd63643a" x="448.152233" y="320.4" style="fill: #a9a9a9; stroke: #a9a9a9; stroke-width: 0.8"/>
      </g>
     </g>
     <g id="text_6">
      <!-- 2022-10 -->
      <g style="fill: #a9a9a9" transform="translate(427.260827 334.998438) scale(0.1 -0.1)">
       <use xlink:href="#DejaVuSans-32"/>
       <use xlink:href="#DejaVuSans-30" x="63.623047"/>
       <use xlink:href="#DejaVuSans-32" x="127.246094"/>
       <use xlink:href="#DejaVuSans-32" x="190.869141"/>
       <use xlink:href="#DejaVuSans-2d" x="254.492188"/>
       <use xlink:href="#DejaVuSans-31" x="290.576172"/>
       <use xlink:href="#DejaVuSans-30" x="354.199219"/>
      </g>
     </g>
    </g>
    <g id="xtick_7">
     <g id="line2d_13">
      <path d="M 513.806288 320.4 
L 513.806288 43.2 
" clip-path="url(#p2890d8499b)" style="fill: none; stroke-dasharray: 5.12,1.28,0.8,1.28; stroke-dashoffset: 0; stroke: #b0b0b0; stroke-width: 0.8"/>
     </g>
     <g id="line2d_14">
      <g>
       <use xlink:href="#m28dd63643a" x="513.806288" y="320.4" style="fill: #a9a9a9; stroke: #a9a9a9; stroke-width: 0.8"/>
      </g>
     </g>
     <g id="text_7">
      <!-- 2023-01 -->
      <g style="fill: #a9a9a9" transform="translate(492.914882 334.998438) scale(0.1 -0.1)">
       <defs>
        <path id="DejaVuSans-33" d="M 2597 2516 
Q 3050 2419 3304 2112 
Q 3559 1806 3559 1356 
Q 3559 666 3084 287 
Q 2609 -91 1734 -91 
Q 1441 -91 1130 -33 
Q 819 25 488 141 
L 488 750 
Q 750 597 1062 519 
Q 1375 441 1716 441 
Q 2309 441 2620 675 
Q 2931 909 2931 1356 
Q 2931 1769 2642 2001 
Q 2353 2234 1838 2234 
L 1294 2234 
L 1294 2753 
L 1863 2753 
Q 2328 2753 2575 2939 
Q 2822 3125 2822 3475 
Q 2822 3834 2567 4026 
Q 2313 4219 1838 4219 
Q 1578 4219 1281 4162 
Q 984 4106 628 3988 
L 628 4550 
Q 988 4650 1302 4700 
Q 1616 4750 1894 4750 
Q 2613 4750 3031 4423 
Q 3450 4097 3450 3541 
Q 3450 3153 3228 2886 
Q 3006 2619 2597 2516 
z
" transform="scale(0.015625)"/>
       </defs>
       <use xlink:href="#DejaVuSans-32"/>
       <use xlink:href="#DejaVuSans-30" x="63.623047"/>
       <use xlink:href="#DejaVuSans-32" x="127.246094"/>
       <use xlink:href="#DejaVuSans-33" x="190.869141"/>
       <use xlink:href="#DejaVuSans-2d" x="254.492188"/>
       <use xlink:href="#DejaVuSans-30" x="290.576172"/>
       <use xlink:href="#DejaVuSans-31" x="354.199219"/>
      </g>
     </g>
    </g>
    <g id="xtick_8">
     <g id="line2d_15">
      <path d="M 578.033081 320.4 
L 578.033081 43.2 
" clip-path="url(#p2890d8499b)" style="fill: none; stroke-dasharray: 5.12,1.28,0.8,1.28; stroke-dashoffset: 0; stroke: #b0b0b0; stroke-width: 0.8"/>
     </g>
     <g id="line2d_16">
      <g>
       <use xlink:href="#m28dd63643a" x="578.033081" y="320.4" style="fill: #a9a9a9; stroke: #a9a9a9; stroke-width: 0.8"/>
      </g>
     </g>
     <g id="text_8">
      <!-- 2023-04 -->
      <g style="fill: #a9a9a9" transform="translate(557.141675 334.998438) scale(0.1 -0.1)">
       <use xlink:href="#DejaVuSans-32"/>
       <use xlink:href="#DejaVuSans-30" x="63.623047"/>
       <use xlink:href="#DejaVuSans-32" x="127.246094"/>
       <use xlink:href="#DejaVuSans-33" x="190.869141"/>
       <use xlink:href="#DejaVuSans-2d" x="254.492188"/>
       <use xlink:href="#DejaVuSans-30" x="290.576172"/>
       <use xlink:href="#DejaVuSans-34" x="354.199219"/>
      </g>
     </g>
    </g>
    <g id="xtick_9">
     <g id="line2d_17">
      <path d="M 642.973505 320.4 
L 642.973505 43.2 
" clip-path="url(#p2890d8499b)" style="fill: none; stroke-dasharray: 5.12,1.28,0.8,1.28; stroke-dashoffset: 0; stroke: #b0b0b0; stroke-width: 0.8"/>
     </g>
     <g id="line2d_18">
      <g>
       <use xlink:href="#m28dd63643a" x="642.973505" y="320.4" style="fill: #a9a9a9; stroke: #a9a9a9; stroke-width: 0.8"/>
      </g>
     </g>
     <g id="text_9">
      <!-- 2023-07 -->
      <g style="fill: #a9a9a9" transform="translate(622.082099 334.998438) scale(0.1 -0.1)">
       <use xlink:href="#DejaVuSans-32"/>
       <use xlink:href="#DejaVuSans-30" x="63.623047"/>
       <use xlink:href="#DejaVuSans-32" x="127.246094"/>
       <use xlink:href="#DejaVuSans-33" x="190.869141"/>
       <use xlink:href="#DejaVuSans-2d" x="254.492188"/>
       <use xlink:href="#DejaVuSans-30" x="290.576172"/>
       <use xlink:href="#DejaVuSans-37" x="354.199219"/>
      </g>
     </g>
    </g>
    <g id="xtick_10">
     <g id="line2d_19">
      <path d="M 708.62756 320.4 
L 708.62756 43.2 
" clip-path="url(#p2890d8499b)" style="fill: none; stroke-dasharray: 5.12,1.28,0.8,1.28; stroke-dashoffset: 0; stroke: #b0b0b0; stroke-width: 0.8"/>
     </g>
     <g id="line2d_20">
      <g>
       <use xlink:href="#m28dd63643a" x="708.62756" y="320.4" style="fill: #a9a9a9; stroke: #a9a9a9; stroke-width: 0.8"/>
      </g>
     </g>
     <g id="text_10">
      <!-- 2023-10 -->
      <g style="fill: #a9a9a9" transform="translate(687.736154 334.998438) scale(0.1 -0.1)">
       <use xlink:href="#DejaVuSans-32"/>
       <use xlink:href="#DejaVuSans-30" x="63.623047"/>
       <use xlink:href="#DejaVuSans-32" x="127.246094"/>
       <use xlink:href="#DejaVuSans-33" x="190.869141"/>
       <use xlink:href="#DejaVuSans-2d" x="254.492188"/>
       <use xlink:href="#DejaVuSans-31" x="290.576172"/>
       <use xlink:href="#DejaVuSans-30" x="354.199219"/>
      </g>
     </g>
    </g>
    <g id="xtick_11">
     <g id="line2d_21">
      <path d="M 774.281616 320.4 
L 774.281616 43.2 
" clip-path="url(#p2890d8499b)" style="fill: none; stroke-dasharray: 5.12,1.28,0.8,1.28; stroke-dashoffset: 0; stroke: #b0b0b0; stroke-width: 0.8"/>
     </g>
     <g id="line2d_22">
      <g>
       <use xlink:href="#m28dd63643a" x="774.281616" y="320.4" style="fill: #a9a9a9; stroke: #a9a9a9; stroke-width: 0.8"/>
      </g>
     </g>
     <g id="text_11">
      <!-- 2024-01 -->
      <g style="fill: #a9a9a9" transform="translate(753.390209 334.998438) scale(0.1 -0.1)">
       <use xlink:href="#DejaVuSans-32"/>
       <use xlink:href="#DejaVuSans-30" x="63.623047"/>
       <use xlink:href="#DejaVuSans-32" x="127.246094"/>
       <use xlink:href="#DejaVuSans-34" x="190.869141"/>
       <use xlink:href="#DejaVuSans-2d" x="254.492188"/>
       <use xlink:href="#DejaVuSans-30" x="290.576172"/>
       <use xlink:href="#DejaVuSans-31" x="354.199219"/>
      </g>
     </g>
    </g>
   </g>
   <g id="matplotlib.axis_2">
    <g id="ytick_1">
     <g id="line2d_23">
      <path d="M 108 307.848574 
L 777.6 307.848574 
" clip-path="url(#p2890d8499b)" style="fill: none; stroke-dasharray: 5.12,1.28,0.8,1.28; stroke-dashoffset: 0; stroke: #b0b0b0; stroke-width: 0.8"/>
     </g>
     <g id="line2d_24">
      <defs>
       <path id="m477b0c7e96" d="M 0 0 
L -3.5 0 
" style="stroke: #a9a9a9; stroke-width: 0.8"/>
      </defs>
      <g>
       <use xlink:href="#m477b0c7e96" x="108" y="307.848574" style="fill: #a9a9a9; stroke: #a9a9a9; stroke-width: 0.8"/>
      </g>
     </g>
     <g id="text_12">
      <!-- 0 -->
      <g style="fill: #a9a9a9" transform="translate(94.6375 311.647792) scale(0.1 -0.1)">
       <use xlink:href="#DejaVuSans-30"/>
      </g>
     </g>
    </g>
    <g id="ytick_2">
     <g id="line2d_25">
      <path d="M 108 278.704395 
L 777.6 278.704395 
" clip-path="url(#p2890d8499b)" style="fill: none; stroke-dasharray: 5.12,1.28,0.8,1.28; stroke-dashoffset: 0; stroke: #b0b0b0; stroke-width: 0.8"/>
     </g>
     <g id="line2d_26">
      <g>
       <use xlink:href="#m477b0c7e96" x="108" y="278.704395" style="fill: #a9a9a9; stroke: #a9a9a9; stroke-width: 0.8"/>
      </g>
     </g>
     <g id="text_13">
      <!-- 600 -->
      <g style="fill: #a9a9a9" transform="translate(81.9125 282.503614) scale(0.1 -0.1)">
       <defs>
        <path id="DejaVuSans-36" d="M 2113 2584 
Q 1688 2584 1439 2293 
Q 1191 2003 1191 1497 
Q 1191 994 1439 701 
Q 1688 409 2113 409 
Q 2538 409 2786 701 
Q 3034 994 3034 1497 
Q 3034 2003 2786 2293 
Q 2538 2584 2113 2584 
z
M 3366 4563 
L 3366 3988 
Q 3128 4100 2886 4159 
Q 2644 4219 2406 4219 
Q 1781 4219 1451 3797 
Q 1122 3375 1075 2522 
Q 1259 2794 1537 2939 
Q 1816 3084 2150 3084 
Q 2853 3084 3261 2657 
Q 3669 2231 3669 1497 
Q 3669 778 3244 343 
Q 2819 -91 2113 -91 
Q 1303 -91 875 529 
Q 447 1150 447 2328 
Q 447 3434 972 4092 
Q 1497 4750 2381 4750 
Q 2619 4750 2861 4703 
Q 3103 4656 3366 4563 
z
" transform="scale(0.015625)"/>
       </defs>
       <use xlink:href="#DejaVuSans-36"/>
       <use xlink:href="#DejaVuSans-30" x="63.623047"/>
       <use xlink:href="#DejaVuSans-30" x="127.246094"/>
      </g>
     </g>
    </g>
    <g id="ytick_3">
     <g id="line2d_27">
      <path d="M 108 249.560216 
L 777.6 249.560216 
" clip-path="url(#p2890d8499b)" style="fill: none; stroke-dasharray: 5.12,1.28,0.8,1.28; stroke-dashoffset: 0; stroke: #b0b0b0; stroke-width: 0.8"/>
     </g>
     <g id="line2d_28">
      <g>
       <use xlink:href="#m477b0c7e96" x="108" y="249.560216" style="fill: #a9a9a9; stroke: #a9a9a9; stroke-width: 0.8"/>
      </g>
     </g>
     <g id="text_14">
      <!-- 1200 -->
      <g style="fill: #a9a9a9" transform="translate(75.55 253.359435) scale(0.1 -0.1)">
       <use xlink:href="#DejaVuSans-31"/>
       <use xlink:href="#DejaVuSans-32" x="63.623047"/>
       <use xlink:href="#DejaVuSans-30" x="127.246094"/>
       <use xlink:href="#DejaVuSans-30" x="190.869141"/>
      </g>
     </g>
    </g>
    <g id="ytick_4">
     <g id="line2d_29">
      <path d="M 108 220.416037 
L 777.6 220.416037 
" clip-path="url(#p2890d8499b)" style="fill: none; stroke-dasharray: 5.12,1.28,0.8,1.28; stroke-dashoffset: 0; stroke: #b0b0b0; stroke-width: 0.8"/>
     </g>
     <g id="line2d_30">
      <g>
       <use xlink:href="#m477b0c7e96" x="108" y="220.416037" style="fill: #a9a9a9; stroke: #a9a9a9; stroke-width: 0.8"/>
      </g>
     </g>
     <g id="text_15">
      <!-- 1800 -->
      <g style="fill: #a9a9a9" transform="translate(75.55 224.215256) scale(0.1 -0.1)">
       <defs>
        <path id="DejaVuSans-38" d="M 2034 2216 
Q 1584 2216 1326 1975 
Q 1069 1734 1069 1313 
Q 1069 891 1326 650 
Q 1584 409 2034 409 
Q 2484 409 2743 651 
Q 3003 894 3003 1313 
Q 3003 1734 2745 1975 
Q 2488 2216 2034 2216 
z
M 1403 2484 
Q 997 2584 770 2862 
Q 544 3141 544 3541 
Q 544 4100 942 4425 
Q 1341 4750 2034 4750 
Q 2731 4750 3128 4425 
Q 3525 4100 3525 3541 
Q 3525 3141 3298 2862 
Q 3072 2584 2669 2484 
Q 3125 2378 3379 2068 
Q 3634 1759 3634 1313 
Q 3634 634 3220 271 
Q 2806 -91 2034 -91 
Q 1263 -91 848 271 
Q 434 634 434 1313 
Q 434 1759 690 2068 
Q 947 2378 1403 2484 
z
M 1172 3481 
Q 1172 3119 1398 2916 
Q 1625 2713 2034 2713 
Q 2441 2713 2670 2916 
Q 2900 3119 2900 3481 
Q 2900 3844 2670 4047 
Q 2441 4250 2034 4250 
Q 1625 4250 1398 4047 
Q 1172 3844 1172 3481 
z
" transform="scale(0.015625)"/>
       </defs>
       <use xlink:href="#DejaVuSans-31"/>
       <use xlink:href="#DejaVuSans-38" x="63.623047"/>
       <use xlink:href="#DejaVuSans-30" x="127.246094"/>
       <use xlink:href="#DejaVuSans-30" x="190.869141"/>
      </g>
     </g>
    </g>
    <g id="ytick_5">
     <g id="line2d_31">
      <path d="M 108 191.271858 
L 777.6 191.271858 
" clip-path="url(#p2890d8499b)" style="fill: none; stroke-dasharray: 5.12,1.28,0.8,1.28; stroke-dashoffset: 0; stroke: #b0b0b0; stroke-width: 0.8"/>
     </g>
     <g id="line2d_32">
      <g>
       <use xlink:href="#m477b0c7e96" x="108" y="191.271858" style="fill: #a9a9a9; stroke: #a9a9a9; stroke-width: 0.8"/>
      </g>
     </g>
     <g id="text_16">
      <!-- 2400 -->
      <g style="fill: #a9a9a9" transform="translate(75.55 195.071077) scale(0.1 -0.1)">
       <use xlink:href="#DejaVuSans-32"/>
       <use xlink:href="#DejaVuSans-34" x="63.623047"/>
       <use xlink:href="#DejaVuSans-30" x="127.246094"/>
       <use xlink:href="#DejaVuSans-30" x="190.869141"/>
      </g>
     </g>
    </g>
    <g id="ytick_6">
     <g id="line2d_33">
      <path d="M 108 162.127679 
L 777.6 162.127679 
" clip-path="url(#p2890d8499b)" style="fill: none; stroke-dasharray: 5.12,1.28,0.8,1.28; stroke-dashoffset: 0; stroke: #b0b0b0; stroke-width: 0.8"/>
     </g>
     <g id="line2d_34">
      <g>
       <use xlink:href="#m477b0c7e96" x="108" y="162.127679" style="fill: #a9a9a9; stroke: #a9a9a9; stroke-width: 0.8"/>
      </g>
     </g>
     <g id="text_17">
      <!-- 3000 -->
      <g style="fill: #a9a9a9" transform="translate(75.55 165.926898) scale(0.1 -0.1)">
       <use xlink:href="#DejaVuSans-33"/>
       <use xlink:href="#DejaVuSans-30" x="63.623047"/>
       <use xlink:href="#DejaVuSans-30" x="127.246094"/>
       <use xlink:href="#DejaVuSans-30" x="190.869141"/>
      </g>
     </g>
    </g>
    <g id="ytick_7">
     <g id="line2d_35">
      <path d="M 108 132.9835 
L 777.6 132.9835 
" clip-path="url(#p2890d8499b)" style="fill: none; stroke-dasharray: 5.12,1.28,0.8,1.28; stroke-dashoffset: 0; stroke: #b0b0b0; stroke-width: 0.8"/>
     </g>
     <g id="line2d_36">
      <g>
       <use xlink:href="#m477b0c7e96" x="108" y="132.9835" style="fill: #a9a9a9; stroke: #a9a9a9; stroke-width: 0.8"/>
      </g>
     </g>
     <g id="text_18">
      <!-- 3600 -->
      <g style="fill: #a9a9a9" transform="translate(75.55 136.782719) scale(0.1 -0.1)">
       <use xlink:href="#DejaVuSans-33"/>
       <use xlink:href="#DejaVuSans-36" x="63.623047"/>
       <use xlink:href="#DejaVuSans-30" x="127.246094"/>
       <use xlink:href="#DejaVuSans-30" x="190.869141"/>
      </g>
     </g>
    </g>
    <g id="ytick_8">
     <g id="line2d_37">
      <path d="M 108 103.839322 
L 777.6 103.839322 
" clip-path="url(#p2890d8499b)" style="fill: none; stroke-dasharray: 5.12,1.28,0.8,1.28; stroke-dashoffset: 0; stroke: #b0b0b0; stroke-width: 0.8"/>
     </g>
     <g id="line2d_38">
      <g>
       <use xlink:href="#m477b0c7e96" x="108" y="103.839322" style="fill: #a9a9a9; stroke: #a9a9a9; stroke-width: 0.8"/>
      </g>
     </g>
     <g id="text_19">
      <!-- 4200 -->
      <g style="fill: #a9a9a9" transform="translate(75.55 107.63854) scale(0.1 -0.1)">
       <use xlink:href="#DejaVuSans-34"/>
       <use xlink:href="#DejaVuSans-32" x="63.623047"/>
       <use xlink:href="#DejaVuSans-30" x="127.246094"/>
       <use xlink:href="#DejaVuSans-30" x="190.869141"/>
      </g>
     </g>
    </g>
    <g id="ytick_9">
     <g id="line2d_39">
      <path d="M 108 74.695143 
L 777.6 74.695143 
" clip-path="url(#p2890d8499b)" style="fill: none; stroke-dasharray: 5.12,1.28,0.8,1.28; stroke-dashoffset: 0; stroke: #b0b0b0; stroke-width: 0.8"/>
     </g>
     <g id="line2d_40">
      <g>
       <use xlink:href="#m477b0c7e96" x="108" y="74.695143" style="fill: #a9a9a9; stroke: #a9a9a9; stroke-width: 0.8"/>
      </g>
     </g>
     <g id="text_20">
      <!-- 4800 -->
      <g style="fill: #a9a9a9" transform="translate(75.55 78.494361) scale(0.1 -0.1)">
       <use xlink:href="#DejaVuSans-34"/>
       <use xlink:href="#DejaVuSans-38" x="63.623047"/>
       <use xlink:href="#DejaVuSans-30" x="127.246094"/>
       <use xlink:href="#DejaVuSans-30" x="190.869141"/>
      </g>
     </g>
    </g>
    <g id="ytick_10">
     <g id="line2d_41">
      <path d="M 108 45.550964 
L 777.6 45.550964 
" clip-path="url(#p2890d8499b)" style="fill: none; stroke-dasharray: 5.12,1.28,0.8,1.28; stroke-dashoffset: 0; stroke: #b0b0b0; stroke-width: 0.8"/>
     </g>
     <g id="line2d_42">
      <g>
       <use xlink:href="#m477b0c7e96" x="108" y="45.550964" style="fill: #a9a9a9; stroke: #a9a9a9; stroke-width: 0.8"/>
      </g>
     </g>
     <g id="text_21">
      <!-- 5400 -->
      <g style="fill: #a9a9a9" transform="translate(75.55 49.350183) scale(0.1 -0.1)">
       <defs>
        <path id="DejaVuSans-35" d="M 691 4666 
L 3169 4666 
L 3169 4134 
L 1269 4134 
L 1269 2991 
Q 1406 3038 1543 3061 
Q 1681 3084 1819 3084 
Q 2600 3084 3056 2656 
Q 3513 2228 3513 1497 
Q 3513 744 3044 326 
Q 2575 -91 1722 -91 
Q 1428 -91 1123 -41 
Q 819 9 494 109 
L 494 744 
Q 775 591 1075 516 
Q 1375 441 1709 441 
Q 2250 441 2565 725 
Q 2881 1009 2881 1497 
Q 2881 1984 2565 2268 
Q 2250 2553 1709 2553 
Q 1456 2553 1204 2497 
Q 953 2441 691 2322 
L 691 4666 
z
" transform="scale(0.015625)"/>
       </defs>
       <use xlink:href="#DejaVuSans-35"/>
       <use xlink:href="#DejaVuSans-34" x="63.623047"/>
       <use xlink:href="#DejaVuSans-30" x="127.246094"/>
       <use xlink:href="#DejaVuSans-30" x="190.869141"/>
      </g>
     </g>
    </g>
   </g>
   <g id="line2d_43">
    <path d="M 138.436364 307.702853 
L 142.71815 307.362837 
L 143.431781 307.071396 
L 145.572674 306.828527 
L 150.568091 305.905628 
L 154.136246 305.565613 
L 154.849877 305.225598 
L 155.563508 305.031303 
L 156.27714 304.156978 
L 156.990771 303.671241 
L 157.704402 302.116885 
L 158.418033 302.019738 
L 159.131664 301.485428 
L 160.558926 300.805397 
L 161.986188 299.736777 
L 162.699819 299.056746 
L 164.127081 298.376715 
L 164.840712 298.085274 
L 165.554343 297.550964 
L 168.408867 296.336623 
L 169.122498 295.219429 
L 169.836129 294.636546 
L 171.263391 293.859368 
L 178.399702 292.887895 
L 179.113333 292.54788 
L 184.10875 292.159291 
L 185.536012 291.770702 
L 186.963274 291.47926 
L 192.672322 290.750655 
L 193.385953 290.362066 
L 194.099584 290.264919 
L 194.813215 289.973477 
L 196.240477 289.730609 
L 196.954108 289.682035 
L 197.66774 289.439167 
L 200.522264 289.002005 
L 201.949526 288.613416 
L 204.090419 288.419121 
L 205.517681 288.2734 
L 206.231312 288.079106 
L 206.944943 288.030532 
L 209.085836 287.399075 
L 213.367622 286.767618 
L 214.081253 286.573323 
L 214.794884 285.60185 
L 216.935777 284.824672 
L 219.076671 284.241789 
L 219.790302 283.901773 
L 220.503933 283.8532 
L 224.072088 282.881727 
L 225.49935 282.78458 
L 226.212981 282.687433 
L 228.353874 282.055975 
L 231.208398 281.375944 
L 231.922029 281.084503 
L 232.63566 280.987355 
L 233.349291 280.64734 
L 240.485602 279.57872 
L 244.053757 278.558674 
L 244.767388 278.121511 
L 247.621912 277.344333 
L 249.049174 276.518581 
L 249.762805 276.032845 
L 250.476436 275.935698 
L 251.190067 275.69283 
L 253.33096 275.304241 
L 254.044591 274.964225 
L 255.471853 274.721357 
L 256.185484 274.332768 
L 257.612746 273.895605 
L 258.326377 273.798458 
L 259.75364 273.409869 
L 261.180902 273.069854 
L 261.894533 272.972706 
L 263.321795 272.389823 
L 264.035426 272.244102 
L 264.749057 271.95266 
L 265.462688 271.855513 
L 266.176319 271.515497 
L 266.88995 271.321203 
L 268.317212 271.224056 
L 269.744474 270.738319 
L 271.171736 270.641172 
L 271.885367 270.301157 
L 274.739891 269.81542 
L 277.594415 269.572552 
L 278.308046 269.426831 
L 279.735309 268.7468 
L 287.58525 265.492367 
L 288.298881 265.103778 
L 289.012512 264.3266 
L 289.726143 263.160833 
L 290.439774 262.237934 
L 291.153405 262.043639 
L 291.867036 262.043639 
L 293.294298 261.023593 
L 294.007929 260.829298 
L 294.72156 260.440709 
L 295.435191 260.294988 
L 296.148822 259.663531 
L 296.862453 259.469237 
L 299.003346 258.44919 
L 299.716978 257.574865 
L 300.430609 256.506245 
L 301.14424 256.069082 
L 301.857871 254.903315 
L 302.571502 254.174711 
L 303.285133 253.834695 
L 303.998764 253.640401 
L 305.426026 252.814649 
L 306.139657 252.474634 
L 308.994181 250.385968 
L 309.707812 249.365921 
L 310.421443 247.714418 
L 311.135074 246.645798 
L 311.848705 246.111488 
L 312.562336 245.820046 
L 315.41686 243.391365 
L 316.130491 242.905628 
L 317.557753 241.691288 
L 318.271384 240.671241 
L 319.698646 239.456901 
L 322.553171 237.611103 
L 323.266802 236.979645 
L 323.980433 236.833924 
L 326.121326 235.716731 
L 327.548588 234.890979 
L 328.262219 234.599537 
L 329.689481 233.288049 
L 330.403112 232.462298 
L 331.830374 231.490825 
L 332.544005 231.29653 
L 333.257636 230.956515 
L 333.971267 230.422205 
L 335.398529 229.645027 
L 336.11216 229.54788 
L 337.539422 228.770702 
L 338.253053 228.382113 
L 338.966684 227.653508 
L 339.680315 227.216345 
L 340.393946 226.973477 
L 341.107578 226.487741 
L 343.962102 225.030532 
L 344.675733 224.399075 
L 347.530257 223.427602 
L 348.243888 222.941866 
L 348.957519 222.796145 
L 350.384781 222.310409 
L 352.525674 221.484657 
L 354.666567 220.707479 
L 356.093829 220.464611 
L 357.521091 219.25027 
L 358.948353 218.570239 
L 361.089247 217.355898 
L 362.516509 216.967309 
L 363.23014 216.530146 
L 363.943771 216.335852 
L 366.084664 214.97579 
L 369.652819 214.150039 
L 371.793712 212.935698 
L 372.507343 212.838551 
L 373.220974 212.595682 
L 374.648236 212.304241 
L 376.789129 210.749884 
L 378.930022 210.264148 
L 379.643653 210.02128 
L 380.357284 209.48697 
L 384.639071 208.126908 
L 385.352702 208.078335 
L 390.348119 206.329684 
L 391.06175 205.989668 
L 393.202643 205.503932 
L 394.629905 205.163917 
L 395.343536 204.823901 
L 396.057167 204.67818 
L 398.19806 203.706708 
L 400.338953 202.638088 
L 401.052584 202.152352 
L 401.766215 201.958057 
L 403.907109 200.840864 
L 405.334371 200.500848 
L 406.761633 199.772244 
L 408.188895 199.383655 
L 408.902526 199.286507 
L 409.616157 198.800771 
L 410.329788 198.460756 
L 411.043419 198.315035 
L 412.470681 197.732151 
L 413.184312 197.58643 
L 413.897943 197.197841 
L 416.752467 196.760678 
L 418.179729 196.080648 
L 418.89336 195.497764 
L 419.606991 194.283423 
L 421.034253 193.991981 
L 421.747884 193.846261 
L 424.602409 192.389052 
L 425.31604 192.243331 
L 431.025088 189.523207 
L 433.165981 189.086045 
L 434.593243 188.406014 
L 435.306874 188.114572 
L 436.020505 188.017425 
L 438.875029 186.75451 
L 440.302291 185.783038 
L 441.015922 185.443022 
L 441.729553 185.345875 
L 442.443184 185.103007 
L 443.156816 185.054433 
L 446.01134 184.131534 
L 446.724971 184.082961 
L 447.438602 183.548651 
L 448.865864 183.062914 
L 451.006757 182.382884 
L 451.720388 181.945721 
L 452.434019 181.751426 
L 453.14765 181.26569 
L 453.861281 180.974248 
L 454.574912 180.537086 
L 456.002174 180.002776 
L 458.143067 179.322745 
L 458.856698 178.982729 
L 459.570329 178.448419 
L 460.28396 177.719815 
L 460.997591 177.282652 
L 461.711222 177.136931 
L 463.138484 176.068311 
L 463.852116 175.922591 
L 464.565747 174.853971 
L 465.279378 174.562529 
L 465.993009 174.028219 
L 466.70664 173.931072 
L 467.420271 173.445335 
L 468.133902 173.10532 
L 468.847533 172.959599 
L 469.561164 172.668157 
L 470.274795 172.085274 
L 470.988426 171.842406 
L 473.129319 170.43377 
L 475.983843 169.025135 
L 476.697474 168.927988 
L 478.124736 168.29653 
L 478.838367 167.859368 
L 479.551998 166.693601 
L 480.265629 166.062143 
L 480.97926 165.673554 
L 481.692891 165.527833 
L 483.120153 164.653508 
L 483.833785 164.507787 
L 485.261047 163.827756 
L 487.40194 162.953431 
L 488.829202 161.981958 
L 490.256464 160.476176 
L 491.683726 159.60185 
L 492.397357 159.164688 
L 493.110988 158.436083 
L 493.824619 157.950347 
L 495.251881 156.78458 
L 495.965512 156.493138 
L 496.679143 155.71596 
L 497.392774 155.18165 
L 498.820036 154.695914 
L 499.533667 154.064456 
L 500.960929 153.335852 
L 501.67456 153.141557 
L 502.388191 152.655821 
L 503.101822 152.461527 
L 505.242716 151.344333 
L 505.956347 150.810023 
L 507.383609 150.22714 
L 508.09724 150.081419 
L 508.810871 149.644256 
L 513.806288 147.944179 
L 514.519919 147.312722 
L 516.660812 146.535544 
L 518.088074 146.098381 
L 518.801705 145.564071 
L 520.942598 144.592598 
L 521.656229 144.058288 
L 522.36986 143.669699 
L 523.797122 140.901002 
L 525.224385 139.249499 
L 525.938016 138.763763 
L 528.078909 137.840864 
L 528.79254 137.597995 
L 529.506171 137.500848 
L 530.219802 137.112259 
L 532.360695 136.480802 
L 534.501588 135.65505 
L 535.92885 134.732151 
L 538.069743 133.760678 
L 541.637898 131.720586 
L 542.351529 130.991981 
L 543.778791 130.214803 
L 544.492422 129.826214 
L 545.206054 129.583346 
L 545.919685 129.09761 
L 547.346947 128.417579 
L 549.48784 127.300386 
L 550.201471 127.106091 
L 550.915102 126.571781 
L 551.628733 126.280339 
L 552.342364 126.134618 
L 553.769626 125.551735 
L 555.910519 124.774557 
L 556.62415 124.240247 
L 558.051412 123.851658 
L 559.478674 123.317348 
L 560.192305 122.734464 
L 561.619567 122.297301 
L 562.333198 121.957286 
L 563.046829 121.762992 
L 564.474091 120.791519 
L 565.901354 120.160062 
L 567.328616 119.091442 
L 568.755878 118.605705 
L 569.469509 118.022822 
L 570.18314 117.877101 
L 570.896771 117.245644 
L 572.324033 116.419892 
L 573.751295 115.837008 
L 574.464926 115.108404 
L 578.746712 113.554048 
L 580.887605 112.631149 
L 583.028498 111.999692 
L 584.45576 111.805397 
L 585.169391 111.513955 
L 585.883022 111.368234 
L 587.310285 110.785351 
L 588.023916 110.736777 
L 590.87844 109.716731 
L 593.019333 108.259522 
L 597.301119 106.170856 
L 599.442012 104.810794 
L 600.869274 104.470779 
L 602.296536 103.499306 
L 605.15106 102.624981 
L 605.864691 102.333539 
L 607.291954 101.993524 
L 610.860109 100.827756 
L 613.001002 100.439167 
L 613.714633 100.244873 
L 614.428264 99.904857 
L 615.141895 99.80771 
L 616.569157 99.224827 
L 617.282788 99.127679 
L 617.996419 98.787664 
L 619.423681 98.496222 
L 620.137312 98.156207 
L 622.278205 97.67047 
L 623.705467 97.379029 
L 627.987254 96.60185 
L 629.414516 96.310409 
L 630.128147 96.164688 
L 630.841778 95.873246 
L 631.555409 95.824672 
L 633.696302 95.241789 
L 634.409933 94.8532 
L 637.978088 93.978874 
L 638.691719 93.833153 
L 641.546243 92.764534 
L 642.259874 92.521665 
L 642.973505 92.424518 
L 645.114398 91.695914 
L 645.828029 91.695914 
L 647.255291 91.210177 
L 647.968923 90.530146 
L 648.682554 90.190131 
L 650.109816 89.752968 
L 652.96434 88.684348 
L 653.677971 88.538628 
L 654.391602 88.101465 
L 655.105233 87.955744 
L 655.818864 87.518581 
L 659.387019 86.449961 
L 660.10065 86.012799 
L 660.814281 85.818504 
L 661.527912 85.235621 
L 663.668805 84.847032 
L 665.096067 84.069854 
L 665.809698 83.292675 
L 667.23696 83.001234 
L 671.518747 82.029761 
L 672.946009 81.641172 
L 674.373271 81.592598 
L 675.086902 81.252583 
L 677.941426 80.766847 
L 678.655057 80.426831 
L 680.79595 80.135389 
L 682.223212 79.601079 
L 682.936843 79.261064 
L 683.650474 79.21249 
L 685.791367 78.726754 
L 687.93226 78.192444 
L 690.786785 77.318119 
L 691.500416 77.172398 
L 692.214047 76.832382 
L 692.927678 76.735235 
L 693.641309 76.492367 
L 694.35494 76.055204 
L 696.495833 75.278026 
L 697.209464 74.743716 
L 698.636726 74.355127 
L 699.350357 74.063685 
L 700.777619 73.675096 
L 703.632143 72.363608 
L 705.773036 72.217887 
L 708.62756 71.343562 
L 709.341192 70.906399 
L 710.768454 70.469237 
L 712.909347 69.400617 
L 713.622978 69.254896 
L 714.336609 68.91488 
L 715.05024 68.817733 
L 716.477502 68.283423 
L 717.191133 67.943408 
L 717.904764 67.797687 
L 718.618395 67.457672 
L 720.045657 67.069082 
L 720.759288 66.729067 
L 726.468336 65.223285 
L 727.895598 64.543254 
L 730.036492 64.008944 
L 730.750123 63.474634 
L 731.463754 63.134618 
L 732.177385 62.308867 
L 732.891016 61.774557 
L 734.318278 61.337394 
L 735.031909 60.75451 
L 742.88185 57.548651 
L 744.309112 57.208635 
L 745.736374 56.577178 
L 747.163636 55.8 
L 747.163636 55.8 
" clip-path="url(#p2890d8499b)" style="fill: none; stroke: #1f77b4; stroke-width: 1.5; stroke-linecap: square"/>
   </g>
   <g id="line2d_44">
    <path d="M 139.149995 307.8 
L 141.290888 307.702853 
L 143.431781 307.654279 
L 147.713567 307.557132 
L 151.281722 307.411411 
L 154.136246 307.411411 
L 154.849877 307.217116 
L 156.990771 307.168543 
L 161.272557 306.682806 
L 171.977022 306.051349 
L 177.686071 305.954202 
L 181.254226 305.808481 
L 189.817798 305.711334 
L 193.385953 305.565613 
L 197.66774 305.468466 
L 200.522264 305.371318 
L 206.944943 305.274171 
L 209.085836 305.225598 
L 211.226729 305.177024 
L 213.367622 304.934156 
L 217.649409 304.885582 
L 219.076671 304.788435 
L 224.072088 304.691288 
L 231.922029 304.254125 
L 236.917446 304.156978 
L 238.344709 304.05983 
L 240.485602 303.962683 
L 244.767388 303.768389 
L 247.621912 303.719815 
L 249.762805 303.52552 
L 261.180902 302.84549 
L 264.035426 302.748342 
L 269.030843 302.505474 
L 271.171736 302.408327 
L 278.308046 302.019738 
L 286.157988 301.922591 
L 289.012512 301.631149 
L 290.439774 301.534002 
L 299.716978 300.805397 
L 303.998764 300.271087 
L 306.853288 300.17394 
L 312.562336 299.445335 
L 316.130491 299.348188 
L 325.407695 298.619584 
L 329.689481 298.133847 
L 331.830374 298.085274 
L 333.257636 297.988126 
L 336.11216 297.890979 
L 337.539422 297.793832 
L 341.107578 297.453816 
L 341.821209 297.259522 
L 346.102995 297.065227 
L 349.67115 296.96808 
L 358.948353 296.43377 
L 361.089247 296.336623 
L 370.36645 295.802313 
L 375.361867 295.705166 
L 376.075498 295.559445 
L 381.784547 295.462298 
L 386.779964 295.219429 
L 394.629905 295.122282 
L 399.625322 294.879414 
L 405.334371 294.782267 
L 411.75705 294.442251 
L 416.038836 294.345104 
L 429.597826 293.519352 
L 435.306874 293.422205 
L 438.875029 293.08219 
L 440.302291 292.936469 
L 443.870447 292.887895 
L 446.724971 292.596453 
L 453.861281 292.207864 
L 458.143067 292.110717 
L 460.28396 292.062143 
L 462.424853 292.01357 
L 464.565747 291.819275 
L 470.274795 291.722128 
L 471.702057 291.47926 
L 473.129319 291.382113 
L 475.983843 291.284965 
L 478.124736 291.187818 
L 479.551998 291.090671 
L 485.974678 290.993524 
L 487.40194 290.847803 
L 490.256464 290.750655 
L 490.970095 290.604934 
L 492.397357 290.556361 
L 493.110988 290.41064 
L 495.251881 290.313493 
L 507.383609 289.584888 
L 509.524502 289.487741 
L 513.092657 289.34202 
L 523.083491 289.244873 
L 528.078909 289.002005 
L 533.787957 288.904857 
L 536.642481 288.80771 
L 539.497005 288.759136 
L 540.924267 288.613416 
L 543.778791 288.516268 
L 550.915102 288.127679 
L 555.196888 288.079106 
L 557.337781 287.884811 
L 559.478674 287.836237 
L 564.474091 287.73909 
L 567.328616 287.641943 
L 575.892188 287.544796 
L 579.460343 287.399075 
L 583.742129 287.301928 
L 585.883022 287.059059 
L 590.164809 287.010486 
L 590.87844 286.864765 
L 592.305702 286.767618 
L 595.160226 286.67047 
L 603.723798 286.573323 
L 607.291954 286.427602 
L 619.423681 286.379029 
L 620.850943 286.281881 
L 622.991836 286.233308 
L 632.26904 286.13616 
L 633.696302 286.039013 
L 641.546243 285.941866 
L 644.400767 285.844719 
L 652.96434 285.796145 
L 654.391602 285.698998 
L 665.096067 285.650424 
L 667.23696 285.45613 
L 679.368688 285.358982 
L 681.509581 285.310409 
L 700.063988 285.213261 
L 702.918512 285.116114 
L 715.763871 285.018967 
L 717.191133 284.873246 
L 723.613812 284.776099 
L 731.463754 284.338936 
L 735.74554 284.241789 
L 738.600064 284.144641 
L 742.168219 284.096068 
L 743.595481 283.998921 
L 747.163636 283.950347 
L 747.163636 283.950347 
" clip-path="url(#p2890d8499b)" style="fill: none; stroke: #ff7f0e; stroke-width: 1.5; stroke-linecap: square"/>
   </g>
   <g id="patch_3">
    <path d="M 108 320.4 
L 108 43.2 
" style="fill: none; stroke: #a9a9a9; stroke-width: 0.8; stroke-linejoin: miter; stroke-linecap: square"/>
   </g>
   <g id="patch_4">
    <path d="M 777.6 320.4 
L 777.6 43.2 
" style="fill: none"/>
   </g>
   <g id="patch_5">
    <path d="M 108 320.4 
L 777.6 320.4 
" style="fill: none; stroke: #a9a9a9; stroke-width: 0.8; stroke-linejoin: miter; stroke-linecap: square"/>
   </g>
   <g id="patch_6">
    <path d="M 108 43.2 
L 777.6 43.2 
" style="fill: none"/>
   </g>
   <g id="text_22">
    <!-- get_subscribe history -->
    <g style="fill: #a9a9a9" transform="translate(378.6075 37.2) scale(0.12 -0.12)">
     <defs>
      <path id="DejaVuSans-67" d="M 2906 1791 
Q 2906 2416 2648 2759 
Q 2391 3103 1925 3103 
Q 1463 3103 1205 2759 
Q 947 2416 947 1791 
Q 947 1169 1205 825 
Q 1463 481 1925 481 
Q 2391 481 2648 825 
Q 2906 1169 2906 1791 
z
M 3481 434 
Q 3481 -459 3084 -895 
Q 2688 -1331 1869 -1331 
Q 1566 -1331 1297 -1286 
Q 1028 -1241 775 -1147 
L 775 -588 
Q 1028 -725 1275 -790 
Q 1522 -856 1778 -856 
Q 2344 -856 2625 -561 
Q 2906 -266 2906 331 
L 2906 616 
Q 2728 306 2450 153 
Q 2172 0 1784 0 
Q 1141 0 747 490 
Q 353 981 353 1791 
Q 353 2603 747 3093 
Q 1141 3584 1784 3584 
Q 2172 3584 2450 3431 
Q 2728 3278 2906 2969 
L 2906 3500 
L 3481 3500 
L 3481 434 
z
" transform="scale(0.015625)"/>
      <path id="DejaVuSans-65" d="M 3597 1894 
L 3597 1613 
L 953 1613 
Q 991 1019 1311 708 
Q 1631 397 2203 397 
Q 2534 397 2845 478 
Q 3156 559 3463 722 
L 3463 178 
Q 3153 47 2828 -22 
Q 2503 -91 2169 -91 
Q 1331 -91 842 396 
Q 353 884 353 1716 
Q 353 2575 817 3079 
Q 1281 3584 2069 3584 
Q 2775 3584 3186 3129 
Q 3597 2675 3597 1894 
z
M 3022 2063 
Q 3016 2534 2758 2815 
Q 2500 3097 2075 3097 
Q 1594 3097 1305 2825 
Q 1016 2553 972 2059 
L 3022 2063 
z
" transform="scale(0.015625)"/>
      <path id="DejaVuSans-74" d="M 1172 4494 
L 1172 3500 
L 2356 3500 
L 2356 3053 
L 1172 3053 
L 1172 1153 
Q 1172 725 1289 603 
Q 1406 481 1766 481 
L 2356 481 
L 2356 0 
L 1766 0 
Q 1100 0 847 248 
Q 594 497 594 1153 
L 594 3053 
L 172 3053 
L 172 3500 
L 594 3500 
L 594 4494 
L 1172 4494 
z
" transform="scale(0.015625)"/>
      <path id="DejaVuSans-5f" d="M 3263 -1063 
L 3263 -1509 
L -63 -1509 
L -63 -1063 
L 3263 -1063 
z
" transform="scale(0.015625)"/>
      <path id="DejaVuSans-73" d="M 2834 3397 
L 2834 2853 
Q 2591 2978 2328 3040 
Q 2066 3103 1784 3103 
Q 1356 3103 1142 2972 
Q 928 2841 928 2578 
Q 928 2378 1081 2264 
Q 1234 2150 1697 2047 
L 1894 2003 
Q 2506 1872 2764 1633 
Q 3022 1394 3022 966 
Q 3022 478 2636 193 
Q 2250 -91 1575 -91 
Q 1294 -91 989 -36 
Q 684 19 347 128 
L 347 722 
Q 666 556 975 473 
Q 1284 391 1588 391 
Q 1994 391 2212 530 
Q 2431 669 2431 922 
Q 2431 1156 2273 1281 
Q 2116 1406 1581 1522 
L 1381 1569 
Q 847 1681 609 1914 
Q 372 2147 372 2553 
Q 372 3047 722 3315 
Q 1072 3584 1716 3584 
Q 2034 3584 2315 3537 
Q 2597 3491 2834 3397 
z
" transform="scale(0.015625)"/>
      <path id="DejaVuSans-75" d="M 544 1381 
L 544 3500 
L 1119 3500 
L 1119 1403 
Q 1119 906 1312 657 
Q 1506 409 1894 409 
Q 2359 409 2629 706 
Q 2900 1003 2900 1516 
L 2900 3500 
L 3475 3500 
L 3475 0 
L 2900 0 
L 2900 538 
Q 2691 219 2414 64 
Q 2138 -91 1772 -91 
Q 1169 -91 856 284 
Q 544 659 544 1381 
z
M 1991 3584 
L 1991 3584 
z
" transform="scale(0.015625)"/>
      <path id="DejaVuSans-62" d="M 3116 1747 
Q 3116 2381 2855 2742 
Q 2594 3103 2138 3103 
Q 1681 3103 1420 2742 
Q 1159 2381 1159 1747 
Q 1159 1113 1420 752 
Q 1681 391 2138 391 
Q 2594 391 2855 752 
Q 3116 1113 3116 1747 
z
M 1159 2969 
Q 1341 3281 1617 3432 
Q 1894 3584 2278 3584 
Q 2916 3584 3314 3078 
Q 3713 2572 3713 1747 
Q 3713 922 3314 415 
Q 2916 -91 2278 -91 
Q 1894 -91 1617 61 
Q 1341 213 1159 525 
L 1159 0 
L 581 0 
L 581 4863 
L 1159 4863 
L 1159 2969 
z
" transform="scale(0.015625)"/>
      <path id="DejaVuSans-63" d="M 3122 3366 
L 3122 2828 
Q 2878 2963 2633 3030 
Q 2388 3097 2138 3097 
Q 1578 3097 1268 2742 
Q 959 2388 959 1747 
Q 959 1106 1268 751 
Q 1578 397 2138 397 
Q 2388 397 2633 464 
Q 2878 531 3122 666 
L 3122 134 
Q 2881 22 2623 -34 
Q 2366 -91 2075 -91 
Q 1284 -91 818 406 
Q 353 903 353 1747 
Q 353 2603 823 3093 
Q 1294 3584 2113 3584 
Q 2378 3584 2631 3529 
Q 2884 3475 3122 3366 
z
" transform="scale(0.015625)"/>
      <path id="DejaVuSans-72" d="M 2631 2963 
Q 2534 3019 2420 3045 
Q 2306 3072 2169 3072 
Q 1681 3072 1420 2755 
Q 1159 2438 1159 1844 
L 1159 0 
L 581 0 
L 581 3500 
L 1159 3500 
L 1159 2956 
Q 1341 3275 1631 3429 
Q 1922 3584 2338 3584 
Q 2397 3584 2469 3576 
Q 2541 3569 2628 3553 
L 2631 2963 
z
" transform="scale(0.015625)"/>
      <path id="DejaVuSans-69" d="M 603 3500 
L 1178 3500 
L 1178 0 
L 603 0 
L 603 3500 
z
M 603 4863 
L 1178 4863 
L 1178 4134 
L 603 4134 
L 603 4863 
z
" transform="scale(0.015625)"/>
      <path id="DejaVuSans-20" transform="scale(0.015625)"/>
      <path id="DejaVuSans-68" d="M 3513 2113 
L 3513 0 
L 2938 0 
L 2938 2094 
Q 2938 2591 2744 2837 
Q 2550 3084 2163 3084 
Q 1697 3084 1428 2787 
Q 1159 2491 1159 1978 
L 1159 0 
L 581 0 
L 581 4863 
L 1159 4863 
L 1159 2956 
Q 1366 3272 1645 3428 
Q 1925 3584 2291 3584 
Q 2894 3584 3203 3211 
Q 3513 2838 3513 2113 
z
" transform="scale(0.015625)"/>
      <path id="DejaVuSans-6f" d="M 1959 3097 
Q 1497 3097 1228 2736 
Q 959 2375 959 1747 
Q 959 1119 1226 758 
Q 1494 397 1959 397 
Q 2419 397 2687 759 
Q 2956 1122 2956 1747 
Q 2956 2369 2687 2733 
Q 2419 3097 1959 3097 
z
M 1959 3584 
Q 2709 3584 3137 3096 
Q 3566 2609 3566 1747 
Q 3566 888 3137 398 
Q 2709 -91 1959 -91 
Q 1206 -91 779 398 
Q 353 888 353 1747 
Q 353 2609 779 3096 
Q 1206 3584 1959 3584 
z
" transform="scale(0.015625)"/>
      <path id="DejaVuSans-79" d="M 2059 -325 
Q 1816 -950 1584 -1140 
Q 1353 -1331 966 -1331 
L 506 -1331 
L 506 -850 
L 844 -850 
Q 1081 -850 1212 -737 
Q 1344 -625 1503 -206 
L 1606 56 
L 191 3500 
L 800 3500 
L 1894 763 
L 2988 3500 
L 3597 3500 
L 2059 -325 
z
" transform="scale(0.015625)"/>
     </defs>
     <use xlink:href="#DejaVuSans-67"/>
     <use xlink:href="#DejaVuSans-65" x="63.476562"/>
     <use xlink:href="#DejaVuSans-74" x="125"/>
     <use xlink:href="#DejaVuSans-5f" x="164.208984"/>
     <use xlink:href="#DejaVuSans-73" x="214.208984"/>
     <use xlink:href="#DejaVuSans-75" x="266.308594"/>
     <use xlink:href="#DejaVuSans-62" x="329.6875"/>
     <use xlink:href="#DejaVuSans-73" x="393.164062"/>
     <use xlink:href="#DejaVuSans-63" x="445.263672"/>
     <use xlink:href="#DejaVuSans-72" x="500.244141"/>
     <use xlink:href="#DejaVuSans-69" x="541.357422"/>
     <use xlink:href="#DejaVuSans-62" x="569.140625"/>
     <use xlink:href="#DejaVuSans-65" x="632.617188"/>
     <use xlink:href="#DejaVuSans-20" x="694.140625"/>
     <use xlink:href="#DejaVuSans-68" x="725.927734"/>
     <use xlink:href="#DejaVuSans-69" x="789.306641"/>
     <use xlink:href="#DejaVuSans-73" x="817.089844"/>
     <use xlink:href="#DejaVuSans-74" x="869.189453"/>
     <use xlink:href="#DejaVuSans-6f" x="908.398438"/>
     <use xlink:href="#DejaVuSans-72" x="969.580078"/>
     <use xlink:href="#DejaVuSans-79" x="1010.693359"/>
    </g>
   </g>
   <g id="legend_1">
    <g id="line2d_45">
     <path d="M 815.08 328.498438 
L 825.08 328.498438 
L 835.08 328.498438 
" style="fill: none; stroke: #1f77b4; stroke-width: 1.5; stroke-linecap: square"/>
    </g>
    <g id="text_23">
     <!-- star -->
     <g style="fill: #a9a9a9" transform="translate(843.08 331.998438) scale(0.1 -0.1)">
      <defs>
       <path id="DejaVuSans-61" d="M 2194 1759 
Q 1497 1759 1228 1600 
Q 959 1441 959 1056 
Q 959 750 1161 570 
Q 1363 391 1709 391 
Q 2188 391 2477 730 
Q 2766 1069 2766 1631 
L 2766 1759 
L 2194 1759 
z
M 3341 1997 
L 3341 0 
L 2766 0 
L 2766 531 
Q 2569 213 2275 61 
Q 1981 -91 1556 -91 
Q 1019 -91 701 211 
Q 384 513 384 1019 
Q 384 1609 779 1909 
Q 1175 2209 1959 2209 
L 2766 2209 
L 2766 2266 
Q 2766 2663 2505 2880 
Q 2244 3097 1772 3097 
Q 1472 3097 1187 3025 
Q 903 2953 641 2809 
L 641 3341 
Q 956 3463 1253 3523 
Q 1550 3584 1831 3584 
Q 2591 3584 2966 3190 
Q 3341 2797 3341 1997 
z
" transform="scale(0.015625)"/>
      </defs>
      <use xlink:href="#DejaVuSans-73"/>
      <use xlink:href="#DejaVuSans-74" x="52.099609"/>
      <use xlink:href="#DejaVuSans-61" x="91.308594"/>
      <use xlink:href="#DejaVuSans-72" x="152.587891"/>
     </g>
    </g>
    <g id="line2d_46">
     <path d="M 815.08 343.176562 
L 825.08 343.176562 
L 835.08 343.176562 
" style="fill: none; stroke: #ff7f0e; stroke-width: 1.5; stroke-linecap: square"/>
    </g>
    <g id="text_24">
     <!-- fork -->
     <g style="fill: #a9a9a9" transform="translate(843.08 346.676562) scale(0.1 -0.1)">
      <defs>
       <path id="DejaVuSans-66" d="M 2375 4863 
L 2375 4384 
L 1825 4384 
Q 1516 4384 1395 4259 
Q 1275 4134 1275 3809 
L 1275 3500 
L 2222 3500 
L 2222 3053 
L 1275 3053 
L 1275 0 
L 697 0 
L 697 3053 
L 147 3053 
L 147 3500 
L 697 3500 
L 697 3744 
Q 697 4328 969 4595 
Q 1241 4863 1831 4863 
L 2375 4863 
z
" transform="scale(0.015625)"/>
       <path id="DejaVuSans-6b" d="M 581 4863 
L 1159 4863 
L 1159 1991 
L 2875 3500 
L 3609 3500 
L 1753 1863 
L 3688 0 
L 2938 0 
L 1159 1709 
L 1159 0 
L 581 0 
L 581 4863 
z
" transform="scale(0.015625)"/>
      </defs>
      <use xlink:href="#DejaVuSans-66"/>
      <use xlink:href="#DejaVuSans-6f" x="35.205078"/>
      <use xlink:href="#DejaVuSans-72" x="96.386719"/>
      <use xlink:href="#DejaVuSans-6b" x="137.5"/>
     </g>
    </g>
   </g>
  </g>
 </g>
 <defs>
  <clipPath id="p2890d8499b">
   <rect x="108" y="43.2" width="669.6" height="277.2"/>
  </clipPath>
 </defs>
</svg>
