<?xml version="1.0" encoding="utf-8" standalone="no"?>
<!DOCTYPE svg PUBLIC "-//W3C//DTD SVG 1.1//EN"
  "http://www.w3.org/Graphics/SVG/1.1/DTD/svg11.dtd">
<svg xmlns:xlink="http://www.w3.org/1999/xlink" width="864pt" height="360pt" viewBox="0 0 864 360" xmlns="http://www.w3.org/2000/svg" version="1.1">
 <metadata>
  <rdf:RDF xmlns:dc="http://purl.org/dc/elements/1.1/" xmlns:cc="http://creativecommons.org/ns#" xmlns:rdf="http://www.w3.org/1999/02/22-rdf-syntax-ns#">
   <cc:Work>
    <dc:type rdf:resource="http://purl.org/dc/dcmitype/StillImage"/>
    <dc:date>2023-11-23T20:20:20.561834</dc:date>
    <dc:format>image/svg+xml</dc:format>
    <dc:creator>
     <cc:Agent>
      <dc:title>Matplotlib v3.8.2, https://matplotlib.org/</dc:title>
     </cc:Agent>
    </dc:creator>
   </cc:Work>
  </rdf:RDF>
 </metadata>
 <defs>
  <style type="text/css">*{stroke-linejoin: round; stroke-linecap: butt}</style>
 </defs>
 <g id="figure_1">
  <g id="patch_1">
   <path d="M 0 360 
L 864 360 
L 864 0 
L 0 0 
L 0 360 
z
" style="fill: none; opacity: 0"/>
  </g>
  <g id="axes_1">
   <g id="patch_2">
    <path d="M 108 320.4 
L 777.6 320.4 
L 777.6 43.2 
L 108 43.2 
L 108 320.4 
z
" style="fill: none; opacity: 0"/>
   </g>
   <g id="matplotlib.axis_1">
    <g id="xtick_1">
     <g id="line2d_1">
      <path d="M 122.003585 320.4 
L 122.003585 43.2 
" clip-path="url(#pf65f4dae3a)" style="fill: none; stroke-dasharray: 5.12,1.28,0.8,1.28; stroke-dashoffset: 0; stroke: #b0b0b0; stroke-width: 0.8"/>
     </g>
     <g id="line2d_2">
      <defs>
       <path id="ma663677f59" d="M 0 0 
L 0 3.5 
" style="stroke: #a9a9a9; stroke-width: 0.8"/>
      </defs>
      <g>
       <use xlink:href="#ma663677f59" x="122.003585" y="320.4" style="fill: #a9a9a9; stroke: #a9a9a9; stroke-width: 0.8"/>
      </g>
     </g>
     <g id="text_1">
      <!-- 2021-07 -->
      <g style="fill: #a9a9a9" transform="translate(101.112179 334.998438) scale(0.1 -0.1)">
       <defs>
        <path id="DejaVuSans-32" d="M 1228 531 
L 3431 531 
L 3431 0 
L 469 0 
L 469 531 
Q 828 903 1448 1529 
Q 2069 2156 2228 2338 
Q 2531 2678 2651 2914 
Q 2772 3150 2772 3378 
Q 2772 3750 2511 3984 
Q 2250 4219 1831 4219 
Q 1534 4219 1204 4116 
Q 875 4013 500 3803 
L 500 4441 
Q 881 4594 1212 4672 
Q 1544 4750 1819 4750 
Q 2544 4750 2975 4387 
Q 3406 4025 3406 3419 
Q 3406 3131 3298 2873 
Q 3191 2616 2906 2266 
Q 2828 2175 2409 1742 
Q 1991 1309 1228 531 
z
" transform="scale(0.015625)"/>
        <path id="DejaVuSans-30" d="M 2034 4250 
Q 1547 4250 1301 3770 
Q 1056 3291 1056 2328 
Q 1056 1369 1301 889 
Q 1547 409 2034 409 
Q 2525 409 2770 889 
Q 3016 1369 3016 2328 
Q 3016 3291 2770 3770 
Q 2525 4250 2034 4250 
z
M 2034 4750 
Q 2819 4750 3233 4129 
Q 3647 3509 3647 2328 
Q 3647 1150 3233 529 
Q 2819 -91 2034 -91 
Q 1250 -91 836 529 
Q 422 1150 422 2328 
Q 422 3509 836 4129 
Q 1250 4750 2034 4750 
z
" transform="scale(0.015625)"/>
        <path id="DejaVuSans-31" d="M 794 531 
L 1825 531 
L 1825 4091 
L 703 3866 
L 703 4441 
L 1819 4666 
L 2450 4666 
L 2450 531 
L 3481 531 
L 3481 0 
L 794 0 
L 794 531 
z
" transform="scale(0.015625)"/>
        <path id="DejaVuSans-2d" d="M 313 2009 
L 1997 2009 
L 1997 1497 
L 313 1497 
L 313 2009 
z
" transform="scale(0.015625)"/>
        <path id="DejaVuSans-37" d="M 525 4666 
L 3525 4666 
L 3525 4397 
L 1831 0 
L 1172 0 
L 2766 4134 
L 525 4134 
L 525 4666 
z
" transform="scale(0.015625)"/>
       </defs>
       <use xlink:href="#DejaVuSans-32"/>
       <use xlink:href="#DejaVuSans-30" x="63.623047"/>
       <use xlink:href="#DejaVuSans-32" x="127.246094"/>
       <use xlink:href="#DejaVuSans-31" x="190.869141"/>
       <use xlink:href="#DejaVuSans-2d" x="254.492188"/>
       <use xlink:href="#DejaVuSans-30" x="290.576172"/>
       <use xlink:href="#DejaVuSans-37" x="354.199219"/>
      </g>
     </g>
    </g>
    <g id="xtick_2">
     <g id="line2d_3">
      <path d="M 187.734699 320.4 
L 187.734699 43.2 
" clip-path="url(#pf65f4dae3a)" style="fill: none; stroke-dasharray: 5.12,1.28,0.8,1.28; stroke-dashoffset: 0; stroke: #b0b0b0; stroke-width: 0.8"/>
     </g>
     <g id="line2d_4">
      <g>
       <use xlink:href="#ma663677f59" x="187.734699" y="320.4" style="fill: #a9a9a9; stroke: #a9a9a9; stroke-width: 0.8"/>
      </g>
     </g>
     <g id="text_2">
      <!-- 2021-10 -->
      <g style="fill: #a9a9a9" transform="translate(166.843293 334.998438) scale(0.1 -0.1)">
       <use xlink:href="#DejaVuSans-32"/>
       <use xlink:href="#DejaVuSans-30" x="63.623047"/>
       <use xlink:href="#DejaVuSans-32" x="127.246094"/>
       <use xlink:href="#DejaVuSans-31" x="190.869141"/>
       <use xlink:href="#DejaVuSans-2d" x="254.492188"/>
       <use xlink:href="#DejaVuSans-31" x="290.576172"/>
       <use xlink:href="#DejaVuSans-30" x="354.199219"/>
      </g>
     </g>
    </g>
    <g id="xtick_3">
     <g id="line2d_5">
      <path d="M 253.465813 320.4 
L 253.465813 43.2 
" clip-path="url(#pf65f4dae3a)" style="fill: none; stroke-dasharray: 5.12,1.28,0.8,1.28; stroke-dashoffset: 0; stroke: #b0b0b0; stroke-width: 0.8"/>
     </g>
     <g id="line2d_6">
      <g>
       <use xlink:href="#ma663677f59" x="253.465813" y="320.4" style="fill: #a9a9a9; stroke: #a9a9a9; stroke-width: 0.8"/>
      </g>
     </g>
     <g id="text_3">
      <!-- 2022-01 -->
      <g style="fill: #a9a9a9" transform="translate(232.574407 334.998438) scale(0.1 -0.1)">
       <use xlink:href="#DejaVuSans-32"/>
       <use xlink:href="#DejaVuSans-30" x="63.623047"/>
       <use xlink:href="#DejaVuSans-32" x="127.246094"/>
       <use xlink:href="#DejaVuSans-32" x="190.869141"/>
       <use xlink:href="#DejaVuSans-2d" x="254.492188"/>
       <use xlink:href="#DejaVuSans-30" x="290.576172"/>
       <use xlink:href="#DejaVuSans-31" x="354.199219"/>
      </g>
     </g>
    </g>
    <g id="xtick_4">
     <g id="line2d_7">
      <path d="M 317.76799 320.4 
L 317.76799 43.2 
" clip-path="url(#pf65f4dae3a)" style="fill: none; stroke-dasharray: 5.12,1.28,0.8,1.28; stroke-dashoffset: 0; stroke: #b0b0b0; stroke-width: 0.8"/>
     </g>
     <g id="line2d_8">
      <g>
       <use xlink:href="#ma663677f59" x="317.76799" y="320.4" style="fill: #a9a9a9; stroke: #a9a9a9; stroke-width: 0.8"/>
      </g>
     </g>
     <g id="text_4">
      <!-- 2022-04 -->
      <g style="fill: #a9a9a9" transform="translate(296.876584 334.998438) scale(0.1 -0.1)">
       <defs>
        <path id="DejaVuSans-34" d="M 2419 4116 
L 825 1625 
L 2419 1625 
L 2419 4116 
z
M 2253 4666 
L 3047 4666 
L 3047 1625 
L 3713 1625 
L 3713 1100 
L 3047 1100 
L 3047 0 
L 2419 0 
L 2419 1100 
L 313 1100 
L 313 1709 
L 2253 4666 
z
" transform="scale(0.015625)"/>
       </defs>
       <use xlink:href="#DejaVuSans-32"/>
       <use xlink:href="#DejaVuSans-30" x="63.623047"/>
       <use xlink:href="#DejaVuSans-32" x="127.246094"/>
       <use xlink:href="#DejaVuSans-32" x="190.869141"/>
       <use xlink:href="#DejaVuSans-2d" x="254.492188"/>
       <use xlink:href="#DejaVuSans-30" x="290.576172"/>
       <use xlink:href="#DejaVuSans-34" x="354.199219"/>
      </g>
     </g>
    </g>
    <g id="xtick_5">
     <g id="line2d_9">
      <path d="M 382.784635 320.4 
L 382.784635 43.2 
" clip-path="url(#pf65f4dae3a)" style="fill: none; stroke-dasharray: 5.12,1.28,0.8,1.28; stroke-dashoffset: 0; stroke: #b0b0b0; stroke-width: 0.8"/>
     </g>
     <g id="line2d_10">
      <g>
       <use xlink:href="#ma663677f59" x="382.784635" y="320.4" style="fill: #a9a9a9; stroke: #a9a9a9; stroke-width: 0.8"/>
      </g>
     </g>
     <g id="text_5">
      <!-- 2022-07 -->
      <g style="fill: #a9a9a9" transform="translate(361.893229 334.998438) scale(0.1 -0.1)">
       <use xlink:href="#DejaVuSans-32"/>
       <use xlink:href="#DejaVuSans-30" x="63.623047"/>
       <use xlink:href="#DejaVuSans-32" x="127.246094"/>
       <use xlink:href="#DejaVuSans-32" x="190.869141"/>
       <use xlink:href="#DejaVuSans-2d" x="254.492188"/>
       <use xlink:href="#DejaVuSans-30" x="290.576172"/>
       <use xlink:href="#DejaVuSans-37" x="354.199219"/>
      </g>
     </g>
    </g>
    <g id="xtick_6">
     <g id="line2d_11">
      <path d="M 448.515749 320.4 
L 448.515749 43.2 
" clip-path="url(#pf65f4dae3a)" style="fill: none; stroke-dasharray: 5.12,1.28,0.8,1.28; stroke-dashoffset: 0; stroke: #b0b0b0; stroke-width: 0.8"/>
     </g>
     <g id="line2d_12">
      <g>
       <use xlink:href="#ma663677f59" x="448.515749" y="320.4" style="fill: #a9a9a9; stroke: #a9a9a9; stroke-width: 0.8"/>
      </g>
     </g>
     <g id="text_6">
      <!-- 2022-10 -->
      <g style="fill: #a9a9a9" transform="translate(427.624343 334.998438) scale(0.1 -0.1)">
       <use xlink:href="#DejaVuSans-32"/>
       <use xlink:href="#DejaVuSans-30" x="63.623047"/>
       <use xlink:href="#DejaVuSans-32" x="127.246094"/>
       <use xlink:href="#DejaVuSans-32" x="190.869141"/>
       <use xlink:href="#DejaVuSans-2d" x="254.492188"/>
       <use xlink:href="#DejaVuSans-31" x="290.576172"/>
       <use xlink:href="#DejaVuSans-30" x="354.199219"/>
      </g>
     </g>
    </g>
    <g id="xtick_7">
     <g id="line2d_13">
      <path d="M 514.246863 320.4 
L 514.246863 43.2 
" clip-path="url(#pf65f4dae3a)" style="fill: none; stroke-dasharray: 5.12,1.28,0.8,1.28; stroke-dashoffset: 0; stroke: #b0b0b0; stroke-width: 0.8"/>
     </g>
     <g id="line2d_14">
      <g>
       <use xlink:href="#ma663677f59" x="514.246863" y="320.4" style="fill: #a9a9a9; stroke: #a9a9a9; stroke-width: 0.8"/>
      </g>
     </g>
     <g id="text_7">
      <!-- 2023-01 -->
      <g style="fill: #a9a9a9" transform="translate(493.355457 334.998438) scale(0.1 -0.1)">
       <defs>
        <path id="DejaVuSans-33" d="M 2597 2516 
Q 3050 2419 3304 2112 
Q 3559 1806 3559 1356 
Q 3559 666 3084 287 
Q 2609 -91 1734 -91 
Q 1441 -91 1130 -33 
Q 819 25 488 141 
L 488 750 
Q 750 597 1062 519 
Q 1375 441 1716 441 
Q 2309 441 2620 675 
Q 2931 909 2931 1356 
Q 2931 1769 2642 2001 
Q 2353 2234 1838 2234 
L 1294 2234 
L 1294 2753 
L 1863 2753 
Q 2328 2753 2575 2939 
Q 2822 3125 2822 3475 
Q 2822 3834 2567 4026 
Q 2313 4219 1838 4219 
Q 1578 4219 1281 4162 
Q 984 4106 628 3988 
L 628 4550 
Q 988 4650 1302 4700 
Q 1616 4750 1894 4750 
Q 2613 4750 3031 4423 
Q 3450 4097 3450 3541 
Q 3450 3153 3228 2886 
Q 3006 2619 2597 2516 
z
" transform="scale(0.015625)"/>
       </defs>
       <use xlink:href="#DejaVuSans-32"/>
       <use xlink:href="#DejaVuSans-30" x="63.623047"/>
       <use xlink:href="#DejaVuSans-32" x="127.246094"/>
       <use xlink:href="#DejaVuSans-33" x="190.869141"/>
       <use xlink:href="#DejaVuSans-2d" x="254.492188"/>
       <use xlink:href="#DejaVuSans-30" x="290.576172"/>
       <use xlink:href="#DejaVuSans-31" x="354.199219"/>
      </g>
     </g>
    </g>
    <g id="xtick_8">
     <g id="line2d_15">
      <path d="M 578.54904 320.4 
L 578.54904 43.2 
" clip-path="url(#pf65f4dae3a)" style="fill: none; stroke-dasharray: 5.12,1.28,0.8,1.28; stroke-dashoffset: 0; stroke: #b0b0b0; stroke-width: 0.8"/>
     </g>
     <g id="line2d_16">
      <g>
       <use xlink:href="#ma663677f59" x="578.54904" y="320.4" style="fill: #a9a9a9; stroke: #a9a9a9; stroke-width: 0.8"/>
      </g>
     </g>
     <g id="text_8">
      <!-- 2023-04 -->
      <g style="fill: #a9a9a9" transform="translate(557.657633 334.998438) scale(0.1 -0.1)">
       <use xlink:href="#DejaVuSans-32"/>
       <use xlink:href="#DejaVuSans-30" x="63.623047"/>
       <use xlink:href="#DejaVuSans-32" x="127.246094"/>
       <use xlink:href="#DejaVuSans-33" x="190.869141"/>
       <use xlink:href="#DejaVuSans-2d" x="254.492188"/>
       <use xlink:href="#DejaVuSans-30" x="290.576172"/>
       <use xlink:href="#DejaVuSans-34" x="354.199219"/>
      </g>
     </g>
    </g>
    <g id="xtick_9">
     <g id="line2d_17">
      <path d="M 643.565685 320.4 
L 643.565685 43.2 
" clip-path="url(#pf65f4dae3a)" style="fill: none; stroke-dasharray: 5.12,1.28,0.8,1.28; stroke-dashoffset: 0; stroke: #b0b0b0; stroke-width: 0.8"/>
     </g>
     <g id="line2d_18">
      <g>
       <use xlink:href="#ma663677f59" x="643.565685" y="320.4" style="fill: #a9a9a9; stroke: #a9a9a9; stroke-width: 0.8"/>
      </g>
     </g>
     <g id="text_9">
      <!-- 2023-07 -->
      <g style="fill: #a9a9a9" transform="translate(622.674279 334.998438) scale(0.1 -0.1)">
       <use xlink:href="#DejaVuSans-32"/>
       <use xlink:href="#DejaVuSans-30" x="63.623047"/>
       <use xlink:href="#DejaVuSans-32" x="127.246094"/>
       <use xlink:href="#DejaVuSans-33" x="190.869141"/>
       <use xlink:href="#DejaVuSans-2d" x="254.492188"/>
       <use xlink:href="#DejaVuSans-30" x="290.576172"/>
       <use xlink:href="#DejaVuSans-37" x="354.199219"/>
      </g>
     </g>
    </g>
    <g id="xtick_10">
     <g id="line2d_19">
      <path d="M 709.296799 320.4 
L 709.296799 43.2 
" clip-path="url(#pf65f4dae3a)" style="fill: none; stroke-dasharray: 5.12,1.28,0.8,1.28; stroke-dashoffset: 0; stroke: #b0b0b0; stroke-width: 0.8"/>
     </g>
     <g id="line2d_20">
      <g>
       <use xlink:href="#ma663677f59" x="709.296799" y="320.4" style="fill: #a9a9a9; stroke: #a9a9a9; stroke-width: 0.8"/>
      </g>
     </g>
     <g id="text_10">
      <!-- 2023-10 -->
      <g style="fill: #a9a9a9" transform="translate(688.405393 334.998438) scale(0.1 -0.1)">
       <use xlink:href="#DejaVuSans-32"/>
       <use xlink:href="#DejaVuSans-30" x="63.623047"/>
       <use xlink:href="#DejaVuSans-32" x="127.246094"/>
       <use xlink:href="#DejaVuSans-33" x="190.869141"/>
       <use xlink:href="#DejaVuSans-2d" x="254.492188"/>
       <use xlink:href="#DejaVuSans-31" x="290.576172"/>
       <use xlink:href="#DejaVuSans-30" x="354.199219"/>
      </g>
     </g>
    </g>
    <g id="xtick_11">
     <g id="line2d_21">
      <path d="M 775.027913 320.4 
L 775.027913 43.2 
" clip-path="url(#pf65f4dae3a)" style="fill: none; stroke-dasharray: 5.12,1.28,0.8,1.28; stroke-dashoffset: 0; stroke: #b0b0b0; stroke-width: 0.8"/>
     </g>
     <g id="line2d_22">
      <g>
       <use xlink:href="#ma663677f59" x="775.027913" y="320.4" style="fill: #a9a9a9; stroke: #a9a9a9; stroke-width: 0.8"/>
      </g>
     </g>
     <g id="text_11">
      <!-- 2024-01 -->
      <g style="fill: #a9a9a9" transform="translate(754.136507 334.998438) scale(0.1 -0.1)">
       <use xlink:href="#DejaVuSans-32"/>
       <use xlink:href="#DejaVuSans-30" x="63.623047"/>
       <use xlink:href="#DejaVuSans-32" x="127.246094"/>
       <use xlink:href="#DejaVuSans-34" x="190.869141"/>
       <use xlink:href="#DejaVuSans-2d" x="254.492188"/>
       <use xlink:href="#DejaVuSans-30" x="290.576172"/>
       <use xlink:href="#DejaVuSans-31" x="354.199219"/>
      </g>
     </g>
    </g>
   </g>
   <g id="matplotlib.axis_2">
    <g id="ytick_1">
     <g id="line2d_23">
      <path d="M 108 307.848639 
L 777.6 307.848639 
" clip-path="url(#pf65f4dae3a)" style="fill: none; stroke-dasharray: 5.12,1.28,0.8,1.28; stroke-dashoffset: 0; stroke: #b0b0b0; stroke-width: 0.8"/>
     </g>
     <g id="line2d_24">
      <defs>
       <path id="mb8007ef5de" d="M 0 0 
L -3.5 0 
" style="stroke: #a9a9a9; stroke-width: 0.8"/>
      </defs>
      <g>
       <use xlink:href="#mb8007ef5de" x="108" y="307.848639" style="fill: #a9a9a9; stroke: #a9a9a9; stroke-width: 0.8"/>
      </g>
     </g>
     <g id="text_12">
      <!-- 0 -->
      <g style="fill: #a9a9a9" transform="translate(94.6375 311.647858) scale(0.1 -0.1)">
       <use xlink:href="#DejaVuSans-30"/>
      </g>
     </g>
    </g>
    <g id="ytick_2">
     <g id="line2d_25">
      <path d="M 108 278.665084 
L 777.6 278.665084 
" clip-path="url(#pf65f4dae3a)" style="fill: none; stroke-dasharray: 5.12,1.28,0.8,1.28; stroke-dashoffset: 0; stroke: #b0b0b0; stroke-width: 0.8"/>
     </g>
     <g id="line2d_26">
      <g>
       <use xlink:href="#mb8007ef5de" x="108" y="278.665084" style="fill: #a9a9a9; stroke: #a9a9a9; stroke-width: 0.8"/>
      </g>
     </g>
     <g id="text_13">
      <!-- 600 -->
      <g style="fill: #a9a9a9" transform="translate(81.9125 282.464303) scale(0.1 -0.1)">
       <defs>
        <path id="DejaVuSans-36" d="M 2113 2584 
Q 1688 2584 1439 2293 
Q 1191 2003 1191 1497 
Q 1191 994 1439 701 
Q 1688 409 2113 409 
Q 2538 409 2786 701 
Q 3034 994 3034 1497 
Q 3034 2003 2786 2293 
Q 2538 2584 2113 2584 
z
M 3366 4563 
L 3366 3988 
Q 3128 4100 2886 4159 
Q 2644 4219 2406 4219 
Q 1781 4219 1451 3797 
Q 1122 3375 1075 2522 
Q 1259 2794 1537 2939 
Q 1816 3084 2150 3084 
Q 2853 3084 3261 2657 
Q 3669 2231 3669 1497 
Q 3669 778 3244 343 
Q 2819 -91 2113 -91 
Q 1303 -91 875 529 
Q 447 1150 447 2328 
Q 447 3434 972 4092 
Q 1497 4750 2381 4750 
Q 2619 4750 2861 4703 
Q 3103 4656 3366 4563 
z
" transform="scale(0.015625)"/>
       </defs>
       <use xlink:href="#DejaVuSans-36"/>
       <use xlink:href="#DejaVuSans-30" x="63.623047"/>
       <use xlink:href="#DejaVuSans-30" x="127.246094"/>
      </g>
     </g>
    </g>
    <g id="ytick_3">
     <g id="line2d_27">
      <path d="M 108 249.481529 
L 777.6 249.481529 
" clip-path="url(#pf65f4dae3a)" style="fill: none; stroke-dasharray: 5.12,1.28,0.8,1.28; stroke-dashoffset: 0; stroke: #b0b0b0; stroke-width: 0.8"/>
     </g>
     <g id="line2d_28">
      <g>
       <use xlink:href="#mb8007ef5de" x="108" y="249.481529" style="fill: #a9a9a9; stroke: #a9a9a9; stroke-width: 0.8"/>
      </g>
     </g>
     <g id="text_14">
      <!-- 1200 -->
      <g style="fill: #a9a9a9" transform="translate(75.55 253.280747) scale(0.1 -0.1)">
       <use xlink:href="#DejaVuSans-31"/>
       <use xlink:href="#DejaVuSans-32" x="63.623047"/>
       <use xlink:href="#DejaVuSans-30" x="127.246094"/>
       <use xlink:href="#DejaVuSans-30" x="190.869141"/>
      </g>
     </g>
    </g>
    <g id="ytick_4">
     <g id="line2d_29">
      <path d="M 108 220.297973 
L 777.6 220.297973 
" clip-path="url(#pf65f4dae3a)" style="fill: none; stroke-dasharray: 5.12,1.28,0.8,1.28; stroke-dashoffset: 0; stroke: #b0b0b0; stroke-width: 0.8"/>
     </g>
     <g id="line2d_30">
      <g>
       <use xlink:href="#mb8007ef5de" x="108" y="220.297973" style="fill: #a9a9a9; stroke: #a9a9a9; stroke-width: 0.8"/>
      </g>
     </g>
     <g id="text_15">
      <!-- 1800 -->
      <g style="fill: #a9a9a9" transform="translate(75.55 224.097192) scale(0.1 -0.1)">
       <defs>
        <path id="DejaVuSans-38" d="M 2034 2216 
Q 1584 2216 1326 1975 
Q 1069 1734 1069 1313 
Q 1069 891 1326 650 
Q 1584 409 2034 409 
Q 2484 409 2743 651 
Q 3003 894 3003 1313 
Q 3003 1734 2745 1975 
Q 2488 2216 2034 2216 
z
M 1403 2484 
Q 997 2584 770 2862 
Q 544 3141 544 3541 
Q 544 4100 942 4425 
Q 1341 4750 2034 4750 
Q 2731 4750 3128 4425 
Q 3525 4100 3525 3541 
Q 3525 3141 3298 2862 
Q 3072 2584 2669 2484 
Q 3125 2378 3379 2068 
Q 3634 1759 3634 1313 
Q 3634 634 3220 271 
Q 2806 -91 2034 -91 
Q 1263 -91 848 271 
Q 434 634 434 1313 
Q 434 1759 690 2068 
Q 947 2378 1403 2484 
z
M 1172 3481 
Q 1172 3119 1398 2916 
Q 1625 2713 2034 2713 
Q 2441 2713 2670 2916 
Q 2900 3119 2900 3481 
Q 2900 3844 2670 4047 
Q 2441 4250 2034 4250 
Q 1625 4250 1398 4047 
Q 1172 3844 1172 3481 
z
" transform="scale(0.015625)"/>
       </defs>
       <use xlink:href="#DejaVuSans-31"/>
       <use xlink:href="#DejaVuSans-38" x="63.623047"/>
       <use xlink:href="#DejaVuSans-30" x="127.246094"/>
       <use xlink:href="#DejaVuSans-30" x="190.869141"/>
      </g>
     </g>
    </g>
    <g id="ytick_5">
     <g id="line2d_31">
      <path d="M 108 191.114418 
L 777.6 191.114418 
" clip-path="url(#pf65f4dae3a)" style="fill: none; stroke-dasharray: 5.12,1.28,0.8,1.28; stroke-dashoffset: 0; stroke: #b0b0b0; stroke-width: 0.8"/>
     </g>
     <g id="line2d_32">
      <g>
       <use xlink:href="#mb8007ef5de" x="108" y="191.114418" style="fill: #a9a9a9; stroke: #a9a9a9; stroke-width: 0.8"/>
      </g>
     </g>
     <g id="text_16">
      <!-- 2400 -->
      <g style="fill: #a9a9a9" transform="translate(75.55 194.913637) scale(0.1 -0.1)">
       <use xlink:href="#DejaVuSans-32"/>
       <use xlink:href="#DejaVuSans-34" x="63.623047"/>
       <use xlink:href="#DejaVuSans-30" x="127.246094"/>
       <use xlink:href="#DejaVuSans-30" x="190.869141"/>
      </g>
     </g>
    </g>
    <g id="ytick_6">
     <g id="line2d_33">
      <path d="M 108 161.930863 
L 777.6 161.930863 
" clip-path="url(#pf65f4dae3a)" style="fill: none; stroke-dasharray: 5.12,1.28,0.8,1.28; stroke-dashoffset: 0; stroke: #b0b0b0; stroke-width: 0.8"/>
     </g>
     <g id="line2d_34">
      <g>
       <use xlink:href="#mb8007ef5de" x="108" y="161.930863" style="fill: #a9a9a9; stroke: #a9a9a9; stroke-width: 0.8"/>
      </g>
     </g>
     <g id="text_17">
      <!-- 3000 -->
      <g style="fill: #a9a9a9" transform="translate(75.55 165.730082) scale(0.1 -0.1)">
       <use xlink:href="#DejaVuSans-33"/>
       <use xlink:href="#DejaVuSans-30" x="63.623047"/>
       <use xlink:href="#DejaVuSans-30" x="127.246094"/>
       <use xlink:href="#DejaVuSans-30" x="190.869141"/>
      </g>
     </g>
    </g>
    <g id="ytick_7">
     <g id="line2d_35">
      <path d="M 108 132.747307 
L 777.6 132.747307 
" clip-path="url(#pf65f4dae3a)" style="fill: none; stroke-dasharray: 5.12,1.28,0.8,1.28; stroke-dashoffset: 0; stroke: #b0b0b0; stroke-width: 0.8"/>
     </g>
     <g id="line2d_36">
      <g>
       <use xlink:href="#mb8007ef5de" x="108" y="132.747307" style="fill: #a9a9a9; stroke: #a9a9a9; stroke-width: 0.8"/>
      </g>
     </g>
     <g id="text_18">
      <!-- 3600 -->
      <g style="fill: #a9a9a9" transform="translate(75.55 136.546526) scale(0.1 -0.1)">
       <use xlink:href="#DejaVuSans-33"/>
       <use xlink:href="#DejaVuSans-36" x="63.623047"/>
       <use xlink:href="#DejaVuSans-30" x="127.246094"/>
       <use xlink:href="#DejaVuSans-30" x="190.869141"/>
      </g>
     </g>
    </g>
    <g id="ytick_8">
     <g id="line2d_37">
      <path d="M 108 103.563752 
L 777.6 103.563752 
" clip-path="url(#pf65f4dae3a)" style="fill: none; stroke-dasharray: 5.12,1.28,0.8,1.28; stroke-dashoffset: 0; stroke: #b0b0b0; stroke-width: 0.8"/>
     </g>
     <g id="line2d_38">
      <g>
       <use xlink:href="#mb8007ef5de" x="108" y="103.563752" style="fill: #a9a9a9; stroke: #a9a9a9; stroke-width: 0.8"/>
      </g>
     </g>
     <g id="text_19">
      <!-- 4200 -->
      <g style="fill: #a9a9a9" transform="translate(75.55 107.362971) scale(0.1 -0.1)">
       <use xlink:href="#DejaVuSans-34"/>
       <use xlink:href="#DejaVuSans-32" x="63.623047"/>
       <use xlink:href="#DejaVuSans-30" x="127.246094"/>
       <use xlink:href="#DejaVuSans-30" x="190.869141"/>
      </g>
     </g>
    </g>
    <g id="ytick_9">
     <g id="line2d_39">
      <path d="M 108 74.380197 
L 777.6 74.380197 
" clip-path="url(#pf65f4dae3a)" style="fill: none; stroke-dasharray: 5.12,1.28,0.8,1.28; stroke-dashoffset: 0; stroke: #b0b0b0; stroke-width: 0.8"/>
     </g>
     <g id="line2d_40">
      <g>
       <use xlink:href="#mb8007ef5de" x="108" y="74.380197" style="fill: #a9a9a9; stroke: #a9a9a9; stroke-width: 0.8"/>
      </g>
     </g>
     <g id="text_20">
      <!-- 4800 -->
      <g style="fill: #a9a9a9" transform="translate(75.55 78.179416) scale(0.1 -0.1)">
       <use xlink:href="#DejaVuSans-34"/>
       <use xlink:href="#DejaVuSans-38" x="63.623047"/>
       <use xlink:href="#DejaVuSans-30" x="127.246094"/>
       <use xlink:href="#DejaVuSans-30" x="190.869141"/>
      </g>
     </g>
    </g>
    <g id="ytick_10">
     <g id="line2d_41">
      <path d="M 108 45.196642 
L 777.6 45.196642 
" clip-path="url(#pf65f4dae3a)" style="fill: none; stroke-dasharray: 5.12,1.28,0.8,1.28; stroke-dashoffset: 0; stroke: #b0b0b0; stroke-width: 0.8"/>
     </g>
     <g id="line2d_42">
      <g>
       <use xlink:href="#mb8007ef5de" x="108" y="45.196642" style="fill: #a9a9a9; stroke: #a9a9a9; stroke-width: 0.8"/>
      </g>
     </g>
     <g id="text_21">
      <!-- 5400 -->
      <g style="fill: #a9a9a9" transform="translate(75.55 48.99586) scale(0.1 -0.1)">
       <defs>
        <path id="DejaVuSans-35" d="M 691 4666 
L 3169 4666 
L 3169 4134 
L 1269 4134 
L 1269 2991 
Q 1406 3038 1543 3061 
Q 1681 3084 1819 3084 
Q 2600 3084 3056 2656 
Q 3513 2228 3513 1497 
Q 3513 744 3044 326 
Q 2575 -91 1722 -91 
Q 1428 -91 1123 -41 
Q 819 9 494 109 
L 494 744 
Q 775 591 1075 516 
Q 1375 441 1709 441 
Q 2250 441 2565 725 
Q 2881 1009 2881 1497 
Q 2881 1984 2565 2268 
Q 2250 2553 1709 2553 
Q 1456 2553 1204 2497 
Q 953 2441 691 2322 
L 691 4666 
z
" transform="scale(0.015625)"/>
       </defs>
       <use xlink:href="#DejaVuSans-35"/>
       <use xlink:href="#DejaVuSans-34" x="63.623047"/>
       <use xlink:href="#DejaVuSans-30" x="127.246094"/>
       <use xlink:href="#DejaVuSans-30" x="190.869141"/>
      </g>
     </g>
    </g>
   </g>
   <g id="line2d_43">
    <path d="M 138.436364 307.702721 
L 142.723175 307.362247 
L 143.437644 307.070411 
L 145.58105 306.827215 
L 150.58233 305.903069 
L 154.154673 305.562594 
L 154.869142 305.222119 
L 155.583611 305.027562 
L 156.298079 304.152056 
L 157.012548 303.665663 
L 157.727017 302.109207 
L 158.441485 302.011928 
L 159.155954 301.476896 
L 160.584891 300.795947 
L 162.013828 299.725883 
L 162.728297 299.044933 
L 164.157234 298.363984 
L 164.871703 298.072148 
L 165.586172 297.537116 
L 168.444046 296.321135 
L 169.158515 295.202432 
L 169.872983 294.618761 
L 171.301921 293.840533 
L 178.446607 292.867748 
L 179.161076 292.527273 
L 184.162356 292.138159 
L 185.591293 291.749045 
L 187.02023 291.457209 
L 192.73598 290.72762 
L 193.450448 290.338506 
L 194.164917 290.241228 
L 194.879385 289.949392 
L 196.308323 289.706196 
L 197.022791 289.657556 
L 197.73726 289.41436 
L 200.595134 288.976607 
L 202.024072 288.587493 
L 204.167478 288.392936 
L 205.596415 288.247018 
L 206.310883 288.052461 
L 207.025352 288.003822 
L 209.168758 287.371511 
L 213.45557 286.739201 
L 214.170038 286.544644 
L 214.884507 285.571859 
L 217.027913 284.793631 
L 219.171319 284.209959 
L 219.885787 283.869485 
L 220.600256 283.820845 
L 224.172599 282.84806 
L 225.601536 282.750782 
L 226.316005 282.653503 
L 228.459411 282.021193 
L 231.317286 281.340243 
L 232.031754 281.048408 
L 232.746223 280.951129 
L 233.460691 280.610654 
L 240.605378 279.540591 
L 244.177721 278.519166 
L 244.89219 278.081413 
L 247.750064 277.303185 
L 249.179001 276.476317 
L 249.89347 275.989925 
L 250.607939 275.892646 
L 251.322407 275.64945 
L 253.465813 275.260336 
L 254.180282 274.919861 
L 255.609219 274.676665 
L 256.323688 274.287551 
L 257.752625 273.849797 
L 258.467093 273.752519 
L 259.896031 273.363405 
L 261.324968 273.02293 
L 262.039437 272.925651 
L 263.468374 272.34198 
L 264.182843 272.196063 
L 264.897311 271.904227 
L 265.61178 271.806948 
L 266.326248 271.466474 
L 267.040717 271.271917 
L 268.469654 271.174638 
L 269.898592 270.688246 
L 271.327529 270.590967 
L 272.041997 270.250492 
L 274.899872 269.7641 
L 277.757746 269.520903 
L 278.472215 269.374986 
L 279.901152 268.694036 
L 287.760307 265.435206 
L 288.474776 265.046091 
L 289.189245 264.267863 
L 289.903713 263.100521 
L 290.618182 262.176375 
L 291.33265 261.981818 
L 292.047119 261.981818 
L 293.476056 260.960394 
L 294.190525 260.765837 
L 294.904994 260.376723 
L 295.619462 260.230805 
L 296.333931 259.598494 
L 297.048399 259.403937 
L 299.191805 258.382513 
L 299.906274 257.507006 
L 300.620743 256.436943 
L 301.335211 255.999189 
L 302.04968 254.831847 
L 302.764149 254.102258 
L 303.478617 253.761783 
L 304.193086 253.567226 
L 305.622023 252.740359 
L 306.336492 252.399884 
L 309.194366 250.308396 
L 309.908835 249.286972 
L 310.623303 247.633237 
L 311.337772 246.563173 
L 312.052241 246.028141 
L 312.766709 245.736306 
L 315.624584 243.304343 
L 316.339052 242.81795 
L 317.76799 241.601969 
L 318.482458 240.580544 
L 319.911396 239.364563 
L 322.76927 237.516271 
L 323.483739 236.883961 
L 324.198207 236.738043 
L 326.341613 235.61934 
L 327.770551 234.792472 
L 328.485019 234.500637 
L 329.913956 233.187377 
L 330.628425 232.36051 
L 332.057362 231.387724 
L 332.771831 231.193167 
L 333.4863 230.852693 
L 334.200768 230.317661 
L 335.629706 229.539433 
L 336.344174 229.442154 
L 337.773111 228.663926 
L 338.48758 228.274812 
L 339.202049 227.545223 
L 339.916517 227.10747 
L 340.630986 226.864273 
L 341.345455 226.377881 
L 344.203329 224.918703 
L 344.917798 224.286393 
L 347.775672 223.313607 
L 348.490141 222.827215 
L 349.204609 222.681297 
L 350.633547 222.194904 
L 352.776953 221.368037 
L 354.920359 220.589809 
L 356.349296 220.346613 
L 357.778233 219.130631 
L 359.20717 218.449682 
L 361.350576 217.2337 
L 362.779513 216.844586 
L 363.493982 216.406833 
L 364.208451 216.212276 
L 366.351857 214.850376 
L 369.9242 214.023509 
L 372.067606 212.807528 
L 372.782074 212.710249 
L 373.496543 212.467053 
L 374.92548 212.175217 
L 377.068886 210.618761 
L 379.212292 210.132368 
L 379.926761 209.889172 
L 380.641229 209.35414 
L 384.928041 207.992241 
L 385.64251 207.943602 
L 390.64379 206.192588 
L 391.358259 205.852113 
L 393.501665 205.365721 
L 394.930602 205.025246 
L 395.64507 204.684771 
L 396.359539 204.538854 
L 398.502945 203.566068 
L 400.646351 202.496005 
L 401.360819 202.009612 
L 402.075288 201.815055 
L 404.218694 200.696352 
L 405.647631 200.355877 
L 407.076569 199.626288 
L 408.505506 199.237174 
L 409.219974 199.139896 
L 409.934443 198.653503 
L 410.648912 198.313028 
L 411.36338 198.167111 
L 412.792318 197.583439 
L 413.506786 197.437522 
L 414.221255 197.048408 
L 417.079129 196.610654 
L 418.508067 195.929705 
L 419.222535 195.346034 
L 419.937004 194.130052 
L 421.365941 193.838217 
L 422.08041 193.692299 
L 424.938284 192.233121 
L 425.652753 192.087203 
L 431.368502 189.363405 
L 433.511908 188.925651 
L 434.940845 188.244702 
L 435.655314 187.952866 
L 436.369782 187.855588 
L 439.227657 186.590967 
L 440.656594 185.618182 
L 441.371063 185.277707 
L 442.085531 185.180428 
L 442.8 184.937232 
L 443.514469 184.888593 
L 446.372343 183.964447 
L 447.086812 183.915808 
L 447.80128 183.380776 
L 449.230218 182.894383 
L 451.373624 182.213434 
L 452.088092 181.77568 
L 452.802561 181.581123 
L 453.517029 181.094731 
L 454.231498 180.802895 
L 454.945967 180.365142 
L 456.374904 179.83011 
L 458.51831 179.14916 
L 459.232778 178.808686 
L 459.947247 178.273654 
L 460.661716 177.544065 
L 461.376184 177.106312 
L 462.090653 176.960394 
L 463.51959 175.89033 
L 464.234059 175.744412 
L 464.948528 174.674349 
L 465.662996 174.382513 
L 466.377465 173.847481 
L 467.091933 173.750203 
L 467.806402 173.26381 
L 468.520871 172.923335 
L 469.235339 172.777417 
L 469.949808 172.485582 
L 470.664277 171.901911 
L 471.378745 171.658715 
L 473.522151 170.248176 
L 476.380026 168.837638 
L 477.094494 168.740359 
L 478.523431 168.108049 
L 479.2379 167.670295 
L 479.952369 166.502953 
L 480.666837 165.870643 
L 481.381306 165.481529 
L 482.095775 165.335611 
L 483.524712 164.460104 
L 484.239181 164.314186 
L 485.668118 163.633237 
L 487.811524 162.75773 
L 489.240461 161.784945 
L 490.669398 160.277128 
L 492.098335 159.401621 
L 492.812804 158.963868 
L 493.527273 158.234279 
L 494.241741 157.747887 
L 495.670679 156.580544 
L 496.385147 156.288709 
L 497.099616 155.510481 
L 497.814085 154.975449 
L 499.243022 154.489056 
L 499.95749 153.856746 
L 501.386428 153.127157 
L 502.100896 152.9326 
L 502.815365 152.446207 
L 503.529834 152.25165 
L 505.673239 151.132947 
L 506.387708 150.597915 
L 507.816645 150.014244 
L 508.531114 149.868327 
L 509.245583 149.430573 
L 514.246863 147.728199 
L 514.961332 147.095889 
L 517.104738 146.317661 
L 518.533675 145.879907 
L 519.248143 145.344876 
L 521.391549 144.37209 
L 522.106018 143.837058 
L 522.820487 143.447944 
L 524.249424 140.675507 
L 525.678361 139.021772 
L 526.39283 138.535379 
L 528.536236 137.611233 
L 529.250704 137.368037 
L 529.965173 137.270759 
L 530.679641 136.881644 
L 532.823047 136.249334 
L 534.966453 135.422467 
L 536.395391 134.498321 
L 538.538796 133.525536 
L 542.11114 131.482687 
L 542.825608 130.753098 
L 544.254545 129.97487 
L 544.969014 129.585756 
L 545.683483 129.342559 
L 546.397951 128.856167 
L 547.826889 128.175217 
L 549.970294 127.056514 
L 550.684763 126.861957 
L 551.399232 126.326925 
L 552.1137 126.03509 
L 552.828169 125.889172 
L 554.257106 125.305501 
L 556.400512 124.527273 
L 557.114981 123.992241 
L 558.543918 123.603127 
L 559.972855 123.068095 
L 560.687324 122.484424 
L 562.116261 122.046671 
L 562.83073 121.706196 
L 563.545198 121.511639 
L 564.974136 120.538854 
L 566.403073 119.906543 
L 567.83201 118.836479 
L 569.260948 118.350087 
L 569.975416 117.766416 
L 570.689885 117.620498 
L 571.404353 116.988188 
L 572.833291 116.16132 
L 574.262228 115.577649 
L 574.976697 114.84806 
L 579.263508 113.291604 
L 581.406914 112.367458 
L 583.55032 111.735148 
L 584.979257 111.540591 
L 585.693726 111.248755 
L 586.408195 111.102837 
L 587.837132 110.519166 
L 588.551601 110.470527 
L 591.409475 109.449102 
L 593.552881 107.989925 
L 597.839693 105.898437 
L 599.983099 104.536537 
L 601.412036 104.196063 
L 602.840973 103.223277 
L 605.698848 102.347771 
L 606.413316 102.055935 
L 607.842254 101.71546 
L 611.414597 100.548118 
L 613.558003 100.159004 
L 614.272471 99.964447 
L 614.98694 99.623972 
L 615.701408 99.526694 
L 617.130346 98.943023 
L 617.844814 98.845744 
L 618.559283 98.505269 
L 619.98822 98.213434 
L 620.702689 97.872959 
L 622.846095 97.386566 
L 624.275032 97.094731 
L 628.561844 96.316503 
L 629.990781 96.024667 
L 630.70525 95.878749 
L 631.419718 95.586914 
L 632.134187 95.538274 
L 634.277593 94.954603 
L 634.992061 94.565489 
L 638.564405 93.689983 
L 639.278873 93.544065 
L 642.136748 92.474001 
L 642.851216 92.230805 
L 643.565685 92.133526 
L 645.709091 91.403937 
L 646.42356 91.403937 
L 647.852497 90.917545 
L 648.566965 90.236595 
L 649.281434 89.89612 
L 650.710371 89.458367 
L 653.568246 88.388303 
L 654.282714 88.242386 
L 654.997183 87.804632 
L 655.711652 87.658715 
L 656.42612 87.220961 
L 659.998464 86.150898 
L 660.712932 85.713144 
L 661.427401 85.518587 
L 662.141869 84.934916 
L 664.285275 84.545802 
L 665.714213 83.767574 
L 666.428681 82.989346 
L 667.857618 82.69751 
L 672.14443 81.724725 
L 673.573367 81.335611 
L 675.002305 81.286972 
L 675.716773 80.946497 
L 678.574648 80.460104 
L 679.289117 80.119629 
L 681.432522 79.827794 
L 682.86146 79.292762 
L 683.575928 78.952287 
L 684.290397 78.903648 
L 686.433803 78.417255 
L 688.577209 77.882224 
L 691.435083 77.006717 
L 692.149552 76.860799 
L 692.86402 76.520324 
L 693.578489 76.423046 
L 694.292958 76.179849 
L 695.007426 75.742096 
L 697.150832 74.963868 
L 697.865301 74.428836 
L 699.294238 74.039722 
L 700.008707 73.747887 
L 701.437644 73.358772 
L 704.295519 72.045512 
L 706.438924 71.899595 
L 709.296799 71.024088 
L 710.011268 70.586335 
L 711.440205 70.148581 
L 713.583611 69.078518 
L 714.298079 68.9326 
L 715.012548 68.592125 
L 715.727017 68.494847 
L 717.155954 67.959815 
L 717.870423 67.61934 
L 718.584891 67.473422 
L 719.29936 67.132947 
L 720.728297 66.743833 
L 721.442766 66.403358 
L 727.158515 64.895541 
L 728.587452 64.214592 
L 730.730858 63.67956 
L 731.445327 63.144528 
L 732.159795 62.804053 
L 732.874264 61.977186 
L 733.588732 61.442154 
L 735.01767 61.004401 
L 735.732138 60.42073 
L 743.591293 57.210539 
L 745.02023 56.870064 
L 746.449168 56.237753 
L 747.163636 55.8 
L 747.163636 55.8 
" clip-path="url(#pf65f4dae3a)" style="fill: none; stroke: #1f77b4; stroke-width: 1.5; stroke-linecap: square"/>
   </g>
   <g id="line2d_44">
    <path d="M 139.150832 307.8 
L 141.294238 307.702721 
L 143.437644 307.654082 
L 147.724456 307.556804 
L 151.296799 307.410886 
L 154.154673 307.410886 
L 154.869142 307.216329 
L 157.012548 307.16769 
L 161.29936 306.681297 
L 172.016389 306.048987 
L 177.732138 305.951708 
L 181.304481 305.80579 
L 189.878105 305.708512 
L 193.450448 305.562594 
L 197.73726 305.465316 
L 200.595134 305.368037 
L 207.025352 305.270759 
L 209.168758 305.222119 
L 211.312164 305.17348 
L 213.45557 304.930284 
L 217.742382 304.881644 
L 219.171319 304.784366 
L 224.172599 304.687087 
L 232.031754 304.249334 
L 237.033035 304.152056 
L 238.461972 304.054777 
L 240.605378 303.957499 
L 244.89219 303.762942 
L 247.750064 303.714302 
L 249.89347 303.519745 
L 261.324968 302.838796 
L 264.182843 302.741517 
L 269.184123 302.498321 
L 271.327529 302.401042 
L 278.472215 302.011928 
L 286.33137 301.91465 
L 289.189245 301.622814 
L 290.618182 301.525536 
L 299.906274 300.795947 
L 304.193086 300.260915 
L 307.05096 300.163636 
L 312.766709 299.434047 
L 316.339052 299.336769 
L 325.627145 298.60718 
L 329.913956 298.120787 
L 332.057362 298.072148 
L 333.4863 297.97487 
L 336.344174 297.877591 
L 337.773111 297.780313 
L 341.345455 297.439838 
L 342.059923 297.245281 
L 346.346735 297.050724 
L 349.919078 296.953445 
L 359.20717 296.418413 
L 361.350576 296.321135 
L 370.638668 295.786103 
L 375.639949 295.688825 
L 376.354417 295.542907 
L 382.070166 295.445628 
L 387.071447 295.202432 
L 394.930602 295.105153 
L 399.931882 294.861957 
L 405.647631 294.764679 
L 412.077849 294.424204 
L 416.364661 294.326925 
L 429.939565 293.500058 
L 435.655314 293.402779 
L 439.227657 293.062305 
L 440.656594 292.916387 
L 444.228937 292.867748 
L 447.086812 292.575912 
L 454.231498 292.186798 
L 458.51831 292.089519 
L 460.661716 292.04088 
L 462.805122 291.992241 
L 464.948528 291.797684 
L 470.664277 291.700405 
L 472.093214 291.457209 
L 473.522151 291.359931 
L 476.380026 291.262652 
L 478.523431 291.165373 
L 479.952369 291.068095 
L 486.382586 290.970816 
L 487.811524 290.824899 
L 490.669398 290.72762 
L 491.383867 290.581702 
L 492.812804 290.533063 
L 493.527273 290.387145 
L 495.670679 290.289867 
L 507.816645 289.560278 
L 509.960051 289.462999 
L 513.532394 289.317082 
L 523.534955 289.219803 
L 528.536236 288.976607 
L 534.251985 288.879328 
L 537.109859 288.78205 
L 539.967734 288.733411 
L 541.396671 288.587493 
L 544.254545 288.490214 
L 551.399232 288.1011 
L 555.686044 288.052461 
L 557.829449 287.857904 
L 559.972855 287.809265 
L 564.974136 287.711986 
L 567.83201 287.614708 
L 576.405634 287.517429 
L 579.977977 287.371511 
L 584.264789 287.274233 
L 586.408195 287.031036 
L 590.695006 286.982397 
L 591.409475 286.836479 
L 592.838412 286.739201 
L 595.696287 286.641922 
L 604.26991 286.544644 
L 607.842254 286.398726 
L 619.98822 286.350087 
L 621.417157 286.252808 
L 623.560563 286.204169 
L 632.848656 286.106891 
L 634.277593 286.009612 
L 642.136748 285.912334 
L 644.994622 285.815055 
L 653.568246 285.766416 
L 654.997183 285.669137 
L 665.714213 285.620498 
L 667.857618 285.425941 
L 680.003585 285.328662 
L 682.146991 285.280023 
L 700.723175 285.182745 
L 703.58105 285.085466 
L 716.441485 284.988188 
L 717.870423 284.84227 
L 724.30064 284.744991 
L 732.159795 284.307238 
L 736.446607 284.209959 
L 739.304481 284.112681 
L 742.876825 284.064042 
L 744.305762 283.966763 
L 747.163636 283.869485 
L 747.163636 283.869485 
" clip-path="url(#pf65f4dae3a)" style="fill: none; stroke: #ff7f0e; stroke-width: 1.5; stroke-linecap: square"/>
   </g>
   <g id="patch_3">
    <path d="M 108 320.4 
L 108 43.2 
" style="fill: none; stroke: #a9a9a9; stroke-width: 0.8; stroke-linejoin: miter; stroke-linecap: square"/>
   </g>
   <g id="patch_4">
    <path d="M 777.6 320.4 
L 777.6 43.2 
" style="fill: none"/>
   </g>
   <g id="patch_5">
    <path d="M 108 320.4 
L 777.6 320.4 
" style="fill: none; stroke: #a9a9a9; stroke-width: 0.8; stroke-linejoin: miter; stroke-linecap: square"/>
   </g>
   <g id="patch_6">
    <path d="M 108 43.2 
L 777.6 43.2 
" style="fill: none"/>
   </g>
   <g id="text_22">
    <!-- get_subscribe history -->
    <g style="fill: #a9a9a9" transform="translate(378.6075 37.2) scale(0.12 -0.12)">
     <defs>
      <path id="DejaVuSans-67" d="M 2906 1791 
Q 2906 2416 2648 2759 
Q 2391 3103 1925 3103 
Q 1463 3103 1205 2759 
Q 947 2416 947 1791 
Q 947 1169 1205 825 
Q 1463 481 1925 481 
Q 2391 481 2648 825 
Q 2906 1169 2906 1791 
z
M 3481 434 
Q 3481 -459 3084 -895 
Q 2688 -1331 1869 -1331 
Q 1566 -1331 1297 -1286 
Q 1028 -1241 775 -1147 
L 775 -588 
Q 1028 -725 1275 -790 
Q 1522 -856 1778 -856 
Q 2344 -856 2625 -561 
Q 2906 -266 2906 331 
L 2906 616 
Q 2728 306 2450 153 
Q 2172 0 1784 0 
Q 1141 0 747 490 
Q 353 981 353 1791 
Q 353 2603 747 3093 
Q 1141 3584 1784 3584 
Q 2172 3584 2450 3431 
Q 2728 3278 2906 2969 
L 2906 3500 
L 3481 3500 
L 3481 434 
z
" transform="scale(0.015625)"/>
      <path id="DejaVuSans-65" d="M 3597 1894 
L 3597 1613 
L 953 1613 
Q 991 1019 1311 708 
Q 1631 397 2203 397 
Q 2534 397 2845 478 
Q 3156 559 3463 722 
L 3463 178 
Q 3153 47 2828 -22 
Q 2503 -91 2169 -91 
Q 1331 -91 842 396 
Q 353 884 353 1716 
Q 353 2575 817 3079 
Q 1281 3584 2069 3584 
Q 2775 3584 3186 3129 
Q 3597 2675 3597 1894 
z
M 3022 2063 
Q 3016 2534 2758 2815 
Q 2500 3097 2075 3097 
Q 1594 3097 1305 2825 
Q 1016 2553 972 2059 
L 3022 2063 
z
" transform="scale(0.015625)"/>
      <path id="DejaVuSans-74" d="M 1172 4494 
L 1172 3500 
L 2356 3500 
L 2356 3053 
L 1172 3053 
L 1172 1153 
Q 1172 725 1289 603 
Q 1406 481 1766 481 
L 2356 481 
L 2356 0 
L 1766 0 
Q 1100 0 847 248 
Q 594 497 594 1153 
L 594 3053 
L 172 3053 
L 172 3500 
L 594 3500 
L 594 4494 
L 1172 4494 
z
" transform="scale(0.015625)"/>
      <path id="DejaVuSans-5f" d="M 3263 -1063 
L 3263 -1509 
L -63 -1509 
L -63 -1063 
L 3263 -1063 
z
" transform="scale(0.015625)"/>
      <path id="DejaVuSans-73" d="M 2834 3397 
L 2834 2853 
Q 2591 2978 2328 3040 
Q 2066 3103 1784 3103 
Q 1356 3103 1142 2972 
Q 928 2841 928 2578 
Q 928 2378 1081 2264 
Q 1234 2150 1697 2047 
L 1894 2003 
Q 2506 1872 2764 1633 
Q 3022 1394 3022 966 
Q 3022 478 2636 193 
Q 2250 -91 1575 -91 
Q 1294 -91 989 -36 
Q 684 19 347 128 
L 347 722 
Q 666 556 975 473 
Q 1284 391 1588 391 
Q 1994 391 2212 530 
Q 2431 669 2431 922 
Q 2431 1156 2273 1281 
Q 2116 1406 1581 1522 
L 1381 1569 
Q 847 1681 609 1914 
Q 372 2147 372 2553 
Q 372 3047 722 3315 
Q 1072 3584 1716 3584 
Q 2034 3584 2315 3537 
Q 2597 3491 2834 3397 
z
" transform="scale(0.015625)"/>
      <path id="DejaVuSans-75" d="M 544 1381 
L 544 3500 
L 1119 3500 
L 1119 1403 
Q 1119 906 1312 657 
Q 1506 409 1894 409 
Q 2359 409 2629 706 
Q 2900 1003 2900 1516 
L 2900 3500 
L 3475 3500 
L 3475 0 
L 2900 0 
L 2900 538 
Q 2691 219 2414 64 
Q 2138 -91 1772 -91 
Q 1169 -91 856 284 
Q 544 659 544 1381 
z
M 1991 3584 
L 1991 3584 
z
" transform="scale(0.015625)"/>
      <path id="DejaVuSans-62" d="M 3116 1747 
Q 3116 2381 2855 2742 
Q 2594 3103 2138 3103 
Q 1681 3103 1420 2742 
Q 1159 2381 1159 1747 
Q 1159 1113 1420 752 
Q 1681 391 2138 391 
Q 2594 391 2855 752 
Q 3116 1113 3116 1747 
z
M 1159 2969 
Q 1341 3281 1617 3432 
Q 1894 3584 2278 3584 
Q 2916 3584 3314 3078 
Q 3713 2572 3713 1747 
Q 3713 922 3314 415 
Q 2916 -91 2278 -91 
Q 1894 -91 1617 61 
Q 1341 213 1159 525 
L 1159 0 
L 581 0 
L 581 4863 
L 1159 4863 
L 1159 2969 
z
" transform="scale(0.015625)"/>
      <path id="DejaVuSans-63" d="M 3122 3366 
L 3122 2828 
Q 2878 2963 2633 3030 
Q 2388 3097 2138 3097 
Q 1578 3097 1268 2742 
Q 959 2388 959 1747 
Q 959 1106 1268 751 
Q 1578 397 2138 397 
Q 2388 397 2633 464 
Q 2878 531 3122 666 
L 3122 134 
Q 2881 22 2623 -34 
Q 2366 -91 2075 -91 
Q 1284 -91 818 406 
Q 353 903 353 1747 
Q 353 2603 823 3093 
Q 1294 3584 2113 3584 
Q 2378 3584 2631 3529 
Q 2884 3475 3122 3366 
z
" transform="scale(0.015625)"/>
      <path id="DejaVuSans-72" d="M 2631 2963 
Q 2534 3019 2420 3045 
Q 2306 3072 2169 3072 
Q 1681 3072 1420 2755 
Q 1159 2438 1159 1844 
L 1159 0 
L 581 0 
L 581 3500 
L 1159 3500 
L 1159 2956 
Q 1341 3275 1631 3429 
Q 1922 3584 2338 3584 
Q 2397 3584 2469 3576 
Q 2541 3569 2628 3553 
L 2631 2963 
z
" transform="scale(0.015625)"/>
      <path id="DejaVuSans-69" d="M 603 3500 
L 1178 3500 
L 1178 0 
L 603 0 
L 603 3500 
z
M 603 4863 
L 1178 4863 
L 1178 4134 
L 603 4134 
L 603 4863 
z
" transform="scale(0.015625)"/>
      <path id="DejaVuSans-20" transform="scale(0.015625)"/>
      <path id="DejaVuSans-68" d="M 3513 2113 
L 3513 0 
L 2938 0 
L 2938 2094 
Q 2938 2591 2744 2837 
Q 2550 3084 2163 3084 
Q 1697 3084 1428 2787 
Q 1159 2491 1159 1978 
L 1159 0 
L 581 0 
L 581 4863 
L 1159 4863 
L 1159 2956 
Q 1366 3272 1645 3428 
Q 1925 3584 2291 3584 
Q 2894 3584 3203 3211 
Q 3513 2838 3513 2113 
z
" transform="scale(0.015625)"/>
      <path id="DejaVuSans-6f" d="M 1959 3097 
Q 1497 3097 1228 2736 
Q 959 2375 959 1747 
Q 959 1119 1226 758 
Q 1494 397 1959 397 
Q 2419 397 2687 759 
Q 2956 1122 2956 1747 
Q 2956 2369 2687 2733 
Q 2419 3097 1959 3097 
z
M 1959 3584 
Q 2709 3584 3137 3096 
Q 3566 2609 3566 1747 
Q 3566 888 3137 398 
Q 2709 -91 1959 -91 
Q 1206 -91 779 398 
Q 353 888 353 1747 
Q 353 2609 779 3096 
Q 1206 3584 1959 3584 
z
" transform="scale(0.015625)"/>
      <path id="DejaVuSans-79" d="M 2059 -325 
Q 1816 -950 1584 -1140 
Q 1353 -1331 966 -1331 
L 506 -1331 
L 506 -850 
L 844 -850 
Q 1081 -850 1212 -737 
Q 1344 -625 1503 -206 
L 1606 56 
L 191 3500 
L 800 3500 
L 1894 763 
L 2988 3500 
L 3597 3500 
L 2059 -325 
z
" transform="scale(0.015625)"/>
     </defs>
     <use xlink:href="#DejaVuSans-67"/>
     <use xlink:href="#DejaVuSans-65" x="63.476562"/>
     <use xlink:href="#DejaVuSans-74" x="125"/>
     <use xlink:href="#DejaVuSans-5f" x="164.208984"/>
     <use xlink:href="#DejaVuSans-73" x="214.208984"/>
     <use xlink:href="#DejaVuSans-75" x="266.308594"/>
     <use xlink:href="#DejaVuSans-62" x="329.6875"/>
     <use xlink:href="#DejaVuSans-73" x="393.164062"/>
     <use xlink:href="#DejaVuSans-63" x="445.263672"/>
     <use xlink:href="#DejaVuSans-72" x="500.244141"/>
     <use xlink:href="#DejaVuSans-69" x="541.357422"/>
     <use xlink:href="#DejaVuSans-62" x="569.140625"/>
     <use xlink:href="#DejaVuSans-65" x="632.617188"/>
     <use xlink:href="#DejaVuSans-20" x="694.140625"/>
     <use xlink:href="#DejaVuSans-68" x="725.927734"/>
     <use xlink:href="#DejaVuSans-69" x="789.306641"/>
     <use xlink:href="#DejaVuSans-73" x="817.089844"/>
     <use xlink:href="#DejaVuSans-74" x="869.189453"/>
     <use xlink:href="#DejaVuSans-6f" x="908.398438"/>
     <use xlink:href="#DejaVuSans-72" x="969.580078"/>
     <use xlink:href="#DejaVuSans-79" x="1010.693359"/>
    </g>
   </g>
   <g id="legend_1">
    <g id="line2d_45">
     <path d="M 815.08 328.498438 
L 825.08 328.498438 
L 835.08 328.498438 
" style="fill: none; stroke: #1f77b4; stroke-width: 1.5; stroke-linecap: square"/>
    </g>
    <g id="text_23">
     <!-- star -->
     <g style="fill: #a9a9a9" transform="translate(843.08 331.998438) scale(0.1 -0.1)">
      <defs>
       <path id="DejaVuSans-61" d="M 2194 1759 
Q 1497 1759 1228 1600 
Q 959 1441 959 1056 
Q 959 750 1161 570 
Q 1363 391 1709 391 
Q 2188 391 2477 730 
Q 2766 1069 2766 1631 
L 2766 1759 
L 2194 1759 
z
M 3341 1997 
L 3341 0 
L 2766 0 
L 2766 531 
Q 2569 213 2275 61 
Q 1981 -91 1556 -91 
Q 1019 -91 701 211 
Q 384 513 384 1019 
Q 384 1609 779 1909 
Q 1175 2209 1959 2209 
L 2766 2209 
L 2766 2266 
Q 2766 2663 2505 2880 
Q 2244 3097 1772 3097 
Q 1472 3097 1187 3025 
Q 903 2953 641 2809 
L 641 3341 
Q 956 3463 1253 3523 
Q 1550 3584 1831 3584 
Q 2591 3584 2966 3190 
Q 3341 2797 3341 1997 
z
" transform="scale(0.015625)"/>
      </defs>
      <use xlink:href="#DejaVuSans-73"/>
      <use xlink:href="#DejaVuSans-74" x="52.099609"/>
      <use xlink:href="#DejaVuSans-61" x="91.308594"/>
      <use xlink:href="#DejaVuSans-72" x="152.587891"/>
     </g>
    </g>
    <g id="line2d_46">
     <path d="M 815.08 343.176562 
L 825.08 343.176562 
L 835.08 343.176562 
" style="fill: none; stroke: #ff7f0e; stroke-width: 1.5; stroke-linecap: square"/>
    </g>
    <g id="text_24">
     <!-- fork -->
     <g style="fill: #a9a9a9" transform="translate(843.08 346.676562) scale(0.1 -0.1)">
      <defs>
       <path id="DejaVuSans-66" d="M 2375 4863 
L 2375 4384 
L 1825 4384 
Q 1516 4384 1395 4259 
Q 1275 4134 1275 3809 
L 1275 3500 
L 2222 3500 
L 2222 3053 
L 1275 3053 
L 1275 0 
L 697 0 
L 697 3053 
L 147 3053 
L 147 3500 
L 697 3500 
L 697 3744 
Q 697 4328 969 4595 
Q 1241 4863 1831 4863 
L 2375 4863 
z
" transform="scale(0.015625)"/>
       <path id="DejaVuSans-6b" d="M 581 4863 
L 1159 4863 
L 1159 1991 
L 2875 3500 
L 3609 3500 
L 1753 1863 
L 3688 0 
L 2938 0 
L 1159 1709 
L 1159 0 
L 581 0 
L 581 4863 
z
" transform="scale(0.015625)"/>
      </defs>
      <use xlink:href="#DejaVuSans-66"/>
      <use xlink:href="#DejaVuSans-6f" x="35.205078"/>
      <use xlink:href="#DejaVuSans-72" x="96.386719"/>
      <use xlink:href="#DejaVuSans-6b" x="137.5"/>
     </g>
    </g>
   </g>
  </g>
 </g>
 <defs>
  <clipPath id="pf65f4dae3a">
   <rect x="108" y="43.2" width="669.6" height="277.2"/>
  </clipPath>
 </defs>
</svg>
