<?xml version="1.0" encoding="utf-8" standalone="no"?>
<!DOCTYPE svg PUBLIC "-//W3C//DTD SVG 1.1//EN"
  "http://www.w3.org/Graphics/SVG/1.1/DTD/svg11.dtd">
<svg xmlns:xlink="http://www.w3.org/1999/xlink" width="864pt" height="360pt" viewBox="0 0 864 360" xmlns="http://www.w3.org/2000/svg" version="1.1">
 <metadata>
  <rdf:RDF xmlns:dc="http://purl.org/dc/elements/1.1/" xmlns:cc="http://creativecommons.org/ns#" xmlns:rdf="http://www.w3.org/1999/02/22-rdf-syntax-ns#">
   <cc:Work>
    <dc:type rdf:resource="http://purl.org/dc/dcmitype/StillImage"/>
    <dc:date>2023-11-25T08:10:12.333100</dc:date>
    <dc:format>image/svg+xml</dc:format>
    <dc:creator>
     <cc:Agent>
      <dc:title>Matplotlib v3.8.2, https://matplotlib.org/</dc:title>
     </cc:Agent>
    </dc:creator>
   </cc:Work>
  </rdf:RDF>
 </metadata>
 <defs>
  <style type="text/css">*{stroke-linejoin: round; stroke-linecap: butt}</style>
 </defs>
 <g id="figure_1">
  <g id="patch_1">
   <path d="M 0 360 
L 864 360 
L 864 0 
L 0 0 
L 0 360 
z
" style="fill: none; opacity: 0"/>
  </g>
  <g id="axes_1">
   <g id="patch_2">
    <path d="M 108 320.4 
L 777.6 320.4 
L 777.6 43.2 
L 108 43.2 
L 108 320.4 
z
" style="fill: none; opacity: 0"/>
   </g>
   <g id="matplotlib.axis_1">
    <g id="xtick_1">
     <g id="line2d_1">
      <path d="M 122.042069 320.4 
L 122.042069 43.2 
" clip-path="url(#p1ad609e944)" style="fill: none; stroke-dasharray: 5.12,1.28,0.8,1.28; stroke-dashoffset: 0; stroke: #b0b0b0; stroke-width: 0.8"/>
     </g>
     <g id="line2d_2">
      <defs>
       <path id="m4b72283f15" d="M 0 0 
L 0 3.5 
" style="stroke: #a9a9a9; stroke-width: 0.8"/>
      </defs>
      <g>
       <use xlink:href="#m4b72283f15" x="122.042069" y="320.4" style="fill: #a9a9a9; stroke: #a9a9a9; stroke-width: 0.8"/>
      </g>
     </g>
     <g id="text_1">
      <!-- 2021-07 -->
      <g style="fill: #a9a9a9" transform="translate(101.150663 334.998438) scale(0.1 -0.1)">
       <defs>
        <path id="DejaVuSans-32" d="M 1228 531 
L 3431 531 
L 3431 0 
L 469 0 
L 469 531 
Q 828 903 1448 1529 
Q 2069 2156 2228 2338 
Q 2531 2678 2651 2914 
Q 2772 3150 2772 3378 
Q 2772 3750 2511 3984 
Q 2250 4219 1831 4219 
Q 1534 4219 1204 4116 
Q 875 4013 500 3803 
L 500 4441 
Q 881 4594 1212 4672 
Q 1544 4750 1819 4750 
Q 2544 4750 2975 4387 
Q 3406 4025 3406 3419 
Q 3406 3131 3298 2873 
Q 3191 2616 2906 2266 
Q 2828 2175 2409 1742 
Q 1991 1309 1228 531 
z
" transform="scale(0.015625)"/>
        <path id="DejaVuSans-30" d="M 2034 4250 
Q 1547 4250 1301 3770 
Q 1056 3291 1056 2328 
Q 1056 1369 1301 889 
Q 1547 409 2034 409 
Q 2525 409 2770 889 
Q 3016 1369 3016 2328 
Q 3016 3291 2770 3770 
Q 2525 4250 2034 4250 
z
M 2034 4750 
Q 2819 4750 3233 4129 
Q 3647 3509 3647 2328 
Q 3647 1150 3233 529 
Q 2819 -91 2034 -91 
Q 1250 -91 836 529 
Q 422 1150 422 2328 
Q 422 3509 836 4129 
Q 1250 4750 2034 4750 
z
" transform="scale(0.015625)"/>
        <path id="DejaVuSans-31" d="M 794 531 
L 1825 531 
L 1825 4091 
L 703 3866 
L 703 4441 
L 1819 4666 
L 2450 4666 
L 2450 531 
L 3481 531 
L 3481 0 
L 794 0 
L 794 531 
z
" transform="scale(0.015625)"/>
        <path id="DejaVuSans-2d" d="M 313 2009 
L 1997 2009 
L 1997 1497 
L 313 1497 
L 313 2009 
z
" transform="scale(0.015625)"/>
        <path id="DejaVuSans-37" d="M 525 4666 
L 3525 4666 
L 3525 4397 
L 1831 0 
L 1172 0 
L 2766 4134 
L 525 4134 
L 525 4666 
z
" transform="scale(0.015625)"/>
       </defs>
       <use xlink:href="#DejaVuSans-32"/>
       <use xlink:href="#DejaVuSans-30" x="63.623047"/>
       <use xlink:href="#DejaVuSans-32" x="127.246094"/>
       <use xlink:href="#DejaVuSans-31" x="190.869141"/>
       <use xlink:href="#DejaVuSans-2d" x="254.492188"/>
       <use xlink:href="#DejaVuSans-30" x="290.576172"/>
       <use xlink:href="#DejaVuSans-37" x="354.199219"/>
      </g>
     </g>
    </g>
    <g id="xtick_2">
     <g id="line2d_3">
      <path d="M 187.619246 320.4 
L 187.619246 43.2 
" clip-path="url(#p1ad609e944)" style="fill: none; stroke-dasharray: 5.12,1.28,0.8,1.28; stroke-dashoffset: 0; stroke: #b0b0b0; stroke-width: 0.8"/>
     </g>
     <g id="line2d_4">
      <g>
       <use xlink:href="#m4b72283f15" x="187.619246" y="320.4" style="fill: #a9a9a9; stroke: #a9a9a9; stroke-width: 0.8"/>
      </g>
     </g>
     <g id="text_2">
      <!-- 2021-10 -->
      <g style="fill: #a9a9a9" transform="translate(166.72784 334.998438) scale(0.1 -0.1)">
       <use xlink:href="#DejaVuSans-32"/>
       <use xlink:href="#DejaVuSans-30" x="63.623047"/>
       <use xlink:href="#DejaVuSans-32" x="127.246094"/>
       <use xlink:href="#DejaVuSans-31" x="190.869141"/>
       <use xlink:href="#DejaVuSans-2d" x="254.492188"/>
       <use xlink:href="#DejaVuSans-31" x="290.576172"/>
       <use xlink:href="#DejaVuSans-30" x="354.199219"/>
      </g>
     </g>
    </g>
    <g id="xtick_3">
     <g id="line2d_5">
      <path d="M 253.196423 320.4 
L 253.196423 43.2 
" clip-path="url(#p1ad609e944)" style="fill: none; stroke-dasharray: 5.12,1.28,0.8,1.28; stroke-dashoffset: 0; stroke: #b0b0b0; stroke-width: 0.8"/>
     </g>
     <g id="line2d_6">
      <g>
       <use xlink:href="#m4b72283f15" x="253.196423" y="320.4" style="fill: #a9a9a9; stroke: #a9a9a9; stroke-width: 0.8"/>
      </g>
     </g>
     <g id="text_3">
      <!-- 2022-01 -->
      <g style="fill: #a9a9a9" transform="translate(232.305017 334.998438) scale(0.1 -0.1)">
       <use xlink:href="#DejaVuSans-32"/>
       <use xlink:href="#DejaVuSans-30" x="63.623047"/>
       <use xlink:href="#DejaVuSans-32" x="127.246094"/>
       <use xlink:href="#DejaVuSans-32" x="190.869141"/>
       <use xlink:href="#DejaVuSans-2d" x="254.492188"/>
       <use xlink:href="#DejaVuSans-30" x="290.576172"/>
       <use xlink:href="#DejaVuSans-31" x="354.199219"/>
      </g>
     </g>
    </g>
    <g id="xtick_4">
     <g id="line2d_7">
      <path d="M 317.348009 320.4 
L 317.348009 43.2 
" clip-path="url(#p1ad609e944)" style="fill: none; stroke-dasharray: 5.12,1.28,0.8,1.28; stroke-dashoffset: 0; stroke: #b0b0b0; stroke-width: 0.8"/>
     </g>
     <g id="line2d_8">
      <g>
       <use xlink:href="#m4b72283f15" x="317.348009" y="320.4" style="fill: #a9a9a9; stroke: #a9a9a9; stroke-width: 0.8"/>
      </g>
     </g>
     <g id="text_4">
      <!-- 2022-04 -->
      <g style="fill: #a9a9a9" transform="translate(296.456603 334.998438) scale(0.1 -0.1)">
       <defs>
        <path id="DejaVuSans-34" d="M 2419 4116 
L 825 1625 
L 2419 1625 
L 2419 4116 
z
M 2253 4666 
L 3047 4666 
L 3047 1625 
L 3713 1625 
L 3713 1100 
L 3047 1100 
L 3047 0 
L 2419 0 
L 2419 1100 
L 313 1100 
L 313 1709 
L 2253 4666 
z
" transform="scale(0.015625)"/>
       </defs>
       <use xlink:href="#DejaVuSans-32"/>
       <use xlink:href="#DejaVuSans-30" x="63.623047"/>
       <use xlink:href="#DejaVuSans-32" x="127.246094"/>
       <use xlink:href="#DejaVuSans-32" x="190.869141"/>
       <use xlink:href="#DejaVuSans-2d" x="254.492188"/>
       <use xlink:href="#DejaVuSans-30" x="290.576172"/>
       <use xlink:href="#DejaVuSans-34" x="354.199219"/>
      </g>
     </g>
    </g>
    <g id="xtick_5">
     <g id="line2d_9">
      <path d="M 382.212391 320.4 
L 382.212391 43.2 
" clip-path="url(#p1ad609e944)" style="fill: none; stroke-dasharray: 5.12,1.28,0.8,1.28; stroke-dashoffset: 0; stroke: #b0b0b0; stroke-width: 0.8"/>
     </g>
     <g id="line2d_10">
      <g>
       <use xlink:href="#m4b72283f15" x="382.212391" y="320.4" style="fill: #a9a9a9; stroke: #a9a9a9; stroke-width: 0.8"/>
      </g>
     </g>
     <g id="text_5">
      <!-- 2022-07 -->
      <g style="fill: #a9a9a9" transform="translate(361.320985 334.998438) scale(0.1 -0.1)">
       <use xlink:href="#DejaVuSans-32"/>
       <use xlink:href="#DejaVuSans-30" x="63.623047"/>
       <use xlink:href="#DejaVuSans-32" x="127.246094"/>
       <use xlink:href="#DejaVuSans-32" x="190.869141"/>
       <use xlink:href="#DejaVuSans-2d" x="254.492188"/>
       <use xlink:href="#DejaVuSans-30" x="290.576172"/>
       <use xlink:href="#DejaVuSans-37" x="354.199219"/>
      </g>
     </g>
    </g>
    <g id="xtick_6">
     <g id="line2d_11">
      <path d="M 447.789568 320.4 
L 447.789568 43.2 
" clip-path="url(#p1ad609e944)" style="fill: none; stroke-dasharray: 5.12,1.28,0.8,1.28; stroke-dashoffset: 0; stroke: #b0b0b0; stroke-width: 0.8"/>
     </g>
     <g id="line2d_12">
      <g>
       <use xlink:href="#m4b72283f15" x="447.789568" y="320.4" style="fill: #a9a9a9; stroke: #a9a9a9; stroke-width: 0.8"/>
      </g>
     </g>
     <g id="text_6">
      <!-- 2022-10 -->
      <g style="fill: #a9a9a9" transform="translate(426.898162 334.998438) scale(0.1 -0.1)">
       <use xlink:href="#DejaVuSans-32"/>
       <use xlink:href="#DejaVuSans-30" x="63.623047"/>
       <use xlink:href="#DejaVuSans-32" x="127.246094"/>
       <use xlink:href="#DejaVuSans-32" x="190.869141"/>
       <use xlink:href="#DejaVuSans-2d" x="254.492188"/>
       <use xlink:href="#DejaVuSans-31" x="290.576172"/>
       <use xlink:href="#DejaVuSans-30" x="354.199219"/>
      </g>
     </g>
    </g>
    <g id="xtick_7">
     <g id="line2d_13">
      <path d="M 513.366745 320.4 
L 513.366745 43.2 
" clip-path="url(#p1ad609e944)" style="fill: none; stroke-dasharray: 5.12,1.28,0.8,1.28; stroke-dashoffset: 0; stroke: #b0b0b0; stroke-width: 0.8"/>
     </g>
     <g id="line2d_14">
      <g>
       <use xlink:href="#m4b72283f15" x="513.366745" y="320.4" style="fill: #a9a9a9; stroke: #a9a9a9; stroke-width: 0.8"/>
      </g>
     </g>
     <g id="text_7">
      <!-- 2023-01 -->
      <g style="fill: #a9a9a9" transform="translate(492.475338 334.998438) scale(0.1 -0.1)">
       <defs>
        <path id="DejaVuSans-33" d="M 2597 2516 
Q 3050 2419 3304 2112 
Q 3559 1806 3559 1356 
Q 3559 666 3084 287 
Q 2609 -91 1734 -91 
Q 1441 -91 1130 -33 
Q 819 25 488 141 
L 488 750 
Q 750 597 1062 519 
Q 1375 441 1716 441 
Q 2309 441 2620 675 
Q 2931 909 2931 1356 
Q 2931 1769 2642 2001 
Q 2353 2234 1838 2234 
L 1294 2234 
L 1294 2753 
L 1863 2753 
Q 2328 2753 2575 2939 
Q 2822 3125 2822 3475 
Q 2822 3834 2567 4026 
Q 2313 4219 1838 4219 
Q 1578 4219 1281 4162 
Q 984 4106 628 3988 
L 628 4550 
Q 988 4650 1302 4700 
Q 1616 4750 1894 4750 
Q 2613 4750 3031 4423 
Q 3450 4097 3450 3541 
Q 3450 3153 3228 2886 
Q 3006 2619 2597 2516 
z
" transform="scale(0.015625)"/>
       </defs>
       <use xlink:href="#DejaVuSans-32"/>
       <use xlink:href="#DejaVuSans-30" x="63.623047"/>
       <use xlink:href="#DejaVuSans-32" x="127.246094"/>
       <use xlink:href="#DejaVuSans-33" x="190.869141"/>
       <use xlink:href="#DejaVuSans-2d" x="254.492188"/>
       <use xlink:href="#DejaVuSans-30" x="290.576172"/>
       <use xlink:href="#DejaVuSans-31" x="354.199219"/>
      </g>
     </g>
    </g>
    <g id="xtick_8">
     <g id="line2d_15">
      <path d="M 577.518331 320.4 
L 577.518331 43.2 
" clip-path="url(#p1ad609e944)" style="fill: none; stroke-dasharray: 5.12,1.28,0.8,1.28; stroke-dashoffset: 0; stroke: #b0b0b0; stroke-width: 0.8"/>
     </g>
     <g id="line2d_16">
      <g>
       <use xlink:href="#m4b72283f15" x="577.518331" y="320.4" style="fill: #a9a9a9; stroke: #a9a9a9; stroke-width: 0.8"/>
      </g>
     </g>
     <g id="text_8">
      <!-- 2023-04 -->
      <g style="fill: #a9a9a9" transform="translate(556.626925 334.998438) scale(0.1 -0.1)">
       <use xlink:href="#DejaVuSans-32"/>
       <use xlink:href="#DejaVuSans-30" x="63.623047"/>
       <use xlink:href="#DejaVuSans-32" x="127.246094"/>
       <use xlink:href="#DejaVuSans-33" x="190.869141"/>
       <use xlink:href="#DejaVuSans-2d" x="254.492188"/>
       <use xlink:href="#DejaVuSans-30" x="290.576172"/>
       <use xlink:href="#DejaVuSans-34" x="354.199219"/>
      </g>
     </g>
    </g>
    <g id="xtick_9">
     <g id="line2d_17">
      <path d="M 642.382712 320.4 
L 642.382712 43.2 
" clip-path="url(#p1ad609e944)" style="fill: none; stroke-dasharray: 5.12,1.28,0.8,1.28; stroke-dashoffset: 0; stroke: #b0b0b0; stroke-width: 0.8"/>
     </g>
     <g id="line2d_18">
      <g>
       <use xlink:href="#m4b72283f15" x="642.382712" y="320.4" style="fill: #a9a9a9; stroke: #a9a9a9; stroke-width: 0.8"/>
      </g>
     </g>
     <g id="text_9">
      <!-- 2023-07 -->
      <g style="fill: #a9a9a9" transform="translate(621.491306 334.998438) scale(0.1 -0.1)">
       <use xlink:href="#DejaVuSans-32"/>
       <use xlink:href="#DejaVuSans-30" x="63.623047"/>
       <use xlink:href="#DejaVuSans-32" x="127.246094"/>
       <use xlink:href="#DejaVuSans-33" x="190.869141"/>
       <use xlink:href="#DejaVuSans-2d" x="254.492188"/>
       <use xlink:href="#DejaVuSans-30" x="290.576172"/>
       <use xlink:href="#DejaVuSans-37" x="354.199219"/>
      </g>
     </g>
    </g>
    <g id="xtick_10">
     <g id="line2d_19">
      <path d="M 707.959889 320.4 
L 707.959889 43.2 
" clip-path="url(#p1ad609e944)" style="fill: none; stroke-dasharray: 5.12,1.28,0.8,1.28; stroke-dashoffset: 0; stroke: #b0b0b0; stroke-width: 0.8"/>
     </g>
     <g id="line2d_20">
      <g>
       <use xlink:href="#m4b72283f15" x="707.959889" y="320.4" style="fill: #a9a9a9; stroke: #a9a9a9; stroke-width: 0.8"/>
      </g>
     </g>
     <g id="text_10">
      <!-- 2023-10 -->
      <g style="fill: #a9a9a9" transform="translate(687.068483 334.998438) scale(0.1 -0.1)">
       <use xlink:href="#DejaVuSans-32"/>
       <use xlink:href="#DejaVuSans-30" x="63.623047"/>
       <use xlink:href="#DejaVuSans-32" x="127.246094"/>
       <use xlink:href="#DejaVuSans-33" x="190.869141"/>
       <use xlink:href="#DejaVuSans-2d" x="254.492188"/>
       <use xlink:href="#DejaVuSans-31" x="290.576172"/>
       <use xlink:href="#DejaVuSans-30" x="354.199219"/>
      </g>
     </g>
    </g>
    <g id="xtick_11">
     <g id="line2d_21">
      <path d="M 773.537066 320.4 
L 773.537066 43.2 
" clip-path="url(#p1ad609e944)" style="fill: none; stroke-dasharray: 5.12,1.28,0.8,1.28; stroke-dashoffset: 0; stroke: #b0b0b0; stroke-width: 0.8"/>
     </g>
     <g id="line2d_22">
      <g>
       <use xlink:href="#m4b72283f15" x="773.537066" y="320.4" style="fill: #a9a9a9; stroke: #a9a9a9; stroke-width: 0.8"/>
      </g>
     </g>
     <g id="text_11">
      <!-- 2024-01 -->
      <g style="fill: #a9a9a9" transform="translate(752.64566 334.998438) scale(0.1 -0.1)">
       <use xlink:href="#DejaVuSans-32"/>
       <use xlink:href="#DejaVuSans-30" x="63.623047"/>
       <use xlink:href="#DejaVuSans-32" x="127.246094"/>
       <use xlink:href="#DejaVuSans-34" x="190.869141"/>
       <use xlink:href="#DejaVuSans-2d" x="254.492188"/>
       <use xlink:href="#DejaVuSans-30" x="290.576172"/>
       <use xlink:href="#DejaVuSans-31" x="354.199219"/>
      </g>
     </g>
    </g>
   </g>
   <g id="matplotlib.axis_2">
    <g id="ytick_1">
     <g id="line2d_23">
      <path d="M 108 307.848564 
L 777.6 307.848564 
" clip-path="url(#p1ad609e944)" style="fill: none; stroke-dasharray: 5.12,1.28,0.8,1.28; stroke-dashoffset: 0; stroke: #b0b0b0; stroke-width: 0.8"/>
     </g>
     <g id="line2d_24">
      <defs>
       <path id="m9916d716a5" d="M 0 0 
L -3.5 0 
" style="stroke: #a9a9a9; stroke-width: 0.8"/>
      </defs>
      <g>
       <use xlink:href="#m9916d716a5" x="108" y="307.848564" style="fill: #a9a9a9; stroke: #a9a9a9; stroke-width: 0.8"/>
      </g>
     </g>
     <g id="text_12">
      <!-- 0 -->
      <g style="fill: #a9a9a9" transform="translate(94.6375 311.647783) scale(0.1 -0.1)">
       <use xlink:href="#DejaVuSans-30"/>
      </g>
     </g>
    </g>
    <g id="ytick_2">
     <g id="line2d_25">
      <path d="M 108 278.710002 
L 777.6 278.710002 
" clip-path="url(#p1ad609e944)" style="fill: none; stroke-dasharray: 5.12,1.28,0.8,1.28; stroke-dashoffset: 0; stroke: #b0b0b0; stroke-width: 0.8"/>
     </g>
     <g id="line2d_26">
      <g>
       <use xlink:href="#m9916d716a5" x="108" y="278.710002" style="fill: #a9a9a9; stroke: #a9a9a9; stroke-width: 0.8"/>
      </g>
     </g>
     <g id="text_13">
      <!-- 600 -->
      <g style="fill: #a9a9a9" transform="translate(81.9125 282.509221) scale(0.1 -0.1)">
       <defs>
        <path id="DejaVuSans-36" d="M 2113 2584 
Q 1688 2584 1439 2293 
Q 1191 2003 1191 1497 
Q 1191 994 1439 701 
Q 1688 409 2113 409 
Q 2538 409 2786 701 
Q 3034 994 3034 1497 
Q 3034 2003 2786 2293 
Q 2538 2584 2113 2584 
z
M 3366 4563 
L 3366 3988 
Q 3128 4100 2886 4159 
Q 2644 4219 2406 4219 
Q 1781 4219 1451 3797 
Q 1122 3375 1075 2522 
Q 1259 2794 1537 2939 
Q 1816 3084 2150 3084 
Q 2853 3084 3261 2657 
Q 3669 2231 3669 1497 
Q 3669 778 3244 343 
Q 2819 -91 2113 -91 
Q 1303 -91 875 529 
Q 447 1150 447 2328 
Q 447 3434 972 4092 
Q 1497 4750 2381 4750 
Q 2619 4750 2861 4703 
Q 3103 4656 3366 4563 
z
" transform="scale(0.015625)"/>
       </defs>
       <use xlink:href="#DejaVuSans-36"/>
       <use xlink:href="#DejaVuSans-30" x="63.623047"/>
       <use xlink:href="#DejaVuSans-30" x="127.246094"/>
      </g>
     </g>
    </g>
    <g id="ytick_3">
     <g id="line2d_27">
      <path d="M 108 249.57144 
L 777.6 249.57144 
" clip-path="url(#p1ad609e944)" style="fill: none; stroke-dasharray: 5.12,1.28,0.8,1.28; stroke-dashoffset: 0; stroke: #b0b0b0; stroke-width: 0.8"/>
     </g>
     <g id="line2d_28">
      <g>
       <use xlink:href="#m9916d716a5" x="108" y="249.57144" style="fill: #a9a9a9; stroke: #a9a9a9; stroke-width: 0.8"/>
      </g>
     </g>
     <g id="text_14">
      <!-- 1200 -->
      <g style="fill: #a9a9a9" transform="translate(75.55 253.370658) scale(0.1 -0.1)">
       <use xlink:href="#DejaVuSans-31"/>
       <use xlink:href="#DejaVuSans-32" x="63.623047"/>
       <use xlink:href="#DejaVuSans-30" x="127.246094"/>
       <use xlink:href="#DejaVuSans-30" x="190.869141"/>
      </g>
     </g>
    </g>
    <g id="ytick_4">
     <g id="line2d_29">
      <path d="M 108 220.432877 
L 777.6 220.432877 
" clip-path="url(#p1ad609e944)" style="fill: none; stroke-dasharray: 5.12,1.28,0.8,1.28; stroke-dashoffset: 0; stroke: #b0b0b0; stroke-width: 0.8"/>
     </g>
     <g id="line2d_30">
      <g>
       <use xlink:href="#m9916d716a5" x="108" y="220.432877" style="fill: #a9a9a9; stroke: #a9a9a9; stroke-width: 0.8"/>
      </g>
     </g>
     <g id="text_15">
      <!-- 1800 -->
      <g style="fill: #a9a9a9" transform="translate(75.55 224.232096) scale(0.1 -0.1)">
       <defs>
        <path id="DejaVuSans-38" d="M 2034 2216 
Q 1584 2216 1326 1975 
Q 1069 1734 1069 1313 
Q 1069 891 1326 650 
Q 1584 409 2034 409 
Q 2484 409 2743 651 
Q 3003 894 3003 1313 
Q 3003 1734 2745 1975 
Q 2488 2216 2034 2216 
z
M 1403 2484 
Q 997 2584 770 2862 
Q 544 3141 544 3541 
Q 544 4100 942 4425 
Q 1341 4750 2034 4750 
Q 2731 4750 3128 4425 
Q 3525 4100 3525 3541 
Q 3525 3141 3298 2862 
Q 3072 2584 2669 2484 
Q 3125 2378 3379 2068 
Q 3634 1759 3634 1313 
Q 3634 634 3220 271 
Q 2806 -91 2034 -91 
Q 1263 -91 848 271 
Q 434 634 434 1313 
Q 434 1759 690 2068 
Q 947 2378 1403 2484 
z
M 1172 3481 
Q 1172 3119 1398 2916 
Q 1625 2713 2034 2713 
Q 2441 2713 2670 2916 
Q 2900 3119 2900 3481 
Q 2900 3844 2670 4047 
Q 2441 4250 2034 4250 
Q 1625 4250 1398 4047 
Q 1172 3844 1172 3481 
z
" transform="scale(0.015625)"/>
       </defs>
       <use xlink:href="#DejaVuSans-31"/>
       <use xlink:href="#DejaVuSans-38" x="63.623047"/>
       <use xlink:href="#DejaVuSans-30" x="127.246094"/>
       <use xlink:href="#DejaVuSans-30" x="190.869141"/>
      </g>
     </g>
    </g>
    <g id="ytick_5">
     <g id="line2d_31">
      <path d="M 108 191.294315 
L 777.6 191.294315 
" clip-path="url(#p1ad609e944)" style="fill: none; stroke-dasharray: 5.12,1.28,0.8,1.28; stroke-dashoffset: 0; stroke: #b0b0b0; stroke-width: 0.8"/>
     </g>
     <g id="line2d_32">
      <g>
       <use xlink:href="#m9916d716a5" x="108" y="191.294315" style="fill: #a9a9a9; stroke: #a9a9a9; stroke-width: 0.8"/>
      </g>
     </g>
     <g id="text_16">
      <!-- 2400 -->
      <g style="fill: #a9a9a9" transform="translate(75.55 195.093534) scale(0.1 -0.1)">
       <use xlink:href="#DejaVuSans-32"/>
       <use xlink:href="#DejaVuSans-34" x="63.623047"/>
       <use xlink:href="#DejaVuSans-30" x="127.246094"/>
       <use xlink:href="#DejaVuSans-30" x="190.869141"/>
      </g>
     </g>
    </g>
    <g id="ytick_6">
     <g id="line2d_33">
      <path d="M 108 162.155753 
L 777.6 162.155753 
" clip-path="url(#p1ad609e944)" style="fill: none; stroke-dasharray: 5.12,1.28,0.8,1.28; stroke-dashoffset: 0; stroke: #b0b0b0; stroke-width: 0.8"/>
     </g>
     <g id="line2d_34">
      <g>
       <use xlink:href="#m9916d716a5" x="108" y="162.155753" style="fill: #a9a9a9; stroke: #a9a9a9; stroke-width: 0.8"/>
      </g>
     </g>
     <g id="text_17">
      <!-- 3000 -->
      <g style="fill: #a9a9a9" transform="translate(75.55 165.954971) scale(0.1 -0.1)">
       <use xlink:href="#DejaVuSans-33"/>
       <use xlink:href="#DejaVuSans-30" x="63.623047"/>
       <use xlink:href="#DejaVuSans-30" x="127.246094"/>
       <use xlink:href="#DejaVuSans-30" x="190.869141"/>
      </g>
     </g>
    </g>
    <g id="ytick_7">
     <g id="line2d_35">
      <path d="M 108 133.01719 
L 777.6 133.01719 
" clip-path="url(#p1ad609e944)" style="fill: none; stroke-dasharray: 5.12,1.28,0.8,1.28; stroke-dashoffset: 0; stroke: #b0b0b0; stroke-width: 0.8"/>
     </g>
     <g id="line2d_36">
      <g>
       <use xlink:href="#m9916d716a5" x="108" y="133.01719" style="fill: #a9a9a9; stroke: #a9a9a9; stroke-width: 0.8"/>
      </g>
     </g>
     <g id="text_18">
      <!-- 3600 -->
      <g style="fill: #a9a9a9" transform="translate(75.55 136.816409) scale(0.1 -0.1)">
       <use xlink:href="#DejaVuSans-33"/>
       <use xlink:href="#DejaVuSans-36" x="63.623047"/>
       <use xlink:href="#DejaVuSans-30" x="127.246094"/>
       <use xlink:href="#DejaVuSans-30" x="190.869141"/>
      </g>
     </g>
    </g>
    <g id="ytick_8">
     <g id="line2d_37">
      <path d="M 108 103.878628 
L 777.6 103.878628 
" clip-path="url(#p1ad609e944)" style="fill: none; stroke-dasharray: 5.12,1.28,0.8,1.28; stroke-dashoffset: 0; stroke: #b0b0b0; stroke-width: 0.8"/>
     </g>
     <g id="line2d_38">
      <g>
       <use xlink:href="#m9916d716a5" x="108" y="103.878628" style="fill: #a9a9a9; stroke: #a9a9a9; stroke-width: 0.8"/>
      </g>
     </g>
     <g id="text_19">
      <!-- 4200 -->
      <g style="fill: #a9a9a9" transform="translate(75.55 107.677847) scale(0.1 -0.1)">
       <use xlink:href="#DejaVuSans-34"/>
       <use xlink:href="#DejaVuSans-32" x="63.623047"/>
       <use xlink:href="#DejaVuSans-30" x="127.246094"/>
       <use xlink:href="#DejaVuSans-30" x="190.869141"/>
      </g>
     </g>
    </g>
    <g id="ytick_9">
     <g id="line2d_39">
      <path d="M 108 74.740066 
L 777.6 74.740066 
" clip-path="url(#p1ad609e944)" style="fill: none; stroke-dasharray: 5.12,1.28,0.8,1.28; stroke-dashoffset: 0; stroke: #b0b0b0; stroke-width: 0.8"/>
     </g>
     <g id="line2d_40">
      <g>
       <use xlink:href="#m9916d716a5" x="108" y="74.740066" style="fill: #a9a9a9; stroke: #a9a9a9; stroke-width: 0.8"/>
      </g>
     </g>
     <g id="text_20">
      <!-- 4800 -->
      <g style="fill: #a9a9a9" transform="translate(75.55 78.539284) scale(0.1 -0.1)">
       <use xlink:href="#DejaVuSans-34"/>
       <use xlink:href="#DejaVuSans-38" x="63.623047"/>
       <use xlink:href="#DejaVuSans-30" x="127.246094"/>
       <use xlink:href="#DejaVuSans-30" x="190.869141"/>
      </g>
     </g>
    </g>
    <g id="ytick_10">
     <g id="line2d_41">
      <path d="M 108 45.601503 
L 777.6 45.601503 
" clip-path="url(#p1ad609e944)" style="fill: none; stroke-dasharray: 5.12,1.28,0.8,1.28; stroke-dashoffset: 0; stroke: #b0b0b0; stroke-width: 0.8"/>
     </g>
     <g id="line2d_42">
      <g>
       <use xlink:href="#m9916d716a5" x="108" y="45.601503" style="fill: #a9a9a9; stroke: #a9a9a9; stroke-width: 0.8"/>
      </g>
     </g>
     <g id="text_21">
      <!-- 5400 -->
      <g style="fill: #a9a9a9" transform="translate(75.55 49.400722) scale(0.1 -0.1)">
       <defs>
        <path id="DejaVuSans-35" d="M 691 4666 
L 3169 4666 
L 3169 4134 
L 1269 4134 
L 1269 2991 
Q 1406 3038 1543 3061 
Q 1681 3084 1819 3084 
Q 2600 3084 3056 2656 
Q 3513 2228 3513 1497 
Q 3513 744 3044 326 
Q 2575 -91 1722 -91 
Q 1428 -91 1123 -41 
Q 819 9 494 109 
L 494 744 
Q 775 591 1075 516 
Q 1375 441 1709 441 
Q 2250 441 2565 725 
Q 2881 1009 2881 1497 
Q 2881 1984 2565 2268 
Q 2250 2553 1709 2553 
Q 1456 2553 1204 2497 
Q 953 2441 691 2322 
L 691 4666 
z
" transform="scale(0.015625)"/>
       </defs>
       <use xlink:href="#DejaVuSans-35"/>
       <use xlink:href="#DejaVuSans-34" x="63.623047"/>
       <use xlink:href="#DejaVuSans-30" x="127.246094"/>
       <use xlink:href="#DejaVuSans-30" x="190.869141"/>
      </g>
     </g>
    </g>
   </g>
   <g id="line2d_43">
    <path d="M 138.436364 307.702871 
L 142.713136 307.362922 
L 143.425931 307.071536 
L 145.564318 306.828715 
L 150.553885 305.905993 
L 154.117862 305.566044 
L 154.830658 305.226094 
L 155.543453 305.031837 
L 156.256249 304.15768 
L 156.969044 303.720601 
L 157.681839 302.166545 
L 158.394635 302.069416 
L 159.10743 301.535209 
L 160.533021 300.855309 
L 161.958612 299.786895 
L 162.671407 299.106996 
L 164.096998 298.427096 
L 164.809793 298.13571 
L 165.522589 297.601503 
L 168.37377 296.387396 
L 169.086566 295.270418 
L 169.799361 294.687647 
L 171.224952 293.910619 
L 178.352906 292.939333 
L 179.065702 292.599383 
L 184.055269 292.210869 
L 185.48086 291.822355 
L 186.906451 291.530969 
L 192.608814 290.802505 
L 193.32161 290.413991 
L 194.034405 290.316863 
L 194.7472 290.025477 
L 196.172791 289.782656 
L 196.885587 289.734091 
L 197.598382 289.49127 
L 200.449564 289.054192 
L 201.875154 288.665677 
L 204.013541 288.47142 
L 205.439131 288.325728 
L 206.151927 288.13147 
L 206.864722 288.082906 
L 209.003108 287.451571 
L 213.279881 286.820235 
L 213.992676 286.625978 
L 214.705472 285.654693 
L 216.843858 284.877664 
L 218.982244 284.294893 
L 219.695039 283.954943 
L 220.407835 283.906379 
L 223.971812 282.935093 
L 225.397403 282.837965 
L 226.110198 282.740836 
L 228.248584 282.109501 
L 231.099766 281.429601 
L 231.812561 281.138215 
L 232.525357 281.041087 
L 233.238152 280.701137 
L 240.366106 279.632723 
L 243.930083 278.612873 
L 244.642878 278.175795 
L 247.49406 277.398767 
L 248.919651 276.573174 
L 249.632446 276.087531 
L 250.345242 275.990403 
L 251.058037 275.747581 
L 253.196423 275.359067 
L 253.909219 275.019117 
L 255.334809 274.776296 
L 256.047605 274.387782 
L 257.473196 273.950703 
L 258.185991 273.853575 
L 259.611582 273.465061 
L 261.037173 273.125111 
L 261.749968 273.027982 
L 263.175559 272.445211 
L 263.888354 272.299518 
L 264.60115 272.008133 
L 265.313945 271.911004 
L 266.02674 271.571054 
L 266.739536 271.376797 
L 268.165127 271.279669 
L 269.590717 270.794026 
L 271.016308 270.696897 
L 271.729104 270.356947 
L 274.580285 269.871305 
L 277.431467 269.628483 
L 278.144262 269.482791 
L 279.569853 268.802891 
L 287.410603 265.549085 
L 288.123398 265.16057 
L 288.836193 264.383542 
L 289.548989 263.218 
L 290.261784 262.295278 
L 290.97458 262.101021 
L 291.687375 262.101021 
L 293.112966 261.081172 
L 293.825761 260.886915 
L 294.538557 260.4984 
L 295.251352 260.352708 
L 295.964147 259.721372 
L 296.676943 259.527115 
L 298.815329 258.507265 
L 299.528124 257.633108 
L 300.24092 256.564695 
L 300.953715 256.127616 
L 301.666511 254.962074 
L 302.379306 254.23361 
L 303.092101 253.89366 
L 303.804897 253.699403 
L 305.230488 252.87381 
L 305.943283 252.53386 
L 308.794465 250.445596 
L 309.50726 249.425747 
L 310.220055 247.774562 
L 310.932851 246.706148 
L 311.645646 246.171941 
L 312.358442 245.880555 
L 315.209623 243.452341 
L 315.922419 242.966699 
L 317.348009 241.752592 
L 318.060805 240.732742 
L 319.486396 239.518636 
L 322.337577 237.673193 
L 323.050373 237.041858 
L 323.763168 236.896165 
L 325.901554 235.779187 
L 327.327145 234.953594 
L 328.03994 234.662209 
L 329.465531 233.350973 
L 330.178327 232.525381 
L 331.603917 231.554095 
L 332.316713 231.359838 
L 333.029508 231.019888 
L 333.742304 230.485681 
L 335.167894 229.708653 
L 335.88069 229.611524 
L 337.306281 228.834496 
L 338.019076 228.445982 
L 338.731871 227.717518 
L 339.444667 227.280439 
L 340.157462 227.037618 
L 340.870258 226.551975 
L 343.721439 225.095047 
L 344.434235 224.463712 
L 347.285416 223.492426 
L 347.998212 223.006784 
L 348.711007 222.861091 
L 350.136598 222.375448 
L 352.274984 221.549855 
L 354.41337 220.772827 
L 355.838961 220.530006 
L 357.264552 219.315899 
L 358.690143 218.635999 
L 360.828529 217.421892 
L 362.25412 217.033378 
L 362.966915 216.5963 
L 363.67971 216.402043 
L 365.818097 215.042243 
L 369.382074 214.216651 
L 371.52046 213.002544 
L 372.233255 212.905415 
L 372.946051 212.662594 
L 374.371641 212.371208 
L 376.510028 210.817152 
L 378.648414 210.331509 
L 379.361209 210.088688 
L 380.074005 209.554481 
L 384.350777 208.194681 
L 385.063572 208.146117 
L 390.05314 206.397803 
L 390.765936 206.057853 
L 392.904322 205.57221 
L 394.329913 205.232261 
L 395.042708 204.892311 
L 395.755504 204.746618 
L 397.89389 203.775332 
L 400.032276 202.706918 
L 400.745071 202.221276 
L 401.457867 202.027019 
L 403.596253 200.91004 
L 405.021844 200.570091 
L 406.447435 199.841627 
L 407.873025 199.453112 
L 408.585821 199.355984 
L 409.298616 198.870341 
L 410.011412 198.530391 
L 410.724207 198.384698 
L 412.149798 197.801927 
L 412.862593 197.656234 
L 413.575389 197.26772 
L 416.42657 196.830642 
L 417.852161 196.150742 
L 418.564956 195.567971 
L 419.277752 194.353864 
L 420.703343 194.062478 
L 421.416138 193.916786 
L 424.26732 192.459857 
L 424.980115 192.314165 
L 430.682478 189.594565 
L 432.820864 189.157487 
L 434.246455 188.477587 
L 434.959251 188.186202 
L 435.672046 188.089073 
L 438.523228 186.826402 
L 439.948818 185.855117 
L 440.661614 185.515167 
L 441.374409 185.418038 
L 442.087205 185.175217 
L 442.8 185.126653 
L 445.651182 184.203931 
L 446.363977 184.155367 
L 447.076772 183.62116 
L 448.502363 183.135517 
L 450.640749 182.455618 
L 451.353545 182.018539 
L 452.06634 181.824282 
L 452.779136 181.338639 
L 453.491931 181.047254 
L 454.204726 180.610175 
L 455.630317 180.075968 
L 457.768703 179.396069 
L 458.481499 179.056119 
L 459.194294 178.521912 
L 459.90709 177.793448 
L 460.619885 177.356369 
L 461.33268 177.210676 
L 462.758271 176.142262 
L 463.471067 175.99657 
L 464.183862 174.928156 
L 464.896657 174.63677 
L 465.609453 174.102563 
L 466.322248 174.005435 
L 467.035044 173.519792 
L 467.747839 173.179842 
L 468.460634 173.034149 
L 469.17343 172.742764 
L 469.886225 172.159992 
L 470.599021 171.917171 
L 472.737407 170.508807 
L 475.588588 169.100443 
L 476.301384 169.003315 
L 477.726975 168.371979 
L 478.43977 167.934901 
L 479.152565 166.769358 
L 479.865361 166.138023 
L 480.578156 165.749509 
L 481.290952 165.603816 
L 482.716542 164.729659 
L 483.429338 164.583966 
L 484.854929 163.904066 
L 486.993315 163.029909 
L 488.418906 162.058624 
L 489.844496 160.553132 
L 491.270087 159.678975 
L 491.982883 159.241896 
L 492.695678 158.513432 
L 493.408473 158.02779 
L 494.834064 156.862247 
L 495.54686 156.570861 
L 496.259655 155.793833 
L 496.972451 155.259626 
L 498.398041 154.773983 
L 499.110837 154.142648 
L 500.536428 153.414184 
L 501.249223 153.219927 
L 501.962018 152.734284 
L 502.674814 152.540027 
L 504.8132 151.423049 
L 505.525995 150.888842 
L 506.951586 150.306071 
L 507.664382 150.160378 
L 508.377177 149.723299 
L 513.366745 148.02355 
L 514.07954 147.392214 
L 516.217926 146.615186 
L 517.643517 146.178108 
L 518.356313 145.643901 
L 520.494699 144.672615 
L 521.207494 144.138408 
L 521.92029 143.749894 
L 523.34588 140.981731 
L 524.771471 139.330545 
L 525.484267 138.844903 
L 527.622653 137.922182 
L 528.335448 137.67936 
L 529.048244 137.582232 
L 529.761039 137.193717 
L 531.899425 136.562382 
L 534.037811 135.736789 
L 535.463402 134.814068 
L 537.601788 133.842783 
L 541.165765 131.803083 
L 541.878561 131.074619 
L 543.304152 130.297591 
L 544.016947 129.909077 
L 544.729742 129.666256 
L 545.442538 129.180613 
L 546.868129 128.500713 
L 549.006515 127.383735 
L 549.71931 127.189478 
L 550.432106 126.655271 
L 551.144901 126.363885 
L 551.857696 126.218192 
L 553.283287 125.635421 
L 555.421673 124.858393 
L 556.134469 124.324186 
L 557.56006 123.935672 
L 558.98565 123.401465 
L 559.698446 122.818693 
L 561.124037 122.381615 
L 561.836832 122.041665 
L 562.549627 121.847408 
L 563.975218 120.876123 
L 565.400809 120.244787 
L 566.8264 119.176373 
L 568.251991 118.69073 
L 568.964786 118.107959 
L 569.677581 117.962266 
L 570.390377 117.330931 
L 571.815968 116.505338 
L 573.241558 115.922567 
L 573.954354 115.194103 
L 578.231126 113.640046 
L 580.369512 112.717325 
L 582.507899 112.08599 
L 583.933489 111.891733 
L 584.646285 111.600347 
L 585.35908 111.454654 
L 586.784671 110.871883 
L 587.497466 110.823319 
L 590.348648 109.803469 
L 592.487034 108.346541 
L 596.763807 106.258277 
L 598.902193 104.898478 
L 600.327784 104.558528 
L 601.753374 103.587242 
L 604.604556 102.713085 
L 605.317352 102.4217 
L 606.742942 102.08175 
L 610.306919 100.916207 
L 612.445306 100.527693 
L 613.158101 100.333436 
L 613.870896 99.993486 
L 614.583692 99.896358 
L 616.009283 99.313586 
L 616.722078 99.216458 
L 617.434873 98.876508 
L 618.860464 98.585122 
L 619.57326 98.245172 
L 621.711646 97.75953 
L 623.137237 97.468144 
L 627.414009 96.691116 
L 628.8396 96.39973 
L 629.552395 96.254037 
L 630.265191 95.962652 
L 630.977986 95.914087 
L 633.116372 95.331316 
L 633.829168 94.942802 
L 637.393145 94.068645 
L 638.10594 93.922952 
L 640.957122 92.854538 
L 641.669917 92.611717 
L 642.382712 92.514589 
L 644.521099 91.786124 
L 645.233894 91.786124 
L 646.659485 91.300482 
L 647.37228 90.620582 
L 648.085076 90.280632 
L 649.510666 89.843554 
L 652.361848 88.77514 
L 653.074643 88.629447 
L 653.787439 88.192368 
L 654.500234 88.046676 
L 655.21303 87.609597 
L 658.777007 86.541183 
L 659.489802 86.104105 
L 660.202597 85.909848 
L 660.915393 85.327077 
L 663.053779 84.938562 
L 664.47937 84.161534 
L 665.192165 83.384506 
L 666.617756 83.09312 
L 670.894528 82.121835 
L 672.320119 81.73332 
L 673.74571 81.684756 
L 674.458505 81.344806 
L 677.309687 80.859164 
L 678.022482 80.519214 
L 680.160869 80.227828 
L 681.586459 79.693621 
L 682.299255 79.353671 
L 683.01205 79.305107 
L 685.150436 78.819464 
L 687.288823 78.285257 
L 690.140004 77.4111 
L 690.8528 77.265408 
L 691.565595 76.925458 
L 692.27839 76.828329 
L 692.991186 76.585508 
L 693.703981 76.148429 
L 695.842367 75.371401 
L 696.555163 74.837194 
L 697.980754 74.44868 
L 698.693549 74.157294 
L 700.11914 73.76878 
L 702.970321 72.457545 
L 705.108708 72.311852 
L 707.959889 71.437695 
L 708.672685 71.000617 
L 710.098275 70.563538 
L 712.236662 69.495124 
L 712.949457 69.349431 
L 713.662253 69.009482 
L 714.375048 68.912353 
L 715.800639 68.378146 
L 716.513434 68.038196 
L 717.22623 67.892503 
L 717.939025 67.552553 
L 719.364616 67.164039 
L 720.077411 66.824089 
L 725.779774 65.318597 
L 727.205365 64.638697 
L 729.343751 64.10449 
L 730.056547 63.570283 
L 730.769342 63.230333 
L 731.482138 62.404741 
L 732.194933 61.870534 
L 733.620524 61.433455 
L 734.333319 60.850684 
L 742.174069 57.645442 
L 743.599659 57.305492 
L 745.02525 56.674157 
L 746.450841 55.8 
L 747.163636 55.8 
L 747.163636 55.8 
" clip-path="url(#p1ad609e944)" style="fill: none; stroke: #1f77b4; stroke-width: 1.5; stroke-linecap: square"/>
   </g>
   <g id="line2d_44">
    <path d="M 139.149159 307.8 
L 141.287545 307.702871 
L 143.425931 307.654307 
L 147.702704 307.557179 
L 151.266681 307.411486 
L 154.117862 307.411486 
L 154.830658 307.217229 
L 156.969044 307.168664 
L 161.245816 306.683022 
L 171.937747 306.051686 
L 177.640111 305.954558 
L 181.204088 305.808865 
L 189.757633 305.711736 
L 193.32161 305.566044 
L 197.598382 305.468915 
L 200.449564 305.371786 
L 206.864722 305.274658 
L 209.003108 305.226094 
L 211.141495 305.177529 
L 213.279881 304.934708 
L 217.556653 304.886144 
L 218.982244 304.789015 
L 223.971812 304.691887 
L 231.812561 304.254808 
L 236.802129 304.15768 
L 238.22772 304.060551 
L 240.366106 303.963423 
L 244.642878 303.769166 
L 247.49406 303.720601 
L 249.632446 303.526344 
L 261.037173 302.846444 
L 263.888354 302.749316 
L 268.877922 302.506495 
L 271.016308 302.409366 
L 278.144262 302.020852 
L 285.985012 301.923723 
L 288.836193 301.632338 
L 290.261784 301.535209 
L 299.528124 300.806745 
L 303.804897 300.272538 
L 306.656078 300.17541 
L 312.358442 299.446945 
L 315.922419 299.349817 
L 325.188759 298.621353 
L 329.465531 298.13571 
L 331.603917 298.087146 
L 333.029508 297.990017 
L 335.88069 297.892889 
L 337.306281 297.79576 
L 340.870258 297.45581 
L 341.583053 297.261553 
L 345.859825 297.067296 
L 349.423802 296.970168 
L 358.690143 296.435961 
L 360.828529 296.338832 
L 370.094869 295.804625 
L 375.084437 295.707497 
L 375.797232 295.561804 
L 381.499595 295.464675 
L 386.489163 295.221854 
L 394.329913 295.124725 
L 399.319481 294.881904 
L 405.021844 294.784775 
L 411.437002 294.444826 
L 415.713775 294.347697 
L 429.256887 293.522104 
L 434.959251 293.424976 
L 438.523228 293.085026 
L 439.948818 292.939333 
L 443.512795 292.890769 
L 446.363977 292.599383 
L 453.491931 292.210869 
L 457.768703 292.113741 
L 459.90709 292.065176 
L 462.045476 292.016612 
L 464.183862 291.822355 
L 469.886225 291.725226 
L 471.311816 291.482405 
L 472.737407 291.385277 
L 475.588588 291.288148 
L 477.726975 291.191019 
L 479.152565 291.093891 
L 485.567724 290.996762 
L 486.993315 290.85107 
L 489.844496 290.753941 
L 490.557292 290.608248 
L 491.982883 290.559684 
L 492.695678 290.413991 
L 494.834064 290.316863 
L 506.951586 289.588399 
L 509.089972 289.49127 
L 512.653949 289.345577 
L 522.633085 289.248449 
L 527.622653 289.005627 
L 533.325016 288.908499 
L 536.176198 288.81137 
L 539.027379 288.762806 
L 540.45297 288.617113 
L 543.304152 288.519985 
L 550.432106 288.13147 
L 554.708878 288.082906 
L 556.847264 287.888649 
L 558.98565 287.840085 
L 563.975218 287.742956 
L 566.8264 287.645828 
L 575.379945 287.548699 
L 578.943922 287.403006 
L 583.220694 287.305878 
L 585.35908 287.063056 
L 589.635853 287.014492 
L 590.348648 286.868799 
L 591.774239 286.771671 
L 594.62542 286.674542 
L 603.178965 286.577414 
L 606.742942 286.431721 
L 618.860464 286.383157 
L 620.286055 286.286028 
L 622.424441 286.237464 
L 631.690781 286.140335 
L 633.116372 286.043207 
L 640.957122 285.946078 
L 643.808303 285.84895 
L 652.361848 285.800385 
L 653.787439 285.703257 
L 664.47937 285.654693 
L 666.617756 285.460436 
L 678.735278 285.363307 
L 680.873664 285.314743 
L 699.406344 285.217614 
L 702.257526 285.120486 
L 715.087843 285.023357 
L 716.513434 284.877664 
L 722.928593 284.780536 
L 730.769342 284.343457 
L 735.046115 284.246329 
L 737.897296 284.1492 
L 741.461273 284.100636 
L 742.886864 284.003507 
L 747.163636 283.954943 
L 747.163636 283.954943 
" clip-path="url(#p1ad609e944)" style="fill: none; stroke: #ff7f0e; stroke-width: 1.5; stroke-linecap: square"/>
   </g>
   <g id="patch_3">
    <path d="M 108 320.4 
L 108 43.2 
" style="fill: none; stroke: #a9a9a9; stroke-width: 0.8; stroke-linejoin: miter; stroke-linecap: square"/>
   </g>
   <g id="patch_4">
    <path d="M 777.6 320.4 
L 777.6 43.2 
" style="fill: none"/>
   </g>
   <g id="patch_5">
    <path d="M 108 320.4 
L 777.6 320.4 
" style="fill: none; stroke: #a9a9a9; stroke-width: 0.8; stroke-linejoin: miter; stroke-linecap: square"/>
   </g>
   <g id="patch_6">
    <path d="M 108 43.2 
L 777.6 43.2 
" style="fill: none"/>
   </g>
   <g id="text_22">
    <!-- get_subscribe history -->
    <g style="fill: #a9a9a9" transform="translate(378.6075 37.2) scale(0.12 -0.12)">
     <defs>
      <path id="DejaVuSans-67" d="M 2906 1791 
Q 2906 2416 2648 2759 
Q 2391 3103 1925 3103 
Q 1463 3103 1205 2759 
Q 947 2416 947 1791 
Q 947 1169 1205 825 
Q 1463 481 1925 481 
Q 2391 481 2648 825 
Q 2906 1169 2906 1791 
z
M 3481 434 
Q 3481 -459 3084 -895 
Q 2688 -1331 1869 -1331 
Q 1566 -1331 1297 -1286 
Q 1028 -1241 775 -1147 
L 775 -588 
Q 1028 -725 1275 -790 
Q 1522 -856 1778 -856 
Q 2344 -856 2625 -561 
Q 2906 -266 2906 331 
L 2906 616 
Q 2728 306 2450 153 
Q 2172 0 1784 0 
Q 1141 0 747 490 
Q 353 981 353 1791 
Q 353 2603 747 3093 
Q 1141 3584 1784 3584 
Q 2172 3584 2450 3431 
Q 2728 3278 2906 2969 
L 2906 3500 
L 3481 3500 
L 3481 434 
z
" transform="scale(0.015625)"/>
      <path id="DejaVuSans-65" d="M 3597 1894 
L 3597 1613 
L 953 1613 
Q 991 1019 1311 708 
Q 1631 397 2203 397 
Q 2534 397 2845 478 
Q 3156 559 3463 722 
L 3463 178 
Q 3153 47 2828 -22 
Q 2503 -91 2169 -91 
Q 1331 -91 842 396 
Q 353 884 353 1716 
Q 353 2575 817 3079 
Q 1281 3584 2069 3584 
Q 2775 3584 3186 3129 
Q 3597 2675 3597 1894 
z
M 3022 2063 
Q 3016 2534 2758 2815 
Q 2500 3097 2075 3097 
Q 1594 3097 1305 2825 
Q 1016 2553 972 2059 
L 3022 2063 
z
" transform="scale(0.015625)"/>
      <path id="DejaVuSans-74" d="M 1172 4494 
L 1172 3500 
L 2356 3500 
L 2356 3053 
L 1172 3053 
L 1172 1153 
Q 1172 725 1289 603 
Q 1406 481 1766 481 
L 2356 481 
L 2356 0 
L 1766 0 
Q 1100 0 847 248 
Q 594 497 594 1153 
L 594 3053 
L 172 3053 
L 172 3500 
L 594 3500 
L 594 4494 
L 1172 4494 
z
" transform="scale(0.015625)"/>
      <path id="DejaVuSans-5f" d="M 3263 -1063 
L 3263 -1509 
L -63 -1509 
L -63 -1063 
L 3263 -1063 
z
" transform="scale(0.015625)"/>
      <path id="DejaVuSans-73" d="M 2834 3397 
L 2834 2853 
Q 2591 2978 2328 3040 
Q 2066 3103 1784 3103 
Q 1356 3103 1142 2972 
Q 928 2841 928 2578 
Q 928 2378 1081 2264 
Q 1234 2150 1697 2047 
L 1894 2003 
Q 2506 1872 2764 1633 
Q 3022 1394 3022 966 
Q 3022 478 2636 193 
Q 2250 -91 1575 -91 
Q 1294 -91 989 -36 
Q 684 19 347 128 
L 347 722 
Q 666 556 975 473 
Q 1284 391 1588 391 
Q 1994 391 2212 530 
Q 2431 669 2431 922 
Q 2431 1156 2273 1281 
Q 2116 1406 1581 1522 
L 1381 1569 
Q 847 1681 609 1914 
Q 372 2147 372 2553 
Q 372 3047 722 3315 
Q 1072 3584 1716 3584 
Q 2034 3584 2315 3537 
Q 2597 3491 2834 3397 
z
" transform="scale(0.015625)"/>
      <path id="DejaVuSans-75" d="M 544 1381 
L 544 3500 
L 1119 3500 
L 1119 1403 
Q 1119 906 1312 657 
Q 1506 409 1894 409 
Q 2359 409 2629 706 
Q 2900 1003 2900 1516 
L 2900 3500 
L 3475 3500 
L 3475 0 
L 2900 0 
L 2900 538 
Q 2691 219 2414 64 
Q 2138 -91 1772 -91 
Q 1169 -91 856 284 
Q 544 659 544 1381 
z
M 1991 3584 
L 1991 3584 
z
" transform="scale(0.015625)"/>
      <path id="DejaVuSans-62" d="M 3116 1747 
Q 3116 2381 2855 2742 
Q 2594 3103 2138 3103 
Q 1681 3103 1420 2742 
Q 1159 2381 1159 1747 
Q 1159 1113 1420 752 
Q 1681 391 2138 391 
Q 2594 391 2855 752 
Q 3116 1113 3116 1747 
z
M 1159 2969 
Q 1341 3281 1617 3432 
Q 1894 3584 2278 3584 
Q 2916 3584 3314 3078 
Q 3713 2572 3713 1747 
Q 3713 922 3314 415 
Q 2916 -91 2278 -91 
Q 1894 -91 1617 61 
Q 1341 213 1159 525 
L 1159 0 
L 581 0 
L 581 4863 
L 1159 4863 
L 1159 2969 
z
" transform="scale(0.015625)"/>
      <path id="DejaVuSans-63" d="M 3122 3366 
L 3122 2828 
Q 2878 2963 2633 3030 
Q 2388 3097 2138 3097 
Q 1578 3097 1268 2742 
Q 959 2388 959 1747 
Q 959 1106 1268 751 
Q 1578 397 2138 397 
Q 2388 397 2633 464 
Q 2878 531 3122 666 
L 3122 134 
Q 2881 22 2623 -34 
Q 2366 -91 2075 -91 
Q 1284 -91 818 406 
Q 353 903 353 1747 
Q 353 2603 823 3093 
Q 1294 3584 2113 3584 
Q 2378 3584 2631 3529 
Q 2884 3475 3122 3366 
z
" transform="scale(0.015625)"/>
      <path id="DejaVuSans-72" d="M 2631 2963 
Q 2534 3019 2420 3045 
Q 2306 3072 2169 3072 
Q 1681 3072 1420 2755 
Q 1159 2438 1159 1844 
L 1159 0 
L 581 0 
L 581 3500 
L 1159 3500 
L 1159 2956 
Q 1341 3275 1631 3429 
Q 1922 3584 2338 3584 
Q 2397 3584 2469 3576 
Q 2541 3569 2628 3553 
L 2631 2963 
z
" transform="scale(0.015625)"/>
      <path id="DejaVuSans-69" d="M 603 3500 
L 1178 3500 
L 1178 0 
L 603 0 
L 603 3500 
z
M 603 4863 
L 1178 4863 
L 1178 4134 
L 603 4134 
L 603 4863 
z
" transform="scale(0.015625)"/>
      <path id="DejaVuSans-20" transform="scale(0.015625)"/>
      <path id="DejaVuSans-68" d="M 3513 2113 
L 3513 0 
L 2938 0 
L 2938 2094 
Q 2938 2591 2744 2837 
Q 2550 3084 2163 3084 
Q 1697 3084 1428 2787 
Q 1159 2491 1159 1978 
L 1159 0 
L 581 0 
L 581 4863 
L 1159 4863 
L 1159 2956 
Q 1366 3272 1645 3428 
Q 1925 3584 2291 3584 
Q 2894 3584 3203 3211 
Q 3513 2838 3513 2113 
z
" transform="scale(0.015625)"/>
      <path id="DejaVuSans-6f" d="M 1959 3097 
Q 1497 3097 1228 2736 
Q 959 2375 959 1747 
Q 959 1119 1226 758 
Q 1494 397 1959 397 
Q 2419 397 2687 759 
Q 2956 1122 2956 1747 
Q 2956 2369 2687 2733 
Q 2419 3097 1959 3097 
z
M 1959 3584 
Q 2709 3584 3137 3096 
Q 3566 2609 3566 1747 
Q 3566 888 3137 398 
Q 2709 -91 1959 -91 
Q 1206 -91 779 398 
Q 353 888 353 1747 
Q 353 2609 779 3096 
Q 1206 3584 1959 3584 
z
" transform="scale(0.015625)"/>
      <path id="DejaVuSans-79" d="M 2059 -325 
Q 1816 -950 1584 -1140 
Q 1353 -1331 966 -1331 
L 506 -1331 
L 506 -850 
L 844 -850 
Q 1081 -850 1212 -737 
Q 1344 -625 1503 -206 
L 1606 56 
L 191 3500 
L 800 3500 
L 1894 763 
L 2988 3500 
L 3597 3500 
L 2059 -325 
z
" transform="scale(0.015625)"/>
     </defs>
     <use xlink:href="#DejaVuSans-67"/>
     <use xlink:href="#DejaVuSans-65" x="63.476562"/>
     <use xlink:href="#DejaVuSans-74" x="125"/>
     <use xlink:href="#DejaVuSans-5f" x="164.208984"/>
     <use xlink:href="#DejaVuSans-73" x="214.208984"/>
     <use xlink:href="#DejaVuSans-75" x="266.308594"/>
     <use xlink:href="#DejaVuSans-62" x="329.6875"/>
     <use xlink:href="#DejaVuSans-73" x="393.164062"/>
     <use xlink:href="#DejaVuSans-63" x="445.263672"/>
     <use xlink:href="#DejaVuSans-72" x="500.244141"/>
     <use xlink:href="#DejaVuSans-69" x="541.357422"/>
     <use xlink:href="#DejaVuSans-62" x="569.140625"/>
     <use xlink:href="#DejaVuSans-65" x="632.617188"/>
     <use xlink:href="#DejaVuSans-20" x="694.140625"/>
     <use xlink:href="#DejaVuSans-68" x="725.927734"/>
     <use xlink:href="#DejaVuSans-69" x="789.306641"/>
     <use xlink:href="#DejaVuSans-73" x="817.089844"/>
     <use xlink:href="#DejaVuSans-74" x="869.189453"/>
     <use xlink:href="#DejaVuSans-6f" x="908.398438"/>
     <use xlink:href="#DejaVuSans-72" x="969.580078"/>
     <use xlink:href="#DejaVuSans-79" x="1010.693359"/>
    </g>
   </g>
   <g id="legend_1">
    <g id="line2d_45">
     <path d="M 815.08 328.498438 
L 825.08 328.498438 
L 835.08 328.498438 
" style="fill: none; stroke: #1f77b4; stroke-width: 1.5; stroke-linecap: square"/>
    </g>
    <g id="text_23">
     <!-- star -->
     <g style="fill: #a9a9a9" transform="translate(843.08 331.998438) scale(0.1 -0.1)">
      <defs>
       <path id="DejaVuSans-61" d="M 2194 1759 
Q 1497 1759 1228 1600 
Q 959 1441 959 1056 
Q 959 750 1161 570 
Q 1363 391 1709 391 
Q 2188 391 2477 730 
Q 2766 1069 2766 1631 
L 2766 1759 
L 2194 1759 
z
M 3341 1997 
L 3341 0 
L 2766 0 
L 2766 531 
Q 2569 213 2275 61 
Q 1981 -91 1556 -91 
Q 1019 -91 701 211 
Q 384 513 384 1019 
Q 384 1609 779 1909 
Q 1175 2209 1959 2209 
L 2766 2209 
L 2766 2266 
Q 2766 2663 2505 2880 
Q 2244 3097 1772 3097 
Q 1472 3097 1187 3025 
Q 903 2953 641 2809 
L 641 3341 
Q 956 3463 1253 3523 
Q 1550 3584 1831 3584 
Q 2591 3584 2966 3190 
Q 3341 2797 3341 1997 
z
" transform="scale(0.015625)"/>
      </defs>
      <use xlink:href="#DejaVuSans-73"/>
      <use xlink:href="#DejaVuSans-74" x="52.099609"/>
      <use xlink:href="#DejaVuSans-61" x="91.308594"/>
      <use xlink:href="#DejaVuSans-72" x="152.587891"/>
     </g>
    </g>
    <g id="line2d_46">
     <path d="M 815.08 343.176562 
L 825.08 343.176562 
L 835.08 343.176562 
" style="fill: none; stroke: #ff7f0e; stroke-width: 1.5; stroke-linecap: square"/>
    </g>
    <g id="text_24">
     <!-- fork -->
     <g style="fill: #a9a9a9" transform="translate(843.08 346.676562) scale(0.1 -0.1)">
      <defs>
       <path id="DejaVuSans-66" d="M 2375 4863 
L 2375 4384 
L 1825 4384 
Q 1516 4384 1395 4259 
Q 1275 4134 1275 3809 
L 1275 3500 
L 2222 3500 
L 2222 3053 
L 1275 3053 
L 1275 0 
L 697 0 
L 697 3053 
L 147 3053 
L 147 3500 
L 697 3500 
L 697 3744 
Q 697 4328 969 4595 
Q 1241 4863 1831 4863 
L 2375 4863 
z
" transform="scale(0.015625)"/>
       <path id="DejaVuSans-6b" d="M 581 4863 
L 1159 4863 
L 1159 1991 
L 2875 3500 
L 3609 3500 
L 1753 1863 
L 3688 0 
L 2938 0 
L 1159 1709 
L 1159 0 
L 581 0 
L 581 4863 
z
" transform="scale(0.015625)"/>
      </defs>
      <use xlink:href="#DejaVuSans-66"/>
      <use xlink:href="#DejaVuSans-6f" x="35.205078"/>
      <use xlink:href="#DejaVuSans-72" x="96.386719"/>
      <use xlink:href="#DejaVuSans-6b" x="137.5"/>
     </g>
    </g>
   </g>
  </g>
 </g>
 <defs>
  <clipPath id="p1ad609e944">
   <rect x="108" y="43.2" width="669.6" height="277.2"/>
  </clipPath>
 </defs>
</svg>
