<?xml version="1.0" encoding="utf-8" standalone="no"?>
<!DOCTYPE svg PUBLIC "-//W3C//DTD SVG 1.1//EN"
  "http://www.w3.org/Graphics/SVG/1.1/DTD/svg11.dtd">
<svg xmlns:xlink="http://www.w3.org/1999/xlink" width="864pt" height="360pt" viewBox="0 0 864 360" xmlns="http://www.w3.org/2000/svg" version="1.1">
 <metadata>
  <rdf:RDF xmlns:dc="http://purl.org/dc/elements/1.1/" xmlns:cc="http://creativecommons.org/ns#" xmlns:rdf="http://www.w3.org/1999/02/22-rdf-syntax-ns#">
   <cc:Work>
    <dc:type rdf:resource="http://purl.org/dc/dcmitype/StillImage"/>
    <dc:date>2023-11-22T20:21:09.301383</dc:date>
    <dc:format>image/svg+xml</dc:format>
    <dc:creator>
     <cc:Agent>
      <dc:title>Matplotlib v3.8.2, https://matplotlib.org/</dc:title>
     </cc:Agent>
    </dc:creator>
   </cc:Work>
  </rdf:RDF>
 </metadata>
 <defs>
  <style type="text/css">*{stroke-linejoin: round; stroke-linecap: butt}</style>
 </defs>
 <g id="figure_1">
  <g id="patch_1">
   <path d="M 0 360 
L 864 360 
L 864 0 
L 0 0 
L 0 360 
z
" style="fill: none; opacity: 0"/>
  </g>
  <g id="axes_1">
   <g id="patch_2">
    <path d="M 108 320.4 
L 777.6 320.4 
L 777.6 43.2 
L 108 43.2 
L 108 320.4 
z
" style="fill: none; opacity: 0"/>
   </g>
   <g id="matplotlib.axis_1">
    <g id="xtick_1">
     <g id="line2d_1">
      <path d="M 121.984275 320.4 
L 121.984275 43.2 
" clip-path="url(#p7c0f6801b1)" style="fill: none; stroke-dasharray: 5.12,1.28,0.8,1.28; stroke-dashoffset: 0; stroke: #b0b0b0; stroke-width: 0.8"/>
     </g>
     <g id="line2d_2">
      <defs>
       <path id="me4d43e4204" d="M 0 0 
L 0 3.5 
" style="stroke: #a9a9a9; stroke-width: 0.8"/>
      </defs>
      <g>
       <use xlink:href="#me4d43e4204" x="121.984275" y="320.4" style="fill: #a9a9a9; stroke: #a9a9a9; stroke-width: 0.8"/>
      </g>
     </g>
     <g id="text_1">
      <!-- 2021-07 -->
      <g style="fill: #a9a9a9" transform="translate(101.092869 334.998438) scale(0.1 -0.1)">
       <defs>
        <path id="DejaVuSans-32" d="M 1228 531 
L 3431 531 
L 3431 0 
L 469 0 
L 469 531 
Q 828 903 1448 1529 
Q 2069 2156 2228 2338 
Q 2531 2678 2651 2914 
Q 2772 3150 2772 3378 
Q 2772 3750 2511 3984 
Q 2250 4219 1831 4219 
Q 1534 4219 1204 4116 
Q 875 4013 500 3803 
L 500 4441 
Q 881 4594 1212 4672 
Q 1544 4750 1819 4750 
Q 2544 4750 2975 4387 
Q 3406 4025 3406 3419 
Q 3406 3131 3298 2873 
Q 3191 2616 2906 2266 
Q 2828 2175 2409 1742 
Q 1991 1309 1228 531 
z
" transform="scale(0.015625)"/>
        <path id="DejaVuSans-30" d="M 2034 4250 
Q 1547 4250 1301 3770 
Q 1056 3291 1056 2328 
Q 1056 1369 1301 889 
Q 1547 409 2034 409 
Q 2525 409 2770 889 
Q 3016 1369 3016 2328 
Q 3016 3291 2770 3770 
Q 2525 4250 2034 4250 
z
M 2034 4750 
Q 2819 4750 3233 4129 
Q 3647 3509 3647 2328 
Q 3647 1150 3233 529 
Q 2819 -91 2034 -91 
Q 1250 -91 836 529 
Q 422 1150 422 2328 
Q 422 3509 836 4129 
Q 1250 4750 2034 4750 
z
" transform="scale(0.015625)"/>
        <path id="DejaVuSans-31" d="M 794 531 
L 1825 531 
L 1825 4091 
L 703 3866 
L 703 4441 
L 1819 4666 
L 2450 4666 
L 2450 531 
L 3481 531 
L 3481 0 
L 794 0 
L 794 531 
z
" transform="scale(0.015625)"/>
        <path id="DejaVuSans-2d" d="M 313 2009 
L 1997 2009 
L 1997 1497 
L 313 1497 
L 313 2009 
z
" transform="scale(0.015625)"/>
        <path id="DejaVuSans-37" d="M 525 4666 
L 3525 4666 
L 3525 4397 
L 1831 0 
L 1172 0 
L 2766 4134 
L 525 4134 
L 525 4666 
z
" transform="scale(0.015625)"/>
       </defs>
       <use xlink:href="#DejaVuSans-32"/>
       <use xlink:href="#DejaVuSans-30" x="63.623047"/>
       <use xlink:href="#DejaVuSans-32" x="127.246094"/>
       <use xlink:href="#DejaVuSans-31" x="190.869141"/>
       <use xlink:href="#DejaVuSans-2d" x="254.492188"/>
       <use xlink:href="#DejaVuSans-30" x="290.576172"/>
       <use xlink:href="#DejaVuSans-37" x="354.199219"/>
      </g>
     </g>
    </g>
    <g id="xtick_2">
     <g id="line2d_3">
      <path d="M 187.792629 320.4 
L 187.792629 43.2 
" clip-path="url(#p7c0f6801b1)" style="fill: none; stroke-dasharray: 5.12,1.28,0.8,1.28; stroke-dashoffset: 0; stroke: #b0b0b0; stroke-width: 0.8"/>
     </g>
     <g id="line2d_4">
      <g>
       <use xlink:href="#me4d43e4204" x="187.792629" y="320.4" style="fill: #a9a9a9; stroke: #a9a9a9; stroke-width: 0.8"/>
      </g>
     </g>
     <g id="text_2">
      <!-- 2021-10 -->
      <g style="fill: #a9a9a9" transform="translate(166.901223 334.998438) scale(0.1 -0.1)">
       <use xlink:href="#DejaVuSans-32"/>
       <use xlink:href="#DejaVuSans-30" x="63.623047"/>
       <use xlink:href="#DejaVuSans-32" x="127.246094"/>
       <use xlink:href="#DejaVuSans-31" x="190.869141"/>
       <use xlink:href="#DejaVuSans-2d" x="254.492188"/>
       <use xlink:href="#DejaVuSans-31" x="290.576172"/>
       <use xlink:href="#DejaVuSans-30" x="354.199219"/>
      </g>
     </g>
    </g>
    <g id="xtick_3">
     <g id="line2d_5">
      <path d="M 253.600983 320.4 
L 253.600983 43.2 
" clip-path="url(#p7c0f6801b1)" style="fill: none; stroke-dasharray: 5.12,1.28,0.8,1.28; stroke-dashoffset: 0; stroke: #b0b0b0; stroke-width: 0.8"/>
     </g>
     <g id="line2d_6">
      <g>
       <use xlink:href="#me4d43e4204" x="253.600983" y="320.4" style="fill: #a9a9a9; stroke: #a9a9a9; stroke-width: 0.8"/>
      </g>
     </g>
     <g id="text_3">
      <!-- 2022-01 -->
      <g style="fill: #a9a9a9" transform="translate(232.709577 334.998438) scale(0.1 -0.1)">
       <use xlink:href="#DejaVuSans-32"/>
       <use xlink:href="#DejaVuSans-30" x="63.623047"/>
       <use xlink:href="#DejaVuSans-32" x="127.246094"/>
       <use xlink:href="#DejaVuSans-32" x="190.869141"/>
       <use xlink:href="#DejaVuSans-2d" x="254.492188"/>
       <use xlink:href="#DejaVuSans-30" x="290.576172"/>
       <use xlink:href="#DejaVuSans-31" x="354.199219"/>
      </g>
     </g>
    </g>
    <g id="xtick_4">
     <g id="line2d_7">
      <path d="M 317.97872 320.4 
L 317.97872 43.2 
" clip-path="url(#p7c0f6801b1)" style="fill: none; stroke-dasharray: 5.12,1.28,0.8,1.28; stroke-dashoffset: 0; stroke: #b0b0b0; stroke-width: 0.8"/>
     </g>
     <g id="line2d_8">
      <g>
       <use xlink:href="#me4d43e4204" x="317.97872" y="320.4" style="fill: #a9a9a9; stroke: #a9a9a9; stroke-width: 0.8"/>
      </g>
     </g>
     <g id="text_4">
      <!-- 2022-04 -->
      <g style="fill: #a9a9a9" transform="translate(297.087314 334.998438) scale(0.1 -0.1)">
       <defs>
        <path id="DejaVuSans-34" d="M 2419 4116 
L 825 1625 
L 2419 1625 
L 2419 4116 
z
M 2253 4666 
L 3047 4666 
L 3047 1625 
L 3713 1625 
L 3713 1100 
L 3047 1100 
L 3047 0 
L 2419 0 
L 2419 1100 
L 313 1100 
L 313 1709 
L 2253 4666 
z
" transform="scale(0.015625)"/>
       </defs>
       <use xlink:href="#DejaVuSans-32"/>
       <use xlink:href="#DejaVuSans-30" x="63.623047"/>
       <use xlink:href="#DejaVuSans-32" x="127.246094"/>
       <use xlink:href="#DejaVuSans-32" x="190.869141"/>
       <use xlink:href="#DejaVuSans-2d" x="254.492188"/>
       <use xlink:href="#DejaVuSans-30" x="290.576172"/>
       <use xlink:href="#DejaVuSans-34" x="354.199219"/>
      </g>
     </g>
    </g>
    <g id="xtick_5">
     <g id="line2d_9">
      <path d="M 383.071766 320.4 
L 383.071766 43.2 
" clip-path="url(#p7c0f6801b1)" style="fill: none; stroke-dasharray: 5.12,1.28,0.8,1.28; stroke-dashoffset: 0; stroke: #b0b0b0; stroke-width: 0.8"/>
     </g>
     <g id="line2d_10">
      <g>
       <use xlink:href="#me4d43e4204" x="383.071766" y="320.4" style="fill: #a9a9a9; stroke: #a9a9a9; stroke-width: 0.8"/>
      </g>
     </g>
     <g id="text_5">
      <!-- 2022-07 -->
      <g style="fill: #a9a9a9" transform="translate(362.18036 334.998438) scale(0.1 -0.1)">
       <use xlink:href="#DejaVuSans-32"/>
       <use xlink:href="#DejaVuSans-30" x="63.623047"/>
       <use xlink:href="#DejaVuSans-32" x="127.246094"/>
       <use xlink:href="#DejaVuSans-32" x="190.869141"/>
       <use xlink:href="#DejaVuSans-2d" x="254.492188"/>
       <use xlink:href="#DejaVuSans-30" x="290.576172"/>
       <use xlink:href="#DejaVuSans-37" x="354.199219"/>
      </g>
     </g>
    </g>
    <g id="xtick_6">
     <g id="line2d_11">
      <path d="M 448.88012 320.4 
L 448.88012 43.2 
" clip-path="url(#p7c0f6801b1)" style="fill: none; stroke-dasharray: 5.12,1.28,0.8,1.28; stroke-dashoffset: 0; stroke: #b0b0b0; stroke-width: 0.8"/>
     </g>
     <g id="line2d_12">
      <g>
       <use xlink:href="#me4d43e4204" x="448.88012" y="320.4" style="fill: #a9a9a9; stroke: #a9a9a9; stroke-width: 0.8"/>
      </g>
     </g>
     <g id="text_6">
      <!-- 2022-10 -->
      <g style="fill: #a9a9a9" transform="translate(427.988713 334.998438) scale(0.1 -0.1)">
       <use xlink:href="#DejaVuSans-32"/>
       <use xlink:href="#DejaVuSans-30" x="63.623047"/>
       <use xlink:href="#DejaVuSans-32" x="127.246094"/>
       <use xlink:href="#DejaVuSans-32" x="190.869141"/>
       <use xlink:href="#DejaVuSans-2d" x="254.492188"/>
       <use xlink:href="#DejaVuSans-31" x="290.576172"/>
       <use xlink:href="#DejaVuSans-30" x="354.199219"/>
      </g>
     </g>
    </g>
    <g id="xtick_7">
     <g id="line2d_13">
      <path d="M 514.688473 320.4 
L 514.688473 43.2 
" clip-path="url(#p7c0f6801b1)" style="fill: none; stroke-dasharray: 5.12,1.28,0.8,1.28; stroke-dashoffset: 0; stroke: #b0b0b0; stroke-width: 0.8"/>
     </g>
     <g id="line2d_14">
      <g>
       <use xlink:href="#me4d43e4204" x="514.688473" y="320.4" style="fill: #a9a9a9; stroke: #a9a9a9; stroke-width: 0.8"/>
      </g>
     </g>
     <g id="text_7">
      <!-- 2023-01 -->
      <g style="fill: #a9a9a9" transform="translate(493.797067 334.998438) scale(0.1 -0.1)">
       <defs>
        <path id="DejaVuSans-33" d="M 2597 2516 
Q 3050 2419 3304 2112 
Q 3559 1806 3559 1356 
Q 3559 666 3084 287 
Q 2609 -91 1734 -91 
Q 1441 -91 1130 -33 
Q 819 25 488 141 
L 488 750 
Q 750 597 1062 519 
Q 1375 441 1716 441 
Q 2309 441 2620 675 
Q 2931 909 2931 1356 
Q 2931 1769 2642 2001 
Q 2353 2234 1838 2234 
L 1294 2234 
L 1294 2753 
L 1863 2753 
Q 2328 2753 2575 2939 
Q 2822 3125 2822 3475 
Q 2822 3834 2567 4026 
Q 2313 4219 1838 4219 
Q 1578 4219 1281 4162 
Q 984 4106 628 3988 
L 628 4550 
Q 988 4650 1302 4700 
Q 1616 4750 1894 4750 
Q 2613 4750 3031 4423 
Q 3450 4097 3450 3541 
Q 3450 3153 3228 2886 
Q 3006 2619 2597 2516 
z
" transform="scale(0.015625)"/>
       </defs>
       <use xlink:href="#DejaVuSans-32"/>
       <use xlink:href="#DejaVuSans-30" x="63.623047"/>
       <use xlink:href="#DejaVuSans-32" x="127.246094"/>
       <use xlink:href="#DejaVuSans-33" x="190.869141"/>
       <use xlink:href="#DejaVuSans-2d" x="254.492188"/>
       <use xlink:href="#DejaVuSans-30" x="290.576172"/>
       <use xlink:href="#DejaVuSans-31" x="354.199219"/>
      </g>
     </g>
    </g>
    <g id="xtick_8">
     <g id="line2d_15">
      <path d="M 579.066211 320.4 
L 579.066211 43.2 
" clip-path="url(#p7c0f6801b1)" style="fill: none; stroke-dasharray: 5.12,1.28,0.8,1.28; stroke-dashoffset: 0; stroke: #b0b0b0; stroke-width: 0.8"/>
     </g>
     <g id="line2d_16">
      <g>
       <use xlink:href="#me4d43e4204" x="579.066211" y="320.4" style="fill: #a9a9a9; stroke: #a9a9a9; stroke-width: 0.8"/>
      </g>
     </g>
     <g id="text_8">
      <!-- 2023-04 -->
      <g style="fill: #a9a9a9" transform="translate(558.174805 334.998438) scale(0.1 -0.1)">
       <use xlink:href="#DejaVuSans-32"/>
       <use xlink:href="#DejaVuSans-30" x="63.623047"/>
       <use xlink:href="#DejaVuSans-32" x="127.246094"/>
       <use xlink:href="#DejaVuSans-33" x="190.869141"/>
       <use xlink:href="#DejaVuSans-2d" x="254.492188"/>
       <use xlink:href="#DejaVuSans-30" x="290.576172"/>
       <use xlink:href="#DejaVuSans-34" x="354.199219"/>
      </g>
     </g>
    </g>
    <g id="xtick_9">
     <g id="line2d_17">
      <path d="M 644.159256 320.4 
L 644.159256 43.2 
" clip-path="url(#p7c0f6801b1)" style="fill: none; stroke-dasharray: 5.12,1.28,0.8,1.28; stroke-dashoffset: 0; stroke: #b0b0b0; stroke-width: 0.8"/>
     </g>
     <g id="line2d_18">
      <g>
       <use xlink:href="#me4d43e4204" x="644.159256" y="320.4" style="fill: #a9a9a9; stroke: #a9a9a9; stroke-width: 0.8"/>
      </g>
     </g>
     <g id="text_9">
      <!-- 2023-07 -->
      <g style="fill: #a9a9a9" transform="translate(623.26785 334.998438) scale(0.1 -0.1)">
       <use xlink:href="#DejaVuSans-32"/>
       <use xlink:href="#DejaVuSans-30" x="63.623047"/>
       <use xlink:href="#DejaVuSans-32" x="127.246094"/>
       <use xlink:href="#DejaVuSans-33" x="190.869141"/>
       <use xlink:href="#DejaVuSans-2d" x="254.492188"/>
       <use xlink:href="#DejaVuSans-30" x="290.576172"/>
       <use xlink:href="#DejaVuSans-37" x="354.199219"/>
      </g>
     </g>
    </g>
    <g id="xtick_10">
     <g id="line2d_19">
      <path d="M 709.96761 320.4 
L 709.96761 43.2 
" clip-path="url(#p7c0f6801b1)" style="fill: none; stroke-dasharray: 5.12,1.28,0.8,1.28; stroke-dashoffset: 0; stroke: #b0b0b0; stroke-width: 0.8"/>
     </g>
     <g id="line2d_20">
      <g>
       <use xlink:href="#me4d43e4204" x="709.96761" y="320.4" style="fill: #a9a9a9; stroke: #a9a9a9; stroke-width: 0.8"/>
      </g>
     </g>
     <g id="text_10">
      <!-- 2023-10 -->
      <g style="fill: #a9a9a9" transform="translate(689.076204 334.998438) scale(0.1 -0.1)">
       <use xlink:href="#DejaVuSans-32"/>
       <use xlink:href="#DejaVuSans-30" x="63.623047"/>
       <use xlink:href="#DejaVuSans-32" x="127.246094"/>
       <use xlink:href="#DejaVuSans-33" x="190.869141"/>
       <use xlink:href="#DejaVuSans-2d" x="254.492188"/>
       <use xlink:href="#DejaVuSans-31" x="290.576172"/>
       <use xlink:href="#DejaVuSans-30" x="354.199219"/>
      </g>
     </g>
    </g>
    <g id="xtick_11">
     <g id="line2d_21">
      <path d="M 775.775964 320.4 
L 775.775964 43.2 
" clip-path="url(#p7c0f6801b1)" style="fill: none; stroke-dasharray: 5.12,1.28,0.8,1.28; stroke-dashoffset: 0; stroke: #b0b0b0; stroke-width: 0.8"/>
     </g>
     <g id="line2d_22">
      <g>
       <use xlink:href="#me4d43e4204" x="775.775964" y="320.4" style="fill: #a9a9a9; stroke: #a9a9a9; stroke-width: 0.8"/>
      </g>
     </g>
     <g id="text_11">
      <!-- 2024-01 -->
      <g style="fill: #a9a9a9" transform="translate(754.884558 334.998438) scale(0.1 -0.1)">
       <use xlink:href="#DejaVuSans-32"/>
       <use xlink:href="#DejaVuSans-30" x="63.623047"/>
       <use xlink:href="#DejaVuSans-32" x="127.246094"/>
       <use xlink:href="#DejaVuSans-34" x="190.869141"/>
       <use xlink:href="#DejaVuSans-2d" x="254.492188"/>
       <use xlink:href="#DejaVuSans-30" x="290.576172"/>
       <use xlink:href="#DejaVuSans-31" x="354.199219"/>
      </g>
     </g>
    </g>
   </g>
   <g id="matplotlib.axis_2">
    <g id="ytick_1">
     <g id="line2d_23">
      <path d="M 108 307.848724 
L 777.6 307.848724 
" clip-path="url(#p7c0f6801b1)" style="fill: none; stroke-dasharray: 5.12,1.28,0.8,1.28; stroke-dashoffset: 0; stroke: #b0b0b0; stroke-width: 0.8"/>
     </g>
     <g id="line2d_24">
      <defs>
       <path id="m6d19797d10" d="M 0 0 
L -3.5 0 
" style="stroke: #a9a9a9; stroke-width: 0.8"/>
      </defs>
      <g>
       <use xlink:href="#m6d19797d10" x="108" y="307.848724" style="fill: #a9a9a9; stroke: #a9a9a9; stroke-width: 0.8"/>
      </g>
     </g>
     <g id="text_12">
      <!-- 0 -->
      <g style="fill: #a9a9a9" transform="translate(94.6375 311.647943) scale(0.1 -0.1)">
       <use xlink:href="#DejaVuSans-30"/>
      </g>
     </g>
    </g>
    <g id="ytick_2">
     <g id="line2d_25">
      <path d="M 108 278.614385 
L 777.6 278.614385 
" clip-path="url(#p7c0f6801b1)" style="fill: none; stroke-dasharray: 5.12,1.28,0.8,1.28; stroke-dashoffset: 0; stroke: #b0b0b0; stroke-width: 0.8"/>
     </g>
     <g id="line2d_26">
      <g>
       <use xlink:href="#m6d19797d10" x="108" y="278.614385" style="fill: #a9a9a9; stroke: #a9a9a9; stroke-width: 0.8"/>
      </g>
     </g>
     <g id="text_13">
      <!-- 600 -->
      <g style="fill: #a9a9a9" transform="translate(81.9125 282.413604) scale(0.1 -0.1)">
       <defs>
        <path id="DejaVuSans-36" d="M 2113 2584 
Q 1688 2584 1439 2293 
Q 1191 2003 1191 1497 
Q 1191 994 1439 701 
Q 1688 409 2113 409 
Q 2538 409 2786 701 
Q 3034 994 3034 1497 
Q 3034 2003 2786 2293 
Q 2538 2584 2113 2584 
z
M 3366 4563 
L 3366 3988 
Q 3128 4100 2886 4159 
Q 2644 4219 2406 4219 
Q 1781 4219 1451 3797 
Q 1122 3375 1075 2522 
Q 1259 2794 1537 2939 
Q 1816 3084 2150 3084 
Q 2853 3084 3261 2657 
Q 3669 2231 3669 1497 
Q 3669 778 3244 343 
Q 2819 -91 2113 -91 
Q 1303 -91 875 529 
Q 447 1150 447 2328 
Q 447 3434 972 4092 
Q 1497 4750 2381 4750 
Q 2619 4750 2861 4703 
Q 3103 4656 3366 4563 
z
" transform="scale(0.015625)"/>
       </defs>
       <use xlink:href="#DejaVuSans-36"/>
       <use xlink:href="#DejaVuSans-30" x="63.623047"/>
       <use xlink:href="#DejaVuSans-30" x="127.246094"/>
      </g>
     </g>
    </g>
    <g id="ytick_3">
     <g id="line2d_27">
      <path d="M 108 249.380046 
L 777.6 249.380046 
" clip-path="url(#p7c0f6801b1)" style="fill: none; stroke-dasharray: 5.12,1.28,0.8,1.28; stroke-dashoffset: 0; stroke: #b0b0b0; stroke-width: 0.8"/>
     </g>
     <g id="line2d_28">
      <g>
       <use xlink:href="#m6d19797d10" x="108" y="249.380046" style="fill: #a9a9a9; stroke: #a9a9a9; stroke-width: 0.8"/>
      </g>
     </g>
     <g id="text_14">
      <!-- 1200 -->
      <g style="fill: #a9a9a9" transform="translate(75.55 253.179265) scale(0.1 -0.1)">
       <use xlink:href="#DejaVuSans-31"/>
       <use xlink:href="#DejaVuSans-32" x="63.623047"/>
       <use xlink:href="#DejaVuSans-30" x="127.246094"/>
       <use xlink:href="#DejaVuSans-30" x="190.869141"/>
      </g>
     </g>
    </g>
    <g id="ytick_4">
     <g id="line2d_29">
      <path d="M 108 220.145708 
L 777.6 220.145708 
" clip-path="url(#p7c0f6801b1)" style="fill: none; stroke-dasharray: 5.12,1.28,0.8,1.28; stroke-dashoffset: 0; stroke: #b0b0b0; stroke-width: 0.8"/>
     </g>
     <g id="line2d_30">
      <g>
       <use xlink:href="#m6d19797d10" x="108" y="220.145708" style="fill: #a9a9a9; stroke: #a9a9a9; stroke-width: 0.8"/>
      </g>
     </g>
     <g id="text_15">
      <!-- 1800 -->
      <g style="fill: #a9a9a9" transform="translate(75.55 223.944926) scale(0.1 -0.1)">
       <defs>
        <path id="DejaVuSans-38" d="M 2034 2216 
Q 1584 2216 1326 1975 
Q 1069 1734 1069 1313 
Q 1069 891 1326 650 
Q 1584 409 2034 409 
Q 2484 409 2743 651 
Q 3003 894 3003 1313 
Q 3003 1734 2745 1975 
Q 2488 2216 2034 2216 
z
M 1403 2484 
Q 997 2584 770 2862 
Q 544 3141 544 3541 
Q 544 4100 942 4425 
Q 1341 4750 2034 4750 
Q 2731 4750 3128 4425 
Q 3525 4100 3525 3541 
Q 3525 3141 3298 2862 
Q 3072 2584 2669 2484 
Q 3125 2378 3379 2068 
Q 3634 1759 3634 1313 
Q 3634 634 3220 271 
Q 2806 -91 2034 -91 
Q 1263 -91 848 271 
Q 434 634 434 1313 
Q 434 1759 690 2068 
Q 947 2378 1403 2484 
z
M 1172 3481 
Q 1172 3119 1398 2916 
Q 1625 2713 2034 2713 
Q 2441 2713 2670 2916 
Q 2900 3119 2900 3481 
Q 2900 3844 2670 4047 
Q 2441 4250 2034 4250 
Q 1625 4250 1398 4047 
Q 1172 3844 1172 3481 
z
" transform="scale(0.015625)"/>
       </defs>
       <use xlink:href="#DejaVuSans-31"/>
       <use xlink:href="#DejaVuSans-38" x="63.623047"/>
       <use xlink:href="#DejaVuSans-30" x="127.246094"/>
       <use xlink:href="#DejaVuSans-30" x="190.869141"/>
      </g>
     </g>
    </g>
    <g id="ytick_5">
     <g id="line2d_31">
      <path d="M 108 190.911369 
L 777.6 190.911369 
" clip-path="url(#p7c0f6801b1)" style="fill: none; stroke-dasharray: 5.12,1.28,0.8,1.28; stroke-dashoffset: 0; stroke: #b0b0b0; stroke-width: 0.8"/>
     </g>
     <g id="line2d_32">
      <g>
       <use xlink:href="#m6d19797d10" x="108" y="190.911369" style="fill: #a9a9a9; stroke: #a9a9a9; stroke-width: 0.8"/>
      </g>
     </g>
     <g id="text_16">
      <!-- 2400 -->
      <g style="fill: #a9a9a9" transform="translate(75.55 194.710588) scale(0.1 -0.1)">
       <use xlink:href="#DejaVuSans-32"/>
       <use xlink:href="#DejaVuSans-34" x="63.623047"/>
       <use xlink:href="#DejaVuSans-30" x="127.246094"/>
       <use xlink:href="#DejaVuSans-30" x="190.869141"/>
      </g>
     </g>
    </g>
    <g id="ytick_6">
     <g id="line2d_33">
      <path d="M 108 161.67703 
L 777.6 161.67703 
" clip-path="url(#p7c0f6801b1)" style="fill: none; stroke-dasharray: 5.12,1.28,0.8,1.28; stroke-dashoffset: 0; stroke: #b0b0b0; stroke-width: 0.8"/>
     </g>
     <g id="line2d_34">
      <g>
       <use xlink:href="#m6d19797d10" x="108" y="161.67703" style="fill: #a9a9a9; stroke: #a9a9a9; stroke-width: 0.8"/>
      </g>
     </g>
     <g id="text_17">
      <!-- 3000 -->
      <g style="fill: #a9a9a9" transform="translate(75.55 165.476249) scale(0.1 -0.1)">
       <use xlink:href="#DejaVuSans-33"/>
       <use xlink:href="#DejaVuSans-30" x="63.623047"/>
       <use xlink:href="#DejaVuSans-30" x="127.246094"/>
       <use xlink:href="#DejaVuSans-30" x="190.869141"/>
      </g>
     </g>
    </g>
    <g id="ytick_7">
     <g id="line2d_35">
      <path d="M 108 132.442691 
L 777.6 132.442691 
" clip-path="url(#p7c0f6801b1)" style="fill: none; stroke-dasharray: 5.12,1.28,0.8,1.28; stroke-dashoffset: 0; stroke: #b0b0b0; stroke-width: 0.8"/>
     </g>
     <g id="line2d_36">
      <g>
       <use xlink:href="#m6d19797d10" x="108" y="132.442691" style="fill: #a9a9a9; stroke: #a9a9a9; stroke-width: 0.8"/>
      </g>
     </g>
     <g id="text_18">
      <!-- 3600 -->
      <g style="fill: #a9a9a9" transform="translate(75.55 136.24191) scale(0.1 -0.1)">
       <use xlink:href="#DejaVuSans-33"/>
       <use xlink:href="#DejaVuSans-36" x="63.623047"/>
       <use xlink:href="#DejaVuSans-30" x="127.246094"/>
       <use xlink:href="#DejaVuSans-30" x="190.869141"/>
      </g>
     </g>
    </g>
    <g id="ytick_8">
     <g id="line2d_37">
      <path d="M 108 103.208353 
L 777.6 103.208353 
" clip-path="url(#p7c0f6801b1)" style="fill: none; stroke-dasharray: 5.12,1.28,0.8,1.28; stroke-dashoffset: 0; stroke: #b0b0b0; stroke-width: 0.8"/>
     </g>
     <g id="line2d_38">
      <g>
       <use xlink:href="#m6d19797d10" x="108" y="103.208353" style="fill: #a9a9a9; stroke: #a9a9a9; stroke-width: 0.8"/>
      </g>
     </g>
     <g id="text_19">
      <!-- 4200 -->
      <g style="fill: #a9a9a9" transform="translate(75.55 107.007571) scale(0.1 -0.1)">
       <use xlink:href="#DejaVuSans-34"/>
       <use xlink:href="#DejaVuSans-32" x="63.623047"/>
       <use xlink:href="#DejaVuSans-30" x="127.246094"/>
       <use xlink:href="#DejaVuSans-30" x="190.869141"/>
      </g>
     </g>
    </g>
    <g id="ytick_9">
     <g id="line2d_39">
      <path d="M 108 73.974014 
L 777.6 73.974014 
" clip-path="url(#p7c0f6801b1)" style="fill: none; stroke-dasharray: 5.12,1.28,0.8,1.28; stroke-dashoffset: 0; stroke: #b0b0b0; stroke-width: 0.8"/>
     </g>
     <g id="line2d_40">
      <g>
       <use xlink:href="#m6d19797d10" x="108" y="73.974014" style="fill: #a9a9a9; stroke: #a9a9a9; stroke-width: 0.8"/>
      </g>
     </g>
     <g id="text_20">
      <!-- 4800 -->
      <g style="fill: #a9a9a9" transform="translate(75.55 77.773233) scale(0.1 -0.1)">
       <use xlink:href="#DejaVuSans-34"/>
       <use xlink:href="#DejaVuSans-38" x="63.623047"/>
       <use xlink:href="#DejaVuSans-30" x="127.246094"/>
       <use xlink:href="#DejaVuSans-30" x="190.869141"/>
      </g>
     </g>
    </g>
    <g id="ytick_10">
     <g id="line2d_41">
      <path d="M 108 44.739675 
L 777.6 44.739675 
" clip-path="url(#p7c0f6801b1)" style="fill: none; stroke-dasharray: 5.12,1.28,0.8,1.28; stroke-dashoffset: 0; stroke: #b0b0b0; stroke-width: 0.8"/>
     </g>
     <g id="line2d_42">
      <g>
       <use xlink:href="#m6d19797d10" x="108" y="44.739675" style="fill: #a9a9a9; stroke: #a9a9a9; stroke-width: 0.8"/>
      </g>
     </g>
     <g id="text_21">
      <!-- 5400 -->
      <g style="fill: #a9a9a9" transform="translate(75.55 48.538894) scale(0.1 -0.1)">
       <defs>
        <path id="DejaVuSans-35" d="M 691 4666 
L 3169 4666 
L 3169 4134 
L 1269 4134 
L 1269 2991 
Q 1406 3038 1543 3061 
Q 1681 3084 1819 3084 
Q 2600 3084 3056 2656 
Q 3513 2228 3513 1497 
Q 3513 744 3044 326 
Q 2575 -91 1722 -91 
Q 1428 -91 1123 -41 
Q 819 9 494 109 
L 494 744 
Q 775 591 1075 516 
Q 1375 441 1709 441 
Q 2250 441 2565 725 
Q 2881 1009 2881 1497 
Q 2881 1984 2565 2268 
Q 2250 2553 1709 2553 
Q 1456 2553 1204 2497 
Q 953 2441 691 2322 
L 691 4666 
z
" transform="scale(0.015625)"/>
       </defs>
       <use xlink:href="#DejaVuSans-35"/>
       <use xlink:href="#DejaVuSans-34" x="63.623047"/>
       <use xlink:href="#DejaVuSans-30" x="127.246094"/>
       <use xlink:href="#DejaVuSans-30" x="190.869141"/>
      </g>
     </g>
    </g>
   </g>
   <g id="line2d_43">
    <path d="M 138.436364 307.702552 
L 142.728213 307.361485 
L 143.443521 307.069142 
L 145.589446 306.825522 
L 150.596603 305.899768 
L 154.173144 305.558701 
L 154.888452 305.217633 
L 155.60376 305.022738 
L 156.319068 304.145708 
L 157.034377 303.658469 
L 157.749685 302.099304 
L 158.464993 302.001856 
L 159.180301 301.465893 
L 160.610918 300.783759 
L 162.041534 299.711833 
L 162.756842 299.029698 
L 164.187459 298.347564 
L 164.902767 298.05522 
L 165.618075 297.519258 
L 168.479308 296.30116 
L 169.194616 295.18051 
L 169.909924 294.595824 
L 171.340541 293.816241 
L 178.493622 292.841763 
L 179.208931 292.500696 
L 184.216088 292.110905 
L 185.646704 291.721114 
L 187.077321 291.42877 
L 192.799786 290.697912 
L 193.515095 290.308121 
L 194.230403 290.210673 
L 194.945711 289.918329 
L 196.376327 289.67471 
L 197.091636 289.625986 
L 197.806944 289.382367 
L 200.668176 288.943852 
L 202.098793 288.55406 
L 204.244717 288.359165 
L 205.675334 288.212993 
L 206.390642 288.018097 
L 207.10595 287.969374 
L 209.251875 287.335963 
L 213.543724 286.702552 
L 214.259032 286.507657 
L 214.97434 285.533179 
L 217.120265 284.753596 
L 219.26619 284.16891 
L 219.981498 283.827842 
L 220.696806 283.779118 
L 224.273347 282.80464 
L 225.703963 282.707193 
L 226.419271 282.609745 
L 228.565196 281.976334 
L 231.426429 281.2942 
L 232.141737 281.001856 
L 232.857045 280.904408 
L 233.572353 280.563341 
L 240.725435 279.491415 
L 244.301976 278.468213 
L 245.017284 278.029698 
L 247.878517 277.250116 
L 249.309134 276.42181 
L 250.024442 275.934571 
L 250.73975 275.837123 
L 251.455058 275.593503 
L 253.600983 275.203712 
L 254.316291 274.862645 
L 255.746907 274.619026 
L 256.462216 274.229234 
L 257.892832 273.790719 
L 258.60814 273.693271 
L 260.038757 273.30348 
L 261.469373 272.962413 
L 262.184681 272.864965 
L 263.615298 272.280278 
L 264.330606 272.134107 
L 265.045914 271.841763 
L 265.761222 271.744316 
L 266.47653 271.403248 
L 267.191838 271.208353 
L 268.622455 271.110905 
L 270.053071 270.623666 
L 271.483688 270.526218 
L 272.198996 270.185151 
L 275.060229 269.697912 
L 277.921461 269.454292 
L 278.63677 269.308121 
L 280.067386 268.625986 
L 287.935776 265.361485 
L 288.651084 264.971694 
L 289.366392 264.192111 
L 290.081701 263.022738 
L 290.797009 262.096984 
L 291.512317 261.902088 
L 292.227625 261.902088 
L 293.658242 260.878886 
L 294.37355 260.683991 
L 295.088858 260.2942 
L 295.804166 260.148028 
L 296.519474 259.514617 
L 297.234783 259.319722 
L 299.380707 258.29652 
L 300.096015 257.41949 
L 300.811324 256.347564 
L 301.526632 255.909049 
L 302.24194 254.739675 
L 302.957248 254.008817 
L 303.672556 253.667749 
L 304.387865 253.472854 
L 305.818481 252.644548 
L 306.533789 252.30348 
L 309.395022 250.208353 
L 310.11033 249.185151 
L 310.825638 247.528538 
L 311.540946 246.456613 
L 312.256255 245.92065 
L 312.971563 245.628306 
L 315.832796 243.192111 
L 316.548104 242.704872 
L 317.97872 241.486775 
L 318.694028 240.463573 
L 320.124645 239.245476 
L 322.985878 237.393968 
L 323.701186 236.760557 
L 324.416494 236.614385 
L 326.562419 235.493735 
L 327.993035 234.665429 
L 328.708343 234.373086 
L 330.13896 233.057541 
L 330.854268 232.229234 
L 332.284884 231.254756 
L 333.000192 231.059861 
L 333.7155 230.718794 
L 334.430809 230.182831 
L 335.861425 229.403248 
L 336.576733 229.3058 
L 338.00735 228.526218 
L 338.722658 228.136427 
L 339.437966 227.405568 
L 340.153274 226.967053 
L 340.868582 226.723434 
L 341.583891 226.236195 
L 344.445123 224.774478 
L 345.160432 224.141067 
L 348.021664 223.166589 
L 348.736973 222.67935 
L 349.452281 222.533179 
L 350.882897 222.04594 
L 353.028822 221.217633 
L 355.174746 220.438051 
L 356.605363 220.194432 
L 358.035979 218.976334 
L 359.466595 218.2942 
L 361.61252 217.076102 
L 363.043136 216.686311 
L 363.758445 216.247796 
L 364.473753 216.0529 
L 366.619677 214.688631 
L 370.196218 213.860325 
L 372.342143 212.642227 
L 373.057451 212.54478 
L 373.772759 212.30116 
L 375.203376 212.008817 
L 377.3493 210.449652 
L 379.495225 209.962413 
L 380.210533 209.718794 
L 380.925841 209.182831 
L 385.21769 207.818561 
L 385.932999 207.769838 
L 390.940156 206.015777 
L 391.655464 205.67471 
L 393.801389 205.187471 
L 395.232005 204.846404 
L 395.947313 204.505336 
L 396.662622 204.359165 
L 398.808546 203.384687 
L 400.954471 202.312761 
L 401.669779 201.825522 
L 402.385087 201.630626 
L 404.531012 200.509977 
L 405.961628 200.16891 
L 407.392244 199.438051 
L 408.822861 199.04826 
L 409.538169 198.950812 
L 410.253477 198.463573 
L 410.968785 198.122506 
L 411.684094 197.976334 
L 413.11471 197.391647 
L 413.830018 197.245476 
L 414.545326 196.855684 
L 417.406559 196.417169 
L 418.837176 195.735035 
L 419.552484 195.150348 
L 420.267792 193.932251 
L 421.698408 193.639907 
L 422.413716 193.493735 
L 425.274949 192.032019 
L 425.990257 191.885847 
L 431.712723 189.157309 
L 433.858648 188.718794 
L 435.289264 188.036659 
L 436.004572 187.744316 
L 436.71988 187.646868 
L 439.581113 186.380046 
L 441.01173 185.405568 
L 441.727038 185.064501 
L 442.442346 184.967053 
L 443.157654 184.723434 
L 443.872962 184.67471 
L 446.734195 183.748956 
L 447.449503 183.700232 
L 448.164811 183.164269 
L 449.595428 182.67703 
L 451.741352 181.994896 
L 452.456661 181.556381 
L 453.171969 181.361485 
L 453.887277 180.874246 
L 454.602585 180.581903 
L 455.317893 180.143387 
L 456.74851 179.607425 
L 458.894434 178.92529 
L 459.609743 178.584223 
L 460.325051 178.04826 
L 461.040359 177.317401 
L 461.755667 176.878886 
L 462.470975 176.732715 
L 463.901592 175.660789 
L 464.6169 175.514617 
L 465.332208 174.442691 
L 466.047516 174.150348 
L 466.762824 173.614385 
L 467.478133 173.516937 
L 468.193441 173.029698 
L 468.908749 172.688631 
L 469.624057 172.542459 
L 470.339365 172.250116 
L 471.054674 171.665429 
L 471.769982 171.42181 
L 473.915906 170.008817 
L 476.777139 168.595824 
L 477.492447 168.498376 
L 478.923064 167.864965 
L 479.638372 167.42645 
L 480.35368 166.257077 
L 481.068988 165.623666 
L 481.784297 165.233875 
L 482.499605 165.087703 
L 483.930221 164.210673 
L 484.645529 164.064501 
L 486.076146 163.382367 
L 488.22207 162.505336 
L 489.652687 161.530858 
L 491.083303 160.020418 
L 492.513919 159.143387 
L 493.229228 158.704872 
L 493.944536 157.974014 
L 494.659844 157.486775 
L 496.09046 156.317401 
L 496.805769 156.025058 
L 497.521077 155.245476 
L 498.236385 154.709513 
L 499.667001 154.222274 
L 500.38231 153.588863 
L 501.812926 152.858005 
L 502.528234 152.663109 
L 503.243542 152.17587 
L 503.958851 151.980974 
L 506.104775 150.860325 
L 506.820083 150.324362 
L 508.2507 149.739675 
L 508.966008 149.593503 
L 509.681316 149.154988 
L 514.688473 147.449652 
L 515.403782 146.816241 
L 517.549706 146.036659 
L 518.980323 145.598144 
L 519.695631 145.062181 
L 521.841555 144.087703 
L 522.556864 143.55174 
L 523.272172 143.161949 
L 524.702788 140.384687 
L 526.133405 138.728074 
L 526.848713 138.240835 
L 528.994637 137.315081 
L 529.709946 137.071462 
L 530.425254 136.974014 
L 531.140562 136.584223 
L 533.286486 135.950812 
L 535.432411 135.122506 
L 536.863027 134.196752 
L 539.008952 133.222274 
L 542.585493 131.17587 
L 543.300801 130.445012 
L 544.731418 129.665429 
L 545.446726 129.275638 
L 546.162034 129.032019 
L 546.877342 128.54478 
L 548.307959 127.862645 
L 550.453883 126.741995 
L 551.169191 126.5471 
L 551.8845 126.011137 
L 552.599808 125.718794 
L 553.315116 125.572622 
L 554.745732 124.987935 
L 556.891657 124.208353 
L 557.606965 123.67239 
L 559.037581 123.282599 
L 560.468198 122.746636 
L 561.183506 122.161949 
L 562.614122 121.723434 
L 563.329431 121.382367 
L 564.044739 121.187471 
L 565.475355 120.212993 
L 566.905972 119.579582 
L 568.336588 118.507657 
L 569.767204 118.020418 
L 570.482513 117.435731 
L 571.197821 117.289559 
L 571.913129 116.656148 
L 573.343745 115.827842 
L 574.774362 115.243155 
L 575.48967 114.512297 
L 579.781519 112.953132 
L 581.927444 112.027378 
L 584.073368 111.393968 
L 585.503985 111.199072 
L 586.219293 110.906729 
L 586.934601 110.760557 
L 588.365217 110.17587 
L 589.080526 110.127146 
L 591.941758 109.103944 
L 594.087683 107.642227 
L 598.379532 105.5471 
L 600.525457 104.182831 
L 601.956073 103.841763 
L 603.386689 102.867285 
L 606.247922 101.990255 
L 606.96323 101.697912 
L 608.393847 101.356845 
L 611.970388 100.187471 
L 614.116312 99.79768 
L 614.831621 99.602784 
L 615.546929 99.261717 
L 616.262237 99.164269 
L 617.692853 98.579582 
L 618.408162 98.482135 
L 619.12347 98.141067 
L 620.554086 97.848724 
L 621.269394 97.507657 
L 623.415319 97.020418 
L 624.845935 96.728074 
L 634.144942 94.730394 
L 634.86025 94.535499 
L 635.575558 94.145708 
L 639.152099 93.268677 
L 639.867407 93.122506 
L 642.72864 92.05058 
L 643.443948 91.806961 
L 644.159256 91.709513 
L 646.305181 90.978654 
L 647.020489 90.978654 
L 648.451106 90.491415 
L 649.166414 89.809281 
L 649.881722 89.468213 
L 651.312338 89.029698 
L 654.173571 87.957773 
L 654.888879 87.811601 
L 655.604188 87.373086 
L 656.319496 87.226914 
L 657.034804 86.788399 
L 660.611345 85.716473 
L 661.326653 85.277958 
L 662.041961 85.083063 
L 662.75727 84.498376 
L 664.903194 84.108585 
L 666.33381 83.329002 
L 667.049119 82.54942 
L 668.479735 82.257077 
L 672.771584 81.282599 
L 674.202201 80.892807 
L 675.632817 80.844084 
L 676.348125 80.503016 
L 679.209358 80.015777 
L 679.924666 79.67471 
L 682.070591 79.382367 
L 683.501207 78.846404 
L 684.216515 78.505336 
L 684.931824 78.456613 
L 687.077748 77.969374 
L 689.223673 77.433411 
L 692.084905 76.556381 
L 692.800214 76.410209 
L 693.515522 76.069142 
L 694.23083 75.971694 
L 694.946138 75.728074 
L 695.661446 75.289559 
L 697.807371 74.509977 
L 698.522679 73.974014 
L 699.953296 73.584223 
L 700.668604 73.291879 
L 702.09922 72.902088 
L 704.960453 71.586543 
L 707.106378 71.440371 
L 709.96761 70.563341 
L 710.682918 70.124826 
L 712.113535 69.686311 
L 714.259459 68.614385 
L 714.974768 68.468213 
L 715.690076 68.127146 
L 716.405384 68.029698 
L 717.836 67.493735 
L 718.551309 67.152668 
L 719.266617 67.006497 
L 719.981925 66.665429 
L 721.412541 66.275638 
L 722.12785 65.934571 
L 727.850315 64.42413 
L 729.280932 63.741995 
L 731.426856 63.206032 
L 732.142164 62.67007 
L 732.857472 62.329002 
L 733.572781 61.500696 
L 734.288089 60.964733 
L 735.718705 60.477494 
L 736.434013 59.892807 
L 744.302404 56.67703 
L 745.73302 56.335963 
L 747.163636 55.8 
L 747.163636 55.8 
" clip-path="url(#p7c0f6801b1)" style="fill: none; stroke: #1f77b4; stroke-width: 1.5; stroke-linecap: square"/>
   </g>
   <g id="line2d_44">
    <path d="M 139.151672 307.8 
L 141.297596 307.702552 
L 143.443521 307.653828 
L 147.73537 307.556381 
L 151.311911 307.410209 
L 154.173144 307.410209 
L 154.888452 307.215313 
L 157.034377 307.166589 
L 161.326226 306.67935 
L 172.055849 306.04594 
L 177.778314 305.948492 
L 181.354855 305.80232 
L 189.938554 305.704872 
L 193.515095 305.558701 
L 197.806944 305.461253 
L 200.668176 305.363805 
L 207.10595 305.266357 
L 209.251875 305.217633 
L 211.397799 305.16891 
L 213.543724 304.92529 
L 217.835573 304.876566 
L 219.26619 304.779118 
L 224.273347 304.681671 
L 232.141737 304.243155 
L 237.148894 304.145708 
L 238.579511 304.04826 
L 240.725435 303.950812 
L 245.017284 303.755916 
L 247.878517 303.707193 
L 250.024442 303.512297 
L 261.469373 302.830162 
L 264.330606 302.732715 
L 269.337763 302.489095 
L 271.483688 302.391647 
L 278.63677 302.001856 
L 286.50516 301.904408 
L 289.366392 301.612065 
L 290.797009 301.514617 
L 300.096015 300.783759 
L 304.387865 300.247796 
L 307.249097 300.150348 
L 312.971563 299.41949 
L 316.548104 299.322042 
L 325.84711 298.591183 
L 330.13896 298.103944 
L 332.284884 298.05522 
L 333.7155 297.957773 
L 336.576733 297.860325 
L 338.00735 297.762877 
L 341.583891 297.42181 
L 342.299199 297.226914 
L 346.591048 297.032019 
L 350.167589 296.934571 
L 359.466595 296.398608 
L 361.61252 296.30116 
L 370.911527 295.765197 
L 375.918684 295.667749 
L 376.633992 295.521578 
L 382.356458 295.42413 
L 387.363615 295.18051 
L 395.232005 295.083063 
L 400.239162 294.839443 
L 405.961628 294.741995 
L 412.399402 294.400928 
L 416.691251 294.30348 
L 430.282107 293.475174 
L 436.004572 293.377726 
L 439.581113 293.036659 
L 441.01173 292.890487 
L 444.58827 292.841763 
L 447.449503 292.54942 
L 454.602585 292.159629 
L 458.894434 292.062181 
L 461.040359 292.013457 
L 463.186284 291.964733 
L 465.332208 291.769838 
L 471.054674 291.67239 
L 472.48529 291.42877 
L 473.915906 291.331323 
L 476.777139 291.233875 
L 478.923064 291.136427 
L 480.35368 291.038979 
L 486.791454 290.941531 
L 488.22207 290.79536 
L 491.083303 290.697912 
L 491.798611 290.55174 
L 493.229228 290.503016 
L 493.944536 290.356845 
L 496.09046 290.259397 
L 508.2507 289.528538 
L 510.396624 289.43109 
L 513.973165 289.284919 
L 523.98748 289.187471 
L 528.994637 288.943852 
L 534.717103 288.846404 
L 537.578336 288.748956 
L 540.439568 288.700232 
L 541.870185 288.55406 
L 544.731418 288.456613 
L 551.8845 288.066821 
L 556.176349 288.018097 
L 558.322273 287.823202 
L 560.468198 287.774478 
L 565.475355 287.67703 
L 568.336588 287.579582 
L 576.920286 287.482135 
L 580.496827 287.335963 
L 584.788676 287.238515 
L 586.934601 286.994896 
L 591.22645 286.946172 
L 591.941758 286.8 
L 593.372375 286.702552 
L 596.233608 286.605104 
L 604.817306 286.507657 
L 608.393847 286.361485 
L 620.554086 286.312761 
L 621.984702 286.215313 
L 624.130627 286.166589 
L 633.429634 286.069142 
L 634.86025 285.971694 
L 642.72864 285.874246 
L 645.589873 285.776798 
L 654.173571 285.728074 
L 655.604188 285.630626 
L 666.33381 285.581903 
L 668.479735 285.387007 
L 680.639974 285.289559 
L 682.785899 285.240835 
L 701.383912 285.143387 
L 704.245145 285.04594 
L 717.120692 284.948492 
L 718.551309 284.80232 
L 724.989082 284.704872 
L 732.857472 284.266357 
L 737.149322 284.16891 
L 740.010554 284.071462 
L 743.587095 284.022738 
L 745.017712 283.92529 
L 747.163636 283.876566 
L 747.163636 283.876566 
" clip-path="url(#p7c0f6801b1)" style="fill: none; stroke: #ff7f0e; stroke-width: 1.5; stroke-linecap: square"/>
   </g>
   <g id="patch_3">
    <path d="M 108 320.4 
L 108 43.2 
" style="fill: none; stroke: #a9a9a9; stroke-width: 0.8; stroke-linejoin: miter; stroke-linecap: square"/>
   </g>
   <g id="patch_4">
    <path d="M 777.6 320.4 
L 777.6 43.2 
" style="fill: none"/>
   </g>
   <g id="patch_5">
    <path d="M 108 320.4 
L 777.6 320.4 
" style="fill: none; stroke: #a9a9a9; stroke-width: 0.8; stroke-linejoin: miter; stroke-linecap: square"/>
   </g>
   <g id="patch_6">
    <path d="M 108 43.2 
L 777.6 43.2 
" style="fill: none"/>
   </g>
   <g id="text_22">
    <!-- get_subscribe history -->
    <g style="fill: #a9a9a9" transform="translate(378.6075 37.2) scale(0.12 -0.12)">
     <defs>
      <path id="DejaVuSans-67" d="M 2906 1791 
Q 2906 2416 2648 2759 
Q 2391 3103 1925 3103 
Q 1463 3103 1205 2759 
Q 947 2416 947 1791 
Q 947 1169 1205 825 
Q 1463 481 1925 481 
Q 2391 481 2648 825 
Q 2906 1169 2906 1791 
z
M 3481 434 
Q 3481 -459 3084 -895 
Q 2688 -1331 1869 -1331 
Q 1566 -1331 1297 -1286 
Q 1028 -1241 775 -1147 
L 775 -588 
Q 1028 -725 1275 -790 
Q 1522 -856 1778 -856 
Q 2344 -856 2625 -561 
Q 2906 -266 2906 331 
L 2906 616 
Q 2728 306 2450 153 
Q 2172 0 1784 0 
Q 1141 0 747 490 
Q 353 981 353 1791 
Q 353 2603 747 3093 
Q 1141 3584 1784 3584 
Q 2172 3584 2450 3431 
Q 2728 3278 2906 2969 
L 2906 3500 
L 3481 3500 
L 3481 434 
z
" transform="scale(0.015625)"/>
      <path id="DejaVuSans-65" d="M 3597 1894 
L 3597 1613 
L 953 1613 
Q 991 1019 1311 708 
Q 1631 397 2203 397 
Q 2534 397 2845 478 
Q 3156 559 3463 722 
L 3463 178 
Q 3153 47 2828 -22 
Q 2503 -91 2169 -91 
Q 1331 -91 842 396 
Q 353 884 353 1716 
Q 353 2575 817 3079 
Q 1281 3584 2069 3584 
Q 2775 3584 3186 3129 
Q 3597 2675 3597 1894 
z
M 3022 2063 
Q 3016 2534 2758 2815 
Q 2500 3097 2075 3097 
Q 1594 3097 1305 2825 
Q 1016 2553 972 2059 
L 3022 2063 
z
" transform="scale(0.015625)"/>
      <path id="DejaVuSans-74" d="M 1172 4494 
L 1172 3500 
L 2356 3500 
L 2356 3053 
L 1172 3053 
L 1172 1153 
Q 1172 725 1289 603 
Q 1406 481 1766 481 
L 2356 481 
L 2356 0 
L 1766 0 
Q 1100 0 847 248 
Q 594 497 594 1153 
L 594 3053 
L 172 3053 
L 172 3500 
L 594 3500 
L 594 4494 
L 1172 4494 
z
" transform="scale(0.015625)"/>
      <path id="DejaVuSans-5f" d="M 3263 -1063 
L 3263 -1509 
L -63 -1509 
L -63 -1063 
L 3263 -1063 
z
" transform="scale(0.015625)"/>
      <path id="DejaVuSans-73" d="M 2834 3397 
L 2834 2853 
Q 2591 2978 2328 3040 
Q 2066 3103 1784 3103 
Q 1356 3103 1142 2972 
Q 928 2841 928 2578 
Q 928 2378 1081 2264 
Q 1234 2150 1697 2047 
L 1894 2003 
Q 2506 1872 2764 1633 
Q 3022 1394 3022 966 
Q 3022 478 2636 193 
Q 2250 -91 1575 -91 
Q 1294 -91 989 -36 
Q 684 19 347 128 
L 347 722 
Q 666 556 975 473 
Q 1284 391 1588 391 
Q 1994 391 2212 530 
Q 2431 669 2431 922 
Q 2431 1156 2273 1281 
Q 2116 1406 1581 1522 
L 1381 1569 
Q 847 1681 609 1914 
Q 372 2147 372 2553 
Q 372 3047 722 3315 
Q 1072 3584 1716 3584 
Q 2034 3584 2315 3537 
Q 2597 3491 2834 3397 
z
" transform="scale(0.015625)"/>
      <path id="DejaVuSans-75" d="M 544 1381 
L 544 3500 
L 1119 3500 
L 1119 1403 
Q 1119 906 1312 657 
Q 1506 409 1894 409 
Q 2359 409 2629 706 
Q 2900 1003 2900 1516 
L 2900 3500 
L 3475 3500 
L 3475 0 
L 2900 0 
L 2900 538 
Q 2691 219 2414 64 
Q 2138 -91 1772 -91 
Q 1169 -91 856 284 
Q 544 659 544 1381 
z
M 1991 3584 
L 1991 3584 
z
" transform="scale(0.015625)"/>
      <path id="DejaVuSans-62" d="M 3116 1747 
Q 3116 2381 2855 2742 
Q 2594 3103 2138 3103 
Q 1681 3103 1420 2742 
Q 1159 2381 1159 1747 
Q 1159 1113 1420 752 
Q 1681 391 2138 391 
Q 2594 391 2855 752 
Q 3116 1113 3116 1747 
z
M 1159 2969 
Q 1341 3281 1617 3432 
Q 1894 3584 2278 3584 
Q 2916 3584 3314 3078 
Q 3713 2572 3713 1747 
Q 3713 922 3314 415 
Q 2916 -91 2278 -91 
Q 1894 -91 1617 61 
Q 1341 213 1159 525 
L 1159 0 
L 581 0 
L 581 4863 
L 1159 4863 
L 1159 2969 
z
" transform="scale(0.015625)"/>
      <path id="DejaVuSans-63" d="M 3122 3366 
L 3122 2828 
Q 2878 2963 2633 3030 
Q 2388 3097 2138 3097 
Q 1578 3097 1268 2742 
Q 959 2388 959 1747 
Q 959 1106 1268 751 
Q 1578 397 2138 397 
Q 2388 397 2633 464 
Q 2878 531 3122 666 
L 3122 134 
Q 2881 22 2623 -34 
Q 2366 -91 2075 -91 
Q 1284 -91 818 406 
Q 353 903 353 1747 
Q 353 2603 823 3093 
Q 1294 3584 2113 3584 
Q 2378 3584 2631 3529 
Q 2884 3475 3122 3366 
z
" transform="scale(0.015625)"/>
      <path id="DejaVuSans-72" d="M 2631 2963 
Q 2534 3019 2420 3045 
Q 2306 3072 2169 3072 
Q 1681 3072 1420 2755 
Q 1159 2438 1159 1844 
L 1159 0 
L 581 0 
L 581 3500 
L 1159 3500 
L 1159 2956 
Q 1341 3275 1631 3429 
Q 1922 3584 2338 3584 
Q 2397 3584 2469 3576 
Q 2541 3569 2628 3553 
L 2631 2963 
z
" transform="scale(0.015625)"/>
      <path id="DejaVuSans-69" d="M 603 3500 
L 1178 3500 
L 1178 0 
L 603 0 
L 603 3500 
z
M 603 4863 
L 1178 4863 
L 1178 4134 
L 603 4134 
L 603 4863 
z
" transform="scale(0.015625)"/>
      <path id="DejaVuSans-20" transform="scale(0.015625)"/>
      <path id="DejaVuSans-68" d="M 3513 2113 
L 3513 0 
L 2938 0 
L 2938 2094 
Q 2938 2591 2744 2837 
Q 2550 3084 2163 3084 
Q 1697 3084 1428 2787 
Q 1159 2491 1159 1978 
L 1159 0 
L 581 0 
L 581 4863 
L 1159 4863 
L 1159 2956 
Q 1366 3272 1645 3428 
Q 1925 3584 2291 3584 
Q 2894 3584 3203 3211 
Q 3513 2838 3513 2113 
z
" transform="scale(0.015625)"/>
      <path id="DejaVuSans-6f" d="M 1959 3097 
Q 1497 3097 1228 2736 
Q 959 2375 959 1747 
Q 959 1119 1226 758 
Q 1494 397 1959 397 
Q 2419 397 2687 759 
Q 2956 1122 2956 1747 
Q 2956 2369 2687 2733 
Q 2419 3097 1959 3097 
z
M 1959 3584 
Q 2709 3584 3137 3096 
Q 3566 2609 3566 1747 
Q 3566 888 3137 398 
Q 2709 -91 1959 -91 
Q 1206 -91 779 398 
Q 353 888 353 1747 
Q 353 2609 779 3096 
Q 1206 3584 1959 3584 
z
" transform="scale(0.015625)"/>
      <path id="DejaVuSans-79" d="M 2059 -325 
Q 1816 -950 1584 -1140 
Q 1353 -1331 966 -1331 
L 506 -1331 
L 506 -850 
L 844 -850 
Q 1081 -850 1212 -737 
Q 1344 -625 1503 -206 
L 1606 56 
L 191 3500 
L 800 3500 
L 1894 763 
L 2988 3500 
L 3597 3500 
L 2059 -325 
z
" transform="scale(0.015625)"/>
     </defs>
     <use xlink:href="#DejaVuSans-67"/>
     <use xlink:href="#DejaVuSans-65" x="63.476562"/>
     <use xlink:href="#DejaVuSans-74" x="125"/>
     <use xlink:href="#DejaVuSans-5f" x="164.208984"/>
     <use xlink:href="#DejaVuSans-73" x="214.208984"/>
     <use xlink:href="#DejaVuSans-75" x="266.308594"/>
     <use xlink:href="#DejaVuSans-62" x="329.6875"/>
     <use xlink:href="#DejaVuSans-73" x="393.164062"/>
     <use xlink:href="#DejaVuSans-63" x="445.263672"/>
     <use xlink:href="#DejaVuSans-72" x="500.244141"/>
     <use xlink:href="#DejaVuSans-69" x="541.357422"/>
     <use xlink:href="#DejaVuSans-62" x="569.140625"/>
     <use xlink:href="#DejaVuSans-65" x="632.617188"/>
     <use xlink:href="#DejaVuSans-20" x="694.140625"/>
     <use xlink:href="#DejaVuSans-68" x="725.927734"/>
     <use xlink:href="#DejaVuSans-69" x="789.306641"/>
     <use xlink:href="#DejaVuSans-73" x="817.089844"/>
     <use xlink:href="#DejaVuSans-74" x="869.189453"/>
     <use xlink:href="#DejaVuSans-6f" x="908.398438"/>
     <use xlink:href="#DejaVuSans-72" x="969.580078"/>
     <use xlink:href="#DejaVuSans-79" x="1010.693359"/>
    </g>
   </g>
   <g id="legend_1">
    <g id="line2d_45">
     <path d="M 815.08 328.498438 
L 825.08 328.498438 
L 835.08 328.498438 
" style="fill: none; stroke: #1f77b4; stroke-width: 1.5; stroke-linecap: square"/>
    </g>
    <g id="text_23">
     <!-- star -->
     <g style="fill: #a9a9a9" transform="translate(843.08 331.998438) scale(0.1 -0.1)">
      <defs>
       <path id="DejaVuSans-61" d="M 2194 1759 
Q 1497 1759 1228 1600 
Q 959 1441 959 1056 
Q 959 750 1161 570 
Q 1363 391 1709 391 
Q 2188 391 2477 730 
Q 2766 1069 2766 1631 
L 2766 1759 
L 2194 1759 
z
M 3341 1997 
L 3341 0 
L 2766 0 
L 2766 531 
Q 2569 213 2275 61 
Q 1981 -91 1556 -91 
Q 1019 -91 701 211 
Q 384 513 384 1019 
Q 384 1609 779 1909 
Q 1175 2209 1959 2209 
L 2766 2209 
L 2766 2266 
Q 2766 2663 2505 2880 
Q 2244 3097 1772 3097 
Q 1472 3097 1187 3025 
Q 903 2953 641 2809 
L 641 3341 
Q 956 3463 1253 3523 
Q 1550 3584 1831 3584 
Q 2591 3584 2966 3190 
Q 3341 2797 3341 1997 
z
" transform="scale(0.015625)"/>
      </defs>
      <use xlink:href="#DejaVuSans-73"/>
      <use xlink:href="#DejaVuSans-74" x="52.099609"/>
      <use xlink:href="#DejaVuSans-61" x="91.308594"/>
      <use xlink:href="#DejaVuSans-72" x="152.587891"/>
     </g>
    </g>
    <g id="line2d_46">
     <path d="M 815.08 343.176562 
L 825.08 343.176562 
L 835.08 343.176562 
" style="fill: none; stroke: #ff7f0e; stroke-width: 1.5; stroke-linecap: square"/>
    </g>
    <g id="text_24">
     <!-- fork -->
     <g style="fill: #a9a9a9" transform="translate(843.08 346.676562) scale(0.1 -0.1)">
      <defs>
       <path id="DejaVuSans-66" d="M 2375 4863 
L 2375 4384 
L 1825 4384 
Q 1516 4384 1395 4259 
Q 1275 4134 1275 3809 
L 1275 3500 
L 2222 3500 
L 2222 3053 
L 1275 3053 
L 1275 0 
L 697 0 
L 697 3053 
L 147 3053 
L 147 3500 
L 697 3500 
L 697 3744 
Q 697 4328 969 4595 
Q 1241 4863 1831 4863 
L 2375 4863 
z
" transform="scale(0.015625)"/>
       <path id="DejaVuSans-6b" d="M 581 4863 
L 1159 4863 
L 1159 1991 
L 2875 3500 
L 3609 3500 
L 1753 1863 
L 3688 0 
L 2938 0 
L 1159 1709 
L 1159 0 
L 581 0 
L 581 4863 
z
" transform="scale(0.015625)"/>
      </defs>
      <use xlink:href="#DejaVuSans-66"/>
      <use xlink:href="#DejaVuSans-6f" x="35.205078"/>
      <use xlink:href="#DejaVuSans-72" x="96.386719"/>
      <use xlink:href="#DejaVuSans-6b" x="137.5"/>
     </g>
    </g>
   </g>
  </g>
 </g>
 <defs>
  <clipPath id="p7c0f6801b1">
   <rect x="108" y="43.2" width="669.6" height="277.2"/>
  </clipPath>
 </defs>
</svg>
